<svg width="64" height="64" viewBox="0 0 64 64" fill="none" xmlns="http://www.w3.org/2000/svg">
<rect width="64" height="64" rx="9" fill="#FFF27A"/>
<g clip-path="url(#clip0_3896_28763)">
<path d="M50.4494 33.5663H49.7298V30.7624C50.0386 30.1844 50.2018 29.5384 50.2018 28.8787C50.2018 27.3778 49.3733 26.016 48.0397 25.3249C47.5557 25.0738 47.1516 24.7075 46.8602 24.2613V22.163C46.8602 21.7989 46.565 21.5037 46.2009 21.5037C45.8367 21.5037 45.5415 21.7989 45.5415 22.163V24.261C45.2508 24.7052 44.8428 25.0736 44.3505 25.3309C43.0189 26.0262 42.1948 27.3912 42.1999 28.8931C42.2022 29.5442 42.3652 30.1833 42.6718 30.7563V33.5665H40.6727V30.6988C41.5358 29.1919 41.9914 27.4828 41.9914 25.7366C41.9914 21.9884 39.9222 18.5875 36.5914 16.8612C34.9501 16.0099 33.5949 14.7408 32.6596 13.186V9.65932C32.6596 9.29517 32.3644 9 32.0003 9C31.6361 9 31.3409 9.29517 31.3409 9.65932V13.1857C30.4105 14.7316 29.045 16.0059 27.3801 16.8761C24.0545 18.6128 21.9964 22.0215 22.0091 25.7722C22.0149 27.4951 22.4702 29.1848 23.3276 30.6797V33.5663H21.3283V30.7626C21.637 30.1846 21.8003 29.5385 21.8003 28.8787C21.8003 27.3778 20.9718 26.016 19.6384 25.3248C19.1542 25.0738 18.7501 24.7074 18.4588 24.2612V22.163C18.4588 21.7989 18.1636 21.5037 17.7995 21.5037C17.4353 21.5037 17.1401 21.7989 17.1401 22.163V24.2611C16.8494 24.7053 16.4414 25.0736 15.9491 25.3309C14.6175 26.0262 13.7934 27.3912 13.7985 28.8931C13.8008 29.5443 13.9639 30.1833 14.2704 30.7562V33.5664H13.5509C13.1868 33.5664 12.8916 33.8616 12.8916 34.2257V54.3408C12.8916 54.7049 13.1868 55.0001 13.5509 55.0001H50.4494C50.8135 55.0001 51.1087 54.7049 51.1087 54.3408V34.2256C51.1087 33.8615 50.8134 33.5663 50.4494 33.5663ZM44.961 26.4995C45.4322 26.2532 45.8504 25.9334 46.2 25.5551C46.5491 25.9344 46.9653 26.2529 47.4327 26.4955C48.3273 26.9591 48.8832 27.8723 48.8832 28.8787C48.8832 29.2543 48.8045 29.6233 48.6543 29.9631H43.75C43.5993 29.6255 43.5197 29.2598 43.5184 28.8885C43.5151 27.8813 44.0677 26.966 44.961 26.4995ZM43.9904 31.2816H48.4112V33.5662H43.9904V31.2816ZM31.9996 14.5851C32.4047 15.1532 32.8632 15.6804 33.3673 16.1624H30.6263C31.1341 15.6789 31.5944 15.1516 31.9996 14.5851ZM27.9906 18.0448C28.3228 17.8712 28.6438 17.6825 28.9543 17.4811H35.0381C35.3433 17.6783 35.6587 17.8627 35.9845 18.0316C38.8763 19.5304 40.6728 22.4827 40.6728 25.7364C40.6728 27.2149 40.2966 28.6623 39.5833 29.9459H24.4278C23.7125 28.6685 23.3327 27.2319 23.3276 25.7677C23.3166 22.5118 25.1033 19.5525 27.9906 18.0448ZM24.6461 31.2646H39.354V33.5663H24.6461V31.2646ZM16.5596 26.4995C17.0308 26.2532 17.449 25.9334 17.7985 25.5551C18.1477 25.9345 18.5639 26.2529 19.0313 26.4955C19.9259 26.9591 20.4817 27.8723 20.4817 28.8787C20.4817 29.2543 20.4031 29.6233 20.2529 29.9631H15.3486C15.1979 29.6256 15.1183 29.2599 15.1171 28.8885C15.1137 27.8813 15.6663 26.966 16.5596 26.4995ZM15.589 31.2816H20.0098V33.5662H15.589V31.2816ZM14.2102 34.8849H23.3276V53.6814H14.2102V34.8849ZM36.4724 53.6814H27.528V43.7899C27.528 42.3659 28.3655 41.0652 29.6617 40.4758L32.0002 39.4127L34.3385 40.4758C35.6347 41.0652 36.4723 42.3659 36.4723 43.7899V53.6814H36.4724ZM37.791 53.6814V43.7899C37.791 41.8502 36.6501 40.0782 34.8844 39.2755L32.2731 38.0883C32.0997 38.0094 31.9008 38.0095 31.7274 38.0883L29.116 39.2755C27.3502 40.0782 26.2093 41.8503 26.2093 43.7899V53.6814H24.6461V34.8849H39.354V53.6814H37.791ZM49.7901 53.6814H40.6727V34.8849H49.7901V53.6814Z" fill="black"/>
<path d="M19.9355 37.3758L19.0422 36.9696C18.8687 36.8908 18.6698 36.8908 18.4964 36.9696L17.6031 37.3757C16.8446 37.7204 16.3545 38.4817 16.3545 39.3149V42.6525C16.3545 43.0167 16.6497 43.3119 17.0138 43.3119H20.5246C20.8888 43.3119 21.1839 43.0167 21.1839 42.6525V39.3149C21.184 38.4817 20.6939 37.7205 19.9355 37.3758ZM19.8654 41.9932H17.6732V39.3149C17.6732 38.9975 17.86 38.7075 18.149 38.576L18.7693 38.2939L19.3898 38.576C19.6788 38.7074 19.8654 38.9974 19.8654 39.3148V41.9932Z" fill="black"/>
<path d="M19.9355 45.2875L19.0422 44.8814C18.8687 44.8026 18.6698 44.8026 18.4964 44.8814L17.6031 45.2874C16.8446 45.6322 16.3545 46.3934 16.3545 47.2266V50.5643C16.3545 50.9284 16.6497 51.2236 17.0138 51.2236H20.5246C20.8888 51.2236 21.1839 50.9284 21.1839 50.5643V47.2266C21.184 46.3934 20.6939 45.6323 19.9355 45.2875ZM19.8654 49.905H17.6732V47.2266C17.6732 46.9092 17.86 46.6192 18.149 46.4878L18.7693 46.2057L19.3898 46.4878C19.6788 46.6191 19.8654 46.9091 19.8654 47.2265V49.905Z" fill="black"/>
<path d="M43.4759 43.3118H46.9867C47.3509 43.3118 47.6461 43.0167 47.6461 42.6525V39.3149C47.6461 38.4817 47.156 37.7204 46.3975 37.3757L45.5042 36.9695C45.3308 36.8907 45.1317 36.8907 44.9584 36.9695L44.0652 37.3755C43.3065 37.7203 42.8164 38.4815 42.8164 39.3148V42.6524C42.8166 43.0167 43.1119 43.3118 43.4759 43.3118ZM44.1352 39.3149C44.1352 38.9975 44.322 38.7075 44.611 38.576L45.2313 38.2939L45.8517 38.576C46.1407 38.7074 46.3273 38.9974 46.3273 39.3149V41.9932H44.1351V39.3149H44.1352Z" fill="black"/>
<path d="M43.4759 51.2236H46.9867C47.3509 51.2236 47.6461 50.9284 47.6461 50.5643V47.2266C47.6461 46.3934 47.156 45.6322 46.3975 45.2874L45.5042 44.8813C45.3308 44.8024 45.1317 44.8024 44.9584 44.8813L44.0652 45.2873C43.3065 45.6321 42.8164 46.3932 42.8164 47.2265V50.5642C42.8166 50.9284 43.1119 51.2236 43.4759 51.2236ZM44.1352 47.2266C44.1352 46.9092 44.322 46.6192 44.611 46.4878L45.2313 46.2057L45.8517 46.4878C46.1407 46.6191 46.3273 46.9091 46.3273 47.2266V49.905H44.1351V47.2266H44.1352Z" fill="black"/>
</g>
<defs>
<clipPath id="clip0_3896_28763">
<rect width="46" height="46" fill="white" transform="translate(9 9)"/>
</clipPath>
</defs>
</svg>
