<svg width="64" height="64" viewBox="0 0 64 64" fill="none" xmlns="http://www.w3.org/2000/svg">
<rect width="64" height="64" rx="9" fill="#FFF27A"/>
<path d="M50.7167 51.2702H40.5718C40.407 51.2702 40.2488 51.2047 40.1323 51.0882C40.0157 50.9716 39.9502 50.8135 39.9502 50.6486V22.1535C39.9502 21.9886 40.0157 21.8305 40.1323 21.7139C40.2488 21.5974 40.407 21.5319 40.5718 21.5319H50.7167C50.8815 21.5319 51.0397 21.5974 51.1562 21.7139C51.2728 21.8305 51.3383 21.9886 51.3383 22.1535V50.6486C51.3383 50.8135 51.2728 50.9716 51.1562 51.0882C51.0397 51.2047 50.8815 51.2702 50.7167 51.2702ZM41.1934 50.027H50.0951V22.7751H41.1934V50.027Z" fill="black"/>
<path d="M50.7175 22.7751H40.5726C40.4772 22.7742 40.3832 22.7513 40.298 22.7081C40.2129 22.665 40.1388 22.6029 40.0815 22.5265L37.6634 19.3376C37.5814 19.2283 37.5377 19.095 37.5391 18.9584V13.3514C37.5391 13.1865 37.6046 13.0284 37.7212 12.9118C37.8377 12.7952 37.9959 12.7297 38.1607 12.7297H41.2129C41.3777 12.7297 41.5359 12.7952 41.6524 12.9118C41.769 13.0284 41.8345 13.1865 41.8345 13.3514V14.98H43.6994V13.3514C43.6994 13.1865 43.7649 13.0284 43.8814 12.9118C43.998 12.7952 44.1561 12.7297 44.321 12.7297H47.0002C47.165 12.7297 47.3232 12.7952 47.4397 12.9118C47.5563 13.0284 47.6218 13.1865 47.6218 13.3514V14.98H49.4867V13.3514C49.4867 13.1865 49.5522 13.0284 49.6687 12.9118C49.7853 12.7952 49.9434 12.7297 50.1083 12.7297H53.1356C53.3004 12.7297 53.4586 12.7952 53.5751 12.9118C53.6917 13.0284 53.7572 13.1865 53.7572 13.3514V18.946C53.7586 19.0826 53.7149 19.2158 53.6329 19.3251L51.2148 22.5141C51.1582 22.5936 51.0837 22.6586 50.9973 22.704C50.9109 22.7493 50.815 22.7737 50.7175 22.7751ZM40.8834 21.5319H50.4129L52.514 18.7532V13.973H50.6926V15.583C50.6926 15.7478 50.6271 15.906 50.5105 16.0225C50.394 16.1391 50.2358 16.2046 50.071 16.2046H46.9629C46.798 16.2046 46.6399 16.1391 46.5233 16.0225C46.4067 15.906 46.3413 15.7478 46.3413 15.583V13.973H44.9177V15.583C44.9177 15.7478 44.8522 15.906 44.7357 16.0225C44.6191 16.1391 44.461 16.2046 44.2961 16.2046H41.188C41.0231 16.2046 40.865 16.1391 40.7485 16.0225C40.6319 15.906 40.5664 15.7478 40.5664 15.583V13.973H38.7823V18.7346L40.8834 21.5319Z" fill="black"/>
<path d="M23.4276 51.2702H13.2828C13.1179 51.2702 12.9598 51.2047 12.8432 51.0882C12.7266 50.9716 12.6611 50.8135 12.6611 50.6486V22.1535C12.6611 21.9886 12.7266 21.8305 12.8432 21.7139C12.9598 21.5974 13.1179 21.5319 13.2828 21.5319H23.4276C23.5925 21.5319 23.7506 21.5974 23.8672 21.7139C23.9837 21.8305 24.0492 21.9886 24.0492 22.1535V50.6486C24.0492 50.8135 23.9837 50.9716 23.8672 51.0882C23.7506 51.2047 23.5925 51.2702 23.4276 51.2702ZM13.9044 50.027H22.806V22.7751H13.9044V50.027Z" fill="black"/>
<path d="M23.428 22.7751H13.2832C13.1867 22.7751 13.0915 22.7527 13.0052 22.7095C12.9189 22.6664 12.8438 22.6037 12.7859 22.5265L10.3678 19.3376C10.2831 19.2249 10.2393 19.0868 10.2434 18.946V13.3514C10.2434 13.1865 10.3089 13.0284 10.4255 12.9118C10.5421 12.7952 10.7002 12.7297 10.8651 12.7297H13.9172C14.0821 12.7297 14.2402 12.7952 14.3568 12.9118C14.4733 13.0284 14.5388 13.1865 14.5388 13.3514V14.98H16.4037V13.3514C16.4037 13.1865 16.4692 13.0284 16.5858 12.9118C16.7023 12.7952 16.8605 12.7297 17.0253 12.7297H19.7045C19.8694 12.7297 20.0275 12.7952 20.1441 12.9118C20.2606 13.0284 20.3261 13.1865 20.3261 13.3514V14.98H22.191V13.3514C22.191 13.1865 22.2565 13.0284 22.3731 12.9118C22.4896 12.7952 22.6478 12.7297 22.8126 12.7297H25.8772C26.0421 12.7297 26.2002 12.7952 26.3168 12.9118C26.4333 13.0284 26.4988 13.1865 26.4988 13.3514V18.946C26.5002 19.0826 26.4565 19.2158 26.3745 19.3251L23.9191 22.5265C23.8618 22.6029 23.7878 22.665 23.7026 22.7081C23.6174 22.7513 23.5235 22.7742 23.428 22.7751ZM13.5878 21.5319H23.1172L25.2183 18.7532V13.973H23.3969V15.583C23.3969 15.7478 23.3315 15.906 23.2149 16.0225C23.0983 16.1391 22.9402 16.2046 22.7753 16.2046H19.6672C19.5024 16.2046 19.3442 16.1391 19.2277 16.0225C19.1111 15.906 19.0456 15.7478 19.0456 15.583V13.973H17.6283V15.583C17.6283 15.7478 17.5628 15.906 17.4462 16.0225C17.3297 16.1391 17.1715 16.2046 17.0067 16.2046H13.8986C13.7337 16.2046 13.5756 16.1391 13.459 16.0225C13.3424 15.906 13.2769 15.7478 13.2769 15.583V13.973H11.4867V18.7346L13.5878 21.5319Z" fill="black"/>
<path d="M40.5726 26.7038H23.4283C23.2634 26.7038 23.1053 26.6383 22.9887 26.5217C22.8721 26.4052 22.8066 26.2471 22.8066 26.0822C22.8066 25.9173 22.8721 25.7592 22.9887 25.6426C23.1053 25.5261 23.2634 25.4606 23.4283 25.4606H40.5726C40.7375 25.4606 40.8956 25.5261 41.0121 25.6426C41.1287 25.7592 41.1942 25.9173 41.1942 26.0822C41.1942 26.2471 41.1287 26.4052 41.0121 26.5217C40.8956 26.6383 40.7375 26.7038 40.5726 26.7038Z" fill="black"/>
<path d="M52.8493 51.2702H11.1509C10.9861 51.2702 10.8279 51.2047 10.7114 51.0882C10.5948 50.9716 10.5293 50.8135 10.5293 50.6486C10.5293 50.4837 10.5948 50.3256 10.7114 50.209C10.8279 50.0925 10.9861 50.027 11.1509 50.027H52.8493C53.0142 50.027 53.1723 50.0925 53.2889 50.209C53.4054 50.3256 53.4709 50.4837 53.4709 50.6486C53.4709 50.8135 53.4054 50.9716 53.2889 51.0882C53.1723 51.2047 53.0142 51.2702 52.8493 51.2702Z" fill="black"/>
<path d="M36.2645 51.2703H27.7359C27.571 51.2703 27.4129 51.2048 27.2963 51.0882C27.1798 50.9717 27.1143 50.8136 27.1143 50.6487V43.2327C27.1143 42.5911 27.2406 41.9558 27.4862 41.363C27.7317 40.7702 28.0916 40.2316 28.5453 39.7779C28.999 39.3242 29.5376 38.9643 30.1304 38.7187C30.7232 38.4732 31.3586 38.3468 32.0002 38.3468C32.6418 38.3468 33.2772 38.4732 33.87 38.7187C34.4628 38.9643 35.0014 39.3242 35.4551 39.7779C35.9088 40.2316 36.2687 40.7702 36.5142 41.363C36.7598 41.9558 36.8862 42.5911 36.8862 43.2327V50.6487C36.8862 50.8136 36.8207 50.9717 36.7041 51.0882C36.5875 51.2048 36.4294 51.2703 36.2645 51.2703ZM28.3575 50.0271H35.6429V43.2327C35.6429 42.2666 35.2591 41.3401 34.576 40.657C33.8928 39.9738 32.9663 39.59 32.0002 39.59C31.0341 39.59 30.1076 39.9738 29.4244 40.657C28.7413 41.3401 28.3575 42.2666 28.3575 43.2327V50.0271Z" fill="black"/>
<path d="M47.8577 36.1524H43.5064C43.3415 36.1524 43.1834 36.0869 43.0668 35.9703C42.9503 35.8537 42.8848 35.6956 42.8848 35.5308V32.1802C42.8848 31.4383 43.1795 30.7268 43.7041 30.2022C44.2287 29.6776 44.9402 29.3829 45.6821 29.3829C46.424 29.3829 47.1355 29.6776 47.6601 30.2022C48.1846 30.7268 48.4794 31.4383 48.4794 32.1802V35.5308C48.4794 35.6956 48.4139 35.8537 48.2973 35.9703C48.1807 36.0869 48.0226 36.1524 47.8577 36.1524ZM44.128 34.9092H47.2361V32.1802C47.2361 31.7681 47.0724 31.3728 46.7809 31.0813C46.4895 30.7899 46.0942 30.6262 45.6821 30.6262C45.2699 30.6262 44.8746 30.7899 44.5832 31.0813C44.2917 31.3728 44.128 31.7681 44.128 32.1802V34.9092Z" fill="black"/>
<path d="M20.4818 36.1524H16.1304C15.9655 36.1524 15.8074 36.0869 15.6909 35.9703C15.5743 35.8537 15.5088 35.6956 15.5088 35.5308V32.1802C15.5088 31.4383 15.8035 30.7268 16.3281 30.2022C16.8527 29.6776 17.5642 29.3829 18.3061 29.3829C19.048 29.3829 19.7595 29.6776 20.2841 30.2022C20.8087 30.7268 21.1034 31.4383 21.1034 32.1802V35.5308C21.1034 35.6956 21.0379 35.8537 20.9213 35.9703C20.8047 36.0869 20.6466 36.1524 20.4818 36.1524ZM16.752 34.9092H19.8601V32.1802C19.8601 31.7681 19.6964 31.3728 19.405 31.0813C19.1135 30.7899 18.7182 30.6262 18.3061 30.6262C17.8939 30.6262 17.4986 30.7899 17.2072 31.0813C16.9158 31.3728 16.752 31.7681 16.752 32.1802V34.9092Z" fill="black"/>
</svg>
