<svg width="64" height="64" viewBox="0 0 64 64" fill="none" xmlns="http://www.w3.org/2000/svg">
<rect width="64" height="64" rx="9" fill="#FFF27A"/>
<path d="M39.1043 23.8431C39.1001 21.96 38.3487 20.1552 37.0149 18.8262C35.681 17.4968 33.8737 16.7516 31.9903 16.754C30.1073 16.7568 28.3021 17.5068 26.9721 18.84C25.6417 20.1732 24.8951 21.9797 24.8965 23.8628C24.8979 25.7462 25.6469 27.5517 26.979 28.8828C28.3111 30.2139 30.1173 30.9618 32.0004 30.9618C33.8866 30.9605 35.6949 30.2097 37.0274 28.8745C38.3598 27.5392 39.1068 25.7292 39.1044 23.843L39.1043 23.8431ZM27.8753 23.8431C27.8791 22.7499 28.3168 21.7027 29.0922 20.9323C29.8675 20.1614 30.9171 19.73 32.0106 19.7328C33.1038 19.7352 34.1513 20.1718 34.9229 20.9462C35.6944 21.7208 36.1272 22.7697 36.1258 23.8629C36.1244 24.9561 35.6895 26.0042 34.916 26.7768C34.1424 27.5493 33.0938 27.9832 32.0006 27.9832C30.9043 27.9818 29.8537 27.5448 29.0798 26.7681C28.3058 25.9917 27.8727 24.9394 27.8754 23.8431H27.8753Z" fill="black"/>
<path d="M9.0008 46.6086C9.0008 51.6127 20.915 53.8912 32.0004 53.8912C43.0858 53.8912 55 51.6127 55 46.6086C55 41.6045 43.8348 40.0608 38.3945 39.594L43.6417 31.651V31.6514C45.4094 28.9643 46.1976 25.7501 45.8728 22.5499C45.5483 19.3499 44.131 16.3598 41.8594 14.0823C39.2454 11.4686 35.6998 10 32.0027 10C28.3056 10 24.7603 11.4685 22.146 14.0823C19.8844 16.357 18.473 19.3399 18.1485 22.5312C17.824 25.7222 18.6063 28.928 20.3636 31.6114L25.6108 39.5544C20.0412 40.0703 9 41.6394 9 46.6084L9.0008 46.6086ZM24.2464 16.2069C26.3022 14.1508 29.0905 12.9955 31.9982 12.9955C34.9056 12.9955 37.6941 14.1507 39.7496 16.2069C41.5233 17.9937 42.6299 20.3345 42.8855 22.8388C43.1414 25.3435 42.5302 27.8596 41.1549 29.968L32.0002 43.868L22.8456 29.968C21.4695 27.8603 20.8576 25.3442 21.1124 22.8399C21.3673 20.3356 22.473 17.9944 24.2456 16.2069H24.2464ZM27.4831 42.4386L29.5185 45.5212C30.0705 46.3533 31.0023 46.8533 32.0007 46.8533C32.999 46.8533 33.9308 46.3532 34.4828 45.5212L36.513 42.4434C48.1196 43.1187 52.0219 45.9183 52.0219 46.6133C52.0219 46.8616 51.0987 48.1027 46.8242 49.2693C42.8829 50.3216 37.6208 50.9123 32.0015 50.9123C26.3821 50.9123 21.12 50.3216 17.1787 49.2693C12.9042 48.1176 11.981 46.8467 11.981 46.6084C11.981 45.6551 16.6125 43.0687 27.4846 42.4385L27.4831 42.4386Z" fill="black"/>
</svg>
