<svg width="64" height="64" viewBox="0 0 64 64" fill="none" xmlns="http://www.w3.org/2000/svg">
<rect width="64" height="64" rx="9" fill="#FFF27A"/>
<path d="M43.2168 35.4919C43.8967 34.8137 44.9995 34.8137 45.6769 35.4919" stroke="black" stroke-width="1.20117" stroke-miterlimit="10" stroke-linecap="round" stroke-linejoin="round"/>
<path d="M36.0712 32.6852C36.3997 33.2415 37.4006 33.2465 37.5177 33.7647C37.8946 35.4081 39.7028 35.1084 40.0186 33.9069C40.4388 32.3118 38.4243 31.4252 37.1536 31.1077C36.4557 30.8868 35.465 31.6513 36.0712 32.6852Z" stroke="black" stroke-width="1.20117" stroke-miterlimit="10" stroke-linecap="round" stroke-linejoin="round"/>
<path d="M17.6108 30.6429C16.4953 28.6057 15.8077 25.6871 17.2593 24.2824C18.306 23.2689 19.7704 23.0428 21.2933 23.4721C22.065 23.6905 22.8544 24.0767 23.6083 24.6126" stroke="black" stroke-width="1.20117" stroke-miterlimit="10" stroke-linecap="round" stroke-linejoin="round"/>
<path d="M16.4846 25.8852L12.937 22.2402C12.9013 22.2834 12.8632 22.3215 12.825 22.3621C12.089 23.0733 10.9124 23.0556 10.1993 22.3215C9.48369 21.5874 9.50147 20.4163 10.2375 19.7026C10.9735 18.9914 12.1501 19.0092 12.8632 19.7432C12.1501 19.0091 12.1679 17.8356 12.9013 17.1219C13.6399 16.4106 14.8139 16.4284 15.5295 17.1625C16.2426 17.8966 16.2248 19.0701 15.4888 19.7813C15.448 19.8194 15.4073 19.8575 15.364 19.8906L18.7842 23.4087" stroke="black" stroke-width="1.20117" stroke-miterlimit="10" stroke-linecap="round" stroke-linejoin="round"/>
<path d="M30.7285 29.4845C31.4085 28.8063 32.5087 28.8063 33.1886 29.4845" stroke="black" stroke-width="1.20117" stroke-miterlimit="10" stroke-linecap="round" stroke-linejoin="round"/>
<path d="M18.7843 35.241L18.7812 35.2379" stroke="black" stroke-width="1.20117" stroke-miterlimit="10" stroke-linecap="round" stroke-linejoin="round"/>
<path d="M31.9592 34.5242H31.9561" stroke="black" stroke-width="1.20117" stroke-miterlimit="10" stroke-linecap="round" stroke-linejoin="round"/>
<path d="M23.151 33.3557C23.5941 32.9138 24.5593 32.9391 24.8217 32.4972C25.6519 31.0925 27.3327 32.1187 27.2691 33.3176C27.208 34.4912 26.584 35.1593 24.893 34.7833C24.5671 34.7121 24.1901 34.9255 23.5993 35.0424C23.1485 35.1287 22.1171 34.3871 23.151 33.3557Z" stroke="black" stroke-width="1.20117" stroke-miterlimit="10" stroke-linecap="round" stroke-linejoin="round"/>
<path d="M13.4336 44.1233V45.7617C13.4336 46.6609 14.1721 47.4001 15.0762 47.4001H49.1436C50.0451 47.4001 50.7862 46.6609 50.7862 45.7617V44.1233" stroke="black" stroke-width="1.20117" stroke-miterlimit="10" stroke-linecap="round" stroke-linejoin="round"/>
<path d="M30.4786 39.2081H10.4717C10.1534 39.2081 9.89355 39.4672 9.89355 39.7847V41.6645C9.89355 43.0158 11.0014 44.1233 12.3563 44.1233H32.2639H51.8609C53.2158 44.1233 54.3261 43.0158 54.3261 41.6645V39.7847C54.3261 39.4672 54.0664 39.2081 53.748 39.2081H33.657" stroke="black" stroke-width="1.20117" stroke-miterlimit="10" stroke-linecap="round" stroke-linejoin="round"/>
<path d="M12.206 39.2081C12.0049 38.8372 11.8877 38.4104 11.8877 37.9583C11.8877 36.7492 12.7103 35.7307 13.8257 35.4309C13.7927 35.2633 13.7748 35.088 13.7748 34.9102C13.7748 33.4649 14.9489 32.2913 16.4005 32.2913C16.4896 32.2913 16.5787 32.2965 16.6678 32.3066C16.7722 31.5649 17.1899 30.9222 17.7807 30.5159C18.229 30.1603 18.7943 29.9494 19.4106 29.9494C19.6627 29.9494 19.9098 29.985 20.1415 30.0535C20.4853 29.0704 21.397 28.3542 22.4844 28.2983C22.8817 27.3534 23.8163 26.6904 24.9063 26.6904C25.2654 26.6904 25.6041 26.7616 25.9148 26.8911C26.2205 25.7811 27.2366 24.9657 28.4463 24.9657C28.9836 24.9657 29.4853 25.1282 29.9005 25.4051C30.3691 24.6811 31.184 24.2036 32.1085 24.2036C33.0355 24.2036 33.8504 24.6811 34.3165 25.4051C34.7342 25.1282 35.2333 24.9657 35.7732 24.9657C36.9803 24.9657 37.999 25.7811 38.3046 26.8911C38.6128 26.7616 38.954 26.6904 39.3106 26.6904C40.4031 26.6904 41.3378 27.3534 41.7325 28.2983C42.8225 28.3542 43.7342 29.0705 44.0781 30.0535C44.3098 29.985 44.5543 29.9494 44.809 29.9494C45.4253 29.9494 45.9907 30.1603 46.4388 30.5159C47.0296 30.9223 47.4448 31.565 47.5492 32.3066C47.6383 32.2965 47.7274 32.2913 47.8192 32.2913C49.2683 32.2913 50.4449 33.4649 50.4449 34.9102C50.4449 35.088 50.4271 35.2633 50.3914 35.4309C51.5094 35.7307 52.3294 36.7493 52.3294 37.9583C52.3294 38.4105 52.2148 38.8372 52.0111 39.2081" stroke="black" stroke-width="1.20117" stroke-miterlimit="10" stroke-linecap="round" stroke-linejoin="round"/>
<path d="M45.3164 27.4753C46.2841 26.8022 47.7179 26.3297 48.9836 26.2865C49.4344 26.2712 49.5388 26.4109 49.4905 26.858C49.3555 28.1738 48.4514 30.0738 47.0201 31.0594" stroke="black" stroke-width="1.20117" stroke-miterlimit="10" stroke-linecap="round" stroke-linejoin="round"/>
<path d="M45.0414 29.9595C45.8614 27.3736 44.9115 23.9953 42.7519 22.3594C42.3215 22.0343 42.217 22.0469 41.8733 22.461C40.8419 23.7031 40.2664 25.2628 40.3606 26.9062" stroke="black" stroke-width="1.20117" stroke-miterlimit="10" stroke-linecap="round" stroke-linejoin="round"/>
</svg>
