<svg width="128" height="128" viewBox="0 0 128 128" fill="none" xmlns="http://www.w3.org/2000/svg">
<g clip-path="url(#clip0_5271_37739)">
<path d="M11.5 56L3 99L11.5 115L26 119L37 113L43.5 102L45 94.5H84V100.5L87.5 110L97 116.5L110.5 117.5L120 111C121.333 107.667 124.2 100.7 125 99.5C125.8 98.3 120.667 75.6667 118 64.5L112 51.5L100.5 45.5H26L11.5 56Z" fill="#FFE700"/>
<path d="M127.604 93.7833L122.338 65.1401C120.646 52.0478 109.442 42.1897 96.2304 42.1897H31.7682C18.5571 42.1897 7.35308 52.0478 5.66041 65.1404L0.394618 93.7833C-2.22349 108.025 8.51244 121.324 22.913 121.902C36.6346 122.452 47.6589 111.249 47.702 97.8822C47.7025 97.8346 46.1538 97.8511 80.2969 97.8511C80.2969 111.172 91.3222 122.455 105.086 121.902C119.421 121.327 130.235 108.093 127.604 93.7833ZM113.486 111.437C107.305 115.79 98.7392 115.421 92.9547 109.864C89.6905 106.728 87.8185 102.333 87.8185 97.805C87.8185 93.764 84.4873 90.3295 80.2967 90.3295H47.702C43.5121 90.3295 40.1802 93.7632 40.1802 97.805C40.1802 106.979 32.6455 114.764 23.2144 114.387C14.5919 114.041 7.77906 106.984 7.50803 98.501C7.44008 96.3773 7.36486 97.4695 13.077 66.398C13.09 66.3273 13.101 66.2561 13.1098 66.1844C14.2837 56.7931 22.305 49.7113 31.768 49.7113H96.2302C105.693 49.7113 113.714 56.7931 114.888 66.1844C114.909 66.3499 114.536 64.3052 120.206 95.1435C121.407 101.666 118.48 107.921 113.486 111.437Z" fill="black"/>
<path d="M45.9471 68.2655H39.6789V61.9973C39.6789 59.9202 37.995 58.2363 35.918 58.2363C33.8409 58.2363 32.1571 59.9202 32.1571 61.9973V68.2655H25.8889C23.8118 68.2655 22.1279 69.9494 22.1279 72.0264C22.1279 74.1034 23.8118 75.7873 25.8889 75.7873H32.1571V82.0555C32.1571 84.1325 33.8409 85.8164 35.918 85.8164C37.995 85.8164 39.6789 84.1325 39.6789 82.0555V75.7873H45.9471C48.0241 75.7873 49.708 74.1034 49.708 72.0264C49.708 69.9494 48.0241 68.2655 45.9471 68.2655Z" fill="black"/>
<path d="M95.7688 61.2624C95.3035 59.0417 93.1021 57.7692 90.9875 58.3991C88.8177 59.1061 87.9268 61.2571 88.4827 63.0877C89.1712 65.2397 91.3292 66.1561 93.1713 65.595C95.1175 64.9739 96.1169 63.1213 95.7688 61.2624Z" fill="black"/>
<path d="M102.11 68.2654C100.033 68.2654 98.3486 69.9493 98.3486 72.0263V72.277C98.3486 74.3541 100.033 76.038 102.11 76.038C104.187 76.038 105.87 74.3541 105.87 72.277V72.0263C105.87 69.949 104.187 68.2654 102.11 68.2654Z" fill="black"/>
<path d="M82.0519 68.2654C79.9749 68.2654 78.291 69.9493 78.291 72.0263V72.277C78.291 74.3541 79.9749 76.038 82.0519 76.038C84.129 76.038 85.8129 74.3541 85.8129 72.277V72.0263C85.8129 69.949 84.129 68.2654 82.0519 68.2654Z" fill="black"/>
<path d="M95.769 81.321C95.3037 79.1003 93.1023 77.8278 90.9876 78.4577C88.8271 79.1617 87.9295 81.2871 88.4828 83.1488C89.2012 85.3457 91.3642 86.2041 93.1715 85.6535C95.1103 85.0348 96.1183 83.1861 95.769 81.321Z" fill="black"/>
<path d="M54.2481 26.1705C52.7793 27.6393 52.7793 30.0204 54.2481 31.4892C55.7166 32.9577 58.098 32.9577 59.5668 31.4892C62.0164 29.0396 65.9814 29.0391 68.4312 31.4892C69.9 32.958 72.2812 32.958 73.75 31.4892C75.2187 30.0204 75.2187 27.6393 73.75 26.1705C68.3736 20.7936 59.6249 20.7939 54.2481 26.1705Z" fill="black"/>
<path d="M48.2201 20.1425C56.9407 11.4219 71.0564 11.4204 79.778 20.1425C81.2465 21.6112 83.6279 21.6112 85.0967 20.1425C86.5654 18.6737 86.5654 16.2925 85.0967 14.8238C73.4368 3.16366 54.563 3.16216 42.9014 14.8238C41.4326 16.2925 41.4326 18.6737 42.9014 20.1425C44.3701 21.6112 46.7516 21.6112 48.2201 20.1425Z" fill="black"/>
</g>
<defs>
<clipPath id="clip0_5271_37739">
<rect width="128" height="128" fill="white"/>
</clipPath>
</defs>
</svg>
