<svg width="128" height="128" viewBox="0 0 128 128" fill="none" xmlns="http://www.w3.org/2000/svg">
<path d="M11.5 99.5L9.5 59H97.5C98.7 59 97 86 96 99.5L91 108.5L79.5 115H26.5L15.5 108.5L11.5 99.5Z" fill="#FFE700" stroke="black"/>
<path d="M111.385 67.6584H102.54L103.007 57.8507C103.06 56.7392 102.655 55.6541 101.888 54.8491C101.12 54.0441 100.055 53.5884 98.9431 53.5884H9.42929C8.31641 53.5884 7.25236 54.0441 6.48467 54.8491C5.71698 55.6548 5.31211 56.7392 5.36501 57.8507L7.17166 95.7496C7.61789 105.115 13.3545 112.995 21.4146 116.576H4.06903C1.82225 116.576 0 118.398 0 120.645C0 122.891 1.82225 124.714 4.06903 124.714H104.877C107.124 124.714 108.946 122.891 108.946 120.645C108.946 118.398 107.124 116.576 104.877 116.576H86.9585C93.492 113.673 98.4941 107.944 100.393 100.889H111.385C120.546 100.889 128 93.435 128 84.2736C128 75.1122 120.546 67.6584 111.385 67.6584ZM77.1901 110.506H31.183C22.6814 110.506 15.7051 103.854 15.3002 95.3617L13.697 61.7251H94.6754L93.0728 95.3617C92.668 103.854 85.6916 110.506 77.1901 110.506ZM111.385 92.7507H101.344L102.153 75.7876C102.213 75.7903 102.273 75.7964 102.334 75.7964H111.385C116.059 75.7964 119.862 79.5989 119.862 84.2736C119.862 88.9482 116.059 92.7507 111.385 92.7507Z" fill="black"/>
<path d="M42.2294 46.9186C42.8791 47.3024 43.5918 47.4855 44.2958 47.4855C45.6874 47.4855 47.0431 46.7707 47.8026 45.4863C48.9467 43.5514 48.3051 41.0565 46.3703 39.9131C44.1079 38.5757 42.5441 36.1085 42.0802 33.1449C41.5973 30.0592 42.4037 26.9858 44.2354 24.9248C44.2517 24.9065 44.268 24.8882 44.2836 24.8692C44.7264 24.3524 45.1693 23.8445 45.608 23.3406C49.3719 19.0179 53.2646 14.5495 54.3822 8.04581C54.7634 5.8309 53.2761 3.72654 51.0619 3.34608C48.847 2.96563 46.7426 4.4515 46.3622 6.66641C45.6304 10.9226 42.776 14.2002 39.4713 17.9953C39.0257 18.5066 38.5768 19.0227 38.1278 19.5462C34.7159 23.4037 33.188 28.9538 34.0405 34.4016C34.8801 39.7767 37.8654 44.3388 42.2294 46.9186Z" fill="black"/>
<path d="M54.8581 37.73C56.2015 41.1894 58.5982 44.3578 61.6072 46.6514C62.3437 47.2129 63.2104 47.4848 64.071 47.4848C65.2971 47.4848 66.5097 46.9328 67.31 45.8823C68.6724 44.0953 68.3279 41.542 66.5402 40.1796C64.7336 38.8022 63.2403 36.8362 62.4441 34.7847C60.8578 30.7001 62.3607 26.6297 67.47 21.1738C71.0921 17.3056 73.4074 12.7496 74.1649 7.99699C74.5182 5.77801 73.0066 3.69196 70.7869 3.33796C68.568 2.98395 66.4819 4.49627 66.1279 6.71593C65.62 9.90265 64.073 12.8954 61.5299 15.6115C58.8613 18.4605 50.7422 27.1309 54.8581 37.73Z" fill="black"/>
</svg>
