<svg width="89" height="89" viewBox="0 0 89 89" fill="none" xmlns="http://www.w3.org/2000/svg">
<path d="M68.4343 52.6351V30.6071C68.4343 30.1702 68.9623 29.9516 69.2712 30.2604L75.9355 36.9248C76.1269 37.1162 76.4374 37.1162 76.6288 36.9248L88.8564 24.6973C89.0478 24.5059 89.0478 24.1954 88.8564 24.004L74.1109 9.25853C70.4763 5.62396 65.5467 3.582 60.4066 3.582H28.5933C23.4532 3.582 18.5236 5.62396 14.889 9.25853L0.143539 24.004C-0.0478462 24.1954 -0.0478462 24.5059 0.143539 24.6973L12.3711 36.9248C12.5625 37.1162 12.873 37.1162 13.0644 36.9248L19.7286 30.2604C20.0375 29.9517 20.5654 30.1704 20.5654 30.6071V52.6351L48.8749 79.415H56.7084L68.4343 52.6351Z" fill="#FFFACA"/>
<path d="M38.1854 35.4707H36.6406V41.7857H38.1854V35.4707Z" fill="#121212"/>
<path d="M42.9866 30.9884C42.7584 30.8799 42.5176 30.8411 42.2657 30.8577C42.1599 30.866 42.0538 30.8756 41.948 30.8756C41.3055 30.8743 40.6631 30.8728 40.0194 30.866C38.7348 30.8522 37.4487 30.8343 36.1625 30.8165C36.0786 30.8153 35.9946 30.8042 35.9106 30.7904C35.568 30.7325 35.2353 30.7602 34.9216 30.9211C34.3963 31.188 34.0359 31.7656 34.1211 32.4532C34.1939 33.0446 34.6423 33.5481 35.2408 33.6994C35.3014 33.7145 35.3632 33.7283 35.4361 33.7449C35.4582 33.9347 35.4512 34.0958 35.3509 34.2361C35.2946 34.3145 35.2725 34.3997 35.2685 34.4932C35.259 34.7106 35.2408 34.9277 35.2356 35.1452V35.1547C35.211 35.5603 35.1544 36.2428 35.0391 36.5165C34.8684 36.9194 34.6869 38.2756 34.6869 38.2756C34.5879 38.9193 34.4889 39.5645 34.3898 40.2082C34.2896 40.8697 34.1684 41.5273 34.0528 42.1863C34.0528 42.1863 33.9578 42.9072 34.5301 43.1711C34.5301 43.1711 34.8767 43.3058 35.3651 42.8795C35.8534 42.4545 35.2565 42.0061 35.255 42.0046C35.1833 41.951 35.1436 41.7942 35.112 41.7142C34.8878 41.1447 34.9496 40.5889 34.9745 39.992C34.9883 39.662 35.0129 39.3317 35.0228 39.0002C35.0434 38.2575 35.0489 37.5105 35.1052 36.769L35.1353 36.7155L35.1864 36.7142L35.2221 36.7238C35.2193 37.1171 35.2177 37.5105 35.2193 37.9038C35.2233 39.0482 35.2384 40.1925 35.2454 41.3372C35.2454 41.4774 35.2811 41.5971 35.3611 41.7127C35.4779 41.8834 35.5963 42.051 35.7104 42.2229C35.7766 42.3232 35.9881 42.5557 35.9457 42.6824C35.9306 42.7251 35.899 42.7593 35.8688 42.7937C35.7698 42.9023 35.6695 43.0111 35.5662 43.1157C35.4576 43.2243 35.3943 43.3125 35.397 43.4718C35.4026 43.9202 35.4632 44.3757 35.5001 44.8213C35.5357 45.2793 35.5745 45.736 35.6117 46.1942C35.6446 46.6097 35.6775 47.0249 35.7107 47.4404C35.7479 47.9121 35.7876 48.3827 35.8264 48.8544C35.8593 49.2628 35.891 49.6716 35.9242 50.08C35.9614 50.5367 35.9998 50.9946 36.0355 51.4529C36.0699 51.8683 36.1016 52.2835 36.1345 52.699C36.173 53.1695 36.2114 53.6413 36.2502 54.1131C36.2831 54.5215 36.3175 54.9302 36.3464 55.3386C36.3849 55.8655 36.4605 56.391 36.4538 56.9219C36.4538 56.9508 36.4553 56.9797 36.4581 57.0071C36.5349 57.5862 37.0839 57.8448 37.4773 57.7676C37.6713 57.7304 37.8266 57.6341 37.9795 57.5133C38.1185 57.4019 38.1886 57.2685 38.2092 57.1005C38.2283 56.948 38.2476 56.7924 38.256 56.6383C38.2836 56.1226 38.3248 55.6053 38.3248 55.088C38.3648 53.7991 38.4171 52.5102 38.454 51.22C38.4623 50.9586 38.4623 50.6972 38.4706 50.4361C38.4925 49.7801 38.5189 49.1238 38.538 48.4679C38.5586 47.7759 38.5736 47.0842 38.5902 46.3935C38.593 46.2723 38.5847 46.1515 38.6013 46.033C38.6342 45.7787 38.7637 45.6093 39.0402 45.6219C39.1475 45.6274 39.2739 45.6397 39.3594 45.7154C39.5175 45.8611 39.479 46.1871 39.4913 46.3824C39.4913 46.7718 39.5258 47.1651 39.5353 47.5557C39.5449 47.9629 39.5547 48.3701 39.5682 48.7757C39.6039 49.8281 39.6427 50.879 39.6768 51.9311C39.6879 52.29 39.6974 52.6477 39.7069 53.0053C39.7069 53.0121 39.7069 53.0176 39.7085 53.0247C39.7251 53.6755 39.7429 54.3259 39.758 54.9767C39.7731 55.612 39.758 56.2517 39.7992 56.8859C39.8198 57.1968 40.0123 57.4662 40.2903 57.604C40.6013 57.7581 40.9079 57.7209 41.1954 57.5323C41.2616 57.4884 41.3095 57.4293 41.3467 57.3576C41.4156 57.2242 41.4584 57.0824 41.4735 56.9339C41.4953 56.7235 41.5107 56.5128 41.527 56.3012C41.5915 55.4429 41.6561 54.5833 41.7195 53.725C41.769 53.0345 41.8157 52.3441 41.864 51.6534C41.8791 51.4276 41.8985 51.2034 41.9151 50.978C41.9523 50.4773 41.988 49.9779 42.0236 49.4772C42.0581 49.0054 42.0925 48.5337 42.1254 48.0619C42.1627 47.5557 42.1999 47.0482 42.2368 46.542C42.2697 46.0703 42.3029 45.597 42.3386 45.1252C42.373 44.6534 42.4087 44.1829 42.4431 43.7111C42.4597 43.4002 42.1968 43.2766 41.9932 43.0853C41.8708 42.9712 41.9671 42.8804 42.051 42.7688C42.1694 42.6107 42.2903 42.4539 42.4075 42.2943C42.4748 42.2035 42.5382 42.11 42.6027 42.0166C42.6852 41.8969 42.7251 41.765 42.7211 41.6177C42.7184 41.5269 42.7144 41.4347 42.7171 41.3424C42.7556 39.9723 42.7956 38.6025 42.8356 37.2324C42.8589 36.4279 42.8823 35.6231 42.91 34.8185C42.9155 34.6795 42.8921 34.5559 42.8205 34.4347C42.731 34.2834 42.6498 34.1266 42.5701 33.9685C42.5274 33.8818 42.4767 33.7938 42.5056 33.6782C42.58 33.6616 42.6541 33.6437 42.7298 33.6259C43.3156 33.4801 43.7354 32.989 43.7889 32.3674C43.8357 31.816 43.5414 31.252 42.9884 30.9878L42.9866 30.9884ZM38.7459 41.2895C38.7459 41.8259 38.3125 42.2592 37.7762 42.2592H37.1408C36.6045 42.2592 36.1711 41.8259 36.1711 41.2895V35.7861C36.1711 35.2509 36.6045 34.8164 37.1408 34.8164H37.7762C38.3125 34.8164 38.7459 35.2509 38.7459 35.7861V41.2895ZM41.984 41.2895C41.984 41.8259 41.5506 42.2592 41.0143 42.2592H40.3789C39.8426 42.2592 39.4092 41.8259 39.4092 41.2895V35.7861C39.4092 35.2509 39.8426 34.8164 40.3789 34.8164H41.0143C41.5506 34.8164 41.984 35.2509 41.984 35.7861V41.2895ZM39.8795 41.7862H41.4242V35.4711H39.8795V41.7862Z" fill="#121212"/>
<path d="M49.2517 32.1167C50.9181 32.1167 52.269 30.6315 52.269 28.7995C52.269 26.9675 50.9181 25.4824 49.2517 25.4824C47.5853 25.4824 46.2344 26.9675 46.2344 28.7995C46.2344 30.6315 47.5853 32.1167 49.2517 32.1167Z" fill="#121212"/>
<path d="M56.4288 33.8549C56.4103 33.9822 56.4558 34.0868 56.5124 34.184C56.5727 34.2873 56.641 34.387 56.7142 34.4817C57.109 34.9934 57.4246 35.5513 57.6866 36.1409C57.7324 36.2439 57.7715 36.3503 57.8099 36.4564C57.8776 36.644 57.9133 36.8368 57.9102 37.0374C57.8966 37.892 57.8856 38.7467 57.8733 39.601C57.8711 39.7422 57.8671 39.8837 57.8622 40.0248C57.8302 40.9142 57.8007 41.8036 57.7632 42.6927C57.7515 42.9677 57.7149 43.2414 57.6952 43.5157C57.6848 43.6593 57.6232 43.7744 57.5162 43.8632C57.2948 44.0472 57.0552 44.1739 56.7511 44.1748C55.8398 44.1776 54.9286 44.1954 54.0173 44.2065C53.9481 44.2074 53.8792 44.2015 53.799 44.1982C53.7907 44.1459 53.7814 44.1062 53.7793 44.0659C53.7762 44.0096 53.7781 43.953 53.7781 43.8965C53.7781 39.8627 53.7799 35.8293 53.7734 31.7956C53.7731 31.533 53.8479 31.3125 53.9856 31.1018C54.3925 30.4796 55.1355 30.1183 55.9558 30.2828C56.7369 30.4394 57.3274 31.0575 57.4393 31.8356C57.5553 32.6411 57.2591 33.2721 56.5942 33.7347C56.5481 33.7667 56.5001 33.7968 56.4534 33.8282C56.4478 33.8319 56.4438 33.8386 56.4297 33.8549H56.4288Z" fill="#121212"/>
<path d="M48.2687 45.7459C48.2687 42.2415 48.2702 38.7374 48.2656 35.2329C48.2653 34.978 48.3151 34.7424 48.4255 34.5176C48.7989 33.7589 49.4014 33.3099 50.2407 33.185C51.4272 33.0082 52.6604 33.8278 52.8569 35.1397C52.8797 35.2926 52.8837 35.4488 52.8871 35.6038C52.8911 35.7945 52.8831 35.9852 52.8846 36.1758C52.8935 37.2781 52.9101 38.38 52.912 39.4822C52.9135 40.3793 52.9006 41.2767 52.8886 42.1738C52.8834 42.5696 52.8541 42.9645 52.7631 43.3514C52.7327 43.4812 52.6899 43.6097 52.6386 43.7331C52.534 43.984 52.3522 44.1642 52.1087 44.2869C51.596 44.545 51.3853 44.994 51.329 45.538C51.3029 47.0072 51.2762 48.4766 51.2503 49.9457C51.2279 51.2171 51.2079 52.4888 51.1845 53.7602C51.1673 54.6926 51.1442 55.6248 51.1304 56.5572C51.1279 56.7147 51.0806 56.846 50.9904 56.9684C50.6442 57.4384 50.1761 57.6665 49.5976 57.6149C49.0197 57.5632 48.5972 57.2594 48.3397 56.7341C48.289 56.6304 48.2622 56.5228 48.2681 56.4069C48.2712 56.3435 48.2687 56.2798 48.2687 56.2162C48.2687 52.7259 48.2687 49.2359 48.2687 45.7456V45.7459Z" fill="#121212"/>
<path d="M41.6991 28.3302C41.7179 29.1141 41.418 29.8298 40.9198 30.3535C40.8189 30.4596 40.6778 30.5181 40.5314 30.5181H37.1921C37.046 30.5181 36.9049 30.4596 36.8043 30.3538C36.3202 29.8448 36.0234 29.1569 36.0234 28.3997C36.0234 26.7851 37.3708 25.4857 39.0023 25.5639C40.4714 25.6343 41.6641 26.8592 41.6994 28.3299L41.6991 28.3302Z" fill="#121212"/>
<path d="M43.1442 36.7348C43.1427 37.1666 43.1402 37.5987 43.1393 38.0305C43.1384 38.4601 43.1368 38.8898 43.1362 39.3194C43.1362 39.3434 43.1362 39.3674 43.1362 39.3917C43.1356 39.8958 43.1734 40.4118 43.1399 40.9202C43.123 41.1785 43.0873 41.4368 43.0178 41.6866C42.9486 41.9357 42.8198 42.1362 42.6737 42.3475C42.5537 42.5209 42.4375 42.6704 42.5599 42.8808C42.6669 43.0644 42.9031 43.2664 43.1052 43.3319C43.278 43.3879 43.4551 43.3381 43.5818 43.2104C43.9494 42.8405 43.838 42.389 43.7919 41.9252C43.6646 40.6477 43.4711 39.3779 43.3515 38.0994C43.2968 37.6476 43.2688 37.1931 43.2279 36.7401C43.2279 36.7401 43.1857 36.6429 43.1439 36.7348H43.1442Z" fill="#121212"/>
<path d="M65.3815 29.9508C63.8656 28.4349 61.2734 29.5085 61.2734 31.6525V57.9737L68.4364 52.6356V33.0057L65.3815 29.9508Z" fill="#FFF27A"/>
<path d="M88.8556 24.0045L74.1101 9.25898C71.6546 6.80349 68.6079 5.07494 65.3047 4.21188C65.8768 4.66679 66.4254 5.15577 66.9472 5.6776L74.8214 13.5518C78.8078 17.5382 78.8078 24.0013 74.8214 27.9876L70.9093 31.8997L75.9348 36.9253C76.1262 37.1167 76.4366 37.1167 76.628 36.9253L88.8556 24.6977C89.047 24.5061 89.047 24.1959 88.8556 24.0045Z" fill="#FFF27A"/>
<path d="M45.905 75.7823L43.4375 77.467C44.0551 78.0125 44.3979 78.7045 44.4992 79.416H61.7852L57.564 69.6308C54.7643 73.0923 50.6088 75.412 45.905 75.7823Z" fill="#FFF27A"/>
<path d="M28.3424 52.6348L20.5664 53.9531V50.5095C20.5664 49.2083 21.6214 48.1533 22.9226 48.1533H25.986C27.2873 48.1533 28.3423 49.2083 28.3423 50.5095V52.6348H28.3424Z" fill="#E8D200"/>
<path d="M47.8131 77.4657L42.746 72.9905L37.9712 70.8125C28.3578 72.3114 20.5998 73.0477 10.9864 71.5488L6.16096 72.9905L1.09387 77.4657C-0.886728 79.215 -0.042445 82.473 2.53873 83.0401C16.9765 86.2114 31.9306 86.2114 46.3684 83.0401C48.9494 82.473 49.7939 79.2151 47.8131 77.4657Z" fill="#FFF27A"/>
<path d="M47.814 77.4661L42.7469 72.9909L40.7023 72.0547L40.1054 73.4027L40.651 73.8845C42.6316 75.6338 41.7874 78.8918 39.2062 79.4589C26.317 82.29 13.0165 82.5937 0.0390625 80.3699C0.229578 81.6077 1.12305 82.7293 2.53941 83.0404C16.9772 86.2117 31.9313 86.2117 46.3691 83.0404C48.9503 82.4734 49.7948 79.2155 47.814 77.4661Z" fill="#FFE700"/>
<path d="M60.0029 3.582H29C29 12.1295 35.954 19.0835 44.5015 19.0835C53.0489 19.0835 60.0029 12.1295 60.0029 3.582Z" fill="#E8D200"/>
<path d="M55.526 3.582C55.526 9.67068 50.5901 14.6067 44.5013 14.6067C38.4124 14.6067 33.4766 9.67085 33.4766 3.582H55.526Z" fill="#FFE700"/>
<path d="M20.5649 15.8254C20.5649 15.0835 19.9636 14.4824 19.2219 14.4824C18.48 14.4824 17.8789 15.0837 17.8789 15.8254V32.1096L19.7281 30.2602C20.037 29.9515 20.5649 30.1702 20.5649 30.6069V15.8254Z" fill="#FFF27A"/>
<path d="M71.1196 15.8254C71.1196 15.0835 70.5183 14.4824 69.7766 14.4824C69.0349 14.4824 68.4336 15.0837 68.4336 15.8254V30.6069C68.4336 30.1702 68.9615 29.9515 69.2704 30.2602L71.1198 32.1096V15.8254H71.1196Z" fill="#FFF27A"/>
<path d="M79.783 54.1567C79.0411 54.1567 78.44 53.5554 78.44 52.8137V51.7641C78.44 48.1412 75.4926 45.1938 71.8696 45.1938C68.2467 45.1938 65.2993 48.1412 65.2993 51.7641V52.8137C65.2993 53.5556 64.698 54.1567 63.9563 54.1567C63.2144 54.1567 62.6133 53.5554 62.6133 52.8137V51.7641C62.6133 46.6602 66.7657 42.5078 71.8696 42.5078C76.9736 42.5078 81.126 46.6602 81.126 51.7641V52.8137C81.126 53.5556 80.5247 54.1567 79.783 54.1567Z" fill="#F4DD45"/>
<path d="M42.7451 72.9905L38.9598 73.5807C29.3464 75.0796 19.5588 75.0796 9.94544 73.5807L6.16016 72.9905V64.5489C6.16016 57.9688 11.4942 52.6347 18.0743 52.6347H30.8309C37.411 52.6347 42.7451 57.9688 42.7451 64.5489V72.9905Z" fill="#FFF27A"/>
<path d="M32.2664 52.7207C34.32 54.8612 35.5821 57.7671 35.5821 60.9678V65.5784C35.5821 67.7836 33.9756 69.6599 31.7969 69.9997C23.3073 71.3234 14.6817 71.4781 6.16016 70.464V72.9909L9.94544 73.5811C19.5588 75.08 29.3464 75.08 38.9598 73.5811L42.7451 72.9909V64.5493C42.7452 58.4551 38.1696 53.4297 32.2664 52.7207Z" fill="#FFE700"/>
<path d="M36.2102 54.2889C38.1798 56.9643 39.2645 60.4996 39.2645 64.2437V73.5336L38.9615 73.5809C38.1682 73.7046 37.3738 73.818 36.5783 73.9212V64.2437C36.5783 57.8437 32.9046 52.6366 28.3884 52.6347H30.8326C32.5831 52.6347 34.2454 53.0123 35.7426 53.6904C35.9023 53.883 36.0582 54.0825 36.2102 54.2889ZM18.0762 52.6347C16.3258 52.6347 14.6635 53.0123 13.1663 53.6904C13.0067 53.883 12.8508 54.0825 12.6989 54.2889C10.7292 56.9643 9.64453 60.4996 9.64453 64.2437V73.5336L9.94751 73.5809C10.7407 73.7046 11.5353 73.818 12.3307 73.9212V64.2437C12.3307 57.8437 16.0044 52.6366 20.5206 52.6347H18.0762Z" fill="#E8D200"/>
<path d="M35.7401 53.6906C34.6585 53.2008 33.4906 52.8677 32.2656 52.7207C33.5693 54.0797 34.5541 55.747 35.0994 57.6025C36.0295 59.4855 36.5759 61.7759 36.5759 64.2439V73.9214C37.3713 73.8182 38.1657 73.7047 38.9591 73.5811L39.262 73.5338V64.2439C39.262 60.5 38.1773 56.9647 36.2077 54.2891C36.0556 54.0828 35.8997 53.8832 35.7401 53.6906Z" fill="#E8D200"/>
<path d="M12.3268 73.9212V70.9927C11.4309 70.9455 10.5353 70.8855 9.64062 70.8125V73.5336L9.94361 73.5809C10.7368 73.7044 11.5314 73.818 12.3268 73.9212Z" fill="#E8D200"/>
<path d="M86.7158 84.8513H57.0191C56.5955 84.8513 56.2628 84.4884 56.2997 84.0662L58.9919 53.2939C59.0246 52.9209 59.337 52.6347 59.7114 52.6347H84.0235C84.3979 52.6347 84.7103 52.9209 84.743 53.2939L87.4352 84.0662C87.4721 84.4884 87.1394 84.8513 86.7158 84.8513Z" fill="#FFED43"/>
<path d="M87.4349 84.0663L84.7428 53.2941C84.7102 52.921 84.398 52.6347 84.0234 52.6347H77.8354L79.7192 74.166C80.0533 77.985 77.0433 81.2698 73.2097 81.2698H56.5443L56.2997 84.0662C56.2627 84.4882 56.5954 84.8513 57.0192 84.8513H86.7156C87.1392 84.8513 87.4719 84.4884 87.4349 84.0663Z" fill="#FFE700"/>
<path d="M79.114 67.2312C79.5783 66.7785 79.459 66.0401 78.9805 65.706L79.114 67.2312Z" fill="#F1D333"/>
</svg>
