<svg width="101" height="101" viewBox="0 0 101 101" fill="none" xmlns="http://www.w3.org/2000/svg">
<g clip-path="url(#clip0_6807_24795)">
<path d="M48.687 78.3332H12.4981C9.00038 78.3332 6.16504 75.5275 6.16504 72.0668V65.8H54.7703L48.687 78.3332Z" fill="#D3DCFB"/>
<path d="M88.5044 28.2V54.527V72.0664H12.4981C9.00038 72.0664 6.16504 69.2607 6.16504 65.7998V28.2L50.5015 12.5332L88.5044 28.2Z" fill="#EBF5FC"/>
<path d="M17.3499 40.7334H13.9854C13.1656 40.7334 12.501 40.0758 12.501 39.2647V35.9355C12.501 35.1244 13.1656 34.4668 13.9854 34.4668H17.3499C18.1696 34.4668 18.8342 35.1244 18.8342 35.9355V39.2647C18.8342 40.0758 18.1696 40.7334 17.3499 40.7334Z" fill="#3C58A0"/>
<path d="M30.0164 40.7334H26.6519C25.8321 40.7334 25.1675 40.0758 25.1675 39.2647V35.9355C25.1675 35.1244 25.8321 34.4668 26.6519 34.4668H30.0164C30.8361 34.4668 31.5008 35.1244 31.5008 35.9355V39.2647C31.5008 40.0758 30.8361 40.7334 30.0164 40.7334Z" fill="#3C58A0"/>
<path d="M42.6834 40.7334H39.3188C38.4991 40.7334 37.8345 40.0758 37.8345 39.2647V35.9355C37.8345 35.1244 38.4991 34.4668 39.3188 34.4668H42.6834C43.5031 34.4668 44.1677 35.1244 44.1677 35.9355V39.2647C44.1677 40.0758 43.5033 40.7334 42.6834 40.7334Z" fill="#3C58A0"/>
<path d="M55.3499 40.7334H51.9854C51.1656 40.7334 50.501 40.0758 50.501 39.2647V35.9355C50.501 35.1244 51.1656 34.4668 51.9854 34.4668H55.3499C56.1696 34.4668 56.8342 35.1244 56.8342 35.9355V39.2647C56.8342 40.0758 56.1696 40.7334 55.3499 40.7334Z" fill="#3C58A0"/>
<path d="M68.0144 40.7334H64.6499C63.8302 40.7334 63.1655 40.0758 63.1655 39.2647V35.9355C63.1655 35.1244 63.8302 34.4668 64.6499 34.4668H68.0144C68.8342 34.4668 69.4988 35.1244 69.4988 35.9355V39.2647C69.4988 40.0758 68.8344 40.7334 68.0144 40.7334Z" fill="#3C58A0"/>
<path d="M80.6809 40.7334H77.3164C76.4967 40.7334 75.832 40.0758 75.832 39.2647V35.9355C75.832 35.1244 76.4967 34.4668 77.3164 34.4668H80.6809C81.5007 34.4668 82.1653 35.1244 82.1653 35.9355V39.2647C82.1653 40.0758 81.5007 40.7334 80.6809 40.7334Z" fill="#3C58A0"/>
<path d="M17.3499 53.2666H13.9854C13.1656 53.2666 12.501 52.609 12.501 51.7979V48.4688C12.501 47.6576 13.1656 47 13.9854 47H17.3499C18.1696 47 18.8342 47.6576 18.8342 48.4688V51.7979C18.8342 52.6092 18.1696 53.2666 17.3499 53.2666Z" fill="#3C58A0"/>
<path d="M30.0164 53.2666H26.6519C25.8321 53.2666 25.1675 52.609 25.1675 51.7979V48.4688C25.1675 47.6576 25.8321 47 26.6519 47H30.0164C30.8361 47 31.5008 47.6576 31.5008 48.4688V51.7979C31.5008 52.6092 30.8361 53.2666 30.0164 53.2666Z" fill="#3C58A0"/>
<path d="M42.6834 53.2666H39.3188C38.4991 53.2666 37.8345 52.609 37.8345 51.7979V48.4688C37.8345 47.6576 38.4991 47 39.3188 47H42.6834C43.5031 47 44.1677 47.6576 44.1677 48.4688V51.7979C44.1677 52.6092 43.5033 53.2666 42.6834 53.2666Z" fill="#3C58A0"/>
<path d="M56.8342 53.2666V48.5666C56.8342 47.7013 56.1255 47 55.251 47H52.0843C51.2098 47 50.501 47.7013 50.501 48.5666V51.7C50.501 52.5653 51.21 53.2666 52.0843 53.2666H56.8342Z" fill="#3C58A0"/>
<path d="M17.3499 65.8H13.9854C13.1656 65.8 12.501 65.1424 12.501 64.3313V61.0022C12.501 60.191 13.1656 59.5334 13.9854 59.5334H17.3499C18.1696 59.5334 18.8342 60.191 18.8342 61.0022V64.3313C18.8342 65.1424 18.1696 65.8 17.3499 65.8Z" fill="#3C58A0"/>
<path d="M30.0164 65.8H26.6519C25.8321 65.8 25.1675 65.1424 25.1675 64.3313V61.0022C25.1675 60.191 25.8321 59.5334 26.6519 59.5334H30.0164C30.8361 59.5334 31.5008 60.191 31.5008 61.0022V64.3313C31.5008 65.1424 30.8361 65.8 30.0164 65.8Z" fill="#3C58A0"/>
<path d="M42.6834 65.8H39.3188C38.4991 65.8 37.8345 65.1424 37.8345 64.3313V61.0022C37.8345 60.191 38.4991 59.5334 39.3188 59.5334H42.6834C43.5031 59.5334 44.1677 60.191 44.1677 61.0022V64.3313C44.1677 65.1424 43.5033 65.8 42.6834 65.8Z" fill="#3C58A0"/>
<path d="M80.6364 34.4666H77.3615C77.1633 34.4666 76.9746 34.5052 76.8008 34.5729C77.3676 34.7943 77.7691 35.34 77.7691 35.9796V39.22C77.7691 39.8597 77.3674 40.4053 76.8008 40.6267C76.9746 40.6947 77.1633 40.7332 77.3615 40.7332H80.6364C81.481 40.7332 82.1657 40.0558 82.1657 39.2202V35.9798C82.1655 35.1441 81.4808 34.4666 80.6364 34.4666Z" fill="#2A428C"/>
<path d="M67.9689 34.4666H64.694C64.4959 34.4666 64.3072 34.5052 64.1333 34.5729C64.7001 34.7943 65.1017 35.34 65.1017 35.9796V39.22C65.1017 39.8597 64.7 40.4053 64.1333 40.6267C64.3072 40.6947 64.4959 40.7332 64.694 40.7332H67.9689C68.8135 40.7332 69.498 40.0558 69.498 39.2202V35.9798C69.498 35.1441 68.8135 34.4666 67.9689 34.4666Z" fill="#2A428C"/>
<path d="M55.3049 34.4666H52.03C51.8318 34.4666 51.6431 34.5052 51.4692 34.5729C52.0361 34.7943 52.4378 35.34 52.4378 35.9796V39.22C52.4378 39.8597 52.0361 40.4053 51.4692 40.6267C51.6431 40.6947 51.8318 40.7332 52.03 40.7332H55.3049C56.1495 40.7332 56.8341 40.0558 56.8341 39.2202V35.9798C56.834 35.1441 56.1493 34.4666 55.3049 34.4666Z" fill="#2A428C"/>
<path d="M42.6384 34.4666H39.3635C39.1653 34.4666 38.9766 34.5052 38.8027 34.5729C39.3696 34.7943 39.7713 35.34 39.7713 35.9796V39.22C39.7713 39.8597 39.3696 40.4053 38.8027 40.6267C38.9766 40.6947 39.1653 40.7332 39.3635 40.7332H42.6384C43.483 40.7332 44.1676 40.0558 44.1676 39.2202V35.9798C44.1675 35.1441 43.483 34.4666 42.6384 34.4666Z" fill="#2A428C"/>
<path d="M29.9714 34.4666H26.6965C26.4983 34.4666 26.3096 34.5052 26.1357 34.5729C26.7026 34.7943 27.1041 35.34 27.1041 35.9796V39.22C27.1041 39.8597 26.7024 40.4053 26.1357 40.6267C26.3096 40.6947 26.4983 40.7332 26.6965 40.7332H29.9714C30.816 40.7332 31.5006 40.0558 31.5006 39.2202V35.9798C31.5006 35.1441 30.816 34.4666 29.9714 34.4666Z" fill="#2A428C"/>
<path d="M17.3044 34.4666H14.0295C13.8313 34.4666 13.6426 34.5052 13.4688 34.5729C14.0356 34.7943 14.4373 35.34 14.4373 35.9796V39.22C14.4373 39.8597 14.0356 40.4053 13.4688 40.6267C13.6426 40.6947 13.8313 40.7332 14.0295 40.7332H17.3044C18.149 40.7332 18.8337 40.0558 18.8337 39.2202V35.9798C18.8335 35.1441 18.1488 34.4666 17.3044 34.4666Z" fill="#2A428C"/>
<path d="M17.3044 47H14.0295C13.8313 47 13.6426 47.0386 13.4688 47.1063C14.0356 47.3277 14.4373 47.8734 14.4373 48.513V51.7536C14.4373 52.3932 14.0356 52.9389 13.4688 53.1603C13.6426 53.2282 13.8313 53.2668 14.0295 53.2668H17.3044C18.149 53.2668 18.8337 52.5893 18.8337 51.7538V48.5132C18.8335 47.6775 18.1488 47 17.3044 47Z" fill="#2A428C"/>
<path d="M17.3044 59.5334H14.0295C13.8313 59.5334 13.6426 59.5719 13.4688 59.6397C14.0356 59.8611 14.4373 60.4067 14.4373 61.0464V64.287C14.4373 64.9266 14.0356 65.4723 13.4688 65.6937C13.6426 65.7616 13.8313 65.8002 14.0295 65.8002H17.3044C18.149 65.8002 18.8337 65.1227 18.8337 64.2872V61.0466C18.8335 60.2107 18.1488 59.5334 17.3044 59.5334Z" fill="#2A428C"/>
<path d="M29.9714 47H26.6965C26.4983 47 26.3096 47.0386 26.1357 47.1063C26.7026 47.3277 27.1041 47.8734 27.1041 48.513V51.7536C27.1041 52.3932 26.7024 52.9389 26.1357 53.1603C26.3096 53.2282 26.4983 53.2668 26.6965 53.2668H29.9714C30.816 53.2668 31.5006 52.5893 31.5006 51.7538V48.5132C31.5006 47.6775 30.816 47 29.9714 47Z" fill="#2A428C"/>
<path d="M29.9714 59.5334H26.6965C26.4983 59.5334 26.3096 59.5719 26.1357 59.6397C26.7026 59.8611 27.1041 60.4067 27.1041 61.0464V64.287C27.1041 64.9266 26.7024 65.4723 26.1357 65.6937C26.3096 65.7616 26.4983 65.8002 26.6965 65.8002H29.9714C30.816 65.8002 31.5006 65.1227 31.5006 64.2872V61.0466C31.5006 60.2107 30.816 59.5334 29.9714 59.5334Z" fill="#2A428C"/>
<path d="M42.6384 47H39.3635C39.1653 47 38.9766 47.0386 38.8027 47.1063C39.3696 47.3277 39.7713 47.8734 39.7713 48.513V51.7536C39.7713 52.3932 39.3696 52.9389 38.8027 53.1603C38.9766 53.2282 39.1653 53.2668 39.3635 53.2668H42.6384C43.483 53.2668 44.1676 52.5893 44.1676 51.7538V48.5132C44.1675 47.6775 43.483 47 42.6384 47Z" fill="#2A428C"/>
<path d="M56.8341 53.2666V48.513C56.8341 47.6773 56.1495 47 55.3049 47H52.03C51.8318 47 51.6431 47.0386 51.4692 47.1063C52.0361 47.3277 52.4378 47.8734 52.4378 48.513V51.7536C52.4378 52.3932 52.0361 52.9389 51.4692 53.1603C51.6431 53.2282 51.8318 53.2668 52.03 53.2668H56.8341V53.2666Z" fill="#2A428C"/>
<path d="M42.6384 59.5334H39.3635C39.1653 59.5334 38.9766 59.5719 38.8027 59.6397C39.3696 59.8611 39.7713 60.4067 39.7713 61.0464V64.287C39.7713 64.9266 39.3696 65.4723 38.8027 65.6937C38.9766 65.7616 39.1653 65.8002 39.3635 65.8002H42.6384C43.483 65.8002 44.1676 65.1227 44.1676 64.2872V61.0466C44.1675 60.2107 43.483 59.5334 42.6384 59.5334Z" fill="#2A428C"/>
<path d="M84.105 26.3863V54.527V72.0666H88.5045V54.527V28.2L84.105 26.3863Z" fill="#D3DCFB"/>
<path d="M88.5044 28.2V12.5332C88.5044 9.07228 85.6689 6.26678 82.1713 6.26678H12.4981C9.00038 6.26678 6.16504 9.07228 6.16504 12.5332V28.2H88.5044Z" fill="#FF4155"/>
<path d="M26.1208 13.9518H21.9985C21.2066 13.9518 20.5649 13.3168 20.5649 12.5334C20.5649 11.75 21.2067 11.115 21.9985 11.115H26.1208C26.9127 11.115 27.5543 11.75 27.5543 12.5334C27.5543 13.3168 26.9125 13.9518 26.1208 13.9518Z" fill="#E80054"/>
<path d="M36.2482 13.9518H32.1259C31.334 13.9518 30.6924 13.3168 30.6924 12.5334C30.6924 11.75 31.3342 11.115 32.1259 11.115H36.2482C37.0401 11.115 37.6817 11.75 37.6817 12.5334C37.6817 13.3168 37.0401 13.9518 36.2482 13.9518Z" fill="#E80054"/>
<path d="M62.5394 13.9518H58.4169C57.625 13.9518 56.9834 13.3168 56.9834 12.5334C56.9834 11.75 57.6252 11.115 58.4169 11.115H62.5394C63.3313 11.115 63.973 11.75 63.973 12.5334C63.973 13.3168 63.3313 13.9518 62.5394 13.9518Z" fill="#E80054"/>
<path d="M72.6673 13.9518H68.5449C67.753 13.9518 67.1113 13.3168 67.1113 12.5334C67.1113 11.75 67.7531 11.115 68.5449 11.115H72.6673C73.4593 11.115 74.1009 11.75 74.1009 12.5334C74.1009 13.3168 73.4591 13.9518 72.6673 13.9518Z" fill="#E80054"/>
<path d="M33.0821 11.75C33.0821 13.9131 31.3099 15.6666 29.1238 15.6666C26.9377 15.6666 25.1655 13.9131 25.1655 11.75V3.91661C25.1653 1.7535 26.9375 0 29.1236 0C31.3097 0 33.0819 1.7535 33.0819 3.91661V11.75H33.0821Z" fill="#EBF5FC"/>
<path d="M69.5007 11.75C69.5007 13.9131 67.7286 15.6666 65.5424 15.6666C63.3563 15.6666 61.584 13.9131 61.584 11.75V3.91661C61.584 1.7535 63.3561 0 65.5423 0C67.7284 0 69.5005 1.7535 69.5005 3.91661V11.75H69.5007Z" fill="#EBF5FC"/>
<path d="M65.5423 0C64.7296 0 63.9748 0.243078 63.3462 0.658734C64.4084 1.36116 65.1085 2.55764 65.1085 3.91679V11.75C65.1085 13.109 64.4084 14.3056 63.3462 15.0081C63.9746 15.4235 64.7296 15.6668 65.5423 15.6668C67.7284 15.6668 69.5006 13.9133 69.5006 11.7502V3.91661C69.5008 1.7535 67.7286 0 65.5423 0Z" fill="#D3DCFB"/>
<path d="M29.1234 0C28.3107 0 27.5559 0.243078 26.9272 0.658734C27.9895 1.36116 28.6896 2.55764 28.6896 3.91679V11.75C28.6896 13.109 27.9895 14.3056 26.9272 15.0081C27.5557 15.4235 28.3107 15.6668 29.1234 15.6668C31.3095 15.6668 33.0816 13.9133 33.0816 11.7502V3.91661C33.0818 1.7535 31.3097 0 29.1234 0Z" fill="#D3DCFB"/>
<path d="M82.1715 6.2666H77.7734C81.2712 6.2666 84.1065 9.0721 84.1065 12.533V28.2H88.5044V12.5332C88.5045 9.07228 85.669 6.2666 82.1715 6.2666Z" fill="#E80054"/>
<path d="M6.16504 20.5148H88.5046V23.3518H6.16504V20.5148Z" fill="#E80054"/>
<path d="M71.085 94C84.2017 94 94.835 83.4787 94.835 70.5C94.835 57.5213 84.2017 47 71.085 47C57.9682 47 47.335 57.5213 47.335 70.5C47.335 83.4787 57.9682 94 71.085 94Z" fill="#4FABF7"/>
<path d="M71.0847 87.7334C80.7037 87.7334 88.5014 80.0177 88.5014 70.5C88.5014 60.9823 80.7037 53.2666 71.0847 53.2666C61.4657 53.2666 53.668 60.9823 53.668 70.5C53.668 80.0177 61.4657 87.7334 71.0847 87.7334Z" fill="#EBF5FC"/>
<path d="M71.0854 68.7851C70.2935 68.7851 69.6519 68.15 69.6519 67.3666V59.5332C69.6519 58.7498 70.2937 58.1148 71.0854 58.1148C71.8773 58.1148 72.5189 58.7498 72.5189 59.5332V67.3666C72.5189 68.15 71.8771 68.7851 71.0854 68.7851Z" fill="#3C58A0"/>
<path d="M79.0016 71.9184H74.2514C73.4595 71.9184 72.8179 71.2834 72.8179 70.5C72.8179 69.7166 73.4597 69.0815 74.2514 69.0815H79.0016C79.7935 69.0815 80.4351 69.7166 80.4351 70.5C80.4351 71.2834 79.7933 71.9184 79.0016 71.9184Z" fill="#3C58A0"/>
<path d="M71.0851 47C70.3438 47 69.6109 47.0354 68.8869 47.1012C80.9729 48.1989 90.4385 58.2548 90.4385 70.5C90.4385 82.7452 80.9727 92.8011 68.8867 93.8988C69.6107 93.9646 70.3436 94 71.0849 94C84.2016 94 94.8349 83.4786 94.8349 70.5C94.8349 57.5214 84.2018 47 71.0851 47Z" fill="#1886EA"/>
<path d="M71.0854 53.2666C70.3413 53.2666 69.6082 53.3131 68.8887 53.4026C77.4706 54.4713 84.1087 61.7185 84.1087 70.5C84.1087 79.2815 77.4706 86.5287 68.8887 87.5974C69.6082 87.6869 70.3413 87.7334 71.0854 87.7334C80.7043 87.7334 88.5021 80.0177 88.5021 70.5C88.5021 60.9823 80.7043 53.2666 71.0854 53.2666Z" fill="#D3DCFB"/>
<path d="M71.0852 73.6334C72.8341 73.6334 74.2519 72.2305 74.2519 70.5C74.2519 68.7695 72.8341 67.3666 71.0852 67.3666C69.3362 67.3666 67.9185 68.7695 67.9185 70.5C67.9185 72.2305 69.3362 73.6334 71.0852 73.6334Z" fill="#FFDD40"/>
</g>
<defs>
<clipPath id="clip0_6807_24795">
<rect width="95" height="94" fill="white" transform="translate(3)"/>
</clipPath>
</defs>
</svg>
