<svg width="135" height="88" viewBox="0 0 135 88" fill="none" xmlns="http://www.w3.org/2000/svg">
<path fill-rule="evenodd" clip-rule="evenodd" d="M76.8488 24.1216V33.816C76.8488 34.7828 76.0817 35.5713 75.1412 35.5713H40.852V31.3964C40.852 30.6209 40.2403 29.9921 39.4859 29.9921C38.7314 29.9921 38.1197 30.6209 38.1197 31.3964V35.5713H23.9108C22.9702 35.5713 22.2031 34.7828 22.2031 33.816V24.1216C25.2476 23.7069 27.5963 21.0285 27.5963 17.7857C27.5963 14.543 25.2476 11.8645 22.2031 11.4497V1.75532C22.2031 0.788508 22.9702 3.05176e-05 23.9108 3.05176e-05H38.1197V4.17505C38.1197 4.95054 38.7314 5.57929 39.4859 5.57929C40.2403 5.57929 40.852 4.95054 40.852 4.17505V3.05176e-05H75.1412C76.0816 3.05176e-05 76.8488 0.788508 76.8488 1.75532V11.4497C73.8044 11.8645 71.4556 14.5429 71.4556 17.7857C71.4556 21.0286 73.8044 23.7069 76.8488 24.1216ZM50.972 7.9164C49.7491 7.9164 48.6419 8.42603 47.8403 9.24996C47.0387 10.0738 46.5429 11.212 46.5429 12.4689C46.5429 13.726 47.0387 14.864 47.8403 15.6879C48.6419 16.5118 49.7491 17.0215 50.972 17.0215C52.195 17.0215 53.3022 16.5118 54.1037 15.6879C54.9053 14.864 55.4011 13.7258 55.4011 12.4689C55.4011 11.2119 54.9053 10.0738 54.1037 9.24996C53.3022 8.42603 52.195 7.9164 50.972 7.9164ZM63.0615 18.55C61.8386 18.55 60.7314 19.0596 59.9297 19.8835C59.1281 20.7075 58.6323 21.8456 58.6323 23.1025C58.6323 24.3595 59.1281 25.4977 59.9297 26.3215C60.7313 27.1454 61.8386 27.655 63.0615 27.655C64.2844 27.655 65.3917 27.1454 66.1931 26.3215C66.9947 25.4977 67.4905 24.3594 67.4905 23.1025C67.4905 21.8455 66.9947 20.7075 66.1931 19.8835C65.3917 19.0596 64.2844 18.55 63.0615 18.55ZM64.2613 21.8691C63.9544 21.5536 63.5301 21.3584 63.0615 21.3584C62.5928 21.3584 62.1686 21.5536 61.8616 21.8691C61.5546 22.1846 61.3647 22.6207 61.3647 23.1025C61.3647 23.5843 61.5546 24.0204 61.8616 24.3359C62.1685 24.6514 62.5928 24.8466 63.0615 24.8466C63.5302 24.8466 63.9545 24.6514 64.2613 24.3359C64.5682 24.0204 64.7581 23.5843 64.7581 23.1025C64.7582 22.6207 64.5683 22.1847 64.2613 21.8691ZM61.0302 9.04085L50.6923 24.7483C50.2709 25.3905 50.4357 26.2624 51.0605 26.6956C51.6853 27.1288 52.5335 26.9594 52.955 26.3172L63.2928 10.6097C63.7143 9.96752 63.5494 9.09561 62.9246 8.66241C62.2999 8.2292 61.4516 8.39864 61.0302 9.04085ZM52.172 11.2357C51.865 10.9202 51.4407 10.725 50.9722 10.725C50.5035 10.725 50.0793 10.9202 49.7722 11.2357C49.4653 11.5512 49.2754 11.9873 49.2754 12.4691C49.2754 12.9508 49.4653 13.3868 49.7722 13.7024C50.0792 14.0179 50.5035 14.2131 50.9722 14.2131C51.4409 14.2131 51.865 14.0179 52.172 13.7024C52.4789 13.387 52.6688 12.9508 52.6688 12.4691C52.6688 11.9872 52.4789 11.5512 52.172 11.2357ZM38.1196 20.931V25.106C38.1196 25.8815 38.7313 26.5102 39.4857 26.5102C40.2402 26.5102 40.8519 25.8815 40.8519 25.106V20.931C40.8519 20.1555 40.2402 19.5267 39.4857 19.5267C38.7313 19.5267 38.1196 20.1554 38.1196 20.931ZM38.1196 10.4656V14.6405C38.1196 15.416 38.7313 16.0447 39.4857 16.0447C40.2402 16.0447 40.8519 15.416 40.8519 14.6405V10.4656C40.8519 9.69007 40.2402 9.06133 39.4857 9.06133C38.7313 9.06133 38.1196 9.69007 38.1196 10.4656Z" fill="#AD9BB1"/>
<path fill-rule="evenodd" clip-rule="evenodd" d="M99.3342 7.00003C93.0745 7.00003 88 12.0012 88 18.1706C88 19.9592 89.0408 21.5893 90.6769 22.3633L91.7403 22.8665C94.2518 24.0546 94.2518 27.5788 91.7403 28.767L90.6769 29.2702C89.0408 30.0441 88 31.6742 88 33.463C88 39.6322 93.0745 44.6334 99.3342 44.6334H123.579C129.838 44.6334 134.913 39.6322 134.913 33.463C134.913 31.6742 133.872 30.0441 132.236 29.2702L131.172 28.767C128.661 27.5788 128.661 24.0546 131.172 22.8665L132.236 22.3633C133.872 21.5893 134.913 19.9592 134.913 18.1706C134.913 12.0012 129.838 7.00003 123.579 7.00003H99.3342ZM118.411 18.9628C119.05 19.5926 119.05 20.6138 118.411 21.2437L106.068 33.4085C105.429 34.0384 104.392 34.0384 103.753 33.4085C103.114 32.7787 103.114 31.7576 103.753 31.1277L116.096 18.9628C116.736 18.3329 117.772 18.3329 118.411 18.9628ZM104.91 21.5158C103.705 21.5158 102.728 20.5529 102.728 19.3653C102.728 18.1776 103.705 17.2148 104.91 17.2148C106.116 17.2148 107.092 18.1776 107.092 19.3653C107.092 20.5529 106.116 21.5158 104.91 21.5158ZM118.002 34.4186C116.797 34.4186 115.82 33.4559 115.82 32.2681C115.82 31.0804 116.797 30.1177 118.002 30.1177C119.208 30.1177 120.184 31.0804 120.184 32.2681C120.184 33.4559 119.208 34.4186 118.002 34.4186Z" fill="#36445C"/>
<path d="M41.7882 63.1204C41.7882 62.7237 41.871 62.3315 42.0312 61.9687C42.1915 61.6059 42.4257 61.2805 42.7189 61.0134C43.7766 59.9161 44.3676 58.4515 44.3676 56.9274C44.3676 55.4034 43.7766 53.9387 42.7189 52.8414C42.4258 52.5751 42.1916 52.2505 42.0313 51.8884C41.8711 51.5263 41.7883 51.1346 41.7882 50.7386C41.7798 50.4008 41.8382 50.0647 41.9601 49.7495C42.0819 49.4344 42.2647 49.1463 42.4981 48.902C42.9321 48.373 43.2069 47.7316 43.2905 47.0525C43.3741 46.3734 43.263 45.6845 42.9702 45.0661C42.6774 44.4477 42.215 43.9251 41.6367 43.5594C41.0585 43.1936 40.3882 42.9996 39.704 43H4.66364C3.98071 43.0005 3.31191 43.1946 2.73484 43.5598C2.15777 43.925 1.69609 44.4464 1.40335 45.0634C1.11062 45.6804 0.998841 46.3678 1.08098 47.0457C1.16312 47.7237 1.43582 48.3645 1.86743 48.8937C2.10208 49.139 2.28581 49.4283 2.40801 49.7449C2.53021 50.0616 2.58846 50.3993 2.57938 50.7386C2.57934 51.1346 2.49653 51.5263 2.33625 51.8884C2.17598 52.2505 1.94178 52.5751 1.64869 52.8414C0.590991 53.9387 0 55.4034 0 56.9274C0 58.4515 0.590991 59.9161 1.64869 61.0134C1.9419 61.2805 2.17612 61.6059 2.33638 61.9687C2.49664 62.3315 2.57941 62.7237 2.57938 63.1204C2.58937 63.4623 2.53079 63.8028 2.4071 64.1218C2.2834 64.4408 2.0971 64.7318 1.85918 64.9776C1.43192 65.5076 1.16305 66.1474 1.08353 66.8235C1.00402 67.4996 1.1171 68.1843 1.40974 68.7989C1.70238 69.4136 2.16269 69.933 2.73764 70.2975C3.31258 70.6619 3.97879 70.8565 4.65951 70.8589H39.7081C40.3916 70.8587 41.061 70.6646 41.6386 70.2991C42.2162 69.9337 42.6783 69.412 42.9713 68.7944C43.2643 68.1769 43.3761 67.489 43.2938 66.8105C43.2115 66.1319 42.9385 65.4907 42.5064 64.9611C42.2703 64.7174 42.0853 64.4291 41.962 64.113C41.8387 63.797 41.7796 63.4595 41.7882 63.1204Z" fill="#FFB91D"/>
<path d="M18.0542 62.6043C17.7483 62.6041 17.4493 62.5131 17.195 62.343C16.9407 62.173 16.7426 61.9313 16.6255 61.6487C16.5085 61.3661 16.4779 61.0551 16.5375 60.755C16.5971 60.455 16.7443 60.1793 16.9604 59.9629L25.2149 51.7084C25.5083 51.435 25.8964 51.2862 26.2974 51.2932C26.6983 51.3003 27.0809 51.4627 27.3645 51.7463C27.648 52.0299 27.8105 52.4125 27.8175 52.8134C27.8246 53.2144 27.6758 53.6024 27.4024 53.8958L19.1479 62.1503C19.0047 62.2946 18.8343 62.4091 18.6466 62.487C18.4588 62.5649 18.2575 62.6048 18.0542 62.6043Z" fill="white"/>
<path d="M18.0558 54.8656C19.1955 54.8656 20.1194 53.9416 20.1194 52.8019C20.1194 51.6622 19.1955 50.7383 18.0558 50.7383C16.9161 50.7383 15.9922 51.6622 15.9922 52.8019C15.9922 53.9416 16.9161 54.8656 18.0558 54.8656Z" fill="white"/>
<path d="M26.3136 63.1195C27.4533 63.1195 28.3772 62.1955 28.3772 61.0558C28.3772 59.9161 27.4533 58.9922 26.3136 58.9922C25.1739 58.9922 24.25 59.9161 24.25 61.0558C24.25 62.1955 25.1739 63.1195 26.3136 63.1195Z" fill="white"/>
<path d="M85.5584 71.3496C84.4554 71.3496 83.5234 72.7477 83.5234 74.4021C83.5234 76.0565 84.4555 77.4545 85.5584 77.4545C86.6613 77.4545 87.5933 76.0565 87.5933 74.4021C87.5933 72.7477 86.6613 71.3496 85.5584 71.3496Z" fill="#FEB389"/>
<path d="M77.4214 64.2273C77.4214 62.5729 76.4894 61.1748 75.3865 61.1748C74.2836 61.1748 73.3516 62.5729 73.3516 64.2273C73.3516 65.8817 74.2836 67.2797 75.3865 67.2797C76.4894 67.2797 77.4214 65.8816 77.4214 64.2273Z" fill="#FEB389"/>
<path d="M100.822 64.2273C101.384 64.2273 101.839 63.7722 101.839 63.2098V55.07C101.839 52.8253 100.014 51 97.7691 51H57.07C54.8253 51 53 52.8253 53 55.07V63.2098C53 63.7722 53.4551 64.2273 54.0175 64.2273C56.8225 64.2273 59.1049 66.5097 59.1049 69.3147C59.1049 72.1197 56.8225 74.4021 54.0175 74.4021C53.4551 74.4021 53 74.8572 53 75.4196V83.5594C53 85.8041 54.8253 87.6293 57.07 87.6293H97.7692C100.014 87.6293 101.839 85.8041 101.839 83.5594V75.4196C101.839 74.8572 101.384 74.4021 100.822 74.4021C98.0166 74.4021 95.7342 72.1197 95.7342 69.3147C95.7342 66.5097 98.0166 64.2273 100.822 64.2273ZM67.2447 82.542C67.2447 83.1044 66.7896 83.5595 66.2272 83.5595C65.6648 83.5595 65.2097 83.1044 65.2097 82.542V80.507C65.2097 79.9446 65.6648 79.4895 66.2272 79.4895C66.7896 79.4895 67.2447 79.9446 67.2447 80.507V82.542ZM67.2447 74.4021C67.2447 74.9645 66.7896 75.4196 66.2272 75.4196C65.6648 75.4196 65.2097 74.9645 65.2097 74.4021V72.3671C65.2097 71.8047 65.6648 71.3496 66.2272 71.3496C66.7896 71.3496 67.2447 71.8047 67.2447 72.3671V74.4021ZM67.2447 66.2622C67.2447 66.8247 66.7896 67.2798 66.2272 67.2798C65.6648 67.2798 65.2097 66.8247 65.2097 66.2622V64.2273C65.2097 63.6649 65.6648 63.2098 66.2272 63.2098C66.7896 63.2098 67.2447 63.6649 67.2447 64.2273V66.2622ZM67.2447 58.1224C67.2447 58.6848 66.7896 59.1399 66.2272 59.1399C65.6648 59.1399 65.2097 58.6848 65.2097 58.1224V55.8331C65.2097 55.2707 65.6648 54.8156 66.2272 54.8156C66.7896 54.8156 67.2447 55.2707 67.2447 55.8331V58.1224ZM71.3147 64.2273C71.3147 61.4223 73.1399 59.1399 75.3846 59.1399C77.6293 59.1399 79.4546 61.4223 79.4546 64.2273C79.4546 67.0323 77.6292 69.3147 75.3846 69.3147C73.14 69.3147 71.3147 67.0323 71.3147 64.2273ZM74.3661 79.4895C74.1724 79.4895 73.9767 79.4339 73.8028 79.3186C73.3348 79.0066 73.2086 78.3757 73.5206 77.9076L85.7304 59.5929C86.0413 59.125 86.6703 58.9988 87.1414 59.3108C87.6093 59.6228 87.7355 60.2537 87.4235 60.7218L75.2138 79.0364C75.0179 79.3305 74.695 79.4895 74.3661 79.4895ZM85.5593 79.4895C83.3148 79.4895 81.4894 77.2072 81.4894 74.4021C81.4894 71.5971 83.3148 69.3147 85.5593 69.3147C87.804 69.3147 89.6293 71.597 89.6293 74.4021C89.6293 77.2071 87.804 79.4895 85.5593 79.4895Z" fill="#FEB389"/>
</svg>
