<svg width="123" height="94" viewBox="0 0 123 94" fill="none" xmlns="http://www.w3.org/2000/svg">
<g clip-path="url(#clip0_4561_19325)">
<path d="M83.9132 19.291C75.5585 19.7775 67.7286 23.0821 61.4968 28.7537C60.9919 29.2132 61.937 31.1486 61.4537 31.639C60.9143 32.1863 58.9541 31.2871 58.4526 31.8615C52.958 38.1542 49.7572 46.0278 49.2821 54.424C49.2411 55.1505 50.6599 55.881 50.6599 56.6147C50.6599 57.3484 49.2411 58.0789 49.2821 58.8055C49.7593 67.2415 52.9885 75.1502 58.531 81.4577C59.0084 82.0008 60.4728 82.6828 60.4728 82.6828C60.4728 82.6828 61.0495 84.0715 61.5852 84.5558C67.8025 90.1783 75.598 93.454 83.9132 93.9382C84.6293 93.9799 86.0726 93.0869 86.0726 93.0869L87.5123 58.0226L86.0974 19.8953C86.0974 19.8953 84.6293 19.2494 83.9132 19.291Z" fill="#FFE273"/>
<path d="M86.0703 20.6594V84.9096C86.0703 84.9096 87.5135 93.9807 88.2296 93.939C96.5751 93.4531 104.397 90.1552 110.625 84.4951C111.137 84.0298 110.199 82.0881 110.689 81.5911C111.222 81.0504 113.176 81.9568 113.672 81.3897C119.178 75.0935 122.385 67.2117 122.861 58.8061C122.902 58.0794 120.043 57.349 120.043 56.6152C120.043 55.8815 122.902 55.151 122.861 54.4245C122.383 45.9885 119.154 38.0798 113.612 31.7723C113.135 31.2292 111.442 30.8391 111.442 30.8391C111.442 30.8391 111.093 29.1585 110.558 28.6741C104.34 23.0518 96.5447 19.7777 88.2295 19.2937C87.5903 19.2565 86.0703 20.6594 86.0703 20.6594Z" fill="#FFCF73"/>
<path d="M70.2256 37.4414L61.4965 28.7549C60.9915 29.2144 60.496 29.688 60.0126 30.1784C59.473 30.7257 58.9547 31.2886 58.4531 31.8631L67.172 40.5394L70.2256 37.4414Z" fill="#FFAD00"/>
<path d="M83.9141 81.5381V93.9351C84.6304 93.9768 85.35 94.0003 86.0734 94.0003H86.0735L87.5131 89.0738L86.0735 81.5381H83.9141Z" fill="#FFAD00"/>
<path d="M88.2334 81.5381H86.0742V94.0002C86.7974 94.0002 87.5171 93.9767 88.2334 93.9349V81.5381Z" fill="#FF8A00"/>
<path d="M83.9141 19.2938V31.6908H86.0735L87.5131 24.625L86.0735 19.2285C86.0735 19.2285 84.6304 19.2521 83.9141 19.2938Z" fill="#FFAD00"/>
<path d="M88.2334 19.2938C87.5171 19.2521 86.7974 19.2285 86.0742 19.2285V31.6908H88.2334V19.2938Z" fill="#FF8A00"/>
<path d="M101.918 75.7874L110.626 84.4926C111.139 84.0272 111.641 83.5476 112.131 83.0505C112.664 82.5098 113.176 81.954 113.672 81.3868L104.972 72.6895L101.918 75.7874Z" fill="#FF8A00"/>
<path d="M110.641 58.8051H122.86C122.901 58.0784 122.925 57.3483 122.925 56.6145C122.925 55.8806 122.901 55.1506 122.86 54.4239H110.641V58.8051Z" fill="#FF8A00"/>
<path d="M61.5029 54.4239H49.2831C49.2419 55.1506 49.2188 55.8806 49.2188 56.6145C49.2188 57.3483 49.2419 58.0784 49.2831 58.8051H61.5029V54.4239Z" fill="#FFAD00"/>
<path d="M104.968 40.5398L113.608 31.7739C113.131 31.2306 112.639 30.6977 112.127 30.1787C111.616 29.6598 111.09 29.1602 110.555 28.6758L101.914 37.4416L104.968 40.5398Z" fill="#FF8A00"/>
<path d="M67.172 72.6895L58.5312 81.4554C59.0086 81.9987 59.5011 82.5316 60.0127 83.0506C60.5242 83.5695 61.0494 84.0691 61.5851 84.5535L70.2258 75.7876L67.172 72.6895Z" fill="#FFAD00"/>
<path d="M86.0712 29.5C71.3336 29.5 59.3438 41.6636 59.3438 56.6148C59.3438 71.566 71.3336 83.7297 86.0712 83.7297H86.0713L87.5108 57.8849L86.0713 29.5H86.0712Z" fill="#FFE9B2"/>
<path d="M112.798 56.6149C112.798 41.6637 100.808 29.5002 86.0703 29.5V83.7297C100.808 83.7297 112.798 71.5661 112.798 56.6149Z" fill="#FFDE8B"/>
<path d="M77.4437 49.6446H75.7812V56.5391H77.4437V49.6446Z" fill="#F89E17"/>
<path d="M82.6088 44.7504C82.3633 44.6319 82.1041 44.5896 81.8331 44.6077C81.7192 44.6168 81.605 44.6272 81.4912 44.6272C80.7998 44.6258 80.1084 44.6242 79.4157 44.6168C78.0332 44.6017 76.6492 44.5822 75.2651 44.5627C75.1747 44.5614 75.0843 44.5493 74.994 44.5342C74.6253 44.4711 74.2672 44.5013 73.9296 44.6769C73.3643 44.9683 72.9764 45.5989 73.0681 46.3496C73.1465 46.9953 73.6291 47.545 74.2732 47.7101C74.3384 47.7266 74.4049 47.7417 74.4833 47.7598C74.5071 47.967 74.4995 48.1429 74.3916 48.2961C74.3311 48.3817 74.3072 48.4747 74.3029 48.5767C74.2927 48.8141 74.2732 49.0512 74.2675 49.2886V49.299C74.2411 49.7418 74.1802 50.4869 74.056 50.7857C73.8724 51.2256 73.6771 52.7063 73.6771 52.7063C73.5705 53.409 73.4639 54.1135 73.3574 54.8162C73.2495 55.5384 73.1191 56.2563 72.9946 56.9758C72.9946 56.9758 72.8924 57.7628 73.5083 58.0509C73.5083 58.0509 73.8813 58.198 74.4069 57.7326C74.9324 57.2686 74.29 56.7791 74.2884 56.7774C74.2113 56.719 74.1686 56.5477 74.1345 56.4604C73.8932 55.8386 73.9597 55.2319 73.9865 54.5802C74.0014 54.2199 74.0279 53.8593 74.0385 53.4973C74.0607 52.6865 74.0666 51.8709 74.1272 51.0614L74.1596 51.003L74.2146 51.0016L74.253 51.012C74.25 51.4415 74.2483 51.8709 74.25 52.3003C74.2543 53.5497 74.2705 54.7991 74.2781 56.0488C74.2781 56.2019 74.3165 56.3325 74.4026 56.4587C74.5283 56.6451 74.6557 56.8281 74.7785 57.0158C74.8497 57.1252 75.0774 57.3791 75.0317 57.5174C75.0155 57.5641 74.9814 57.6013 74.949 57.6389C74.8424 57.7575 74.7345 57.8763 74.6233 57.9905C74.5065 58.109 74.4383 58.2054 74.4413 58.3793C74.4472 58.8688 74.5124 59.3661 74.5522 59.8526C74.5905 60.3526 74.6323 60.8512 74.6723 61.3515C74.7077 61.8051 74.7431 62.2583 74.7789 62.712C74.8189 63.227 74.8616 63.7407 74.9033 64.2558C74.9387 64.7017 74.9728 65.1479 75.0086 65.5938C75.0486 66.0924 75.09 66.5924 75.1284 67.0926C75.1654 67.5463 75.1995 67.9995 75.2349 68.4531C75.2763 68.9669 75.3177 69.4819 75.3594 69.997C75.3948 70.4429 75.4319 70.8891 75.463 71.335C75.5043 71.9101 75.5858 72.484 75.5785 73.0635C75.5785 73.095 75.5801 73.1266 75.5831 73.1565C75.6659 73.7887 76.2566 74.0711 76.6799 73.9868C76.8888 73.9462 77.0559 73.8411 77.2204 73.7092C77.37 73.5876 77.4455 73.4419 77.4676 73.2586C77.4881 73.092 77.509 72.9221 77.5179 72.7539C77.5477 72.1908 77.5921 71.6261 77.5921 71.0613C77.6351 69.6542 77.6914 68.247 77.7311 66.8385C77.74 66.5531 77.74 66.2677 77.7489 65.9826C77.7724 65.2664 77.8009 64.5499 77.8214 63.8337C77.8436 63.0783 77.8598 62.3232 77.8777 61.569C77.8807 61.4367 77.8717 61.3048 77.8896 61.1755C77.925 60.8978 78.0644 60.7128 78.3619 60.7266C78.4774 60.7326 78.6134 60.7461 78.7054 60.8287C78.8756 60.9878 78.8342 61.3437 78.8474 61.5569C78.8474 61.982 78.8845 62.4115 78.8947 62.8379C78.905 63.2824 78.9156 63.727 78.9302 64.1698C78.9686 65.3188 79.0103 66.4661 79.047 67.6147C79.0589 68.0066 79.0692 68.3971 79.0794 68.7876C79.0794 68.795 79.0794 68.801 79.0811 68.8087C79.099 69.5192 79.1181 70.2293 79.1344 70.9398C79.1506 71.6335 79.1344 72.3319 79.1787 73.0242C79.2009 73.3637 79.4081 73.6578 79.7073 73.8082C80.0419 73.9764 80.3718 73.9358 80.6813 73.73C80.7525 73.682 80.8041 73.6175 80.8441 73.5393C80.9183 73.3935 80.9643 73.2388 80.9805 73.0766C81.004 72.8469 81.0205 72.6169 81.0381 72.3859C81.1076 71.4488 81.1771 70.5104 81.2453 69.5732C81.2985 68.8195 81.3489 68.0657 81.4008 67.3116C81.417 67.0651 81.4379 66.8203 81.4558 66.5742C81.4958 66.0276 81.5342 65.4823 81.5726 64.9357C81.6097 64.4207 81.6467 63.9056 81.6821 63.3905C81.7222 62.8379 81.7622 62.2839 81.8019 61.7312C81.8374 61.2161 81.8731 60.6994 81.9115 60.1844C81.9486 59.6693 81.987 59.1556 82.024 58.6405C82.0419 58.3011 81.7589 58.1661 81.5398 57.9572C81.4081 57.8327 81.5117 57.7336 81.602 57.6117C81.7295 57.4392 81.8595 57.2679 81.9856 57.0937C82.0581 56.9946 82.1263 56.8925 82.1958 56.7905C82.2845 56.6599 82.3275 56.5158 82.3232 56.355C82.3202 56.2559 82.3159 56.1552 82.3189 56.0545C82.3603 54.5587 82.4033 53.0632 82.4463 51.5674C82.4715 50.689 82.4966 49.8103 82.5264 48.932C82.5324 48.7802 82.5072 48.6452 82.4301 48.513C82.3338 48.3478 82.2464 48.1765 82.1607 48.0039C82.1147 47.9093 82.0601 47.8132 82.0912 47.687C82.1713 47.6688 82.2511 47.6494 82.3325 47.6299C82.963 47.4707 83.4147 46.9345 83.4723 46.256C83.5226 45.6539 83.2059 45.0382 82.6108 44.7497L82.6088 44.7504ZM78.0452 55.9967C78.0452 56.5823 77.5788 57.0554 77.0016 57.0554H76.3179C75.7407 57.0554 75.2743 56.5823 75.2743 55.9967V49.9883C75.2743 49.4041 75.7407 48.9296 76.3179 48.9296H77.0016C77.5788 48.9296 78.0452 49.4041 78.0452 49.9883V55.9967ZM81.5299 55.9967C81.5299 56.5823 81.0636 57.0554 80.4864 57.0554H79.8026C79.2254 57.0554 78.7591 56.5823 78.7591 55.9967V49.9883C78.7591 49.4041 79.2254 48.9296 79.8026 48.9296H80.4864C81.0636 48.9296 81.5299 49.4041 81.5299 49.9883V55.9967ZM79.2651 56.539H80.9275V49.6445H79.2651V56.539Z" fill="#F89E17"/>
<path d="M89.3487 45.9823C91.142 45.9823 92.5958 44.3609 92.5958 42.3608C92.5958 40.3607 91.142 38.7393 89.3487 38.7393C87.5553 38.7393 86.1016 40.3607 86.1016 42.3608C86.1016 44.3609 87.5553 45.9823 89.3487 45.9823Z" fill="#F88217"/>
<path d="M97.0763 47.8798C97.0564 48.0188 97.1054 48.1329 97.1663 48.239C97.2312 48.3518 97.3047 48.4606 97.3834 48.564C97.8084 49.1227 98.148 49.7318 98.4299 50.3755C98.4793 50.4879 98.5213 50.6041 98.5627 50.72C98.6355 50.9248 98.6739 51.1353 98.6706 51.3542C98.656 52.2873 98.6441 53.2204 98.6308 54.1531C98.6285 54.3072 98.6242 54.4617 98.6189 54.6158C98.5845 55.5868 98.5527 56.5578 98.5124 57.5285C98.4998 57.8287 98.4604 58.1275 98.4392 58.427C98.428 58.5838 98.3618 58.7094 98.2466 58.8064C98.0083 59.0072 97.7505 59.1456 97.4232 59.1466C96.4425 59.1496 95.4619 59.1691 94.4812 59.1811C94.4067 59.1822 94.3326 59.1758 94.2462 59.1721C94.2373 59.115 94.2274 59.0717 94.225 59.0277C94.2217 58.9663 94.2237 58.9045 94.2237 58.8427C94.2237 54.4389 94.2257 50.0353 94.2188 45.6315C94.2184 45.3448 94.2988 45.104 94.4471 44.874C94.885 44.1948 95.6846 43.8003 96.5673 43.9799C97.4079 44.1508 98.0434 44.8257 98.1639 45.6751C98.2886 46.5545 97.9699 47.2435 97.2544 47.7485C97.2047 47.7834 97.1531 47.8163 97.1028 47.8505C97.0968 47.8546 97.0925 47.862 97.0773 47.8798H97.0763Z" fill="#F88217"/>
<path d="M88.2924 60.8617C88.2924 57.0357 88.294 53.21 88.2891 49.384C88.2887 49.1057 88.3423 48.8485 88.4612 48.6031C88.863 47.7747 89.5113 47.2845 90.4145 47.1482C91.6914 46.9551 93.0186 47.8499 93.23 49.2823C93.2545 49.4492 93.2588 49.6197 93.2625 49.789C93.2668 49.9971 93.2582 50.2053 93.2598 50.4135C93.2694 51.6168 93.2873 52.8199 93.2893 54.0232C93.2909 55.0027 93.277 55.9824 93.2641 56.9618C93.2585 57.394 93.2271 57.8251 93.1291 58.2475C93.0963 58.3892 93.0503 58.5295 92.9951 58.6641C92.8825 58.9381 92.6869 59.1349 92.4248 59.2688C91.8731 59.5506 91.6464 60.0408 91.5858 60.6347C91.5577 62.2387 91.5289 63.8429 91.5011 65.4469C91.4769 66.8349 91.4554 68.2233 91.4303 69.6113C91.4117 70.6293 91.3869 71.647 91.372 72.6651C91.3694 72.837 91.3184 72.9803 91.2214 73.114C90.8487 73.627 90.345 73.8762 89.7225 73.8197C89.1006 73.7633 88.6458 73.4316 88.3688 72.8581C88.3142 72.745 88.2854 72.6275 88.2917 72.5009C88.295 72.4317 88.2924 72.3622 88.2924 72.2927C88.2924 68.4821 88.2924 64.6719 88.2924 60.8614V60.8617Z" fill="#F88217"/>
<path d="M81.2251 41.8482C81.2453 42.704 80.9226 43.4853 80.3865 44.0571C80.2779 44.173 80.126 44.2368 79.9685 44.2368H76.3749C76.2176 44.2368 76.0657 44.173 75.9575 44.0575C75.4366 43.5018 75.1172 42.7507 75.1172 41.9241C75.1172 40.1613 76.5671 38.7427 78.3229 38.828C79.9039 38.9049 81.1874 40.2422 81.2255 41.8478L81.2251 41.8482Z" fill="#F89E17"/>
<path d="M82.7825 51.0237C82.7809 51.4951 82.7782 51.9668 82.7772 52.4382C82.7762 52.9073 82.7746 53.3764 82.7739 53.8454C82.7739 53.8716 82.7739 53.8978 82.7739 53.9243C82.7733 54.4746 82.814 55.038 82.7779 55.5931C82.7597 55.8751 82.7213 56.1571 82.6465 56.4298C82.572 56.7017 82.4334 56.9207 82.2761 57.1513C82.1471 57.3407 82.022 57.5039 82.1537 57.7335C82.2689 57.934 82.523 58.1546 82.7405 58.2261C82.9265 58.2872 83.1171 58.2328 83.2535 58.0935C83.649 57.6896 83.5292 57.1967 83.4795 56.6903C83.3425 55.2956 83.1343 53.9092 83.0056 52.5135C82.9467 52.0202 82.9166 51.524 82.8725 51.0294C82.8725 51.0294 82.8272 50.9233 82.7822 51.0237H82.7825Z" fill="#F89E17"/>
</g>
<g clip-path="url(#clip1_4561_19325)">
<path d="M19.182 34.218C14.5809 34.496 10.2688 36.3843 6.83677 39.6253C6.55874 39.8878 7.0792 40.9938 6.81306 41.274C6.51601 41.5867 5.43646 41.0729 5.16025 41.4011C2.13425 44.997 0.371477 49.4962 0.109856 54.294C0.0872612 54.7092 0.868636 55.1266 0.868636 55.5459C0.868636 55.9651 0.0872612 56.3825 0.109856 56.7977C0.372666 61.6183 2.15106 66.1375 5.20346 69.7418C5.46635 70.0522 6.27286 70.4419 6.27286 70.4419C6.27286 70.4419 6.59045 71.2354 6.88545 71.5122C10.3095 74.7251 14.6026 76.5969 19.182 76.8735C19.5764 76.8974 20.3713 76.3871 20.3713 76.3871L21.1642 56.3503L20.3849 34.5633C20.3849 34.5633 19.5764 34.1942 19.182 34.218Z" fill="#FFE273"/>
<path d="M20.3711 34.9996V71.7141C20.3711 71.7141 21.1659 76.8976 21.5603 76.8737C26.1563 76.5961 30.464 74.7116 33.8942 71.4772C34.1762 71.2113 33.6595 70.1018 33.9293 69.8178C34.2228 69.5088 35.299 70.0267 35.572 69.7027C38.6041 66.1048 40.3705 61.601 40.6325 56.7978C40.6551 56.3826 39.0809 55.9651 39.0809 55.5459C39.0809 55.1266 40.6551 54.7092 40.6325 54.294C40.3696 49.4734 38.5913 44.9542 35.5389 41.3499C35.276 41.0395 34.3439 40.8166 34.3439 40.8166C34.3439 40.8166 34.1519 39.8563 33.8569 39.5795C30.4328 36.3668 26.1396 34.4958 21.5602 34.2193C21.2082 34.198 20.3711 34.9996 20.3711 34.9996Z" fill="#FFCF73"/>
<path d="M11.6474 44.5908L6.8401 39.6271C6.56199 39.8896 6.28911 40.1602 6.02289 40.4405C5.72576 40.7533 5.44027 41.0749 5.16406 41.4032L9.96576 46.361L11.6474 44.5908Z" fill="#FFAD00"/>
<path d="M19.1875 69.7882V76.8722C19.582 76.896 19.9783 76.9095 20.3767 76.9095H20.3768L21.1696 74.0943L20.3768 69.7882H19.1875Z" fill="#FFAD00"/>
<path d="M21.5641 69.7882H20.375V76.9094C20.7733 76.9094 21.1696 76.896 21.5641 76.8721V69.7882Z" fill="#FF8A00"/>
<path d="M19.1875 34.22V41.304H20.3768L21.1696 37.2664L20.3768 34.1827C20.3768 34.1827 19.582 34.1962 19.1875 34.22Z" fill="#FFAD00"/>
<path d="M21.5641 34.22C21.1696 34.1962 20.7733 34.1827 20.375 34.1827V41.304H21.5641V34.22Z" fill="#FF8A00"/>
<path d="M29.1016 66.5018L33.8975 71.4762C34.1795 71.2103 34.4563 70.9362 34.7262 70.6521C35.0197 70.3432 35.3018 70.0256 35.5749 69.7015L30.7834 64.7316L29.1016 66.5018Z" fill="#FF8A00"/>
<path d="M33.9062 56.7976H40.6359C40.6586 56.3824 40.6714 55.9652 40.6714 55.5458C40.6714 55.1265 40.6586 54.7093 40.6359 54.2941H33.9062V56.7976Z" fill="#FF8A00"/>
<path d="M6.84333 54.2941H0.113563C0.0908889 54.7093 0.078125 55.1265 0.078125 55.5458C0.078125 55.9652 0.0908889 56.3824 0.113563 56.7976H6.84333V54.2941Z" fill="#FFAD00"/>
<path d="M30.7795 46.3606L35.5381 41.3515C35.2752 41.0411 35.004 40.7366 34.7222 40.44C34.4405 40.1435 34.1512 39.858 33.8562 39.5812L29.0977 44.5902L30.7795 46.3606Z" fill="#FF8A00"/>
<path d="M9.96568 64.7316L5.20703 69.7407C5.46992 70.0511 5.74113 70.3556 6.02289 70.6522C6.30457 70.9487 6.59386 71.2342 6.88886 71.511L11.6475 66.5019L9.96568 64.7316Z" fill="#FFAD00"/>
<path d="M20.3757 40.0519C12.2593 40.0519 5.65625 47.0025 5.65625 55.546C5.65625 64.0896 12.2593 71.0403 20.3757 71.0403H20.3758L21.1686 56.2718L20.3758 40.0519H20.3757Z" fill="#FFE9B2"/>
<path d="M35.0944 55.5461C35.0944 47.0026 28.4913 40.052 20.375 40.0519V71.0402C28.4913 71.0402 35.0944 64.0896 35.0944 55.5461Z" fill="#FFDE8B"/>
<path d="M15.6265 51.5636H14.7109V55.5033H15.6265V51.5636Z" fill="#F89E17"/>
<path d="M18.4702 48.7669C18.3349 48.6992 18.1922 48.675 18.0429 48.6854C17.9802 48.6906 17.9173 48.6965 17.8546 48.6965C17.4739 48.6958 17.0931 48.6948 16.7116 48.6906C15.9503 48.6819 15.188 48.6708 14.4258 48.6597C14.376 48.6589 14.3262 48.652 14.2765 48.6434C14.0734 48.6073 13.8762 48.6246 13.6903 48.7249C13.379 48.8915 13.1654 49.2518 13.2158 49.6808C13.259 50.0497 13.5248 50.3638 13.8795 50.4582C13.9154 50.4676 13.952 50.4763 13.9952 50.4866C14.0084 50.605 14.0042 50.7055 13.9447 50.793C13.9114 50.8419 13.8983 50.8951 13.8959 50.9534C13.8902 51.0891 13.8795 51.2245 13.8764 51.3602V51.3661C13.8618 51.6192 13.8283 52.0449 13.7599 52.2157C13.6588 52.467 13.5512 53.3132 13.5512 53.3132C13.4925 53.7147 13.4338 54.1173 13.3751 54.5188C13.3157 54.9315 13.2439 55.3417 13.1754 55.7529C13.1754 55.7529 13.1191 56.2026 13.4583 56.3672C13.4583 56.3672 13.6637 56.4513 13.9531 56.1853C14.2426 55.9202 13.8888 55.6405 13.8879 55.6395C13.8454 55.6061 13.8219 55.5083 13.8031 55.4584C13.6702 55.103 13.7069 54.7563 13.7216 54.3839C13.7298 54.1781 13.7444 53.972 13.7503 53.7652C13.7625 53.3018 13.7657 52.8358 13.7991 52.3732L13.817 52.3398L13.8472 52.3391L13.8684 52.345C13.8667 52.5904 13.8658 52.8358 13.8667 53.0812C13.8691 53.7951 13.878 54.509 13.8822 55.2232C13.8822 55.3106 13.9034 55.3853 13.9508 55.4574C14.02 55.5639 14.0902 55.6685 14.1578 55.7757C14.197 55.8383 14.3224 55.9833 14.2973 56.0624C14.2883 56.089 14.2695 56.1103 14.2517 56.1318C14.193 56.1995 14.1336 56.2675 14.0723 56.3327C14.008 56.4004 13.9704 56.4555 13.9721 56.5549C13.9754 56.8346 14.0113 57.1188 14.0331 57.3968C14.0543 57.6825 14.0772 57.9674 14.0993 58.2533C14.1188 58.5125 14.1383 58.7715 14.158 59.0307C14.1801 59.325 14.2036 59.6186 14.2265 59.9129C14.246 60.1677 14.2648 60.4227 14.2845 60.6775C14.3065 60.9624 14.3293 61.2481 14.3505 61.5339C14.3709 61.7931 14.3897 62.0522 14.4092 62.3114C14.4319 62.6049 14.4547 62.8992 14.4777 63.1936C14.4972 63.4483 14.5176 63.7033 14.5347 63.9581C14.5575 64.2868 14.6024 64.6147 14.5984 64.9458C14.5984 64.9639 14.5993 64.9819 14.6009 64.999C14.6465 65.3603 14.9718 65.5216 15.205 65.4735C15.32 65.4503 15.412 65.3902 15.5026 65.3148C15.585 65.2453 15.6265 65.1621 15.6388 65.0573C15.6501 64.9622 15.6615 64.8651 15.6665 64.7689C15.6829 64.4472 15.7073 64.1245 15.7073 63.8018C15.731 62.9977 15.762 62.1936 15.7838 61.3887C15.7888 61.2256 15.7888 61.0625 15.7937 60.8996C15.8066 60.4904 15.8223 60.081 15.8336 59.6717C15.8458 59.24 15.8548 58.8085 15.8646 58.3776C15.8662 58.302 15.8613 58.2266 15.8712 58.1527C15.8907 57.994 15.9674 57.8883 16.1313 57.8962C16.1949 57.8997 16.2698 57.9073 16.3205 57.9545C16.4141 58.0455 16.3914 58.2488 16.3986 58.3707C16.3986 58.6136 16.4191 58.859 16.4247 59.1026C16.4304 59.3567 16.4362 59.6107 16.4442 59.8638C16.4654 60.5203 16.4883 61.1759 16.5086 61.8323C16.5151 62.0562 16.5208 62.2793 16.5264 62.5025C16.5264 62.5067 16.5264 62.5101 16.5273 62.5145C16.5372 62.9205 16.5477 63.3263 16.5567 63.7323C16.5656 64.1287 16.5567 64.5278 16.5811 64.9234C16.5933 65.1174 16.7074 65.2854 16.8722 65.3714C17.0565 65.4675 17.2382 65.4443 17.4086 65.3267C17.4478 65.2993 17.4762 65.2624 17.4983 65.2177C17.5391 65.1344 17.5644 65.046 17.5734 64.9533C17.5863 64.8221 17.5954 64.6907 17.6051 64.5587C17.6434 64.0232 17.6816 63.4869 17.7192 62.9514C17.7485 62.5207 17.7762 62.09 17.8049 61.659C17.8138 61.5182 17.8253 61.3783 17.8351 61.2377C17.8572 60.9253 17.8783 60.6138 17.8995 60.3014C17.9199 60.0071 17.9403 59.7128 17.9598 59.4184C17.9818 59.1026 18.0039 58.7861 18.0258 58.4703C18.0453 58.1759 18.065 57.8807 18.0861 57.5863C18.1065 57.292 18.1277 56.9985 18.1481 56.7041C18.1579 56.5102 18.0021 56.433 17.8814 56.3137C17.8089 56.2425 17.8659 56.1859 17.9157 56.1163C17.9859 56.0177 18.0575 55.9198 18.1269 55.8202C18.1669 55.7636 18.2044 55.7053 18.2427 55.647C18.2915 55.5723 18.3152 55.49 18.3129 55.3981C18.3112 55.3415 18.3088 55.284 18.3105 55.2264C18.3333 54.3717 18.357 53.5171 18.3807 52.6623C18.3945 52.1604 18.4084 51.6583 18.4248 51.1564C18.428 51.0697 18.4142 50.9926 18.3717 50.917C18.3187 50.8226 18.2706 50.7247 18.2234 50.6261C18.198 50.572 18.1679 50.5171 18.1851 50.445C18.2292 50.4346 18.2731 50.4235 18.318 50.4124C18.6652 50.3214 18.914 50.015 18.9457 49.6273C18.9734 49.2832 18.799 48.9314 18.4712 48.7666L18.4702 48.7669ZM15.9568 55.1934C15.9568 55.528 15.7 55.7984 15.3821 55.7984H15.0056C14.6877 55.7984 14.4309 55.528 14.4309 55.1934V51.76C14.4309 51.4262 14.6877 51.1551 15.0056 51.1551H15.3821C15.7 51.1551 15.9568 51.4262 15.9568 51.76V55.1934ZM17.8759 55.1934C17.8759 55.528 17.6191 55.7984 17.3013 55.7984H16.9247C16.6068 55.7984 16.35 55.528 16.35 55.1934V51.76C16.35 51.4262 16.6068 51.1551 16.9247 51.1551H17.3013C17.6191 51.1551 17.8759 51.4262 17.8759 51.76V55.1934ZM16.6287 55.5033H17.5442V51.5635H16.6287V55.5033Z" fill="#F89E17"/>
<path d="M22.1789 49.4701C23.1665 49.4701 23.9671 48.5435 23.9671 47.4006C23.9671 46.2577 23.1665 45.3312 22.1789 45.3312C21.1913 45.3312 20.3906 46.2577 20.3906 47.4006C20.3906 48.5435 21.1913 49.4701 22.1789 49.4701Z" fill="#F88217"/>
<path d="M26.437 50.5551C26.4261 50.6346 26.453 50.6998 26.4866 50.7604C26.5223 50.8249 26.5628 50.8871 26.6062 50.9462C26.8402 51.2654 27.0272 51.6135 27.1825 51.9813C27.2097 52.0455 27.2328 52.1119 27.2556 52.1781C27.2957 52.2951 27.3168 52.4154 27.315 52.5405C27.307 53.0737 27.3004 53.6069 27.2931 54.1399C27.2919 54.228 27.2895 54.3162 27.2866 54.4043C27.2676 54.9592 27.2501 55.514 27.2279 56.0687C27.221 56.2402 27.1993 56.411 27.1876 56.5822C27.1814 56.6718 27.1449 56.7435 27.0815 56.799C26.9503 56.9137 26.8083 56.9927 26.628 56.9933C26.088 56.995 25.5479 57.0062 25.0078 57.0131C24.9668 57.0137 24.926 57.01 24.8784 57.0079C24.8735 56.9753 24.868 56.9505 24.8667 56.9254C24.8649 56.8903 24.866 56.855 24.866 56.8197C24.866 54.3032 24.8671 51.7869 24.8633 49.2704C24.8631 49.1066 24.9074 48.969 24.989 48.8376C25.2302 48.4494 25.6706 48.224 26.1567 48.3266C26.6196 48.4243 26.9696 48.8099 27.0359 49.2954C27.1047 49.7979 26.9291 50.1916 26.5351 50.4801C26.5077 50.5001 26.4793 50.5189 26.4516 50.5384C26.4483 50.5407 26.4459 50.545 26.4376 50.5551H26.437Z" fill="#F88217"/>
<path d="M21.5956 57.9734C21.5956 55.7871 21.5965 53.601 21.5938 51.4147C21.5936 51.2557 21.6231 51.1087 21.6885 50.9684C21.9098 50.4951 22.2669 50.215 22.7643 50.1371C23.4675 50.0268 24.1984 50.5381 24.3149 51.3566C24.3284 51.4519 24.3307 51.5494 24.3327 51.6461C24.3351 51.7651 24.3304 51.884 24.3313 52.003C24.3366 52.6906 24.3464 53.3781 24.3475 54.0657C24.3484 54.6254 24.3407 55.1852 24.3336 55.7449C24.3305 55.9918 24.3132 56.2382 24.2593 56.4795C24.2412 56.5605 24.2159 56.6407 24.1855 56.7176C24.1235 56.8742 24.0158 56.9866 23.8714 57.0632C23.5676 57.2242 23.4427 57.5043 23.4093 57.8437C23.3939 58.7602 23.378 59.677 23.3627 60.5935C23.3494 61.3866 23.3375 62.18 23.3237 62.9732C23.3135 63.5549 23.2998 64.1364 23.2916 64.7182C23.2901 64.8164 23.2621 64.8983 23.2087 64.9747C23.0034 65.2679 22.726 65.4102 22.3832 65.378C22.0407 65.3458 21.7902 65.1562 21.6377 64.8285C21.6076 64.7638 21.5917 64.6967 21.5952 64.6243C21.597 64.5848 21.5956 64.5451 21.5956 64.5054C21.5956 62.3279 21.5956 60.1507 21.5956 57.9732V57.9734Z" fill="#F88217"/>
<path d="M17.7076 47.1079C17.7187 47.597 17.541 48.0434 17.2457 48.3702C17.1859 48.4364 17.1022 48.4728 17.0155 48.4728H15.0364C14.9498 48.4728 14.8661 48.4364 14.8065 48.3704C14.5196 48.0528 14.3438 47.6236 14.3438 47.1513C14.3438 46.144 15.1423 45.3334 16.1092 45.3821C16.9799 45.426 17.6868 46.1902 17.7077 47.1077L17.7076 47.1079Z" fill="#F89E17"/>
<path d="M18.5647 52.351C18.5638 52.6203 18.5623 52.8899 18.5618 53.1593C18.5612 53.4273 18.5603 53.6954 18.5599 53.9634C18.5599 53.9784 18.5599 53.9933 18.5599 54.0085C18.5596 54.3229 18.582 54.6449 18.5621 54.962C18.5521 55.1232 18.531 55.2844 18.4898 55.4402C18.4487 55.5956 18.3724 55.7207 18.2858 55.8525C18.2147 55.9607 18.1458 56.0539 18.2184 56.1852C18.2818 56.2997 18.4218 56.4258 18.5415 56.4666C18.644 56.5016 18.7489 56.4705 18.824 56.3909C19.0419 56.16 18.9759 55.8784 18.9485 55.5891C18.8731 54.7921 18.7584 53.9998 18.6875 53.2023C18.6551 52.9204 18.6385 52.6368 18.6143 52.3542C18.6143 52.3542 18.5893 52.2936 18.5645 52.351H18.5647Z" fill="#F89E17"/>
</g>
<g clip-path="url(#clip2_4561_19325)">
<path d="M39.8544 0.0241843C36.7063 0.20487 33.7558 1.43229 31.4076 3.5389C31.2174 3.70955 31.5735 4.42844 31.3914 4.61059C31.1882 4.81384 30.4495 4.47986 30.2606 4.6932C28.1901 7.03051 26.984 9.955 26.805 13.0736C26.7896 13.3434 27.3242 13.6148 27.3242 13.8873C27.3242 14.1598 26.7896 14.4311 26.805 14.701C26.9848 17.8344 28.2016 20.7719 30.2901 23.1147C30.47 23.3164 31.0218 23.5697 31.0218 23.5697C31.0218 23.5697 31.2391 24.0855 31.4409 24.2654C33.7837 26.3538 36.7211 27.5704 39.8544 27.7503C40.1243 27.7658 40.6681 27.4341 40.6681 27.4341L41.2106 14.4102L40.6774 0.248644C40.6774 0.248644 40.1243 0.00872485 39.8544 0.0241843Z" fill="#FFE273"/>
<path d="M40.668 0.531947V24.3963C40.668 24.3963 41.2118 27.7656 41.4816 27.7501C44.6263 27.5696 47.5737 26.3447 49.9206 24.2424C50.1136 24.0696 49.76 23.3483 49.9447 23.1637C50.1455 22.9629 50.8818 23.2996 51.0686 23.0889C53.1432 20.7503 54.3518 17.8228 54.531 14.7008C54.5465 14.4308 53.4694 14.1595 53.4694 13.887C53.4694 13.6145 54.5465 13.3432 54.531 13.0733C54.3512 9.93991 53.1344 7.0024 51.0459 4.65962C50.8661 4.45788 50.2283 4.313 50.2283 4.313C50.2283 4.313 50.097 3.68876 49.8951 3.50884C47.5523 1.42057 44.6148 0.204479 41.4816 0.0247152C41.2407 0.0108831 40.668 0.531947 40.668 0.531947Z" fill="#FFCF73"/>
<path d="M34.6938 6.7655L31.4046 3.53909C31.2143 3.70974 31.0276 3.88566 30.8454 4.06781C30.6421 4.27111 30.4468 4.48017 30.2578 4.69356L33.5432 7.91617L34.6938 6.7655Z" fill="#FFAD00"/>
<path d="M39.8516 23.1446V27.7491C40.1215 27.7647 40.3926 27.7734 40.6652 27.7734H40.6653L41.2077 25.9435L40.6653 23.1446H39.8516Z" fill="#FFAD00"/>
<path d="M41.4777 23.1446H40.6641V27.7733C40.9366 27.7733 41.2077 27.7646 41.4777 27.7491V23.1446Z" fill="#FF8A00"/>
<path d="M39.8516 0.025254V4.62983H40.6653L41.2077 2.00542L40.6653 0.00100708C40.6653 0.00100708 40.1215 0.0097403 39.8516 0.025254Z" fill="#FFAD00"/>
<path d="M41.4777 0.025254C41.2077 0.0097403 40.9366 0.00100708 40.6641 0.00100708V4.62983H41.4777V0.025254Z" fill="#FF8A00"/>
<path d="M46.6406 21.0081L49.922 24.2415C50.115 24.0686 50.3044 23.8905 50.489 23.7058C50.6899 23.505 50.8829 23.2986 51.0698 23.0879L47.7913 19.8575L46.6406 21.0081Z" fill="#FF8A00"/>
<path d="M49.9258 14.7006H54.5303C54.5458 14.4307 54.5546 14.1595 54.5546 13.8869C54.5546 13.6144 54.5458 13.3432 54.5303 13.0733H49.9258V14.7006Z" fill="#FF8A00"/>
<path d="M31.4101 13.0735H26.8055C26.79 13.3434 26.7812 13.6146 26.7812 13.8871C26.7812 14.1597 26.79 14.4309 26.8055 14.7008H31.4101V13.0735Z" fill="#FFAD00"/>
<path d="M47.7914 7.91644L51.0472 4.66052C50.8673 4.45873 50.6818 4.2608 50.489 4.06802C50.2963 3.87529 50.0983 3.68972 49.8965 3.5098L46.6406 6.76566L47.7914 7.91644Z" fill="#FF8A00"/>
<path d="M33.545 19.8575L30.2891 23.1134C30.4689 23.3152 30.6545 23.5131 30.8473 23.7059C31.04 23.8986 31.2379 24.0842 31.4398 24.2641L34.6957 21.0082L33.545 19.8575Z" fill="#FFAD00"/>
<path d="M40.6649 3.81546C35.1116 3.81546 30.5938 8.33336 30.5938 13.8867C30.5938 19.44 35.1116 23.9579 40.6649 23.9579H40.665L41.2074 14.3584L40.665 3.81546H40.6649Z" fill="#FFE9B2"/>
<path d="M50.7353 13.8867C50.7353 8.33341 46.2173 3.81551 40.6641 3.81546V23.9579C46.2173 23.9579 50.7353 19.44 50.7353 13.8867Z" fill="#FFDE8B"/>
<g clip-path="url(#clip3_4561_19325)">
<path d="M37.4155 11.2989H36.7891V13.8597H37.4155V11.2989Z" fill="#F89E17"/>
<path d="M39.3634 9.48123C39.2709 9.4372 39.1732 9.42149 39.0711 9.42822C39.0282 9.43159 38.9852 9.43546 38.9423 9.43546C38.6817 9.43496 38.4212 9.43434 38.1602 9.43159C37.6393 9.42598 37.1177 9.41875 36.5962 9.41151C36.5622 9.41101 36.5281 9.40652 36.4941 9.40091C36.3551 9.37747 36.2202 9.38869 36.093 9.45391C35.88 9.56216 35.7338 9.79637 35.7684 10.0752C35.7979 10.315 35.9797 10.5192 36.2224 10.5806C36.247 10.5867 36.2721 10.5923 36.3016 10.599C36.3106 10.676 36.3077 10.7413 36.2671 10.7982C36.2443 10.83 36.2353 10.8645 36.2337 10.9024C36.2298 10.9906 36.2224 11.0787 36.2203 11.1668V11.1707C36.2103 11.3352 36.1874 11.6119 36.1406 11.7229C36.0714 11.8863 35.9978 12.4363 35.9978 12.4363C35.9577 12.6973 35.9175 12.9589 35.8774 13.2199C35.8367 13.4882 35.7876 13.7548 35.7407 14.0221C35.7407 14.0221 35.7021 14.3144 35.9342 14.4214C35.9342 14.4214 36.0748 14.476 36.2728 14.3032C36.4709 14.1308 36.2288 13.949 36.2282 13.9484C36.1991 13.9267 36.183 13.8631 36.1702 13.8307C36.0793 13.5997 36.1043 13.3743 36.1144 13.1323C36.12 12.9985 36.13 12.8645 36.134 12.7301C36.1424 12.4289 36.1446 12.126 36.1674 11.8253L36.1797 11.8036L36.2004 11.8031L36.2148 11.807C36.2137 11.9665 36.2131 12.126 36.2137 12.2855C36.2153 12.7495 36.2214 13.2136 36.2243 13.6778C36.2243 13.7346 36.2388 13.7831 36.2712 13.83C36.3186 13.8993 36.3666 13.9672 36.4129 14.0369C36.4397 14.0776 36.5255 14.1719 36.5083 14.2233C36.5022 14.2406 36.4893 14.2544 36.4771 14.2684C36.4369 14.3124 36.3963 14.3566 36.3544 14.399C36.3104 14.443 36.2847 14.4788 36.2858 14.5434C36.288 14.7252 36.3126 14.9099 36.3276 15.0906C36.342 15.2763 36.3577 15.4615 36.3728 15.6473C36.3862 15.8158 36.3995 15.9842 36.413 16.1527C36.4281 16.344 36.4442 16.5348 36.4599 16.7261C36.4732 16.8917 36.4861 17.0574 36.4995 17.2231C36.5146 17.4083 36.5302 17.594 36.5447 17.7798C36.5587 17.9483 36.5715 18.1166 36.5848 18.2851C36.6004 18.4759 36.616 18.6672 36.6317 18.8585C36.6451 19.0241 36.6591 19.1899 36.6708 19.3555C36.6864 19.5691 36.717 19.7823 36.7143 19.9975C36.7143 20.0092 36.7149 20.021 36.716 20.0321C36.7472 20.2669 36.9698 20.3718 37.1293 20.3405C37.208 20.3254 37.271 20.2863 37.333 20.2373C37.3894 20.1922 37.4178 20.1381 37.4262 20.07C37.4339 20.0081 37.4417 19.945 37.4451 19.8825C37.4563 19.6734 37.473 19.4636 37.473 19.2539C37.4893 18.7312 37.5105 18.2085 37.5254 17.6854C37.5288 17.5794 37.5288 17.4734 37.5322 17.3675C37.541 17.1015 37.5517 16.8353 37.5595 16.5693C37.5678 16.2887 37.5739 16.0082 37.5807 15.7281C37.5818 15.679 37.5784 15.63 37.5852 15.582C37.5985 15.4788 37.651 15.4101 37.7631 15.4152C37.8066 15.4175 37.8579 15.4225 37.8926 15.4532C37.9567 15.5123 37.9411 15.6445 37.9461 15.7237C37.9461 15.8815 37.96 16.041 37.9639 16.1994C37.9678 16.3645 37.9718 16.5297 37.9772 16.6942C37.9917 17.1209 38.0074 17.5471 38.0213 17.9737C38.0258 18.1192 38.0296 18.2643 38.0335 18.4093C38.0335 18.4121 38.0335 18.4143 38.0341 18.4172C38.0409 18.6811 38.0481 18.9448 38.0542 19.2087C38.0603 19.4664 38.0542 19.7258 38.0709 19.9829C38.0793 20.109 38.1573 20.2183 38.2701 20.2741C38.3962 20.3366 38.5205 20.3215 38.6371 20.2451C38.6639 20.2272 38.6834 20.2033 38.6985 20.1742C38.7264 20.1201 38.7437 20.0626 38.7498 20.0024C38.7587 19.9171 38.7649 19.8316 38.7715 19.7458C38.7977 19.3978 38.8239 19.0492 38.8496 18.7011C38.8697 18.4212 38.8886 18.1412 38.9082 17.8611C38.9143 17.7695 38.9222 17.6786 38.9289 17.5872C38.944 17.3842 38.9585 17.1817 38.9729 16.9786C38.9869 16.7873 39.0009 16.596 39.0142 16.4047C39.0293 16.1994 39.0444 15.9937 39.0594 15.7884C39.0727 15.5971 39.0862 15.4051 39.1007 15.2138C39.1146 15.0225 39.1291 14.8317 39.1431 14.6404C39.1498 14.5143 39.0432 14.4642 38.9606 14.3866C38.911 14.3404 38.95 14.3036 38.984 14.2583C39.0321 14.1942 39.0811 14.1306 39.1286 14.0659C39.1559 14.0291 39.1816 13.9912 39.2078 13.9533C39.2412 13.9047 39.2574 13.8512 39.2558 13.7915C39.2547 13.7547 39.253 13.7173 39.2542 13.6799C39.2698 13.1243 39.286 12.5688 39.3022 12.0132C39.3117 11.687 39.3211 11.3606 39.3324 11.0344C39.3346 10.978 39.3251 10.9279 39.2961 10.8787C39.2598 10.8174 39.2269 10.7538 39.1946 10.6897C39.1772 10.6545 39.1566 10.6188 39.1684 10.572C39.1985 10.5652 39.2286 10.558 39.2593 10.5508C39.4969 10.4916 39.6671 10.2925 39.6888 10.0404C39.7077 9.81682 39.5884 9.5881 39.3642 9.48098L39.3634 9.48123ZM37.6438 13.6584C37.6438 13.8759 37.4681 14.0516 37.2506 14.0516H36.9929C36.7754 14.0516 36.5997 13.8759 36.5997 13.6584V11.4267C36.5997 11.2097 36.7754 11.0335 36.9929 11.0335H37.2506C37.4681 11.0335 37.6438 11.2097 37.6438 11.4267V13.6584ZM38.9569 13.6584C38.9569 13.8759 38.7811 14.0516 38.5636 14.0516H38.306C38.0885 14.0516 37.9128 13.8759 37.9128 13.6584V11.4267C37.9128 11.2097 38.0885 11.0335 38.306 11.0335H38.5636C38.7811 11.0335 38.9569 11.2097 38.9569 11.4267V13.6584ZM38.1035 13.8598H38.7299V11.299H38.1035V13.8598Z" fill="#F89E17"/>
<path d="M41.9032 9.93835C42.579 9.93835 43.1268 9.33611 43.1268 8.59321C43.1268 7.85032 42.579 7.24808 41.9032 7.24808C41.2275 7.24808 40.6797 7.85032 40.6797 8.59321C40.6797 9.33611 41.2275 9.93835 41.9032 9.93835Z" fill="#F88217"/>
<path d="M44.8111 10.6434C44.8037 10.695 44.8221 10.7374 44.8451 10.7768C44.8695 10.8187 44.8972 10.8591 44.9269 10.8975C45.087 11.105 45.2149 11.3313 45.3212 11.5703C45.3398 11.6121 45.3556 11.6553 45.3712 11.6983C45.3986 11.7744 45.4131 11.8526 45.4119 11.9339C45.4064 12.2804 45.4019 12.627 45.3969 12.9735C45.396 13.0307 45.3944 13.0881 45.3924 13.1453C45.3794 13.506 45.3675 13.8666 45.3523 14.2272C45.3475 14.3387 45.3327 14.4497 45.3247 14.5609C45.3205 14.6192 45.2955 14.6658 45.2521 14.7018C45.1623 14.7764 45.0652 14.8278 44.9418 14.8282C44.5723 14.8293 44.2028 14.8365 43.8333 14.841C43.8052 14.8414 43.7773 14.839 43.7447 14.8377C43.7414 14.8165 43.7376 14.8004 43.7367 14.784C43.7355 14.7612 43.7362 14.7383 43.7362 14.7153C43.7362 13.0796 43.737 11.444 43.7344 9.80829C43.7343 9.70179 43.7646 9.61237 43.8204 9.52694C43.9854 9.27465 44.2867 9.12811 44.6193 9.19484C44.9361 9.25831 45.1755 9.50898 45.2209 9.8245C45.268 10.1511 45.1479 10.407 44.8782 10.5946C44.8595 10.6076 44.8401 10.6198 44.8211 10.6325C44.8189 10.634 44.8172 10.6367 44.8115 10.6434H44.8111Z" fill="#F88217"/>
<path d="M41.5052 15.4646C41.5052 14.0436 41.5058 12.6226 41.5039 11.2015C41.5038 11.0981 41.524 11.0026 41.5688 10.9114C41.7202 10.6038 41.9645 10.4217 42.3048 10.3711C42.7859 10.2993 43.286 10.6317 43.3657 11.1637C43.375 11.2257 43.3766 11.2891 43.3779 11.3519C43.3796 11.4292 43.3763 11.5065 43.3769 11.5839C43.3806 12.0308 43.3873 12.4777 43.388 12.9246C43.3887 13.2884 43.3834 13.6523 43.3786 14.0161C43.3764 14.1766 43.3646 14.3367 43.3277 14.4936C43.3153 14.5463 43.298 14.5984 43.2772 14.6484C43.2348 14.7502 43.1611 14.8232 43.0623 14.873C42.8544 14.9776 42.769 15.1597 42.7462 15.3803C42.7356 15.9761 42.7247 16.5719 42.7142 17.1677C42.7051 17.6833 42.697 18.1989 42.6875 18.7145C42.6806 19.0926 42.6712 19.4706 42.6656 19.8487C42.6646 19.9126 42.6454 19.9658 42.6088 20.0155C42.4684 20.206 42.2786 20.2986 42.044 20.2776C41.8097 20.2567 41.6383 20.1335 41.534 19.9205C41.5134 19.8784 41.5025 19.8348 41.5049 19.7878C41.5062 19.7621 41.5052 19.7363 41.5052 19.7104C41.5052 18.2951 41.5052 16.8799 41.5052 15.4645V15.4646Z" fill="#F88217"/>
<path d="M38.8406 8.40246C38.8482 8.72035 38.7266 9.01056 38.5246 9.22294C38.4837 9.26597 38.4264 9.28966 38.3671 9.28966H37.013C36.9537 9.28966 36.8965 9.26597 36.8557 9.22306C36.6594 9.01667 36.5391 8.73769 36.5391 8.43065C36.5391 7.77591 37.0854 7.24901 37.747 7.28068C38.3428 7.30924 38.8264 7.80597 38.8407 8.40234L38.8406 8.40246Z" fill="#F89E17"/>
<path d="M39.426 11.811C39.4254 11.9861 39.4244 12.1613 39.424 12.3364C39.4237 12.5106 39.423 12.6848 39.4228 12.8591C39.4228 12.8688 39.4228 12.8785 39.4228 12.8884C39.4225 13.0928 39.4379 13.302 39.4243 13.5082C39.4174 13.6129 39.403 13.7177 39.3748 13.819C39.3467 13.92 39.2945 14.0013 39.2352 14.087C39.1866 14.1573 39.1394 14.2179 39.1891 14.3032C39.2325 14.3777 39.3283 14.4596 39.4102 14.4862C39.4803 14.5089 39.5521 14.4887 39.6035 14.4369C39.7525 14.2869 39.7074 14.1038 39.6887 13.9157C39.637 13.3977 39.5586 12.8828 39.5101 12.3643C39.4879 12.1811 39.4765 11.9968 39.46 11.8131C39.46 11.8131 39.4429 11.7737 39.4259 11.811H39.426Z" fill="#F89E17"/>
</g>
</g>
<defs>
<clipPath id="clip0_4561_19325">
<rect width="73.7045" height="74.7727" fill="white" transform="translate(49.2148 19.2266)"/>
</clipPath>
<clipPath id="clip1_4561_19325">
<rect width="40.5909" height="42.7273" fill="white" transform="translate(0.078125 34.1818)"/>
</clipPath>
<clipPath id="clip2_4561_19325">
<rect width="27.7727" height="27.7727" fill="white" transform="translate(26.7812 3.05176e-05)"/>
</clipPath>
<clipPath id="clip3_4561_19325">
<rect width="13.8864" height="13.8864" fill="white" transform="translate(33.6328 6.85355)"/>
</clipPath>
</defs>
</svg>
