<svg width="95" height="67" viewBox="0 0 95 67" fill="none" xmlns="http://www.w3.org/2000/svg">
<path d="M83.2734 66.0942H11.7266C5.26044 66.0942 0 60.8336 0 54.3677V12.6319C0 6.16574 5.26063 0.905304 11.7266 0.905304H83.2734C89.7396 0.905304 95 6.16593 95 12.6319V54.3677C95 60.8336 89.7394 66.0942 83.2734 66.0942Z" fill="#3C5A6E"/>
<path d="M83.2734 0.905304H47.5V66.0942H83.2734C89.7396 66.0942 95 60.8336 95 54.3677V12.6319C95 6.16593 89.7394 0.905304 83.2734 0.905304Z" fill="#1E354B"/>
<path d="M83.0749 54.1697H53.2637C51.7266 54.1697 50.4805 52.9236 50.4805 51.3865V36.6787C50.4805 35.1417 51.7266 33.8955 53.2637 33.8955H83.0749C84.612 33.8955 85.8581 35.1417 85.8581 36.6787V51.3865C85.8581 52.9237 84.6122 54.1697 83.0749 54.1697Z" fill="#FF3D7D"/>
<path d="M23.6484 54.17H14.7051C13.168 54.17 11.9219 52.9238 11.9219 51.3867C11.9219 49.8497 13.168 48.6035 14.7051 48.6035H23.6484C25.1855 48.6035 26.4316 49.8497 26.4316 51.3867C26.4316 52.9238 25.1855 54.17 23.6484 54.17Z" fill="#F0E6E6"/>
<path d="M23.6484 18.3965H14.7051C13.168 18.3965 11.9219 17.1504 11.9219 15.6133C11.9219 14.0762 13.168 12.8301 14.7051 12.8301H23.6484C25.1855 12.8301 26.4316 14.0762 26.4316 15.6133C26.4316 17.1504 25.1855 18.3965 23.6484 18.3965Z" fill="#5ECBF1"/>
<path d="M32.5918 42.2451H14.7051C13.168 42.2451 11.9219 40.999 11.9219 39.4619C11.9219 37.9249 13.168 36.6787 14.7051 36.6787H32.5918C34.1289 36.6787 35.375 37.9249 35.375 39.4619C35.375 40.999 34.1289 42.2451 32.5918 42.2451Z" fill="#F0E6E6"/>
<path d="M65.3828 33.8955H70.9492V54.1697H65.3828V33.8955Z" fill="#F0E6E6"/>
<path d="M74.131 12.8301C71.8284 12.8301 69.7321 13.7261 68.1687 15.1858C66.6053 13.7259 64.5091 12.8301 62.2065 12.8301C57.3843 12.8301 53.4609 16.7535 53.4609 21.5757C53.4609 26.3979 57.3843 30.3211 62.2065 30.3211C63.7436 30.3211 64.9897 29.0749 64.9897 27.5379C64.9897 26.0008 63.7436 24.7547 62.2065 24.7547C60.4536 24.7547 59.0273 23.3285 59.0273 21.5757C59.0273 19.8228 60.4536 18.3965 62.2065 18.3965C63.9594 18.3965 65.3855 19.8228 65.3855 21.5757V24.7547C65.3855 26.2917 66.6316 27.5379 68.1687 27.5379C69.7057 27.5379 70.9519 26.2917 70.9519 24.7547V21.5757C70.9519 19.8228 72.3782 18.3965 74.131 18.3965C75.8839 18.3965 77.31 19.8228 77.31 21.5757C77.31 23.3285 75.8839 24.7547 74.131 24.7547C72.594 24.7547 71.3478 26.0008 71.3478 27.5379C71.3478 29.0749 72.594 30.3211 74.131 30.3211C78.9532 30.3211 82.8764 26.3979 82.8764 21.5757C82.8764 16.7533 78.9532 12.8301 74.131 12.8301Z" fill="#F0E6E6"/>
<path d="M86.0566 36.6787H50.2832C48.7461 36.6787 47.5 35.4325 47.5 33.8955V27.5371C47.5 26.0001 48.7461 24.7539 50.2832 24.7539H86.0566C87.5937 24.7539 88.8398 26.0001 88.8398 27.5371V33.8955C88.8398 35.4325 87.5937 36.6787 86.0566 36.6787Z" fill="#FF6B6B"/>
<path d="M65.3867 24.7539H70.9531V36.6787H65.3867V24.7539Z" fill="#FFF7F4"/>
</svg>
