<svg width="99" height="97" viewBox="0 0 99 97" fill="none" xmlns="http://www.w3.org/2000/svg">
<g clip-path="url(#clip0_4561_19477)">
<path d="M76.0695 16.3613C70.3423 13.7334 64.2006 11.7972 57.779 10.6882C57.6622 10.6668 57.5453 10.7203 57.4851 10.8272C56.6951 12.2321 55.8202 14.0648 55.2075 15.5053C48.3009 14.4712 41.4295 14.4712 34.6644 15.5053C34.0516 14.0328 33.1449 12.2321 32.3514 10.8272C32.2912 10.7238 32.1744 10.6703 32.0575 10.6882C25.6396 11.7936 19.4979 13.7297 13.767 16.3613C13.7173 16.3827 13.6748 16.4183 13.6466 16.4646C1.99721 33.8687 -1.19418 50.845 0.371327 67.6107C0.378347 67.6926 0.424505 67.7711 0.488213 67.8211C8.17413 73.4655 15.6194 76.8921 22.9263 79.1635C23.0431 79.1991 23.1671 79.1565 23.2415 79.0601C24.9698 76.6998 26.5106 74.2109 27.8316 71.5936C27.9096 71.4404 27.8352 71.2584 27.6758 71.1978C25.2319 70.2708 22.9048 69.1404 20.6663 67.8569C20.4892 67.7535 20.475 67.5003 20.638 67.379C21.1091 67.0261 21.5803 66.6587 22.0301 66.2879C22.1116 66.2201 22.2249 66.2059 22.3206 66.2486C37.0266 72.9629 52.9476 72.9629 67.4799 66.2486C67.5756 66.2022 67.689 66.2166 67.7739 66.2842C68.2239 66.655 68.695 67.0259 69.1695 67.3788C69.3324 67.5001 69.3217 67.7534 69.1448 67.8567C66.9062 69.1653 64.5792 70.2706 62.1318 71.1941C61.9724 71.2547 61.9015 71.4402 61.9796 71.5934C63.3291 74.207 64.8698 76.6959 66.5663 79.0564C66.6372 79.1563 66.7646 79.1991 66.8815 79.1633C74.2238 76.8921 81.6691 73.4654 89.355 67.8209C89.4224 67.7711 89.4648 67.6961 89.4719 67.6142C91.3456 48.2312 86.3336 31.394 76.1861 16.4681C76.1615 16.4183 76.119 16.3827 76.0695 16.3613ZM30.0281 57.402C25.6006 57.402 21.9524 53.3373 21.9524 48.3452C21.9524 43.3533 25.5297 39.2884 30.0281 39.2884C34.5616 39.2884 38.1745 43.389 38.1036 48.3452C38.1036 53.3373 34.5261 57.402 30.0281 57.402ZM59.8863 57.402C55.459 57.402 51.8108 53.3373 51.8108 48.3452C51.8108 43.3533 55.3881 39.2884 59.8863 39.2884C64.42 39.2884 68.0328 43.389 67.9621 48.3452C67.9621 53.3373 64.4202 57.402 59.8863 57.402Z" fill="#E9EBFF"/>
</g>
<g clip-path="url(#clip1_4561_19477)">
<path d="M84.4016 23.5019C78.6743 20.874 72.5327 18.9379 66.1111 17.8288C65.9942 17.8074 65.8773 17.861 65.8171 17.9678C65.0272 19.3728 64.1523 21.2054 63.5396 22.6459C56.6329 21.6119 49.7615 21.6119 42.9965 22.6459C42.3836 21.1735 41.4769 19.3728 40.6835 17.9678C40.6233 17.8645 40.5064 17.8109 40.3895 17.8288C33.9716 18.9342 27.83 20.8704 22.099 23.5019C22.0493 23.5233 22.0069 23.5589 21.9786 23.6053C10.3292 41.0093 7.13785 57.9856 8.70336 74.7513C8.71038 74.8333 8.75654 74.9117 8.82024 74.9617C16.5062 80.6062 23.9515 84.0327 31.2583 86.3041C31.3752 86.3398 31.4991 86.2971 31.5735 86.2008C33.3019 83.8404 34.8426 81.3515 36.1637 78.7342C36.2416 78.581 36.1672 78.399 36.0078 78.3385C33.5639 77.4114 31.2369 76.281 28.9983 74.9975C28.8212 74.8942 28.807 74.6409 28.97 74.5196C29.4411 74.1667 29.9123 73.7994 30.3622 73.4285C30.4436 73.3608 30.557 73.3465 30.6526 73.3892C45.3586 80.1035 61.2796 80.1035 75.812 73.3892C75.9076 73.3429 76.021 73.3573 76.106 73.4248C76.5559 73.7957 77.027 74.1665 77.5016 74.5195C77.6644 74.6407 77.6537 74.894 77.4768 74.9973C75.2383 76.3059 72.9112 77.4113 70.4638 78.3348C70.3044 78.3953 70.2335 78.5808 70.3116 78.734C71.6611 81.3477 73.2019 83.8365 74.8983 86.1971C74.9692 86.2969 75.0966 86.3398 75.2135 86.304C82.5558 84.0327 90.0011 80.606 97.687 74.9615C97.7544 74.9117 97.7969 74.8368 97.8039 74.7548C99.6776 55.3718 94.6657 38.5346 84.5181 23.6088C84.4935 23.5589 84.4511 23.5233 84.4016 23.5019ZM38.3601 64.5427C33.9326 64.5427 30.2844 60.4779 30.2844 55.4859C30.2844 50.494 33.8617 46.4291 38.3601 46.4291C42.8936 46.4291 46.5066 50.5296 46.4357 55.4859C46.4357 60.4779 42.8582 64.5427 38.3601 64.5427ZM68.2184 64.5427C63.7911 64.5427 60.1428 60.4779 60.1428 55.4859C60.1428 50.494 63.7202 46.4291 68.2184 46.4291C72.752 46.4291 76.3648 50.5296 76.2941 55.4859C76.2941 60.4779 72.7522 64.5427 68.2184 64.5427Z" fill="#5865F2"/>
</g>
<defs>
<clipPath id="clip0_4561_19477">
<rect width="89.8589" height="89.8589" fill="white"/>
</clipPath>
<clipPath id="clip1_4561_19477">
<rect width="89.8589" height="89.8589" fill="white" transform="translate(8.33203 7.14059)"/>
</clipPath>
</defs>
</svg>
