<svg width="94" height="94" viewBox="0 0 94 94" fill="none" xmlns="http://www.w3.org/2000/svg">
<g clip-path="url(#clip0_4561_19439)">
<path d="M2.80788 45.9598L9.22896e-08 47.1502C-0.000183501 47.8618 0.273555 48.5681 0.807629 49.1002L45.0623 93.2001C45.5788 93.7149 46.4659 93.9971 46.9868 93.9995C47.5159 94.0019 48.4208 93.7234 48.9463 93.1996L93.1935 49.0719C93.7261 48.5406 93.9996 47.8361 94.0004 47.1258L91.5589 45.96C90.1976 45.96 77.5535 45.96 62.1905 45.96L45.7167 51.2778L31.7839 45.96C17.3324 45.9598 5.29558 45.9598 2.80788 45.9598Z" fill="#FFB739"/>
<path d="M93.9993 47.126C93.9993 47.8356 93.7261 48.5399 93.1924 49.0715L48.9455 93.1992C48.4249 93.7199 47.528 93.9988 47 93.9988V50.863L62.1904 45.9598H91.5588L93.9993 47.126Z" fill="#FF9441"/>
<path d="M31.7812 45.9598L46.9977 93.9988L62.1879 45.9598H31.7812Z" fill="#FF9441"/>
<path d="M62.1902 45.9598L47 93.9988V45.9598H62.1902Z" fill="#FF7149"/>
<path d="M93.5386 45.5977L78.8095 23.5292C78.6057 23.224 78.3431 22.9648 78.0407 22.7647L76.7057 23.4058L49.5481 23.5751L47 22.3055L44.9408 23.6037L17.8444 23.7726L15.9536 22.7674C15.6534 22.967 15.3918 23.2253 15.1883 23.5306L0.46027 45.6269C0.15018 46.0921 0 46.6229 0 47.1507C5.33542 47.1492 87.109 47.1278 94 47.1259C94.0004 46.5966 93.8498 46.064 93.5386 45.5977Z" fill="#FFD17E"/>
<path d="M93.9993 47.1265C90.585 47.1265 68.7786 47.1338 47 47.1393V22.3055L49.5488 23.5743L76.7058 23.4056L78.0407 22.7638C78.3433 22.9655 78.6055 23.224 78.8091 23.5284L93.5392 45.5969C93.8507 46.0647 94.0011 46.5964 93.9993 47.1265Z" fill="#FFB739"/>
<path d="M17.4759 22.3055C16.9258 22.3055 16.3982 22.4709 15.9531 22.7671L32.2665 47.1423H32.2684L46.9981 22.3055H17.4759Z" fill="#FFB739"/>
<path d="M61.7369 47.1344L78.0411 22.7641C77.597 22.4698 77.071 22.3055 76.5226 22.3055H47L61.7251 47.1345H61.7369V47.1344Z" fill="#FF9441"/>
<path d="M30.5535 66.3362C25.9499 66.3362 22.2044 62.5909 22.2044 57.9873C22.2044 56.4664 20.9714 55.2334 19.4505 55.2334C17.9296 55.2334 16.6966 56.4664 16.6966 57.9873C16.6966 62.5678 12.9739 66.3362 8.34766 66.3362C6.82677 66.3362 5.59375 67.5692 5.59375 69.0901C5.59375 70.611 6.82677 71.844 8.34766 71.844C12.9513 71.844 16.6966 75.5893 16.6966 80.1929C16.6966 81.7138 17.9296 82.9468 19.4505 82.9468C20.9714 82.9468 22.2044 81.7138 22.2044 80.1929C22.2044 75.6128 25.9268 71.844 30.5535 71.844C32.0744 71.844 33.3074 70.611 33.3074 69.0901C33.3074 67.5692 32.0744 66.3362 30.5535 66.3362Z" fill="#FFD17E"/>
<path d="M72.7643 11.1028C68.1606 11.1028 64.4153 7.35749 64.4153 2.75388C64.4153 1.23298 63.1823 -3.05176e-05 61.6614 -3.05176e-05C60.1405 -3.05176e-05 58.9075 1.23298 58.9075 2.75388C58.9075 7.35749 55.1624 11.1028 50.5586 11.1028C49.0377 11.1028 47.8047 12.3358 47.8047 13.8567C47.8047 15.3776 49.0377 16.6106 50.5586 16.6106C55.1622 16.6106 58.9075 20.3559 58.9075 24.9595C58.9075 26.4804 60.1405 27.7134 61.6614 27.7134C63.1823 27.7134 64.4153 26.4804 64.4153 24.9595C64.4153 20.3559 68.1605 16.6106 72.7643 16.6106C74.2852 16.6106 75.5182 15.3776 75.5182 13.8567C75.5182 12.3358 74.2852 11.1028 72.7643 11.1028Z" fill="#FFB739"/>
</g>
<defs>
<clipPath id="clip0_4561_19439">
<rect width="94" height="94" fill="white"/>
</clipPath>
</defs>
</svg>
