<svg width="108" height="80" viewBox="0 0 108 80" fill="none" xmlns="http://www.w3.org/2000/svg">
<g clip-path="url(#clip0_4561_19269)">
<path d="M14.1199 12.0027C11.1848 12.1736 8.43399 13.3351 6.24466 15.3285C6.0673 15.49 6.39931 16.1702 6.22954 16.3426C6.04004 16.5349 5.35138 16.2189 5.17518 16.4208C3.24483 18.6325 2.12032 21.3998 1.95343 24.3508C1.93902 24.6061 2.43747 24.8629 2.43747 25.1207C2.43747 25.3786 1.93902 25.6354 1.95343 25.8907C2.12108 28.8557 3.25555 31.6354 5.20274 33.8522C5.37044 34.0431 5.88493 34.2828 5.88493 34.2828C5.88493 34.2828 6.08753 34.7709 6.27571 34.9411C8.45999 36.9173 11.1987 38.0686 14.1199 38.2387C14.3715 38.2534 14.8786 37.9395 14.8786 37.9395L15.3844 25.6155L14.8873 12.2151C14.8873 12.2151 14.3715 11.988 14.1199 12.0027Z" fill="#FFE273"/>
<path d="M14.8789 12.4834V35.0653C14.8789 35.0653 15.3859 38.2535 15.6375 38.2389C18.5694 38.0681 21.3174 36.909 23.5056 34.9196C23.6855 34.7561 23.3558 34.0736 23.528 33.899C23.7152 33.709 24.4017 34.0275 24.5759 33.8282C26.5101 31.6153 27.6369 28.8451 27.804 25.8908C27.8184 25.6354 26.8142 25.3786 26.8142 25.1208C26.8142 24.8629 27.8184 24.6062 27.804 24.3508C27.6364 21.3858 26.5019 18.6062 24.5547 16.3893C24.3871 16.1984 23.7924 16.0613 23.7924 16.0613C23.7924 16.0613 23.67 15.4706 23.4818 15.3003C21.2975 13.3243 18.5587 12.1736 15.6375 12.0035C15.4129 11.9904 14.8789 12.4834 14.8789 12.4834Z" fill="#FFCF73"/>
<path d="M9.30774 18.3822L6.24105 15.3291C6.06364 15.4906 5.88957 15.6571 5.71974 15.8294C5.53019 16.0218 5.34807 16.2196 5.17188 16.4216L8.23497 19.471L9.30774 18.3822Z" fill="#FFAD00"/>
<path d="M14.1172 33.8809V38.238C14.3688 38.2527 14.6217 38.261 14.8758 38.261H14.8758L15.3816 36.5294L14.8758 33.8809H14.1172Z" fill="#FFAD00"/>
<path d="M15.6336 33.8809H14.875V38.2609C15.1291 38.2609 15.3819 38.2526 15.6336 38.238V33.8809Z" fill="#FF8A00"/>
<path d="M14.1172 12.0034V16.3606H14.8758L15.3816 13.8772L14.8758 11.9805C14.8758 11.9805 14.3688 11.9888 14.1172 12.0034Z" fill="#FFAD00"/>
<path d="M15.6336 12.0034C15.3819 11.9888 15.1291 11.9805 14.875 11.9805V16.3606H15.6336V12.0034Z" fill="#FF8A00"/>
<path d="M20.4453 31.8594L23.5047 34.919C23.6847 34.7554 23.8612 34.5868 24.0334 34.4121C24.2206 34.2221 24.4006 34.0267 24.5748 33.8274L21.5182 30.7705L20.4453 31.8594Z" fill="#FF8A00"/>
<path d="M23.5078 25.8905H27.8008C27.8153 25.6351 27.8234 25.3785 27.8234 25.1206C27.8234 24.8627 27.8153 24.6061 27.8008 24.3507H23.5078V25.8905Z" fill="#FF8A00"/>
<path d="M6.24534 24.3507H1.95229C1.93783 24.6061 1.92969 24.8627 1.92969 25.1206C1.92969 25.3785 1.93783 25.6351 1.95229 25.8905H6.24534V24.3507Z" fill="#FFAD00"/>
<path d="M21.5182 19.4706L24.5538 16.3897C24.3861 16.1988 24.2131 16.0115 24.0333 15.829C23.8536 15.6467 23.6691 15.4711 23.4809 15.3008L20.4453 18.3817L21.5182 19.4706Z" fill="#FF8A00"/>
<path d="M8.23876 30.7705L5.20312 33.8515C5.37083 34.0424 5.54384 34.2297 5.72358 34.4121C5.90327 34.5945 6.08781 34.7701 6.27599 34.9404L9.31163 31.8594L8.23876 30.7705Z" fill="#FFAD00"/>
<path d="M14.8742 15.5909C9.69661 15.5909 5.48438 19.866 5.48438 25.1208C5.48438 30.3757 9.69661 34.6508 14.8742 34.6508H14.8742L15.38 25.5672L14.8742 15.5909H14.8742Z" fill="#FFE9B2"/>
<path d="M24.2648 25.1209C24.2648 19.866 20.0525 15.5909 14.875 15.5909V34.6508C20.0525 34.6508 24.2648 30.3757 24.2648 25.1209Z" fill="#FFDE8B"/>
<g clip-path="url(#clip1_4561_19269)">
<path d="M11.8458 22.6709H11.2617V25.0941H11.8458V22.6709Z" fill="#F89E17"/>
<path d="M13.6611 20.9509C13.5748 20.9093 13.4838 20.8944 13.3886 20.9008C13.3486 20.9039 13.3085 20.9076 13.2685 20.9076C13.0256 20.9071 12.7827 20.9065 12.5393 20.9039C12.0536 20.8986 11.5674 20.8918 11.0811 20.8849C11.0494 20.8845 11.0176 20.8802 10.9859 20.8749C10.8564 20.8527 10.7306 20.8634 10.612 20.9251C10.4134 21.0275 10.2771 21.2491 10.3093 21.513C10.3369 21.7399 10.5064 21.9331 10.7326 21.9912C10.7556 21.997 10.7789 22.0023 10.8065 22.0086C10.8149 22.0814 10.8122 22.1433 10.7743 22.1971C10.753 22.2272 10.7446 22.2599 10.7431 22.2958C10.7395 22.3792 10.7326 22.4625 10.7307 22.5459V22.5496C10.7214 22.7052 10.7 22.9671 10.6564 23.0721C10.5918 23.2267 10.5232 23.7471 10.5232 23.7471C10.4858 23.9941 10.4484 24.2417 10.4109 24.4887C10.373 24.7426 10.3272 24.9949 10.2835 25.2478C10.2835 25.2478 10.2476 25.5244 10.4639 25.6256C10.4639 25.6256 10.595 25.6773 10.7796 25.5137C10.9643 25.3507 10.7386 25.1786 10.738 25.178C10.7109 25.1575 10.6959 25.0973 10.6839 25.0666C10.5992 24.8481 10.6225 24.6348 10.632 24.4058C10.6372 24.2791 10.6465 24.1524 10.6502 24.0252C10.658 23.7402 10.6601 23.4535 10.6814 23.169L10.6928 23.1485L10.7121 23.148L10.7256 23.1517C10.7245 23.3026 10.7239 23.4535 10.7245 23.6045C10.726 24.0436 10.7317 24.4827 10.7344 24.9219C10.7344 24.9757 10.7479 25.0216 10.7781 25.066C10.8223 25.1315 10.8671 25.1958 10.9102 25.2618C10.9352 25.3003 11.0152 25.3895 10.9991 25.4381C10.9935 25.4545 10.9815 25.4676 10.9701 25.4808C10.9326 25.5225 10.8947 25.5643 10.8557 25.6044C10.8146 25.646 10.7907 25.6799 10.7917 25.741C10.7938 25.9131 10.8167 26.0879 10.8307 26.2589C10.8442 26.4346 10.8588 26.6098 10.8729 26.7856C10.8853 26.9451 10.8978 27.1044 10.9103 27.2638C10.9244 27.4448 10.9394 27.6254 10.954 27.8064C10.9665 27.9631 10.9785 28.12 10.991 28.2767C11.0051 28.4519 11.0196 28.6277 11.0331 28.8035C11.0461 28.9629 11.0581 29.1222 11.0705 29.2817C11.0851 29.4622 11.0996 29.6432 11.1143 29.8243C11.1267 29.981 11.1397 30.1378 11.1507 30.2945C11.1652 30.4967 11.1938 30.6984 11.1912 30.9021C11.1912 30.9131 11.1918 30.9242 11.1929 30.9347C11.2219 31.157 11.4295 31.2562 11.5782 31.2266C11.6516 31.2123 11.7103 31.1754 11.7681 31.129C11.8206 31.0863 11.8471 31.035 11.8549 30.9706C11.8621 30.9121 11.8695 30.8524 11.8726 30.7932C11.8831 30.5953 11.8986 30.3969 11.8986 30.1984C11.9138 29.7038 11.9335 29.2092 11.9475 28.7142C11.9506 28.6138 11.9506 28.5135 11.9538 28.4134C11.962 28.1616 11.972 27.9098 11.9792 27.6581C11.987 27.3926 11.9927 27.1272 11.999 26.8621C12 26.8156 11.9969 26.7692 12.0032 26.7238C12.0156 26.6262 12.0646 26.5612 12.1691 26.566C12.2097 26.5682 12.2575 26.5729 12.2898 26.6019C12.3496 26.6578 12.335 26.7829 12.3397 26.8579C12.3397 27.0073 12.3527 27.1582 12.3563 27.3081C12.3599 27.4643 12.3636 27.6206 12.3687 27.7762C12.3822 28.18 12.3969 28.5833 12.4098 28.987C12.414 29.1247 12.4176 29.262 12.4212 29.3992C12.4212 29.4018 12.4212 29.4039 12.4218 29.4066C12.428 29.6563 12.4348 29.9059 12.4405 30.1556C12.4462 30.3994 12.4405 30.6449 12.4561 30.8882C12.4638 31.0076 12.5366 31.1109 12.6417 31.1638C12.7593 31.2229 12.8752 31.2086 12.9839 31.1363C13.0089 31.1194 13.0271 31.0968 13.0411 31.0693C13.0672 31.0181 13.0834 30.9637 13.0891 30.9067C13.0973 30.8259 13.1031 30.7451 13.1093 30.6639C13.1337 30.3345 13.1581 30.0047 13.1821 29.6753C13.2008 29.4104 13.2185 29.1455 13.2367 28.8804C13.2424 28.7938 13.2497 28.7078 13.256 28.6213C13.2701 28.4292 13.2836 28.2375 13.2971 28.0454C13.3101 27.8644 13.3231 27.6833 13.3356 27.5023C13.3496 27.3081 13.3637 27.1134 13.3776 26.9191C13.3901 26.7381 13.4026 26.5565 13.4161 26.3754C13.4292 26.1944 13.4426 26.0139 13.4557 25.8328C13.4619 25.7135 13.3625 25.6661 13.2856 25.5927C13.2393 25.5489 13.2757 25.5141 13.3074 25.4713C13.3522 25.4106 13.3979 25.3504 13.4422 25.2892C13.4676 25.2544 13.4916 25.2185 13.516 25.1826C13.5472 25.1367 13.5623 25.0861 13.5608 25.0296C13.5597 24.9947 13.5582 24.9593 13.5593 24.9239C13.5738 24.3982 13.5889 23.8726 13.604 23.3469C13.6129 23.0381 13.6217 22.7293 13.6322 22.4206C13.6343 22.3673 13.6254 22.3198 13.5983 22.2733C13.5645 22.2153 13.5338 22.1551 13.5037 22.0944C13.4875 22.0611 13.4683 22.0274 13.4793 21.983C13.5074 21.9767 13.5354 21.9698 13.564 21.963C13.7855 21.907 13.9442 21.7186 13.9645 21.4801C13.9822 21.2685 13.8709 21.0521 13.6618 20.9507L13.6611 20.9509ZM12.0578 24.9036C12.0578 25.1094 11.894 25.2757 11.6912 25.2757H11.451C11.2482 25.2757 11.0844 25.1094 11.0844 24.9036V22.7919C11.0844 22.5865 11.2482 22.4198 11.451 22.4198H11.6912C11.894 22.4198 12.0578 22.5865 12.0578 22.7919V24.9036ZM13.2821 24.9036C13.2821 25.1094 13.1182 25.2757 12.9155 25.2757H12.6752C12.4725 25.2757 12.3086 25.1094 12.3086 24.9036V22.7919C12.3086 22.5865 12.4725 22.4198 12.6752 22.4198H12.9155C13.1182 22.4198 13.2821 22.5865 13.2821 22.7919V24.9036ZM12.4864 25.0942H13.0705V22.671H12.4864V25.0942Z" fill="#F89E17"/>
<path d="M16.0314 21.3835C16.6614 21.3835 17.1722 20.8136 17.1722 20.1106C17.1722 19.4076 16.6614 18.8378 16.0314 18.8378C15.4014 18.8378 14.8906 19.4076 14.8906 20.1106C14.8906 20.8136 15.4014 21.3835 16.0314 21.3835Z" fill="#F88217"/>
<path d="M18.7461 22.051C18.7391 22.0998 18.7563 22.14 18.7777 22.1772C18.8005 22.2169 18.8263 22.2551 18.854 22.2915C19.0033 22.4878 19.1226 22.7019 19.2217 22.9281C19.239 22.9677 19.2537 23.0085 19.2683 23.0492C19.2939 23.1212 19.3073 23.1952 19.3062 23.2721C19.3011 23.6001 19.2969 23.928 19.2922 24.2559C19.2914 24.31 19.2899 24.3643 19.288 24.4185C19.276 24.7598 19.2648 25.101 19.2506 25.4422C19.2462 25.5477 19.2324 25.6527 19.2249 25.758C19.221 25.8131 19.1977 25.8572 19.1572 25.8914C19.0735 25.9619 18.9829 26.0105 18.868 26.0109C18.5234 26.012 18.1789 26.0188 17.8344 26.0231C17.8082 26.0234 17.7822 26.0212 17.7518 26.0199C17.7487 25.9998 17.7452 25.9846 17.7444 25.9691C17.7432 25.9475 17.7439 25.9258 17.7439 25.9041C17.7439 24.3563 17.7446 22.8086 17.7422 21.2608C17.7421 21.16 17.7703 21.0754 17.8224 20.9946C17.9762 20.7558 18.2572 20.6172 18.5673 20.6803C18.8626 20.7404 19.0858 20.9776 19.1282 21.2761C19.172 21.5852 19.06 21.8273 18.8087 22.0048C18.7912 22.0171 18.7731 22.0287 18.7554 22.0407C18.7533 22.0421 18.7518 22.0447 18.7464 22.051H18.7461Z" fill="#F88217"/>
<path d="M15.6613 26.6132C15.6613 25.2685 15.6619 23.9239 15.6602 22.5792C15.66 22.4814 15.6789 22.391 15.7206 22.3047C15.8618 22.0136 16.0896 21.8413 16.4069 21.7934C16.8555 21.7255 17.3217 22.04 17.396 22.5434C17.4046 22.6021 17.4061 22.662 17.4074 22.7215C17.4089 22.7947 17.4059 22.8679 17.4065 22.941C17.4098 23.364 17.4161 23.7868 17.4168 24.2097C17.4174 24.554 17.4125 24.8983 17.408 25.2426C17.406 25.3944 17.395 25.546 17.3605 25.6944C17.349 25.7442 17.3329 25.7935 17.3135 25.8409C17.2739 25.9372 17.2052 26.0063 17.1131 26.0534C16.9193 26.1524 16.8396 26.3247 16.8184 26.5335C16.8085 27.0972 16.7984 27.661 16.7886 28.2248C16.7801 28.7126 16.7725 29.2006 16.7637 29.6884C16.7572 30.0462 16.7485 30.4039 16.7432 30.7617C16.7423 30.8222 16.7244 30.8725 16.6903 30.9195C16.5594 31.0998 16.3824 31.1874 16.1637 31.1676C15.9453 31.1477 15.7855 31.0311 15.6882 30.8296C15.669 30.7898 15.6589 30.7485 15.6611 30.704C15.6622 30.6797 15.6613 30.6553 15.6613 30.6309C15.6613 29.2916 15.6613 27.9524 15.6613 26.6131V26.6132Z" fill="#F88217"/>
<path d="M13.1771 19.9309C13.1842 20.2317 13.0708 20.5063 12.8824 20.7072C12.8443 20.7479 12.7909 20.7704 12.7356 20.7704H11.4731C11.4179 20.7704 11.3645 20.7479 11.3265 20.7074C11.1435 20.512 11.0312 20.2481 11.0312 19.9575C11.0312 19.338 11.5406 18.8394 12.1575 18.8694C12.7129 18.8964 13.1638 19.3664 13.1772 19.9307L13.1771 19.9309Z" fill="#F89E17"/>
<path d="M13.725 23.1558C13.7244 23.3215 13.7235 23.4873 13.7231 23.653C13.7228 23.8179 13.7222 23.9827 13.722 24.1476C13.722 24.1568 13.722 24.166 13.722 24.1753C13.7217 24.3687 13.736 24.5668 13.7234 24.7618C13.717 24.861 13.7035 24.9601 13.6772 25.0559C13.651 25.1515 13.6023 25.2284 13.5471 25.3095C13.5017 25.3761 13.4578 25.4334 13.5041 25.5141C13.5445 25.5846 13.6338 25.6621 13.7102 25.6873C13.7756 25.7087 13.8425 25.6896 13.8904 25.6406C14.0294 25.4987 13.9873 25.3254 13.9699 25.1475C13.9217 24.6573 13.8486 24.17 13.8034 23.6794C13.7827 23.5061 13.7721 23.3317 13.7566 23.1578C13.7566 23.1578 13.7407 23.1205 13.7249 23.1558H13.725Z" fill="#F89E17"/>
</g>
</g>
<g clip-path="url(#clip2_4561_19269)">
<path d="M86.6065 5.03226H49.0497C48.1768 5.03226 47.3703 5.49788 46.9339 6.25382L28.1554 38.779C27.719 39.5349 27.719 40.4662 28.1554 41.2221L46.9339 73.7474C47.3703 74.5033 48.1768 74.969 49.0497 74.969H86.6065C87.4793 74.969 88.2859 74.5033 88.7223 73.7474L107.501 41.2221C107.937 40.4662 107.937 39.5349 107.501 38.779L88.7223 6.25382C88.2859 5.49788 87.4793 5.03226 86.6065 5.03226Z" fill="#FFD45D"/>
<path d="M107.827 40H91.8142L79.8203 60.7739L87.8266 74.641C88.1919 74.43 88.5027 74.1247 88.7208 73.7467L107.499 41.2214C107.717 40.8436 107.827 40.4217 107.827 40Z" fill="#FF6500"/>
<path d="M79.8219 60.7744H55.8344L47.8281 74.6415C48.1934 74.8524 48.6133 74.9688 49.0497 74.9688H86.6066C87.043 74.9688 87.4628 74.8524 87.8281 74.6415L79.8219 60.7744Z" fill="#FF9416"/>
<path d="M55.8344 60.7739L43.8405 40H27.8281C27.8281 40.4217 27.9372 40.8436 28.1555 41.2216L46.9339 73.7469C47.1522 74.1249 47.4628 74.4302 47.8281 74.6411L55.8344 60.7739Z" fill="#FFC13F"/>
<path d="M55.8344 19.2256L47.8281 5.35843C47.4628 5.56937 47.152 5.87468 46.9339 6.25265L28.1555 38.7781C27.9372 39.1559 27.8281 39.5778 27.8281 39.9995H43.8405L55.8344 19.2256Z" fill="#FFD45D"/>
<path d="M55.8344 19.2258H79.8219L87.8281 5.35862C87.4628 5.14769 87.043 5.03128 86.6066 5.03128H49.0497C48.6133 5.03128 48.1934 5.14769 47.8281 5.35862L55.8344 19.2258Z" fill="#FFC13F"/>
<path d="M79.8203 19.2256L91.8142 39.9995H107.827C107.827 39.5778 107.717 39.1559 107.499 38.7781L88.7208 6.25265C88.5027 5.87468 88.1919 5.56937 87.8266 5.35843L79.8203 19.2256Z" fill="#FF9416"/>
<path d="M79.8214 19.2256H55.8336L43.8398 39.9995L55.8336 60.7734H79.8214L91.8152 39.9995L79.8214 19.2256Z" fill="#FF7B05"/>
<path d="M56.2653 17.7714L57.7944 16.6294C58.1423 16.3695 58.6026 16.7577 58.4053 17.1445L57.5381 18.8445C57.4454 19.0263 57.5003 19.2483 57.6669 19.3659L59.2254 20.4672C59.5801 20.7178 59.3533 21.2756 58.9244 21.2073L57.0395 20.9078C56.8381 20.8758 56.6437 20.9966 56.5833 21.1914L56.0175 23.0141C55.8887 23.4288 55.2881 23.3853 55.2204 22.9564L54.9228 21.0714C54.8909 20.87 54.7161 20.7225 54.5122 20.7252L52.6039 20.7503C52.1697 20.7561 52.0253 20.1714 52.4123 19.9745L54.1131 19.1089C54.2948 19.0164 54.3811 18.8045 54.3154 18.6114L53.7019 16.8044C53.5622 16.3931 54.0736 16.0753 54.3806 16.3825L55.7294 17.7327C55.8737 17.8769 56.1019 17.8934 56.2653 17.7714Z" fill="white"/>
</g>
<g clip-path="url(#clip3_4561_19269)">
<path d="M23.2003 46.043H8.37632C8.03181 46.043 7.71346 46.2268 7.5412 46.5252L0.12919 59.3631C-0.0430633 59.6615 -0.0430633 60.0291 0.12919 60.3274L7.5412 73.1655C7.71346 73.4638 8.03181 73.6476 8.37632 73.6476H23.2003C23.5448 73.6476 23.8632 73.4638 24.0355 73.1655L31.4475 60.3274C31.6197 60.0291 31.6197 59.6615 31.4475 59.3631L24.0355 46.5252C23.8632 46.2268 23.5448 46.043 23.2003 46.043Z" fill="#FFD45D"/>
<path d="M31.5777 59.8457H25.2575L20.5234 68.0454L23.6836 73.5188C23.8278 73.4356 23.9504 73.315 24.0365 73.1659L31.4485 60.3278C31.5347 60.1787 31.5777 60.0122 31.5777 59.8457Z" fill="#FF6500"/>
<path d="M20.5227 68.045H11.0547L7.89453 73.5184C8.03872 73.6016 8.20444 73.6476 8.37669 73.6476H23.2007C23.373 73.6476 23.5387 73.6016 23.6829 73.5184L20.5227 68.045Z" fill="#FF9416"/>
<path d="M11.0543 68.0454L6.32021 59.8457H0C0 60.0122 0.0430479 60.1787 0.129205 60.3279L7.54122 73.1659C7.62737 73.3151 7.74998 73.4356 7.89417 73.5189L11.0543 68.0454Z" fill="#FFC13F"/>
<path d="M11.0543 51.6464L7.89417 46.1729C7.74998 46.2561 7.62731 46.3767 7.54122 46.5258L0.129205 59.3639C0.0430479 59.513 0 59.6796 0 59.846H6.32021L11.0543 51.6464Z" fill="#FFD45D"/>
<path d="M11.0547 51.6457H20.5227L23.6829 46.1722C23.5387 46.0889 23.373 46.043 23.2007 46.043H8.37669C8.20444 46.043 8.03872 46.0889 7.89453 46.1722L11.0547 51.6457Z" fill="#FFC13F"/>
<path d="M20.5234 51.6464L25.2575 59.846H31.5777C31.5777 59.6796 31.5347 59.513 31.4485 59.3639L24.0365 46.5258C23.9504 46.3767 23.8278 46.2561 23.6836 46.1729L20.5234 51.6464Z" fill="#FF9416"/>
<path d="M20.5225 51.6464H11.0543L6.32031 59.846L11.0543 68.0456H20.5225L25.2566 59.846L20.5225 51.6464Z" fill="#FF7B05"/>
<path d="M11.2267 51.0723L11.8303 50.6215C11.9676 50.5189 12.1493 50.6721 12.0714 50.8248L11.7291 51.4958C11.6925 51.5676 11.7142 51.6552 11.7799 51.7016L12.3951 52.1363C12.5351 52.2352 12.4456 52.4554 12.2763 52.4285L11.5323 52.3102C11.4528 52.2976 11.3761 52.3453 11.3522 52.4222L11.1289 53.1416C11.0781 53.3053 10.841 53.2881 10.8143 53.1188L10.6968 52.3748C10.6842 52.2953 10.6152 52.2371 10.5348 52.2381L9.78154 52.2481C9.61015 52.2503 9.55316 52.0196 9.70593 51.9419L10.3772 51.6002C10.449 51.5637 10.483 51.48 10.4571 51.4038L10.2149 50.6906C10.1598 50.5282 10.3616 50.4028 10.4828 50.5241L11.0152 51.057C11.0722 51.1139 11.1622 51.1204 11.2267 51.0723Z" fill="white"/>
</g>
<defs>
<clipPath id="clip0_4561_19269">
<rect width="25.8937" height="26.2802" fill="white" transform="translate(1.92969 11.9805)"/>
</clipPath>
<clipPath id="clip1_4561_19269">
<rect width="12.9469" height="13.1401" fill="white" transform="translate(8.32031 18.4649)"/>
</clipPath>
<clipPath id="clip2_4561_19269">
<rect width="80" height="80" fill="white" transform="translate(27.8281 3.05176e-05)"/>
</clipPath>
<clipPath id="clip3_4561_19269">
<rect width="31.5767" height="31.5767" fill="white" transform="translate(0 44.0576)"/>
</clipPath>
</defs>
</svg>
