<svg width="360" height="68" viewBox="0 0 360 68" fill="none" xmlns="http://www.w3.org/2000/svg">
<g clip-path="url(#clip0_7636_20976)">
<rect width="360" height="68" fill="#BCF5B7"/>
<circle opacity="0.55" cx="335.479" cy="3.56519" r="50.5652" fill="#45983E"/>
<circle opacity="0.55" cx="265.496" cy="60.6029" r="7.28139" fill="#45983E"/>
<path d="M358.366 28.0604H342.439C341.166 28.0604 339.944 28.5664 339.043 29.4669L312.196 56.3072C310.32 58.183 310.32 61.2249 312.196 63.1009L328.122 79.0267C329.998 80.9026 333.039 80.9026 334.915 79.0267L361.763 52.1793C362.663 51.2785 363.17 50.0566 363.17 48.7827V32.8638C363.169 30.211 361.019 28.0604 358.366 28.0604Z" fill="#A0E5A5"/>
<path d="M371.06 28.6577C371.06 23.9673 367.244 20.1514 362.553 20.1514C358.479 20.1514 355.065 23.032 354.239 26.8636H342.441C340.837 26.8636 339.33 27.4879 338.195 28.6218L311.349 55.462C310.215 56.596 309.59 58.104 309.59 59.7079C309.59 61.3119 310.214 62.8198 311.349 63.9541L327.274 79.8799C328.409 81.0139 329.916 81.6386 331.52 81.6386C333.124 81.6386 334.632 81.014 335.766 79.8799L345.054 70.5918C345.523 70.1229 345.523 69.3625 345.054 68.8934C344.585 68.4246 343.825 68.4246 343.356 68.8934L334.067 78.1815C332.663 79.5862 330.377 79.5862 328.973 78.1815L313.047 62.2558C312.366 61.5752 311.991 60.6705 311.991 59.708C311.991 58.7456 312.366 57.841 313.047 57.1605L339.894 30.3203C340.574 29.64 341.479 29.2653 342.441 29.2653H354.071C354.214 31.3083 355.076 33.21 356.538 34.6723C357.008 35.1414 357.768 35.1414 358.237 34.6724C358.706 34.2035 358.706 33.4432 358.237 32.9742C357.228 31.9655 356.616 30.6662 356.479 29.2652H358.368C360.354 29.2652 361.97 30.8814 361.97 32.8679V48.7868C361.97 49.7491 361.596 50.6538 360.915 51.3342L350.998 61.2512C350.529 61.7202 350.529 62.4806 350.998 62.9496C351.467 63.4185 352.227 63.4185 352.696 62.9496L362.613 53.0326C363.747 51.8985 364.372 50.3907 364.372 48.7869V36.9678C368.245 36.1316 371.06 32.7145 371.06 28.6577ZM364.372 34.4879V32.8679C364.372 29.557 361.678 26.8635 358.368 26.8635H356.719C357.487 24.3703 359.812 22.5531 362.553 22.5531C365.919 22.5531 368.658 25.2916 368.658 28.6577C368.658 31.3874 366.883 33.7135 364.372 34.4879Z" fill="black"/>
<path d="M326.148 59.6428C326.617 59.1739 326.617 58.4135 326.148 57.9444C325.679 57.4756 324.919 57.4756 324.45 57.9444L321.559 60.8353C321.09 61.3042 321.09 62.0646 321.559 62.5337L328.692 69.6666C328.926 69.901 329.233 70.0183 329.541 70.0183C329.848 70.0183 330.155 69.901 330.39 69.6666C330.859 69.1976 330.859 68.4372 330.39 67.9682L327.605 65.1833L329.417 63.3712C329.886 62.9022 329.886 62.1418 329.417 61.6728C328.948 61.2039 328.188 61.2039 327.719 61.6728L325.907 63.4849L324.106 61.6843L326.148 59.6428Z" fill="black"/>
<path d="M340.328 59.2367C340.956 59.2367 341.485 58.7482 341.525 58.1123C341.568 57.4504 341.065 56.8796 340.403 56.8375L336.433 56.5843C336.767 56.0106 336.956 55.3616 336.977 54.6866C337.01 53.6244 336.627 52.6375 335.897 51.9076C334.407 50.4173 331.935 50.4641 330.386 52.0124L328.491 53.9079C328.49 53.9083 328.49 53.9087 328.49 53.9091C328.489 53.9095 328.489 53.9098 328.488 53.9102C328.019 54.3791 328.019 55.1395 328.488 55.6086L335.621 62.7414C335.856 62.9758 336.163 63.0931 336.47 63.0931C336.778 63.0931 337.085 62.9758 337.32 62.7414C337.789 62.2724 337.789 61.512 337.32 61.0429L335.188 58.9114L340.25 59.2342C340.277 59.2359 340.303 59.2367 340.328 59.2367ZM332.085 53.7107C332.686 53.1093 333.654 53.0613 334.199 53.6059C334.455 53.862 334.589 54.219 334.577 54.6115C334.564 55.0217 334.388 55.4256 334.094 55.7198C333.853 55.9606 333.438 56.3788 333.059 56.7613C332.685 56.3911 332.279 55.9884 332.048 55.7569C331.85 55.5589 331.431 55.1424 331.041 54.7544L332.085 53.7107Z" fill="black"/>
<path d="M352.023 48.0372L355.028 45.0318C355.497 44.5628 355.497 43.8024 355.028 43.3334C354.559 42.8646 353.799 42.8646 353.33 43.3334L351.174 45.4897L349.306 43.6216L351.24 41.6868C351.709 41.2179 351.709 40.4575 351.24 39.9884C350.771 39.5196 350.011 39.5196 349.542 39.9884L347.607 41.9232L345.739 40.055L347.895 37.8987C348.364 37.4297 348.364 36.6693 347.895 36.2003C347.426 35.7314 346.666 35.7314 346.197 36.2003L343.192 39.2057C342.723 39.6746 342.723 40.435 343.192 40.9041L346.757 44.47L346.758 44.4706C346.758 44.4706 346.758 44.471 346.759 44.4712L350.324 48.0371C350.55 48.2623 350.855 48.3889 351.174 48.3889C351.492 48.3889 351.798 48.2624 352.023 48.0372Z" fill="black"/>
<path d="M344.209 55.3537C344.527 55.3537 344.833 55.2271 345.058 55.002L348.063 51.9965C348.532 51.5276 348.532 50.7672 348.063 50.2981C347.594 49.8293 346.834 49.8293 346.365 50.2981L344.209 52.4544L342.341 50.5863L344.275 48.6516C344.744 48.1826 344.744 47.4222 344.275 46.9532C343.806 46.4846 343.046 46.4843 342.577 46.9532L340.642 48.8879L338.774 47.0198L340.931 44.8635C341.4 44.3946 341.4 43.6342 340.931 43.1651C340.462 42.6963 339.701 42.6963 339.232 43.1651L336.227 46.1705C335.758 46.6395 335.758 47.3999 336.227 47.869L343.359 55.0018C343.585 55.2271 343.89 55.3537 344.209 55.3537Z" fill="black"/>
<path d="M348.025 64.72C347.709 64.72 347.399 64.8485 347.176 65.0718C346.953 65.2952 346.824 65.6051 346.824 65.9209C346.824 66.2367 346.953 66.5466 347.176 66.77C347.399 66.9932 347.709 67.1218 348.025 67.1218C348.341 67.1218 348.651 66.9933 348.874 66.77C349.097 66.5466 349.226 66.2367 349.226 65.9209C349.226 65.6051 349.098 65.2952 348.874 65.0718C348.651 64.8485 348.341 64.72 348.025 64.72Z" fill="black"/>
<path d="M194.891 44.1982H186.437C185.761 44.1982 185.113 44.4668 184.635 44.9448L170.384 59.1922C169.388 60.1879 169.388 61.8026 170.384 62.7984L178.837 71.2522C179.833 72.2479 181.448 72.2479 182.443 71.2522L196.694 57.001C197.173 56.5229 197.441 55.8743 197.441 55.1981V46.748C197.441 45.3398 196.3 44.1982 194.891 44.1982Z" fill="#A0E5A5"/>
<path d="M201.629 44.5153C201.629 42.0256 199.604 40 197.114 40C194.951 40 193.139 41.5291 192.701 43.563H186.438C185.587 43.563 184.787 43.8944 184.184 44.4963L169.934 58.7436C169.332 59.3455 169 60.146 169 60.9973C169 61.8488 169.331 62.6492 169.934 63.2513L178.387 71.7051C178.989 72.307 179.79 72.6386 180.641 72.6386C181.492 72.6386 182.293 72.3071 182.895 71.7051L187.825 66.7748C188.074 66.5258 188.074 66.1222 187.825 65.8732C187.576 65.6244 187.173 65.6244 186.923 65.8732L181.993 70.8035C181.248 71.5492 180.034 71.5492 179.289 70.8035L170.835 62.3498C170.474 61.9886 170.275 61.5083 170.275 60.9974C170.275 60.4866 170.474 60.0064 170.835 59.6452L185.086 45.3979C185.447 45.0368 185.927 44.8379 186.438 44.8379H192.611C192.688 45.9223 193.145 46.9318 193.921 47.708C194.17 47.957 194.574 47.957 194.823 47.7081C195.072 47.4591 195.072 47.0556 194.823 46.8066C194.287 46.2712 193.963 45.5815 193.89 44.8378H194.892C195.947 44.8378 196.805 45.6957 196.805 46.7502V55.2002C196.805 55.711 196.606 56.1913 196.244 56.5525L190.98 61.8166C190.731 62.0655 190.731 62.4692 190.98 62.7182C191.229 62.967 191.633 62.967 191.882 62.7182L197.146 57.454C197.748 56.852 198.079 56.0516 198.079 55.2003V48.9265C200.135 48.4826 201.629 46.6688 201.629 44.5153ZM198.079 47.6101V46.7502C198.079 44.9927 196.65 43.5629 194.892 43.5629H194.017C194.425 42.2395 195.659 41.2749 197.114 41.2749C198.901 41.2749 200.354 42.7285 200.354 44.5153C200.354 45.9643 199.412 47.1991 198.079 47.6101Z" fill="black"/>
<path d="M177.787 60.9628C178.036 60.7139 178.036 60.3103 177.787 60.0613C177.538 59.8124 177.134 59.8124 176.885 60.0613L175.351 61.5958C175.102 61.8447 175.102 62.2484 175.351 62.4974L179.137 66.2836C179.261 66.4081 179.425 66.4703 179.588 66.4703C179.751 66.4703 179.914 66.4081 180.038 66.2836C180.287 66.0347 180.287 65.6311 180.038 65.3821L178.56 63.9038L179.522 62.9419C179.771 62.693 179.771 62.2894 179.522 62.0404C179.273 61.7915 178.87 61.7915 178.621 62.0404L177.659 63.0023L176.703 62.0465L177.787 60.9628Z" fill="black"/>
<path d="M185.315 60.7475C185.649 60.7475 185.929 60.4882 185.951 60.1507C185.973 59.7993 185.707 59.4963 185.355 59.4739L183.248 59.3396C183.425 59.0351 183.525 58.6905 183.537 58.3322C183.554 57.7684 183.35 57.2445 182.963 56.8571C182.172 56.066 180.86 56.0909 180.038 56.9127L179.032 57.9189C179.031 57.9191 179.031 57.9193 179.031 57.9195C179.031 57.9197 179.031 57.9199 179.03 57.9201C178.782 58.169 178.782 58.5726 179.03 58.8216L182.817 62.6078C182.941 62.7323 183.104 62.7946 183.267 62.7946C183.431 62.7946 183.594 62.7323 183.718 62.6078C183.967 62.3589 183.967 61.9553 183.718 61.7063L182.587 60.5748L185.274 60.7462C185.288 60.7471 185.302 60.7475 185.315 60.7475ZM180.939 57.8142C181.259 57.495 181.773 57.4695 182.062 57.7586C182.198 57.8945 182.269 58.084 182.262 58.2924C182.256 58.5101 182.162 58.7245 182.006 58.8807C181.878 59.0085 181.658 59.2305 181.457 59.4335C181.258 59.237 181.043 59.0233 180.92 58.9004C180.815 58.7952 180.592 58.5742 180.385 58.3682L180.939 57.8142Z" fill="black"/>
<path d="M191.527 54.8027L193.122 53.2074C193.371 52.9584 193.371 52.5548 193.122 52.3058C192.873 52.0569 192.47 52.0569 192.221 52.3058L191.076 53.4504L190.084 52.4588L191.111 51.4318C191.36 51.1829 191.36 50.7792 191.111 50.5303C190.862 50.2814 190.459 50.2814 190.21 50.5303L189.183 51.5573L188.191 50.5656L189.336 49.421C189.585 49.172 189.585 48.7684 189.336 48.5194C189.087 48.2705 188.683 48.2705 188.434 48.5194L186.839 50.1148C186.59 50.3637 186.59 50.7673 186.839 51.0163L188.732 52.9092L188.732 52.9095C188.732 52.9095 188.732 52.9097 188.733 52.9098L190.625 54.8026C190.745 54.9222 190.907 54.9894 191.076 54.9894C191.245 54.9894 191.407 54.9222 191.527 54.8027Z" fill="black"/>
<path d="M187.377 58.6859C187.546 58.6859 187.708 58.6187 187.828 58.4992L189.423 56.9038C189.672 56.6549 189.672 56.2513 189.423 56.0023C189.174 55.7534 188.77 55.7534 188.521 56.0023L187.377 57.1469L186.385 56.1553L187.412 55.1283C187.661 54.8793 187.661 54.4757 187.412 54.2267C187.163 53.978 186.76 53.9779 186.511 54.2267L185.484 55.2537L184.492 54.2621L185.637 53.1175C185.886 52.8686 185.886 52.4649 185.637 52.2159C185.388 51.9671 184.984 51.9671 184.735 52.2159L183.14 53.8113C182.891 54.0602 182.891 54.4639 183.14 54.7128L186.926 58.4991C187.046 58.6187 187.208 58.6859 187.377 58.6859Z" fill="black"/>
<path d="M189.403 63.6578C189.235 63.6578 189.071 63.726 188.952 63.8446C188.834 63.9632 188.766 64.1277 188.766 64.2953C188.766 64.463 188.834 64.6274 188.952 64.746C189.071 64.8645 189.235 64.9328 189.403 64.9328C189.571 64.9328 189.735 64.8646 189.854 64.746C189.972 64.6274 190.041 64.463 190.041 64.2953C190.041 64.1277 189.972 63.9632 189.854 63.8446C189.735 63.726 189.571 63.6578 189.403 63.6578Z" fill="black"/>
<path d="M290.316 -4.20508H267.684C265.874 -4.20508 264.138 -3.48612 262.857 -2.2064L224.707 35.9351C222.041 38.6007 222.04 42.9233 224.706 45.5892L247.338 68.2207C250.004 70.8865 254.326 70.8865 256.992 68.2207L295.143 30.0691C296.423 28.7891 297.142 27.0527 297.142 25.2424V2.62082C297.142 -1.14905 294.086 -4.20508 290.316 -4.20508Z" fill="#A0E5A5"/>
<path d="M308.352 -3.35931C308.352 -10.0246 302.929 -15.4473 296.264 -15.4473C290.474 -15.4473 285.623 -11.3537 284.449 -5.90885H267.683C265.404 -5.90885 263.262 -5.02163 261.65 -3.41034L223.5 34.731C221.888 36.3425 221 38.4854 221 40.7646C221 43.044 221.887 45.1869 223.499 46.7987L246.131 69.4302C247.742 71.0416 249.885 71.9294 252.164 71.9294C254.443 71.9294 256.586 71.0418 258.197 69.4302L271.396 56.2313C272.063 55.5649 272.063 54.4843 271.396 53.8177C270.73 53.1515 269.65 53.1515 268.983 53.8177L255.784 67.0166C253.788 69.0128 250.54 69.0128 248.544 67.0166L225.912 44.3853C224.945 43.4182 224.413 42.1325 224.413 40.7648C224.413 39.3972 224.945 38.1116 225.913 37.1447L264.063 -0.99664C265.03 -1.96338 266.316 -2.49582 267.683 -2.49582H284.21C284.414 0.407312 285.638 3.10975 287.717 5.18778C288.383 5.85435 289.463 5.85435 290.13 5.18795C290.796 4.52156 290.796 3.44116 290.13 2.7746C288.697 1.34129 287.827 -0.505163 287.632 -2.49599H290.316C293.139 -2.49599 295.435 -0.199355 295.435 2.62357V25.2452C295.435 26.6126 294.903 27.8983 293.936 28.8652L279.843 42.9578C279.177 43.6242 279.177 44.7048 279.843 45.3713C280.51 46.0376 281.59 46.0376 282.257 45.3713L296.349 31.2787C297.961 29.6671 298.848 27.5244 298.848 25.2453V8.44979C304.351 7.26154 308.352 2.40565 308.352 -3.35931ZM298.848 4.92566V2.62357C298.848 -2.0813 295.021 -5.90902 290.316 -5.90902H287.972C289.064 -9.45193 292.368 -12.0342 296.264 -12.0342C301.047 -12.0342 304.939 -8.14268 304.939 -3.35931C304.939 0.519773 302.417 3.8253 298.848 4.92566Z" fill="black"/>
<path d="M244.533 40.6726C245.2 40.0062 245.2 38.9256 244.533 38.2591C243.867 37.5928 242.786 37.5928 242.12 38.2591L238.012 42.3672C237.345 43.0336 237.345 44.1141 238.012 44.7807L248.148 54.9169C248.481 55.25 248.918 55.4167 249.354 55.4167C249.791 55.4167 250.228 55.25 250.561 54.9169C251.227 54.2505 251.227 53.1699 250.561 52.5034L246.603 48.546L249.179 45.9708C249.845 45.3044 249.845 44.2239 249.179 43.5573C248.512 42.8911 247.432 42.8911 246.765 43.5573L244.19 46.1324L241.631 43.5737L244.533 40.6726Z" fill="black"/>
<path d="M264.684 40.0956C265.577 40.0956 266.328 39.4014 266.385 38.4978C266.446 37.5571 265.732 36.746 264.791 36.6861L259.149 36.3264C259.624 35.5112 259.893 34.5888 259.923 33.6296C259.969 32.1202 259.424 30.7178 258.387 29.6805C256.269 27.5627 252.757 27.6293 250.556 29.8295L247.862 32.5231C247.862 32.5236 247.861 32.5243 247.861 32.5248C247.86 32.5253 247.86 32.5258 247.859 32.5263C247.193 33.1927 247.193 34.2733 247.859 34.9399L257.995 45.0759C258.329 45.409 258.765 45.5757 259.202 45.5757C259.639 45.5757 260.075 45.409 260.409 45.0759C261.075 44.4095 261.075 43.3289 260.409 42.6624L257.379 39.6333L264.573 40.092C264.611 40.0944 264.648 40.0956 264.684 40.0956ZM252.97 32.2429C253.824 31.3883 255.2 31.32 255.974 32.0939C256.338 32.4579 256.529 32.9652 256.511 33.5229C256.493 34.1059 256.243 34.6798 255.825 35.0979C255.483 35.44 254.893 36.0344 254.355 36.5779C253.823 36.0518 253.246 35.4796 252.917 35.1506C252.636 34.8692 252.041 34.2774 251.486 33.726L252.97 32.2429Z" fill="black"/>
<path d="M281.3 24.1804L285.571 19.9095C286.237 19.2431 286.237 18.1625 285.571 17.496C284.904 16.8297 283.824 16.8297 283.157 17.496L280.093 20.5602L277.438 17.9055L280.187 15.1562C280.854 14.4898 280.854 13.4092 280.187 12.7426C279.521 12.0764 278.441 12.0764 277.774 12.7426L275.025 15.492L272.37 12.8372L275.434 9.77294C276.101 9.10654 276.101 8.02598 275.434 7.35941C274.768 6.69319 273.687 6.69319 273.021 7.35941L268.75 11.6303C268.083 12.2967 268.083 13.3773 268.75 14.0438L273.817 19.1112L273.818 19.112C273.818 19.112 273.818 19.1125 273.819 19.1129L278.886 24.1802C279.206 24.5002 279.64 24.6801 280.093 24.6801C280.545 24.6801 280.98 24.5004 281.3 24.1804Z" fill="black"/>
<path d="M270.194 34.5784C270.647 34.5784 271.081 34.3985 271.401 34.0785L275.672 29.8076C276.338 29.1412 276.338 28.0607 275.672 27.3941C275.005 26.7279 273.925 26.7279 273.258 27.3941L270.194 30.4583L267.539 27.8037L270.289 25.0543C270.955 24.3879 270.955 23.3073 270.289 22.6408C269.623 21.9749 268.542 21.9745 267.875 22.6408L265.126 25.3901L262.471 22.7355L265.536 19.6713C266.202 19.0049 266.202 17.9243 265.536 17.2577C264.869 16.5915 263.789 16.5915 263.122 17.2577L258.851 21.5286C258.185 22.195 258.185 23.2756 258.851 23.9422L268.987 34.0784C269.308 34.3985 269.742 34.5784 270.194 34.5784Z" fill="black"/>
<path d="M275.621 47.8879C275.172 47.8879 274.732 48.0705 274.414 48.388C274.097 48.7054 273.914 49.1457 273.914 49.5945C273.914 50.0433 274.097 50.4836 274.414 50.8011C274.732 51.1183 275.172 51.3011 275.621 51.3011C276.069 51.3011 276.51 51.1185 276.827 50.8011C277.144 50.4836 277.327 50.0433 277.327 49.5945C277.327 49.1457 277.145 48.7054 276.827 48.388C276.51 48.0705 276.069 47.8879 275.621 47.8879Z" fill="black"/>
<path d="M303.506 70.0818C303.506 66.1937 300.343 63.0305 296.455 63.0305C293.077 63.0305 290.248 65.4184 289.563 68.5946H279.783C278.453 68.5946 277.204 69.1121 276.263 70.0521L254.009 92.3012C253.069 93.2412 252.551 94.4912 252.551 95.8208C252.551 97.1504 253.068 98.4004 254.009 99.3406L267.21 112.542C268.15 113.482 269.4 114 270.73 114C272.059 114 273.309 113.482 274.249 112.542L281.949 104.843C282.337 104.454 282.337 103.824 281.949 103.435C281.56 103.046 280.93 103.046 280.541 103.435L272.841 111.134C271.677 112.299 269.782 112.299 268.618 111.134L255.416 97.9329C254.852 97.3687 254.542 96.6187 254.542 95.8209C254.542 95.0231 254.852 94.2732 255.417 93.7092L277.671 71.46C278.235 70.8961 278.985 70.5855 279.783 70.5855H289.423C289.542 72.279 290.257 73.8554 291.469 75.0676C291.858 75.4565 292.488 75.4565 292.877 75.0677C293.265 74.679 293.265 74.0488 292.877 73.6599C292.041 72.8238 291.533 71.7467 291.419 70.5854H292.985C294.632 70.5854 295.971 71.9251 295.971 73.5718V86.7678C295.971 87.5654 295.661 88.3154 295.097 88.8795L286.876 97.1001C286.487 97.4889 286.487 98.1192 286.876 98.508C287.265 98.8967 287.895 98.8967 288.284 98.508L296.505 90.2874C297.445 89.3472 297.962 88.0973 297.962 86.7679V76.9705C301.172 76.2773 303.506 73.4447 303.506 70.0818ZM297.962 74.9147V73.5718C297.962 70.8273 295.729 68.5945 292.985 68.5945H291.618C292.255 66.5278 294.182 65.0215 296.455 65.0215C299.245 65.0215 301.515 67.2915 301.515 70.0818C301.515 72.3446 300.044 74.2728 297.962 74.9147Z" fill="black"/>
<path d="M18.916 31V26.98L19.3 28.048L15.592 22.54H17.752L20.08 26.164H19.696L22.024 22.54H24.112L20.416 28.048L20.788 26.98V31H18.916ZM23.8073 26.764C23.8073 25.884 23.9713 25.12 24.2993 24.472C24.6353 23.816 25.1153 23.308 25.7393 22.948C26.3633 22.588 27.1033 22.408 27.9593 22.408C28.8153 22.408 29.5553 22.588 30.1793 22.948C30.8033 23.308 31.2833 23.816 31.6193 24.472C31.9633 25.12 32.1353 25.88 32.1353 26.752C32.1353 27.64 31.9633 28.412 31.6193 29.068C31.2833 29.716 30.8033 30.224 30.1793 30.592C29.5553 30.952 28.8153 31.132 27.9593 31.132C27.1033 31.132 26.3633 30.952 25.7393 30.592C25.1233 30.224 24.6473 29.712 24.3113 29.056C23.9753 28.4 23.8073 27.636 23.8073 26.764ZM25.7633 26.764C25.7633 27.636 25.9433 28.32 26.3033 28.816C26.6713 29.304 27.2233 29.548 27.9593 29.548C28.6793 29.548 29.2273 29.304 29.6033 28.816C29.9793 28.32 30.1673 27.636 30.1673 26.764C30.1673 25.884 29.9793 25.204 29.6033 24.724C29.2353 24.236 28.6873 23.992 27.9593 23.992C27.2233 23.992 26.6713 24.236 26.3033 24.724C25.9433 25.204 25.7633 25.884 25.7633 26.764ZM37.2344 31.132C35.9944 31.132 35.0704 30.824 34.4624 30.208C33.8544 29.592 33.5504 28.676 33.5504 27.46V22.54H35.4224V27.472C35.4224 28.152 35.5664 28.668 35.8544 29.02C36.1504 29.372 36.6104 29.548 37.2344 29.548C37.8424 29.548 38.2944 29.372 38.5904 29.02C38.8944 28.668 39.0464 28.152 39.0464 27.472V22.54H40.8944V27.46C40.8944 28.676 40.5864 29.592 39.9704 30.208C39.3624 30.824 38.4504 31.132 37.2344 31.132ZM42.5515 31V22.54H46.3915C47.3435 22.54 48.0795 22.768 48.5995 23.224C49.1195 23.672 49.3795 24.3 49.3795 25.108C49.3795 25.636 49.2595 26.092 49.0195 26.476C48.7875 26.852 48.4515 27.144 48.0115 27.352C47.5795 27.552 47.0595 27.652 46.4515 27.652L46.5955 27.388H47.0875C47.4315 27.388 47.7355 27.48 47.9995 27.664C48.2715 27.848 48.4955 28.116 48.6715 28.468L49.9315 31H47.8675L46.5595 28.276C46.4635 28.044 46.3115 27.892 46.1035 27.82C45.9035 27.74 45.6715 27.7 45.4075 27.7H44.4235V31H42.5515ZM44.4235 26.356H46.0675C46.5555 26.356 46.9275 26.256 47.1835 26.056C47.4395 25.856 47.5675 25.56 47.5675 25.168C47.5675 24.776 47.4395 24.484 47.1835 24.292C46.9275 24.092 46.5555 23.992 46.0675 23.992H44.4235V26.356ZM54.4343 31V22.54H55.8263L60.4223 28.384H60.0983V22.54H61.8383V31H60.4463L55.8623 25.156H56.1743V31H54.4343ZM63.5515 31V22.54H69.4315V23.992H65.3395V25.972H69.1435V27.436H65.3395V29.548H69.4315V31H63.5515ZM69.6199 31L73.1599 26.296V27.124L69.7159 22.54H71.9119L74.2159 25.768H73.6159L75.9319 22.54H78.1279L74.6719 27.124V26.296L78.2359 31H76.0279L73.6159 27.652H74.2279L71.8039 31H69.6199ZM80.8356 31V24.064H78.1476V22.54H85.3956V24.064H82.7076V31H80.8356ZM91.7575 31V24.064H89.0695V22.54H96.3175V24.064H93.6295V31H91.7575ZM97.3367 31V22.54H101.177C102.129 22.54 102.865 22.768 103.385 23.224C103.905 23.672 104.165 24.3 104.165 25.108C104.165 25.636 104.045 26.092 103.805 26.476C103.573 26.852 103.237 27.144 102.797 27.352C102.365 27.552 101.845 27.652 101.237 27.652L101.381 27.388H101.873C102.217 27.388 102.521 27.48 102.785 27.664C103.057 27.848 103.281 28.116 103.457 28.468L104.717 31H102.653L101.345 28.276C101.249 28.044 101.097 27.892 100.889 27.82C100.689 27.74 100.457 27.7 100.193 27.7H99.2087V31H97.3367ZM99.2087 26.356H100.853C101.341 26.356 101.713 26.256 101.969 26.056C102.225 25.856 102.353 25.56 102.353 25.168C102.353 24.776 102.225 24.484 101.969 24.292C101.713 24.092 101.341 23.992 100.853 23.992H99.2087V26.356ZM105.833 31V22.54H107.705V31H105.833ZM109.419 31V22.54H113.367C114.319 22.54 115.039 22.772 115.527 23.236C116.023 23.692 116.271 24.32 116.271 25.12C116.271 25.912 116.023 26.544 115.527 27.016C115.039 27.48 114.319 27.712 113.367 27.712H111.291V31H109.419ZM111.291 26.26H113.127C113.575 26.26 113.907 26.16 114.123 25.96C114.347 25.76 114.459 25.48 114.459 25.12C114.459 24.76 114.347 24.484 114.123 24.292C113.907 24.092 113.575 23.992 113.127 23.992H111.291V26.26ZM124.995 31.132C124.091 31.132 123.315 30.952 122.667 30.592C122.019 30.232 121.519 29.728 121.167 29.08C120.823 28.424 120.651 27.652 120.651 26.764C120.651 25.876 120.823 25.108 121.167 24.46C121.519 23.812 122.019 23.308 122.667 22.948C123.315 22.588 124.091 22.408 124.995 22.408C125.579 22.408 126.111 22.492 126.591 22.66C127.071 22.82 127.479 23.056 127.815 23.368L127.227 24.844C126.859 24.556 126.507 24.352 126.171 24.232C125.843 24.112 125.471 24.052 125.055 24.052C124.263 24.052 123.655 24.288 123.231 24.76C122.815 25.224 122.607 25.892 122.607 26.764C122.607 27.636 122.815 28.308 123.231 28.78C123.655 29.252 124.263 29.488 125.055 29.488C125.471 29.488 125.843 29.428 126.171 29.308C126.507 29.188 126.859 28.984 127.227 28.696L127.815 30.172C127.479 30.476 127.071 30.712 126.591 30.88C126.111 31.048 125.579 31.132 124.995 31.132ZM127.97 31L131.858 22.54H133.406L137.342 31H135.446L134.426 28.648L135.158 29.164H130.13L130.874 28.648L129.854 31H127.97ZM132.626 24.508L131.078 28.18L130.754 27.724H134.534L134.258 28.18L132.674 24.508H132.626ZM138.071 31V22.54H139.463L144.059 28.384H143.735V22.54H145.475V31H144.083L139.499 25.156H139.811V31H138.071ZM150.575 31V22.54H154.475C155.403 22.54 156.119 22.736 156.623 23.128C157.127 23.52 157.379 24.056 157.379 24.736C157.379 25.24 157.227 25.668 156.923 26.02C156.627 26.372 156.219 26.608 155.699 26.728V26.536C156.307 26.64 156.775 26.872 157.103 27.232C157.439 27.584 157.607 28.044 157.607 28.612C157.607 29.364 157.339 29.952 156.803 30.376C156.275 30.792 155.543 31 154.607 31H150.575ZM152.363 29.608H154.379C154.843 29.608 155.199 29.52 155.447 29.344C155.695 29.168 155.819 28.888 155.819 28.504C155.819 28.112 155.695 27.832 155.447 27.664C155.199 27.488 154.843 27.4 154.379 27.4H152.363V29.608ZM152.363 26.02H154.139C154.627 26.02 154.987 25.932 155.219 25.756C155.451 25.58 155.567 25.316 155.567 24.964C155.567 24.62 155.451 24.36 155.219 24.184C154.987 24.008 154.627 23.92 154.139 23.92H152.363V26.02ZM158.93 31V22.54H164.81V23.992H160.718V25.972H164.522V27.436H160.718V29.548H164.81V31H158.93ZM16.864 46V37.54H22.612V38.992H18.736V41.056H22.336V42.496H18.736V46H16.864ZM23.8015 46V37.54H27.6415C28.5935 37.54 29.3295 37.768 29.8495 38.224C30.3695 38.672 30.6295 39.3 30.6295 40.108C30.6295 40.636 30.5095 41.092 30.2695 41.476C30.0375 41.852 29.7015 42.144 29.2615 42.352C28.8295 42.552 28.3095 42.652 27.7015 42.652L27.8455 42.388H28.3375C28.6815 42.388 28.9855 42.48 29.2495 42.664C29.5215 42.848 29.7455 43.116 29.9215 43.468L31.1815 46H29.1175L27.8095 43.276C27.7135 43.044 27.5615 42.892 27.3535 42.82C27.1535 42.74 26.9215 42.7 26.6575 42.7H25.6735V46H23.8015ZM25.6735 41.356H27.3175C27.8055 41.356 28.1775 41.256 28.4335 41.056C28.6895 40.856 28.8175 40.56 28.8175 40.168C28.8175 39.776 28.6895 39.484 28.4335 39.292C28.1775 39.092 27.8055 38.992 27.3175 38.992H25.6735V41.356ZM32.2976 46V37.54H38.1776V38.992H34.0856V40.972H37.8896V42.436H34.0856V44.548H38.1776V46H32.2976ZM39.4812 46V37.54H45.3612V38.992H41.2692V40.972H45.0732V42.436H41.2692V44.548H45.3612V46H39.4812ZM46.8088 43.324L46.2448 37.54H48.4768L47.9008 43.324H46.8088ZM46.3888 46V44.08H48.3328V46H46.3888ZM53.1687 46V37.54H58.9167V38.992H55.0407V41.056H58.6407V42.496H55.0407V46H53.1687ZM60.1062 46V37.54H61.9782V46H60.1062ZM63.6921 46V37.54H65.0841L69.6801 43.384H69.3561V37.54H71.0961V46H69.7041L65.1201 40.156H65.4321V46H63.6921ZM72.8093 46V37.54H76.0373C77.0213 37.54 77.8533 37.708 78.5333 38.044C79.2133 38.38 79.7253 38.864 80.0693 39.496C80.4213 40.12 80.5973 40.876 80.5973 41.764C80.5973 42.644 80.4213 43.4 80.0693 44.032C79.7253 44.664 79.2133 45.152 78.5333 45.496C77.8533 45.832 77.0213 46 76.0373 46H72.8093ZM74.6813 44.464H75.9293C76.8733 44.464 77.5733 44.244 78.0293 43.804C78.4933 43.356 78.7253 42.676 78.7253 41.764C78.7253 40.844 78.4933 40.164 78.0293 39.724C77.5733 39.284 76.8733 39.064 75.9293 39.064H74.6813V44.464ZM85.2018 41.764C85.2018 40.884 85.3658 40.12 85.6938 39.472C86.0298 38.816 86.5098 38.308 87.1338 37.948C87.7578 37.588 88.4978 37.408 89.3538 37.408C90.2098 37.408 90.9498 37.588 91.5738 37.948C92.1978 38.308 92.6778 38.816 93.0138 39.472C93.3578 40.12 93.5298 40.88 93.5298 41.752C93.5298 42.64 93.3578 43.412 93.0138 44.068C92.6778 44.716 92.1978 45.224 91.5738 45.592C90.9498 45.952 90.2098 46.132 89.3538 46.132C88.4978 46.132 87.7578 45.952 87.1338 45.592C86.5178 45.224 86.0418 44.712 85.7058 44.056C85.3698 43.4 85.2018 42.636 85.2018 41.764ZM87.1578 41.764C87.1578 42.636 87.3378 43.32 87.6978 43.816C88.0658 44.304 88.6178 44.548 89.3538 44.548C90.0738 44.548 90.6218 44.304 90.9978 43.816C91.3738 43.32 91.5618 42.636 91.5618 41.764C91.5618 40.884 91.3738 40.204 90.9978 39.724C90.6298 39.236 90.0818 38.992 89.3538 38.992C88.6178 38.992 88.0658 39.236 87.6978 39.724C87.3378 40.204 87.1578 40.884 87.1578 41.764ZM98.6289 46.132C97.3889 46.132 96.4649 45.824 95.8569 45.208C95.2489 44.592 94.9449 43.676 94.9449 42.46V37.54H96.8169V42.472C96.8169 43.152 96.9609 43.668 97.2489 44.02C97.5449 44.372 98.0049 44.548 98.6289 44.548C99.2369 44.548 99.6889 44.372 99.9849 44.02C100.289 43.668 100.441 43.152 100.441 42.472V37.54H102.289V42.46C102.289 43.676 101.981 44.592 101.365 45.208C100.757 45.824 99.8449 46.132 98.6289 46.132ZM105.902 46V39.064H103.214V37.54H110.462V39.064H107.774V46H105.902ZM114.868 46V37.54H116.74V40.936H120.616V37.54H122.5V46H120.616V42.484H116.74V46H114.868ZM123.967 41.764C123.967 40.884 124.131 40.12 124.459 39.472C124.795 38.816 125.275 38.308 125.899 37.948C126.523 37.588 127.263 37.408 128.119 37.408C128.975 37.408 129.715 37.588 130.339 37.948C130.963 38.308 131.443 38.816 131.779 39.472C132.123 40.12 132.295 40.88 132.295 41.752C132.295 42.64 132.123 43.412 131.779 44.068C131.443 44.716 130.963 45.224 130.339 45.592C129.715 45.952 128.975 46.132 128.119 46.132C127.263 46.132 126.523 45.952 125.899 45.592C125.283 45.224 124.807 44.712 124.471 44.056C124.135 43.4 123.967 42.636 123.967 41.764ZM125.923 41.764C125.923 42.636 126.103 43.32 126.463 43.816C126.831 44.304 127.383 44.548 128.119 44.548C128.839 44.548 129.387 44.304 129.763 43.816C130.139 43.32 130.327 42.636 130.327 41.764C130.327 40.884 130.139 40.204 129.763 39.724C129.395 39.236 128.847 38.992 128.119 38.992C127.383 38.992 126.831 39.236 126.463 39.724C126.103 40.204 125.923 40.884 125.923 41.764ZM135.912 46L132.912 37.54H134.844L136.992 44.068H136.476L138.816 37.54H140.184L142.332 44.068H141.852L144.132 37.54H145.944L142.92 46H141.396L139.32 39.988H139.596L137.448 46H135.912Z" fill="#121212"/>
<rect x="208" y="17" width="121" height="35" rx="6" fill="#121212"/>
<path d="M245.508 31.48V33.58H248.328V34.912H245.508V37.132H248.688V38.5H243.828V30.112H248.688V31.48H245.508ZM255.231 38.5L253.419 35.68L251.775 38.5H249.879L252.519 34.276L249.843 30.124H251.775L253.587 32.932L255.219 30.124H257.115L254.487 34.336L257.163 38.5H255.231ZM264.549 32.716C264.549 33.164 264.441 33.584 264.225 33.976C264.017 34.368 263.685 34.684 263.229 34.924C262.781 35.164 262.213 35.284 261.525 35.284H260.121V38.5H258.441V30.124H261.525C262.173 30.124 262.725 30.236 263.181 30.46C263.637 30.684 263.977 30.992 264.201 31.384C264.433 31.776 264.549 32.22 264.549 32.716ZM261.453 33.928C261.917 33.928 262.261 33.824 262.485 33.616C262.709 33.4 262.821 33.1 262.821 32.716C262.821 31.9 262.365 31.492 261.453 31.492H260.121V33.928H261.453ZM267.422 37.168H270.182V38.5H265.742V30.124H267.422V37.168ZM275.138 38.584C274.354 38.584 273.634 38.4 272.978 38.032C272.322 37.664 271.802 37.156 271.418 36.508C271.034 35.852 270.842 35.112 270.842 34.288C270.842 33.472 271.034 32.74 271.418 32.092C271.802 31.436 272.322 30.924 272.978 30.556C273.634 30.188 274.354 30.004 275.138 30.004C275.93 30.004 276.65 30.188 277.298 30.556C277.954 30.924 278.47 31.436 278.846 32.092C279.23 32.74 279.422 33.472 279.422 34.288C279.422 35.112 279.23 35.852 278.846 36.508C278.47 37.156 277.954 37.664 277.298 38.032C276.642 38.4 275.922 38.584 275.138 38.584ZM275.138 37.084C275.642 37.084 276.086 36.972 276.47 36.748C276.854 36.516 277.154 36.188 277.37 35.764C277.586 35.34 277.694 34.848 277.694 34.288C277.694 33.728 277.586 33.24 277.37 32.824C277.154 32.4 276.854 32.076 276.47 31.852C276.086 31.628 275.642 31.516 275.138 31.516C274.634 31.516 274.186 31.628 273.794 31.852C273.41 32.076 273.11 32.4 272.894 32.824C272.678 33.24 272.57 33.728 272.57 34.288C272.57 34.848 272.678 35.34 272.894 35.764C273.11 36.188 273.41 36.516 273.794 36.748C274.186 36.972 274.634 37.084 275.138 37.084ZM284.992 38.5L283.144 35.236H282.352V38.5H280.672V30.124H283.816C284.464 30.124 285.016 30.24 285.472 30.472C285.928 30.696 286.268 31.004 286.492 31.396C286.724 31.78 286.84 32.212 286.84 32.692C286.84 33.244 286.68 33.744 286.36 34.192C286.04 34.632 285.564 34.936 284.932 35.104L286.936 38.5H284.992ZM282.352 33.976H283.756C284.212 33.976 284.552 33.868 284.776 33.652C285 33.428 285.112 33.12 285.112 32.728C285.112 32.344 285 32.048 284.776 31.84C284.552 31.624 284.212 31.516 283.756 31.516H282.352V33.976ZM290.039 31.48V33.58H292.859V34.912H290.039V37.132H293.219V38.5H288.359V30.112H293.219V31.48H290.039Z" fill="white"/>
</g>
<defs>
<clipPath id="clip0_7636_20976">
<rect width="360" height="68" fill="white"/>
</clipPath>
</defs>
</svg>
