<svg width="3267" height="81" viewBox="0 0 3267 81" fill="none" xmlns="http://www.w3.org/2000/svg">
<g clip-path="url(#clip0_7714_21452)">
<rect width="3267" height="81" fill="#BCF5B7"/>
<path d="M1127.78 53V42.28L1128.8 45.128L1118.91 30.44H1124.67L1130.88 40.104H1129.86L1136.06 30.44H1141.63L1131.78 45.128L1132.77 42.28V53H1127.78ZM1140.82 41.704C1140.82 39.3573 1141.26 37.32 1142.13 35.592C1143.03 33.8427 1144.31 32.488 1145.97 31.528C1147.64 30.568 1149.61 30.088 1151.89 30.088C1154.17 30.088 1156.15 30.568 1157.81 31.528C1159.48 32.488 1160.76 33.8427 1161.65 35.592C1162.57 37.32 1163.03 39.3467 1163.03 41.672C1163.03 44.04 1162.57 46.0987 1161.65 47.848C1160.76 49.576 1159.48 50.9307 1157.81 51.912C1156.15 52.872 1154.17 53.352 1151.89 53.352C1149.61 53.352 1147.64 52.872 1145.97 51.912C1144.33 50.9307 1143.06 49.5653 1142.16 47.816C1141.27 46.0667 1140.82 44.0293 1140.82 41.704ZM1146.04 41.704C1146.04 44.0293 1146.52 45.8533 1147.48 47.176C1148.46 48.4773 1149.93 49.128 1151.89 49.128C1153.81 49.128 1155.27 48.4773 1156.28 47.176C1157.28 45.8533 1157.78 44.0293 1157.78 41.704C1157.78 39.3573 1157.28 37.544 1156.28 36.264C1155.29 34.9627 1153.83 34.312 1151.89 34.312C1149.93 34.312 1148.46 34.9627 1147.48 36.264C1146.52 37.544 1146.04 39.3573 1146.04 41.704ZM1176.63 53.352C1173.32 53.352 1170.85 52.5307 1169.23 50.888C1167.61 49.2453 1166.8 46.8027 1166.8 43.56V30.44H1171.79V43.592C1171.79 45.4053 1172.18 46.7813 1172.95 47.72C1173.73 48.6587 1174.96 49.128 1176.63 49.128C1178.25 49.128 1179.45 48.6587 1180.24 47.72C1181.05 46.7813 1181.46 45.4053 1181.46 43.592V30.44H1186.39V43.56C1186.39 46.8027 1185.56 49.2453 1183.92 50.888C1182.3 52.5307 1179.87 53.352 1176.63 53.352ZM1190.8 53V30.44H1201.04C1203.58 30.44 1205.55 31.048 1206.93 32.264C1208.32 33.4587 1209.01 35.1333 1209.01 37.288C1209.01 38.696 1208.69 39.912 1208.05 40.936C1207.43 41.9387 1206.54 42.7173 1205.36 43.272C1204.21 43.8053 1202.83 44.072 1201.2 44.072L1201.59 43.368H1202.9C1203.82 43.368 1204.63 43.6133 1205.33 44.104C1206.06 44.5947 1206.65 45.3093 1207.12 46.248L1210.48 53H1204.98L1201.49 45.736C1201.24 45.1173 1200.83 44.712 1200.28 44.52C1199.74 44.3067 1199.12 44.2 1198.42 44.2H1195.8V53H1190.8ZM1195.8 40.616H1200.18C1201.48 40.616 1202.47 40.3493 1203.16 39.816C1203.84 39.2827 1204.18 38.4933 1204.18 37.448C1204.18 36.4027 1203.84 35.624 1203.16 35.112C1202.47 34.5787 1201.48 34.312 1200.18 34.312H1195.8V40.616ZM1222.49 53V30.44H1226.2L1238.46 46.024H1237.6V30.44H1242.24V53H1238.52L1226.3 37.416H1227.13V53H1222.49ZM1246.8 53V30.44H1262.48V34.312H1251.57V39.592H1261.72V43.496H1251.57V49.128H1262.48V53H1246.8ZM1262.99 53L1272.43 40.456V42.664L1263.24 30.44H1269.1L1275.24 39.048H1273.64L1279.82 30.44H1285.67L1276.46 42.664V40.456L1285.96 53H1280.07L1273.64 44.072H1275.27L1268.81 53H1262.99ZM1292.9 53V34.504H1285.73V30.44H1305.06V34.504H1297.89V53H1292.9ZM1322.02 53V34.504H1314.85V30.44H1334.18V34.504H1327.01V53H1322.02ZM1336.9 53V30.44H1347.14C1349.68 30.44 1351.64 31.048 1353.03 32.264C1354.41 33.4587 1355.11 35.1333 1355.11 37.288C1355.11 38.696 1354.79 39.912 1354.15 40.936C1353.53 41.9387 1352.63 42.7173 1351.46 43.272C1350.31 43.8053 1348.92 44.072 1347.3 44.072L1347.68 43.368H1348.99C1349.91 43.368 1350.72 43.6133 1351.43 44.104C1352.15 44.5947 1352.75 45.3093 1353.22 46.248L1356.58 53H1351.07L1347.59 45.736C1347.33 45.1173 1346.92 44.712 1346.37 44.52C1345.84 44.3067 1345.22 44.2 1344.51 44.2H1341.89V53H1336.9ZM1341.89 40.616H1346.27C1347.58 40.616 1348.57 40.3493 1349.25 39.816C1349.93 39.2827 1350.27 38.4933 1350.27 37.448C1350.27 36.4027 1349.93 35.624 1349.25 35.112C1348.57 34.5787 1347.58 34.312 1346.27 34.312H1341.89V40.616ZM1359.55 53V30.44H1364.55V53H1359.55ZM1369.12 53V30.44H1379.64C1382.18 30.44 1384.1 31.0587 1385.4 32.296C1386.73 33.512 1387.39 35.1867 1387.39 37.32C1387.39 39.432 1386.73 41.1173 1385.4 42.376C1384.1 43.6133 1382.18 44.232 1379.64 44.232H1374.11V53H1369.12ZM1374.11 40.36H1379C1380.2 40.36 1381.08 40.0933 1381.66 39.56C1382.26 39.0267 1382.56 38.28 1382.56 37.32C1382.56 36.36 1382.26 35.624 1381.66 35.112C1381.08 34.5787 1380.2 34.312 1379 34.312H1374.11V40.36ZM1410.65 53.352C1408.24 53.352 1406.17 52.872 1404.45 51.912C1402.72 50.952 1401.38 49.608 1400.45 47.88C1399.53 46.1307 1399.07 44.072 1399.07 41.704C1399.07 39.336 1399.53 37.288 1400.45 35.56C1401.38 33.832 1402.72 32.488 1404.45 31.528C1406.17 30.568 1408.24 30.088 1410.65 30.088C1412.21 30.088 1413.63 30.312 1414.91 30.76C1416.19 31.1867 1417.28 31.816 1418.17 32.648L1416.61 36.584C1415.62 35.816 1414.69 35.272 1413.79 34.952C1412.91 34.632 1411.92 34.472 1410.81 34.472C1408.7 34.472 1407.08 35.1013 1405.95 36.36C1404.84 37.5973 1404.29 39.3787 1404.29 41.704C1404.29 44.0293 1404.84 45.8213 1405.95 47.08C1407.08 48.3387 1408.7 48.968 1410.81 48.968C1411.92 48.968 1412.91 48.808 1413.79 48.488C1414.69 48.168 1415.62 47.624 1416.61 46.856L1418.17 50.792C1417.28 51.6027 1416.19 52.232 1414.91 52.68C1413.63 53.128 1412.21 53.352 1410.65 53.352ZM1418.59 53L1428.95 30.44H1433.08L1443.58 53H1438.52L1435.8 46.728L1437.75 48.104H1424.35L1426.33 46.728L1423.61 53H1418.59ZM1431 35.688L1426.87 45.48L1426.01 44.264H1436.09L1435.35 45.48L1431.13 35.688H1431ZM1445.52 53V30.44H1449.23L1461.49 46.024H1460.63V30.44H1465.27V53H1461.55L1449.33 37.416H1450.16V53H1445.52ZM1478.87 53V30.44H1489.27C1491.74 30.44 1493.65 30.9627 1494.99 32.008C1496.34 33.0533 1497.01 34.4827 1497.01 36.296C1497.01 37.64 1496.61 38.7813 1495.79 39.72C1495.01 40.6587 1493.92 41.288 1492.53 41.608V41.096C1494.15 41.3733 1495.4 41.992 1496.27 42.952C1497.17 43.8907 1497.62 45.1173 1497.62 46.632C1497.62 48.6373 1496.9 50.2053 1495.47 51.336C1494.07 52.4453 1492.11 53 1489.62 53H1478.87ZM1483.63 49.288H1489.01C1490.25 49.288 1491.2 49.0533 1491.86 48.584C1492.52 48.1147 1492.85 47.368 1492.85 46.344C1492.85 45.2987 1492.52 44.552 1491.86 44.104C1491.2 43.6347 1490.25 43.4 1489.01 43.4H1483.63V49.288ZM1483.63 39.72H1488.37C1489.67 39.72 1490.63 39.4853 1491.25 39.016C1491.87 38.5467 1492.18 37.8427 1492.18 36.904C1492.18 35.9867 1491.87 35.2933 1491.25 34.824C1490.63 34.3547 1489.67 34.12 1488.37 34.12H1483.63V39.72ZM1501.15 53V30.44H1516.83V34.312H1505.92V39.592H1516.06V43.496H1505.92V49.128H1516.83V53H1501.15ZM1529.34 53V30.44H1544.66V34.312H1534.33V39.816H1543.93V43.656H1534.33V53H1529.34ZM1547.84 53V30.44H1558.08C1560.61 30.44 1562.58 31.048 1563.96 32.264C1565.35 33.4587 1566.04 35.1333 1566.04 37.288C1566.04 38.696 1565.72 39.912 1565.08 40.936C1564.46 41.9387 1563.57 42.7173 1562.4 43.272C1561.24 43.8053 1559.86 44.072 1558.24 44.072L1558.62 43.368H1559.93C1560.85 43.368 1561.66 43.6133 1562.36 44.104C1563.09 44.5947 1563.69 45.3093 1564.16 46.248L1567.52 53H1562.01L1558.52 45.736C1558.27 45.1173 1557.86 44.712 1557.31 44.52C1556.77 44.3067 1556.16 44.2 1555.45 44.2H1552.83V53H1547.84ZM1552.83 40.616H1557.21C1558.51 40.616 1559.5 40.3493 1560.19 39.816C1560.87 39.2827 1561.21 38.4933 1561.21 37.448C1561.21 36.4027 1560.87 35.624 1560.19 35.112C1559.5 34.5787 1558.51 34.312 1557.21 34.312H1552.83V40.616ZM1570.49 53V30.44H1586.17V34.312H1575.26V39.592H1585.4V43.496H1575.26V49.128H1586.17V53H1570.49ZM1589.65 53V30.44H1605.33V34.312H1594.42V39.592H1604.56V43.496H1594.42V49.128H1605.33V53H1589.65ZM1609.19 45.864L1607.68 30.44H1613.64L1612.1 45.864H1609.19ZM1608.07 53V47.88H1613.25V53H1608.07ZM1626.15 53V30.44H1641.48V34.312H1631.14V39.816H1640.74V43.656H1631.14V53H1626.15ZM1644.65 53V30.44H1649.64V53H1644.65ZM1654.21 53V30.44H1657.92L1670.18 46.024H1669.31V30.44H1673.95V53H1670.24L1658.02 37.416H1658.85V53H1654.21ZM1678.52 53V30.44H1687.13C1689.75 30.44 1691.97 30.888 1693.79 31.784C1695.6 32.68 1696.97 33.9707 1697.88 35.656C1698.82 37.32 1699.29 39.336 1699.29 41.704C1699.29 44.0507 1698.82 46.0667 1697.88 47.752C1696.97 49.4373 1695.6 50.7387 1693.79 51.656C1691.97 52.552 1689.75 53 1687.13 53H1678.52ZM1683.51 48.904H1686.84C1689.36 48.904 1691.23 48.3173 1692.44 47.144C1693.68 45.9493 1694.3 44.136 1694.3 41.704C1694.3 39.2507 1693.68 37.4373 1692.44 36.264C1691.23 35.0907 1689.36 34.504 1686.84 34.504H1683.51V48.904ZM1711.57 41.704C1711.57 39.3573 1712.01 37.32 1712.88 35.592C1713.78 33.8427 1715.06 32.488 1716.72 31.528C1718.39 30.568 1720.36 30.088 1722.64 30.088C1724.92 30.088 1726.9 30.568 1728.56 31.528C1730.23 32.488 1731.51 33.8427 1732.4 35.592C1733.32 37.32 1733.78 39.3467 1733.78 41.672C1733.78 44.04 1733.32 46.0987 1732.4 47.848C1731.51 49.576 1730.23 50.9307 1728.56 51.912C1726.9 52.872 1724.92 53.352 1722.64 53.352C1720.36 53.352 1718.39 52.872 1716.72 51.912C1715.08 50.9307 1713.81 49.5653 1712.91 47.816C1712.02 46.0667 1711.57 44.0293 1711.57 41.704ZM1716.79 41.704C1716.79 44.0293 1717.27 45.8533 1718.23 47.176C1719.21 48.4773 1720.68 49.128 1722.64 49.128C1724.56 49.128 1726.02 48.4773 1727.03 47.176C1728.03 45.8533 1728.53 44.0293 1728.53 41.704C1728.53 39.3573 1728.03 37.544 1727.03 36.264C1726.04 34.9627 1724.58 34.312 1722.64 34.312C1720.68 34.312 1719.21 34.9627 1718.23 36.264C1717.27 37.544 1716.79 39.3573 1716.79 41.704ZM1747.38 53.352C1744.07 53.352 1741.6 52.5307 1739.98 50.888C1738.36 49.2453 1737.55 46.8027 1737.55 43.56V30.44H1742.54V43.592C1742.54 45.4053 1742.93 46.7813 1743.7 47.72C1744.48 48.6587 1745.71 49.128 1747.38 49.128C1749 49.128 1750.2 48.6587 1750.99 47.72C1751.8 46.7813 1752.21 45.4053 1752.21 43.592V30.44H1757.14V43.56C1757.14 46.8027 1756.31 49.2453 1754.67 50.888C1753.05 52.5307 1750.62 53.352 1747.38 53.352ZM1766.77 53V34.504H1759.6V30.44H1778.93V34.504H1771.76V53H1766.77ZM1790.68 53V30.44H1795.67V39.496H1806.01V30.44H1811.03V53H1806.01V43.624H1795.67V53H1790.68ZM1814.94 41.704C1814.94 39.3573 1815.38 37.32 1816.26 35.592C1817.15 33.8427 1818.43 32.488 1820.1 31.528C1821.76 30.568 1823.73 30.088 1826.02 30.088C1828.3 30.088 1830.27 30.568 1831.94 31.528C1833.6 32.488 1834.88 33.8427 1835.78 35.592C1836.69 37.32 1837.15 39.3467 1837.15 41.672C1837.15 44.04 1836.69 46.0987 1835.78 47.848C1834.88 49.576 1833.6 50.9307 1831.94 51.912C1830.27 52.872 1828.3 53.352 1826.02 53.352C1823.73 53.352 1821.76 52.872 1820.1 51.912C1818.45 50.9307 1817.18 49.5653 1816.29 47.816C1815.39 46.0667 1814.94 44.0293 1814.94 41.704ZM1820.16 41.704C1820.16 44.0293 1820.64 45.8533 1821.6 47.176C1822.58 48.4773 1824.05 49.128 1826.02 49.128C1827.94 49.128 1829.4 48.4773 1830.4 47.176C1831.4 45.8533 1831.9 44.0293 1831.9 41.704C1831.9 39.3573 1831.4 37.544 1830.4 36.264C1829.42 34.9627 1827.96 34.312 1826.02 34.312C1824.05 34.312 1822.58 34.9627 1821.6 36.264C1820.64 37.544 1820.16 39.3573 1820.16 41.704ZM1846.8 53L1838.8 30.44H1843.95L1849.68 47.848H1848.3L1854.54 30.44H1858.19L1863.92 47.848H1862.64L1868.72 30.44H1873.55L1865.48 53H1861.42L1855.88 36.968H1856.62L1850.89 53H1846.8Z" fill="#121212"/>
<rect x="1923" y="13" width="224" height="56" rx="6" fill="#121212"/>
<path d="M1989.02 34.96V39.16H1994.66V41.824H1989.02V46.264H1995.38V49H1985.66V32.224H1995.38V34.96H1989.02ZM2008.46 49L2004.84 43.36L2001.55 49H1997.76L2003.04 40.552L1997.69 32.248H2001.55L2005.17 37.864L2008.44 32.248H2012.23L2006.97 40.672L2012.33 49H2008.46ZM2027.1 37.432C2027.1 38.328 2026.88 39.168 2026.45 39.952C2026.03 40.736 2025.37 41.368 2024.46 41.848C2023.56 42.328 2022.43 42.568 2021.05 42.568H2018.24V49H2014.88V32.248H2021.05C2022.35 32.248 2023.45 32.472 2024.36 32.92C2025.27 33.368 2025.95 33.984 2026.4 34.768C2026.87 35.552 2027.1 36.44 2027.1 37.432ZM2020.91 39.856C2021.83 39.856 2022.52 39.648 2022.97 39.232C2023.42 38.8 2023.64 38.2 2023.64 37.432C2023.64 35.8 2022.73 34.984 2020.91 34.984H2018.24V39.856H2020.91ZM2032.84 46.336H2038.36V49H2029.48V32.248H2032.84V46.336ZM2048.28 49.168C2046.71 49.168 2045.27 48.8 2043.96 48.064C2042.64 47.328 2041.6 46.312 2040.84 45.016C2040.07 43.704 2039.68 42.224 2039.68 40.576C2039.68 38.944 2040.07 37.48 2040.84 36.184C2041.6 34.872 2042.64 33.848 2043.96 33.112C2045.27 32.376 2046.71 32.008 2048.28 32.008C2049.86 32.008 2051.3 32.376 2052.6 33.112C2053.91 33.848 2054.94 34.872 2055.69 36.184C2056.46 37.48 2056.84 38.944 2056.84 40.576C2056.84 42.224 2056.46 43.704 2055.69 45.016C2054.94 46.312 2053.91 47.328 2052.6 48.064C2051.28 48.8 2049.84 49.168 2048.28 49.168ZM2048.28 46.168C2049.28 46.168 2050.17 45.944 2050.94 45.496C2051.71 45.032 2052.31 44.376 2052.74 43.528C2053.17 42.68 2053.39 41.696 2053.39 40.576C2053.39 39.456 2053.17 38.48 2052.74 37.648C2052.31 36.8 2051.71 36.152 2050.94 35.704C2050.17 35.256 2049.28 35.032 2048.28 35.032C2047.27 35.032 2046.37 35.256 2045.59 35.704C2044.82 36.152 2044.22 36.8 2043.79 37.648C2043.36 38.48 2043.14 39.456 2043.14 40.576C2043.14 41.696 2043.36 42.68 2043.79 43.528C2044.22 44.376 2044.82 45.032 2045.59 45.496C2046.37 45.944 2047.27 46.168 2048.28 46.168ZM2067.98 49L2064.29 42.472H2062.7V49H2059.34V32.248H2065.63C2066.93 32.248 2068.03 32.48 2068.94 32.944C2069.86 33.392 2070.54 34.008 2070.98 34.792C2071.45 35.56 2071.68 36.424 2071.68 37.384C2071.68 38.488 2071.36 39.488 2070.72 40.384C2070.08 41.264 2069.13 41.872 2067.86 42.208L2071.87 49H2067.98ZM2062.7 39.952H2065.51C2066.42 39.952 2067.1 39.736 2067.55 39.304C2068 38.856 2068.22 38.24 2068.22 37.456C2068.22 36.688 2068 36.096 2067.55 35.68C2067.1 35.248 2066.42 35.032 2065.51 35.032H2062.7V39.952ZM2078.08 34.96V39.16H2083.72V41.824H2078.08V46.264H2084.44V49H2074.72V32.224H2084.44V34.96H2078.08Z" fill="white"/>
<circle opacity="0.55" cx="23" cy="23" r="23" transform="matrix(-1 0 0 1 798 -25)" fill="#45983E"/>
<circle opacity="0.55" cx="7.5" cy="7.5" r="7.5" transform="matrix(-1 0 0 1 955 42)" fill="#45983E"/>
<circle opacity="0.55" cx="54.5" cy="54.5" r="54.5" transform="matrix(-1 0 0 1 921 44)" fill="#45983E"/>
<path d="M822.324 14.1359H803.934C802.463 14.1359 801.052 14.7201 800.012 15.7599L769.012 46.7528C766.845 48.9187 766.845 52.4312 769.011 54.5974L787.401 72.9872C789.567 75.1533 793.079 75.1533 795.245 72.9872L826.246 41.9862C827.287 40.9461 827.871 39.5351 827.871 38.0641V19.6824C827.871 16.6191 825.388 14.1359 822.324 14.1359Z" fill="#A0E5A5"/>
<path d="M836.98 14.8224C836.98 9.40629 832.574 5 827.158 5C822.452 5 818.511 8.32635 817.557 12.7507H803.933C802.082 12.7507 800.341 13.4716 799.031 14.7809L768.031 45.7736C766.721 47.083 766 48.8243 766 50.6763C766 52.5285 766.721 54.2697 768.031 55.5794L786.421 73.9692C787.73 75.2786 789.471 76 791.323 76C793.175 76 794.916 75.2788 796.226 73.9692L806.951 63.2441C807.492 62.7026 807.492 61.8246 806.951 61.283C806.409 60.7416 805.531 60.7416 804.99 61.283L794.265 72.008C792.643 73.63 790.003 73.63 788.381 72.008L769.992 53.6184C769.206 52.8326 768.773 51.7879 768.773 50.6764C768.773 49.5652 769.206 48.5206 769.992 47.7349L800.992 16.7422C801.778 15.9567 802.822 15.524 803.933 15.524H817.363C817.528 17.883 818.524 20.079 820.212 21.7675C820.754 22.3091 821.632 22.3091 822.173 21.7676C822.715 21.2261 822.715 20.3482 822.173 19.8066C821.009 18.6419 820.302 17.1416 820.143 15.5239H822.324C824.618 15.5239 826.484 17.3901 826.484 19.6839V38.0656C826.484 39.1768 826.052 40.2215 825.266 41.0072L813.814 52.4585C813.273 53 813.273 53.878 813.814 54.4196C814.356 54.961 815.234 54.961 815.776 54.4196L827.227 42.9683C828.536 41.6588 829.258 39.9177 829.258 38.0658V24.4181C833.729 23.4526 836.98 19.5068 836.98 14.8224ZM829.258 21.5545V19.6839C829.258 15.8608 826.147 12.7505 822.324 12.7505H820.42C821.307 9.87166 823.992 7.77334 827.158 7.77334C831.044 7.77334 834.207 10.9355 834.207 14.8224C834.207 17.9744 832.157 20.6604 829.258 21.5545Z" fill="black"/>
<path d="M785.123 50.6012C785.665 50.0597 785.665 49.1817 785.123 48.6401C784.582 48.0987 783.704 48.0987 783.162 48.6401L779.824 51.9782C779.283 52.5197 779.283 53.3977 779.824 53.9394L788.06 62.1758C788.331 62.4465 788.686 62.5819 789.041 62.5819C789.396 62.5819 789.751 62.4465 790.021 62.1758C790.563 61.6343 790.563 60.7562 790.021 60.2146L786.806 56.9989L788.898 54.9064C789.44 54.3649 789.44 53.4869 788.898 52.9453C788.357 52.4039 787.479 52.4039 786.937 52.9453L784.845 55.0377L782.765 52.9586L785.123 50.6012Z" fill="black"/>
<path d="M801.496 50.1326C802.221 50.1326 802.831 49.5685 802.878 48.8342C802.927 48.0699 802.347 47.4108 801.583 47.3621L796.998 47.0698C797.384 46.4074 797.602 45.6579 797.626 44.8785C797.665 43.652 797.222 42.5124 796.379 41.6696C794.658 39.9487 791.804 40.0028 790.015 41.7906L787.827 43.9793C787.826 43.9798 787.826 43.9803 787.825 43.9807C787.825 43.9811 787.825 43.9816 787.824 43.982C787.283 44.5235 787.283 45.4015 787.824 45.9432L796.061 54.1794C796.331 54.4501 796.686 54.5856 797.041 54.5856C797.396 54.5856 797.751 54.4501 798.022 54.1794C798.563 53.6379 798.563 52.7599 798.022 52.2183L795.56 49.7569L801.406 50.1297C801.436 50.1316 801.466 50.1326 801.496 50.1326ZM791.977 43.7517C792.671 43.0572 793.789 43.0017 794.418 43.6306C794.714 43.9264 794.869 44.3386 794.855 44.7918C794.84 45.2655 794.636 45.7318 794.297 46.0716C794.019 46.3496 793.54 46.8326 793.102 47.2742C792.67 46.8467 792.202 46.3818 791.934 46.1144C791.705 45.8857 791.222 45.4048 790.771 44.9568L791.977 43.7517Z" fill="black"/>
<path d="M814.998 37.2007L818.469 33.7302C819.01 33.1887 819.01 32.3107 818.469 31.7691C817.927 31.2277 817.049 31.2277 816.508 31.7691L814.018 34.259L811.861 32.1019L814.095 29.8678C814.636 29.3263 814.636 28.4483 814.095 27.9066C813.553 27.3653 812.675 27.3653 812.133 27.9066L809.899 30.1407L807.742 27.9834L810.232 25.4935C810.774 24.952 810.774 24.074 810.232 23.5324C809.691 22.991 808.813 22.991 808.271 23.5324L804.801 27.0028C804.259 27.5443 804.259 28.4223 804.801 28.964L808.918 33.0815L808.919 33.0822C808.919 33.0822 808.919 33.0827 808.92 33.0829L813.037 37.2005C813.297 37.4605 813.65 37.6067 814.018 37.6067C814.385 37.6067 814.738 37.4607 814.998 37.2007Z" fill="black"/>
<path d="M805.975 45.6491C806.342 45.6491 806.695 45.503 806.955 45.243L810.426 41.7726C810.967 41.2311 810.967 40.353 810.426 39.8114C809.884 39.27 809.006 39.27 808.464 39.8114L805.974 42.3013L803.817 40.1442L806.052 37.9101C806.593 37.3686 806.593 36.4906 806.052 35.949C805.51 35.4079 804.632 35.4076 804.09 35.949L801.856 38.183L799.699 36.0259L802.189 33.536C802.731 32.9945 802.731 32.1165 802.189 31.5748C801.648 31.0335 800.77 31.0335 800.228 31.5748L796.758 35.0453C796.216 35.5868 796.216 36.4648 796.758 37.0064L804.994 45.2429C805.254 45.503 805.607 45.6491 805.975 45.6491Z" fill="black"/>
<path d="M810.383 56.4647C810.018 56.4647 809.66 56.613 809.402 56.871C809.145 57.1289 808.996 57.4867 808.996 57.8514C808.996 58.2161 809.144 58.5739 809.402 58.8318C809.66 59.0896 810.018 59.2381 810.383 59.2381C810.748 59.2381 811.105 59.0897 811.363 58.8318C811.621 58.5739 811.77 58.2161 811.77 57.8514C811.77 57.4867 811.621 57.1289 811.363 56.871C811.105 56.613 810.748 56.4647 810.383 56.4647Z" fill="black"/>
<path d="M936.263 -19.8467H907.77C905.492 -19.8467 903.306 -18.9416 901.695 -17.3305L853.666 30.6865C850.31 34.0423 850.309 39.4841 853.665 42.8403L882.157 71.3315C885.513 74.6874 890.954 74.6874 894.31 71.3315L942.34 23.3017C943.951 21.6903 944.857 19.5043 944.857 17.2253V-11.2534C944.856 -15.9994 941.009 -19.8467 936.263 -19.8467Z" fill="#A0E5A5"/>
<path d="M958.969 -18.7823C958.969 -27.1734 952.142 -34 943.751 -34C936.461 -34 930.355 -28.8465 928.878 -21.9919H907.77C904.901 -21.9919 902.204 -20.875 900.175 -18.8465L852.147 29.1703C850.118 31.199 849 33.8967 849 36.7661C849 39.6357 850.117 42.3334 852.146 44.3625L880.637 72.8537C882.666 74.8824 885.364 76 888.233 76C891.102 76 893.8 74.8826 895.829 72.8537L912.445 56.2374C913.284 55.3985 913.284 54.0381 912.445 53.199C911.606 52.3602 910.246 52.3602 909.406 53.199L892.79 69.8153C890.277 72.3282 886.188 72.3282 883.675 69.8153L855.184 41.3243C853.967 40.1068 853.296 38.4882 853.297 36.7663C853.297 35.0446 853.967 33.4263 855.185 32.209L903.213 -15.8079C904.43 -17.0249 906.049 -17.6952 907.77 -17.6952H928.576C928.833 -14.0404 930.375 -10.6382 932.991 -8.02217C933.83 -7.18302 935.19 -7.18302 936.029 -8.02196C936.868 -8.8609 936.868 -10.221 936.029 -11.0602C934.225 -12.8646 933.13 -15.1891 932.884 -17.6954H936.263C939.817 -17.6954 942.708 -14.8041 942.708 -11.2503V17.2284C942.708 18.9499 942.038 20.5685 940.82 21.7858L923.079 39.5272C922.24 40.3661 922.24 41.7265 923.079 42.5656C923.918 43.4043 925.278 43.4043 926.117 42.5656L943.859 24.8242C945.887 22.7953 947.005 20.0978 947.005 17.2286V-3.91557C953.933 -5.41148 958.969 -11.5247 958.969 -18.7823ZM947.005 -8.35216V-11.2503C947.005 -17.1734 942.186 -21.9921 936.263 -21.9921H933.313C934.687 -26.4524 938.846 -29.7033 943.751 -29.7033C949.773 -29.7033 954.672 -24.8041 954.672 -18.7823C954.672 -13.8988 951.497 -9.73743 947.005 -8.35216Z" fill="black"/>
<path d="M878.628 36.6503C879.467 35.8114 879.467 34.451 878.628 33.6119C877.789 32.7732 876.429 32.7732 875.59 33.6119L870.418 38.7837C869.579 39.6226 869.579 40.9829 870.418 41.8221L883.179 54.5827C883.598 55.0021 884.148 55.212 884.698 55.212C885.248 55.212 885.797 55.0021 886.217 54.5827C887.056 53.7438 887.056 52.3835 886.217 51.5443L881.235 46.5622L884.477 43.3204C885.316 42.4814 885.316 41.1211 884.477 40.2819C883.638 39.4432 882.278 39.4432 881.438 40.2819L878.196 43.5238L874.975 40.3025L878.628 36.6503Z" fill="black"/>
<path d="M903.994 35.923C905.118 35.923 906.063 35.0491 906.136 33.9115C906.212 32.7274 905.313 31.7062 904.129 31.6308L897.026 31.178C897.623 30.1517 897.962 28.9905 898 27.7829C898.059 25.8827 897.372 24.1171 896.067 22.8114C893.401 20.1452 888.978 20.229 886.208 22.9989L882.817 26.3899C882.816 26.3905 882.816 26.3914 882.815 26.392C882.814 26.3927 882.813 26.3933 882.813 26.394C881.974 27.2329 881.974 28.5933 882.813 29.4324L895.573 42.1928C895.993 42.6122 896.543 42.8221 897.093 42.8221C897.642 42.8221 898.192 42.6122 898.612 42.1928C899.451 41.3539 899.451 39.9936 898.612 39.1544L894.798 35.3411L903.855 35.9185C903.902 35.9215 903.948 35.923 903.994 35.923ZM889.247 26.0371C890.322 24.9612 892.054 24.8753 893.028 25.8496C893.487 26.3078 893.727 26.9465 893.705 27.6486C893.682 28.3825 893.367 29.105 892.841 29.6313C892.41 30.0621 891.668 30.8104 890.99 31.4946C890.321 30.8323 889.595 30.1119 889.18 29.6977C888.826 29.3435 888.077 28.5984 887.379 27.9043L889.247 26.0371Z" fill="black"/>
<path d="M924.913 15.8878L930.29 10.511C931.129 9.6721 931.129 8.31176 930.29 7.47261C929.45 6.63389 928.091 6.63389 927.251 7.47261L923.394 11.3302L920.052 7.98822L923.513 4.52699C924.352 3.68805 924.352 2.3277 923.513 1.48855C922.673 0.649828 921.314 0.649828 920.474 1.48855L917.013 4.94978L913.671 1.60757L917.529 -2.25004C918.368 -3.08897 918.368 -4.44932 917.529 -5.28847C916.69 -6.12719 915.33 -6.12719 914.49 -5.28847L909.114 0.088244C908.275 0.927181 908.275 2.28753 909.114 3.12668L915.493 9.50604L915.494 9.50711C915.494 9.50711 915.495 9.50775 915.495 9.50818L921.874 15.8875C922.277 16.2904 922.824 16.5168 923.393 16.5168C923.963 16.5168 924.51 16.2906 924.913 15.8878Z" fill="black"/>
<path d="M910.932 28.9777C911.502 28.9777 912.048 28.7513 912.452 28.3485L917.828 22.9718C918.667 22.1328 918.667 20.7725 917.828 19.9333C916.989 19.0946 915.629 19.0946 914.79 19.9333L910.932 23.7909L907.59 20.4489L911.052 16.9877C911.891 16.1488 911.891 14.7884 911.052 13.9493C910.213 13.111 908.853 13.1105 908.013 13.9493L904.552 17.4105L901.21 14.0685L905.068 10.2109C905.907 9.37196 905.907 8.01162 905.068 7.17247C904.229 6.33375 902.869 6.33375 902.029 7.17247L896.653 12.5492C895.814 13.3881 895.814 14.7485 896.653 15.5876L909.413 28.3483C909.816 28.7513 910.362 28.9777 910.932 28.9777Z" fill="black"/>
<path d="M917.762 45.7343C917.197 45.7343 916.642 45.9641 916.243 46.3637C915.843 46.7634 915.613 47.3177 915.613 47.8827C915.613 48.4477 915.843 49.002 916.243 49.4016C916.642 49.801 917.197 50.0311 917.762 50.0311C918.327 50.0311 918.881 49.8013 919.281 49.4016C919.68 49.002 919.91 48.4477 919.91 47.8827C919.91 47.3177 919.68 46.7634 919.281 46.3637C918.881 45.9641 918.327 45.7343 917.762 45.7343Z" fill="black"/>
<circle opacity="0.55" cx="2499.5" cy="-15.5" r="62.5" fill="#45983E"/>
<circle opacity="0.55" cx="2413" cy="55" r="9" fill="#45983E"/>
<path d="M2527.79 14.7787H2508.1C2506.53 14.7787 2505.02 15.4041 2503.91 16.5172L2470.72 49.6926C2468.4 52.0111 2468.4 55.7709 2470.72 58.0897L2490.41 77.7745C2492.73 80.0932 2496.49 80.0932 2498.8 77.7745L2531.99 44.5904C2533.1 43.477 2533.73 41.9667 2533.73 40.3921V20.7159C2533.73 17.4368 2531.07 14.7787 2527.79 14.7787Z" fill="#A0E5A5"/>
<path d="M2543.48 15.5141C2543.48 9.71659 2538.76 5 2532.96 5C2527.93 5 2523.71 8.5606 2522.69 13.2965H2508.1C2506.12 13.2965 2504.26 14.0682 2502.86 15.4697L2469.67 48.645C2468.27 50.0466 2467.5 51.9105 2467.5 53.8929C2467.5 55.8756 2468.27 57.7394 2469.67 59.1414L2489.36 78.8262C2490.76 80.2279 2492.62 81 2494.61 81C2496.59 81 2498.45 80.228 2499.85 78.8262L2511.33 67.3458C2511.91 66.7662 2511.91 65.8263 2511.33 65.2466C2510.75 64.6671 2509.82 64.6671 2509.24 65.2466L2497.76 76.7269C2496.02 78.4631 2493.19 78.4631 2491.46 76.7269L2471.77 57.0422C2470.93 56.2011 2470.47 55.0828 2470.47 53.8931C2470.47 52.7036 2470.93 51.5854 2471.77 50.7444L2504.96 17.5691C2505.8 16.7283 2506.92 16.2651 2508.1 16.2651H2522.48C2522.66 18.7903 2523.72 21.1409 2525.53 22.9483C2526.11 23.5281 2527.05 23.5281 2527.63 22.9485C2528.21 22.3688 2528.21 21.4291 2527.63 20.8493C2526.38 19.6026 2525.63 17.9966 2525.46 16.265H2527.79C2530.25 16.265 2532.24 18.2626 2532.24 20.718V40.3942C2532.24 41.5836 2531.78 42.7019 2530.94 43.5429L2518.68 55.8006C2518.1 56.3802 2518.1 57.3201 2518.68 57.8999C2519.26 58.4794 2520.2 58.4794 2520.78 57.8999L2533.04 45.6422C2534.44 44.2404 2535.21 42.3767 2535.21 40.3943V25.7856C2540 24.7521 2543.48 20.5284 2543.48 15.5141ZM2535.21 22.7203V20.718C2535.21 16.6257 2531.88 13.2963 2527.79 13.2963H2525.75C2526.7 10.2147 2529.58 7.96865 2532.96 7.96865C2537.12 7.96865 2540.51 11.3535 2540.51 15.5141C2540.51 18.8881 2538.32 21.7632 2535.21 22.7203Z" fill="black"/>
<path d="M2487.97 53.8129C2488.55 53.2333 2488.55 52.2934 2487.97 51.7137C2487.39 51.1342 2486.45 51.1342 2485.87 51.7137L2482.3 55.2869C2481.72 55.8665 2481.72 56.8064 2482.3 57.3862L2491.11 66.2026C2491.4 66.4924 2491.78 66.6374 2492.16 66.6374C2492.54 66.6374 2492.92 66.4924 2493.21 66.2026C2493.79 65.623 2493.79 64.6831 2493.21 64.1033L2489.77 60.6612L2492.01 58.4213C2492.59 57.8417 2492.59 56.9018 2492.01 56.322C2491.43 55.7426 2490.49 55.7426 2489.91 56.322L2487.67 58.5619L2485.45 56.3363L2487.97 53.8129Z" fill="black"/>
<path d="M2505.49 53.3104C2506.27 53.3104 2506.92 52.7066 2506.97 51.9207C2507.03 51.1025 2506.41 50.397 2505.59 50.3449L2500.68 50.032C2501.09 49.323 2501.33 48.5207 2501.35 47.6863C2501.39 46.3735 2500.92 45.1536 2500.02 44.2515C2498.18 42.4094 2495.12 42.4673 2493.21 44.381L2490.86 46.7239C2490.86 46.7243 2490.86 46.7249 2490.86 46.7254C2490.86 46.7258 2490.86 46.7263 2490.86 46.7267C2490.28 47.3063 2490.28 48.2462 2490.86 48.826L2499.68 57.6423C2499.97 57.932 2500.35 58.0771 2500.73 58.0771C2501.11 58.0771 2501.49 57.932 2501.78 57.6423C2502.36 57.0627 2502.36 56.1228 2501.78 55.543L2499.14 52.9083L2505.4 53.3073C2505.43 53.3094 2505.46 53.3104 2505.49 53.3104ZM2495.31 46.4802C2496.05 45.7368 2497.25 45.6775 2497.92 46.3506C2498.24 46.6672 2498.4 47.1085 2498.39 47.5936C2498.37 48.1006 2498.15 48.5998 2497.79 48.9635C2497.49 49.2611 2496.98 49.778 2496.51 50.2508C2496.05 49.7932 2495.55 49.2955 2495.26 49.0093C2495.01 48.7645 2494.5 48.2498 2494.02 47.7702L2495.31 46.4802Z" fill="black"/>
<path d="M2519.95 39.4679L2523.66 35.7531C2524.24 35.1735 2524.24 34.2336 2523.66 33.6538C2523.08 33.0743 2522.14 33.0743 2521.56 33.6538L2518.9 36.3191L2516.59 34.0101L2518.98 31.6187C2519.56 31.039 2519.56 30.0992 2518.98 29.5194C2518.4 28.9399 2517.46 28.9399 2516.88 29.5194L2514.49 31.9108L2512.18 29.6016L2514.85 26.9364C2515.43 26.3567 2515.43 25.4169 2514.85 24.8371C2514.27 24.2576 2513.33 24.2576 2512.75 24.8371L2509.03 28.5519C2508.45 29.1315 2508.45 30.0714 2509.03 30.6512L2513.44 35.0587L2513.44 35.0595C2513.44 35.0595 2513.44 35.0599 2513.44 35.0602L2517.85 39.4678C2518.13 39.7461 2518.5 39.9025 2518.9 39.9025C2519.29 39.9025 2519.67 39.7462 2519.95 39.4679Z" fill="black"/>
<path d="M2510.29 48.5119C2510.68 48.5119 2511.06 48.3555 2511.34 48.0772L2515.05 44.3623C2515.63 43.7827 2515.63 42.8428 2515.05 42.263C2514.47 41.6836 2513.53 41.6836 2512.95 42.263L2510.29 44.9283L2507.98 42.6193L2510.37 40.2279C2510.95 39.6483 2510.95 38.7084 2510.37 38.1286C2509.79 37.5494 2508.85 37.5491 2508.27 38.1286L2505.88 40.52L2503.57 38.211L2506.24 35.5457C2506.82 34.9661 2506.82 34.0262 2506.24 33.4465C2505.66 32.867 2504.72 32.867 2504.14 33.4465L2500.42 37.1613C2499.84 37.7409 2499.84 38.6808 2500.42 39.2606L2509.24 48.077C2509.52 48.3555 2509.9 48.5119 2510.29 48.5119Z" fill="black"/>
<path d="M2515.01 60.0891C2514.62 60.0891 2514.23 60.248 2513.96 60.5241C2513.68 60.8002 2513.52 61.1831 2513.52 61.5735C2513.52 61.9639 2513.68 62.3469 2513.96 62.623C2514.23 62.8989 2514.62 63.0579 2515.01 63.0579C2515.4 63.0579 2515.78 62.8991 2516.06 62.623C2516.33 62.3469 2516.49 61.9639 2516.49 61.5735C2516.49 61.1831 2516.33 60.8002 2516.06 60.5241C2515.78 60.248 2515.4 60.0891 2515.01 60.0891Z" fill="black"/>
<path d="M2443.68 -25.1031H2415.7C2413.46 -25.1031 2411.32 -24.2144 2409.74 -22.6327L2362.58 24.5113C2359.29 27.8061 2359.29 33.1489 2362.58 36.4441L2390.55 64.4173C2393.85 67.7122 2399.19 67.7122 2402.49 64.4173L2449.64 17.2608C2451.22 15.6786 2452.11 13.5324 2452.11 11.2949V-16.6661C2452.11 -21.3257 2448.34 -25.1031 2443.68 -25.1031Z" fill="#A0E5A5"/>
<path d="M2465.97 -24.059C2465.97 -32.2975 2459.27 -39 2451.03 -39C2443.87 -39 2437.88 -33.9402 2436.43 -27.2103H2415.7C2412.88 -27.2103 2410.24 -26.1136 2408.24 -24.122L2361.09 23.0218C2359.1 25.0136 2358 27.6623 2358 30.4794C2358 33.2968 2359.1 35.9455 2361.09 37.9377L2389.06 65.9109C2391.05 67.9027 2393.7 69 2396.52 69C2399.34 69 2401.99 67.9029 2403.98 65.9109L2420.29 49.5967C2421.12 48.773 2421.12 47.4374 2420.29 46.6135C2419.47 45.79 2418.13 45.79 2417.31 46.6135L2400.99 62.9277C2398.53 65.395 2394.51 65.395 2392.05 62.9277L2364.07 34.9548C2362.88 33.7594 2362.22 32.1703 2362.22 30.4797C2362.22 28.7893 2362.88 27.2003 2364.07 26.0052L2411.23 -21.1386C2412.42 -22.3335 2414.01 -22.9916 2415.7 -22.9916H2436.13C2436.38 -19.4033 2437.89 -16.063 2440.46 -13.4945C2441.29 -12.6706 2442.62 -12.6706 2443.45 -13.4943C2444.27 -14.318 2444.27 -15.6534 2443.45 -16.4773C2441.68 -18.2489 2440.6 -20.5311 2440.36 -22.9919H2443.68C2447.17 -22.9919 2450 -20.1532 2450 -16.6639V11.297C2450 12.9872 2449.35 14.5763 2448.15 15.7715L2430.73 33.1903C2429.91 34.014 2429.91 35.3496 2430.73 36.1735C2431.56 36.997 2432.89 36.997 2433.71 36.1735L2451.13 18.7547C2453.13 16.7626 2454.22 14.1142 2454.22 11.2972V-9.46256C2461.02 -10.9313 2465.97 -16.9333 2465.97 -24.059ZM2454.22 -13.8185V-16.6639C2454.22 -22.4793 2449.49 -27.2105 2443.68 -27.2105H2440.78C2442.13 -31.5896 2446.21 -34.7814 2451.03 -34.7814C2456.94 -34.7814 2461.75 -29.9713 2461.75 -24.059C2461.75 -19.2643 2458.63 -15.1786 2454.22 -13.8185Z" fill="black"/>
<path d="M2387.09 30.3657C2387.91 29.5421 2387.91 28.2065 2387.09 27.3826C2386.26 26.5591 2384.93 26.5591 2384.11 27.3826L2379.03 32.4603C2378.2 33.284 2378.2 34.6196 2379.03 35.4435L2391.56 47.9721C2391.97 48.3839 2392.51 48.5899 2393.05 48.5899C2393.59 48.5899 2394.13 48.3839 2394.54 47.9721C2395.36 47.1484 2395.36 45.8128 2394.54 44.9889L2389.65 40.0974L2392.83 36.9145C2393.65 36.0908 2393.65 34.7552 2392.83 33.9313C2392.01 33.1078 2390.67 33.1078 2389.85 33.9313L2386.66 37.1143L2383.5 33.9516L2387.09 30.3657Z" fill="black"/>
<path d="M2411.99 29.6517C2413.1 29.6517 2414.02 28.7936 2414.09 27.6768C2414.17 26.5141 2413.29 25.5116 2412.12 25.4375L2405.15 24.9929C2405.74 23.9853 2406.07 22.8452 2406.11 21.6596C2406.16 19.7939 2405.49 18.0605 2404.21 16.7784C2401.59 14.1608 2397.25 14.243 2394.53 16.9626L2391.2 20.2919C2391.2 20.2925 2391.2 20.2934 2391.2 20.294C2391.2 20.2946 2391.2 20.2953 2391.2 20.2959C2390.37 21.1196 2390.37 22.4552 2391.2 23.2791L2403.72 35.8075C2404.14 36.2192 2404.68 36.4253 2405.22 36.4253C2405.76 36.4253 2406.3 36.2192 2406.71 35.8075C2407.53 34.9838 2407.53 33.6482 2406.71 32.8243L2402.96 29.0803L2411.86 29.6473C2411.9 29.6502 2411.95 29.6517 2411.99 29.6517ZM2397.51 19.9455C2398.57 18.8892 2400.27 18.8048 2401.23 19.7614C2401.68 20.2113 2401.91 20.8384 2401.89 21.5277C2401.87 22.2483 2401.56 22.9576 2401.04 23.4744C2400.62 23.8973 2399.89 24.632 2399.22 25.3038C2398.57 24.6535 2397.85 23.9463 2397.45 23.5396C2397.1 23.1918 2396.36 22.4602 2395.68 21.7787L2397.51 19.9455Z" fill="black"/>
<path d="M2432.53 9.98071L2437.81 4.70175C2438.63 3.87807 2438.63 2.54246 2437.81 1.71856C2436.99 0.895091 2435.65 0.895091 2434.83 1.71856L2431.04 5.50603L2427.76 2.2248L2431.16 -1.1735C2431.98 -1.99719 2431.98 -3.3328 2431.16 -4.15669C2430.33 -4.98017 2429 -4.98017 2428.17 -4.15669L2424.78 -0.758395L2421.49 -4.03984L2425.28 -7.82731C2426.11 -8.65099 2426.11 -9.9866 2425.28 -10.8105C2424.46 -11.634 2423.12 -11.634 2422.3 -10.8105L2417.02 -5.53154C2416.2 -4.70786 2416.2 -3.37224 2417.02 -2.54835L2423.28 3.71502L2423.28 3.71607C2423.28 3.71607 2423.29 3.71671 2423.29 3.71713L2429.55 9.9805C2429.94 10.376 2430.48 10.5983 2431.04 10.5983C2431.6 10.5983 2432.14 10.3762 2432.53 9.98071Z" fill="black"/>
<path d="M2418.81 22.8327C2419.37 22.8327 2419.9 22.6104 2420.3 22.2149L2425.58 16.9359C2426.4 16.1122 2426.4 14.7766 2425.58 13.9527C2424.75 13.1293 2423.42 13.1293 2422.59 13.9527L2418.81 17.7402L2415.52 14.459L2418.92 11.0607C2419.75 10.237 2419.75 8.90136 2418.92 8.07747C2418.1 7.25442 2416.76 7.254 2415.94 8.07747L2412.54 11.4758L2409.26 8.19454L2413.05 4.40707C2413.87 3.58338 2413.87 2.24777 2413.05 1.42388C2412.22 0.600406 2410.89 0.600406 2410.06 1.42388L2404.79 6.70283C2403.96 7.52652 2403.96 8.86213 2404.79 9.68602L2417.31 22.2147C2417.71 22.6104 2418.25 22.8327 2418.81 22.8327Z" fill="black"/>
<path d="M2425.51 39.2845C2424.96 39.2845 2424.41 39.5102 2424.02 39.9026C2423.63 40.2949 2423.4 40.8392 2423.4 41.3939C2423.4 41.9487 2423.63 42.4929 2424.02 42.8853C2424.41 43.2774 2424.96 43.5033 2425.51 43.5033C2426.07 43.5033 2426.61 43.2776 2427 42.8853C2427.4 42.4929 2427.62 41.9487 2427.62 41.3939C2427.62 40.8392 2427.4 40.2949 2427 39.9026C2426.61 39.5102 2426.07 39.2845 2425.51 39.2845Z" fill="black"/>
<path d="M2446.98 66.106H2430.66C2429.35 66.106 2428.1 66.6243 2427.18 67.547L2399.67 95.0477C2397.75 96.9696 2397.75 100.086 2399.67 102.008L2415.99 118.326C2417.91 120.248 2421.03 120.248 2422.95 118.326L2450.46 90.8182C2451.38 89.8953 2451.9 88.6433 2451.9 87.3381V71.0275C2451.9 68.3094 2449.7 66.106 2446.98 66.106Z" fill="#A0E5A5"/>
<path d="M2459.98 66.7156C2459.98 61.9098 2456.07 58 2451.27 58C2447.09 58 2443.59 60.9516 2442.75 64.8774H2430.66C2429.02 64.8774 2427.47 65.5171 2426.31 66.6788L2398.8 94.1794C2397.64 95.3413 2397 96.8863 2397 98.5297C2397 100.173 2397.64 101.718 2398.8 102.88L2415.12 119.198C2416.28 120.36 2417.83 121 2419.47 121C2421.11 121 2422.66 120.36 2423.82 119.198L2433.34 109.681C2433.82 109.201 2433.82 108.422 2433.34 107.941C2432.86 107.461 2432.08 107.461 2431.6 107.941L2422.08 117.458C2420.64 118.897 2418.3 118.897 2416.86 117.458L2400.54 101.14C2399.84 100.443 2399.46 99.516 2399.46 98.5298C2399.46 97.5437 2399.84 96.6169 2400.54 95.9197L2428.05 68.4191C2428.75 67.7221 2429.67 67.3382 2430.66 67.3382H2442.58C2442.72 69.4314 2443.61 71.3799 2445.1 72.8782C2445.58 73.3588 2446.36 73.3588 2446.84 72.8783C2447.32 72.3979 2447.32 71.6189 2446.84 71.1383C2445.81 70.1048 2445.18 68.7735 2445.04 67.3381H2446.98C2449.01 67.3381 2450.67 68.994 2450.67 71.0294V87.3399C2450.67 88.3259 2450.29 89.2529 2449.59 89.95L2439.43 100.111C2438.95 100.592 2438.95 101.371 2439.43 101.851C2439.91 102.332 2440.69 102.332 2441.17 101.851L2451.33 91.6902C2452.49 90.5282 2453.13 88.9833 2453.13 87.34V75.2302C2457.1 74.3734 2459.98 70.8722 2459.98 66.7156ZM2453.13 72.6892V71.0294C2453.13 67.6371 2450.37 64.8772 2446.98 64.8772H2445.29C2446.08 62.3227 2448.46 60.4609 2451.27 60.4609C2454.72 60.4609 2457.52 63.2667 2457.52 66.7156C2457.52 69.5125 2455.7 71.8958 2453.13 72.6892Z" fill="black"/>
<path d="M2440.48 86.5723L2443.55 83.4929C2444.04 83.0124 2444.04 82.2333 2443.55 81.7527C2443.07 81.2724 2442.3 81.2724 2441.81 81.7527L2439.61 83.9621L2437.69 82.048L2439.67 80.0657C2440.15 79.5852 2440.15 78.8061 2439.67 78.3255C2439.19 77.8451 2438.41 77.8451 2437.93 78.3255L2435.95 80.3078L2434.04 78.3937L2436.25 76.1843C2436.73 75.7038 2436.73 74.9247 2436.25 74.4441C2435.77 73.9637 2434.99 73.9637 2434.51 74.4441L2431.43 77.5235C2430.95 78.004 2430.95 78.7831 2431.43 79.2637L2435.08 82.9173L2435.08 82.9179C2435.08 82.9179 2435.08 82.9183 2435.08 82.9185L2438.74 86.5722C2438.97 86.8029 2439.28 86.9326 2439.61 86.9326C2439.93 86.9326 2440.24 86.803 2440.48 86.5723Z" fill="black"/>
</g>
<defs>
<clipPath id="clip0_7714_21452">
<rect width="3267" height="81" fill="white"/>
</clipPath>
</defs>
</svg>
