<svg width="2367" height="1715" viewBox="0 0 2367 1715" fill="none" xmlns="http://www.w3.org/2000/svg">
<circle cx="1124" cy="903" r="651" fill="#FFFBD6"/>
<circle cx="1109.5" cy="919.5" r="772.5" stroke="#FFF69C" stroke-width="46" stroke-dasharray="92 92"/>
<line x1="15.781" y1="130.242" x2="87.2417" y2="295.219" stroke="#434343" stroke-width="24" stroke-linecap="round"/>
<path d="M518.236 530C546.403 625.167 564.536 833.5 411.736 905.5C220.736 995.5 178.236 732.5 315.236 698C424.836 670.4 635.235 824.833 726.734 905.5" stroke="#434343" stroke-width="19" stroke-dasharray="32 40"/>
<mask id="mask0_1129_11210" style="mask-type:alpha" maskUnits="userSpaceOnUse" x="473" y="252" width="1302" height="1302">
<circle cx="1124" cy="903" r="651" fill="#FFE700"/>
</mask>
<g mask="url(#mask0_1129_11210)">
<path d="M1193.55 1341.66L707.599 1047.31L1188.37 744.472L1676.22 1041.19L1193.55 1341.66Z" fill="#FFED41"/>
<path fill-rule="evenodd" clip-rule="evenodd" d="M1408.21 376.156H1407.13C1302.51 376.156 1217.87 375.641 1130.25 375.108C1053.7 374.642 974.862 374.162 878.43 374C840.323 373.936 809.409 404.835 809.409 442.943V1297.6C809.409 1335.7 840.302 1366.6 878.409 1366.6H1524.08C1562.19 1366.6 1593.08 1335.7 1593.08 1297.6V545.731V539.491L1408.21 376.156Z" fill="#FFED41"/>
<path fill-rule="evenodd" clip-rule="evenodd" d="M1592.81 538.966H1456.02C1429.51 538.966 1408.02 517.476 1408.02 490.966V375.878H1408.22L1592.81 538.966Z" fill="#FFED41"/>
<rect x="897.076" y="482.019" width="226.69" height="225.804" rx="36" fill="#FFED41"/>
<line x1="935.076" y1="858.438" x2="1435.54" y2="858.438" stroke="#FFE700" stroke-width="76" stroke-linecap="round"/>
<line x1="935.076" y1="972.667" x2="1435.54" y2="972.667" stroke="#FFE700" stroke-width="76" stroke-linecap="round"/>
<line x1="935.076" y1="1086.9" x2="1147.75" y2="1086.9" stroke="#FFE700" stroke-width="76" stroke-linecap="round"/>
<path fill-rule="evenodd" clip-rule="evenodd" d="M708.183 1046.92C703.656 1053.4 701 1061.29 701 1069.8V1538.45C701 1560.54 718.909 1578.45 741 1578.45H1648C1670.09 1578.45 1688 1560.54 1688 1538.45V1069.8C1688 1058.71 1683.49 1048.68 1676.2 1041.43L1187.28 1314.61L708.183 1046.92Z" fill="#FFED41"/>
<mask id="mask1_1129_11210" style="mask-type:alpha" maskUnits="userSpaceOnUse" x="701" y="1041" width="987" height="538">
<path fill-rule="evenodd" clip-rule="evenodd" d="M708.181 1046.84C703.655 1053.32 701 1061.2 701 1069.71V1538.44C701 1560.54 718.909 1578.44 741 1578.44H1648C1670.09 1578.44 1688 1560.54 1688 1538.44V1069.71C1688 1058.62 1683.49 1048.59 1676.2 1041.34L1187.28 1314.56L708.181 1046.84Z" fill="#FF9434"/>
</mask>
<g mask="url(#mask1_1129_11210)">
<path d="M1175.17 1120.06L642.553 1687.65L1816.21 1760.72L1175.17 1120.06Z" fill="#FFED41"/>
</g>
</g>
<path d="M258.5 504.5L41 1L701 195L517.5 306.5L229 133.5L444 369.5L258.5 504.5Z" fill="#FFE700" stroke="#FFE700"/>
<path d="M444.5 369L229 132L507.5 353.5L504.5 524C474.667 480.833 414.5 394.3 412.5 393.5C410.5 392.7 433 376.833 444.5 369Z" fill="#BBA900" stroke="#BBA900"/>
<path d="M508 353.5L229.5 131L508 301V353.5Z" fill="#E6D000" stroke="#E6D000"/>
<path d="M2070 869.5C2152 869.5 2248.5 841.5 2329 748" stroke="#FFE700" stroke-width="30" stroke-linecap="round"/>
<path fill-rule="evenodd" clip-rule="evenodd" d="M2051.5 809C2225.75 809 2367 667.746 2367 493.5C2367 319.254 2225.75 178 2051.5 178C1877.25 178 1736 319.254 1736 493.5C1736 567.21 1761.28 635.017 1803.64 688.724C1805.6 691.212 1806.17 694.534 1805.09 697.512L1765.83 805.46C1763.36 812.263 1769.52 819.054 1776.53 817.253L1916.93 781.18C1918.93 780.666 1921.05 780.86 1922.93 781.702C1962.2 799.246 2005.71 809 2051.5 809Z" fill="#FFE700"/>
<path fill-rule="evenodd" clip-rule="evenodd" d="M2002 723C2180.39 723 2325 578.388 2325 400C2325 372.354 2321.53 345.52 2314.99 319.909C2258.55 234.41 2161.61 178 2051.5 178C1877.25 178 1736 319.254 1736 493.5C1736 535.988 1744.4 576.515 1759.63 613.511C1818.81 680.648 1905.46 723 2002 723Z" fill="#FFF274"/>
<path d="M1918.27 568.619C1914.52 570.491 1910.46 573.299 1907.34 576.421C1890.18 593.585 1890.18 621.669 1907.34 638.833C1924.51 655.997 1952.59 655.997 1969.75 638.833C1972.88 635.712 1975.68 631.654 1977.56 627.91L1918.27 568.619Z" fill="#464646"/>
<path d="M2094.58 632.593L2126.41 600.762C2123.6 598.577 2120.48 596.082 2117.98 593.585C2084.28 559.883 2084.28 505.583 2117.98 471.882C2137.02 452.846 2162.61 444.733 2187.57 447.229C2184.76 436.931 2180.08 427.258 2174.47 417.897C2176.02 416.961 2177.27 415.712 2178.83 414.151C2191.63 401.356 2191.63 380.137 2178.83 367.342C2166.04 354.547 2144.82 354.547 2132.03 367.342C2130.78 368.589 2129.53 370.461 2128.28 371.711C2107.68 359.229 2083.97 352.361 2059.32 353.3C2027.8 354.234 1997.84 367.34 1975.37 389.81L1913.58 451.598C1901.72 439.739 1882.06 439.427 1869.89 451.598C1858.04 463.457 1858.04 483.429 1869.89 495.285L2050.89 676.28C2062.75 688.139 2082.72 688.137 2094.58 676.28C2106.75 664.11 2106.43 644.45 2094.58 632.593L2094.58 632.593Z" fill="#464646"/>
<path d="M2227.21 581.103C2200.49 607.816 2157.18 607.814 2130.47 581.101C2103.75 554.387 2103.75 511.076 2130.47 484.363C2157.18 457.648 2200.49 457.649 2227.21 484.363C2253.92 511.076 2253.92 554.387 2227.21 581.103Z" fill="#EA4949"/>
<path d="M1079.5 1375.49L564 1063.25L1074 742L1591.5 1056.76L1079.5 1375.49Z" fill="#706500"/>
<path fill-rule="evenodd" clip-rule="evenodd" d="M1307.2 351.294H1306.05C1195.07 351.294 1105.29 350.748 1012.34 350.182C930.031 349.681 845.234 349.165 741.029 349C702.922 348.94 672 379.838 672 417.946V1332.94C672 1371.05 702.892 1401.94 741 1401.94H1434.31C1472.42 1401.94 1503.31 1371.05 1503.31 1332.94V531.177V524.558L1307.2 351.294Z" fill="white"/>
<path fill-rule="evenodd" clip-rule="evenodd" d="M1503.02 524H1355C1328.49 524 1307 502.51 1307 476V351H1307.21L1503.02 524Z" fill="#D9D9D9"/>
<rect x="764.994" y="463.593" width="240.47" height="239.531" rx="36" fill="#FFE700"/>
<line x1="802.994" y1="865.203" x2="1338.5" y2="865.203" stroke="#DADDDC" stroke-width="76" stroke-linecap="round"/>
<line x1="802.994" y1="986.377" x2="1338.5" y2="986.377" stroke="#DADDDC" stroke-width="76" stroke-linecap="round"/>
<line x1="802.994" y1="1107.55" x2="1033.22" y2="1107.55" stroke="#DADDDC" stroke-width="76" stroke-linecap="round"/>
<path fill-rule="evenodd" clip-rule="evenodd" d="M563.788 1062.37C559.501 1068.74 557 1076.41 557 1084.67V1586.67C557 1608.76 574.909 1626.67 597 1626.67H1564C1586.09 1626.67 1604 1608.76 1604 1586.67V1084.67C1604 1073.68 1599.57 1063.73 1592.4 1056.5L1072.84 1346.79L563.788 1062.37Z" fill="#FFF69C"/>
<mask id="mask2_1129_11210" style="mask-type:alpha" maskUnits="userSpaceOnUse" x="557" y="1056" width="1047" height="571">
<path fill-rule="evenodd" clip-rule="evenodd" d="M563.787 1062.28C559.501 1068.65 557 1076.32 557 1084.58V1586.67C557 1608.76 574.909 1626.67 597 1626.67H1564C1586.09 1626.67 1604 1608.76 1604 1586.67V1084.58C1604 1073.59 1599.57 1063.64 1592.4 1056.41L1072.84 1346.75L563.787 1062.28Z" fill="#FF9434"/>
</mask>
<g mask="url(#mask2_1129_11210)">
<path d="M1060 1140.42L495 1742.52L1740 1820.03L1060 1140.42Z" fill="#FFE700"/>
</g>
</svg>
