<svg width="64" height="64" viewBox="0 0 64 64" fill="none" xmlns="http://www.w3.org/2000/svg">
<g filter="url(#filter0_d_2590_7729)">
<rect x="4" y="4" width="55.534" height="56" rx="8" fill="#F1F1F1"/>
</g>
<path d="M31.8325 30.6013C33.0541 30.6013 34.2483 30.239 35.264 29.5603C36.2797 28.8816 37.0713 27.9169 37.5387 26.7883C38.0062 25.6597 38.1284 24.4178 37.89 23.2196C37.6516 22.0215 37.0632 20.921 36.1993 20.0573C35.3354 19.1936 34.2348 18.6055 33.0367 18.3673C31.8385 18.1291 30.5966 18.2516 29.4681 18.7193C28.3395 19.1869 27.375 19.9788 26.6965 20.9946C26.018 22.0104 25.656 23.2047 25.6563 24.4263C25.6582 26.0636 26.3096 27.6333 27.4675 28.7909C28.6254 29.9486 30.1952 30.5996 31.8325 30.6013ZM31.8325 20.75C32.5596 20.75 33.2704 20.9656 33.8749 21.3696C34.4795 21.7735 34.9507 22.3477 35.2289 23.0194C35.5072 23.6912 35.58 24.4304 35.4381 25.1435C35.2963 25.8566 34.9461 26.5117 34.432 27.0258C33.9179 27.5399 33.2628 27.89 32.5497 28.0319C31.8366 28.1737 31.0974 28.1009 30.4257 27.8227C29.7539 27.5444 29.1798 27.0733 28.7758 26.4687C28.3719 25.8641 28.1562 25.1534 28.1562 24.4263C28.1576 23.4517 28.5453 22.5174 29.2345 21.8282C29.9236 21.1391 30.8579 20.7514 31.8325 20.75Z" fill="black"/>
<path d="M20.168 34.2312C21.1074 34.2312 22.0258 33.9526 22.8069 33.4307C23.5881 32.9087 24.1969 32.1669 24.5564 31.2989C24.9159 30.431 25.01 29.4759 24.8267 28.5545C24.6434 27.6331 24.191 26.7867 23.5267 26.1224C22.8624 25.4581 22.0161 25.0058 21.0946 24.8225C20.1732 24.6392 19.2182 24.7333 18.3502 25.0928C17.4823 25.4523 16.7404 26.0611 16.2185 26.8422C15.6966 27.6234 15.418 28.5417 15.418 29.4812C15.418 30.741 15.9184 31.9492 16.8092 32.84C17.7 33.7308 18.9082 34.2312 20.168 34.2312ZM20.168 27.2312C20.613 27.2312 21.048 27.3632 21.418 27.6104C21.788 27.8576 22.0764 28.209 22.2467 28.6202C22.417 29.0313 22.4616 29.4837 22.3747 29.9202C22.2879 30.3566 22.0736 30.7575 21.759 31.0722C21.4443 31.3869 21.0434 31.6012 20.6069 31.688C20.1705 31.7748 19.7181 31.7302 19.3069 31.5599C18.8958 31.3896 18.5444 31.1012 18.2972 30.7312C18.0499 30.3612 17.918 29.9262 17.918 29.4812C17.918 28.8845 18.155 28.3122 18.577 27.8902C18.9989 27.4683 19.5712 27.2312 20.168 27.2312Z" fill="black"/>
<path d="M43.5 34.2312C44.4395 34.2312 45.3578 33.9526 46.139 33.4307C46.9201 32.9087 47.5289 32.1669 47.8884 31.2989C48.2479 30.431 48.342 29.4759 48.1587 28.5545C47.9755 27.6331 47.5231 26.7867 46.8588 26.1224C46.1945 25.4581 45.3481 25.0058 44.4267 24.8225C43.5053 24.6392 42.5502 24.7333 41.6823 25.0928C40.8143 25.4523 40.0725 26.0611 39.5505 26.8422C39.0286 27.6234 38.75 28.5417 38.75 29.4812C38.75 30.741 39.2504 31.9492 40.1412 32.84C41.032 33.7308 42.2402 34.2312 43.5 34.2312ZM43.5 27.2312C43.945 27.2312 44.38 27.3632 44.75 27.6104C45.12 27.8576 45.4084 28.209 45.5787 28.6202C45.749 29.0313 45.7936 29.4837 45.7068 29.9202C45.62 30.3566 45.4057 30.7575 45.091 31.0722C44.7763 31.3869 44.3754 31.6012 43.939 31.688C43.5025 31.7748 43.0501 31.7302 42.639 31.5599C42.2278 31.3896 41.8764 31.1012 41.6292 30.7312C41.382 30.3612 41.25 29.9262 41.25 29.4812C41.25 28.8845 41.4871 28.3122 41.909 27.8902C42.331 27.4683 42.9033 27.2312 43.5 27.2312Z" fill="black"/>
<path d="M43.6652 36.7388C42.5693 36.746 41.4927 37.0266 40.5327 37.555C39.62 36.1102 38.3621 34.9152 36.8722 34.0779C35.3824 33.2405 33.7077 32.7872 31.9989 32.7588C30.2902 32.7872 28.6154 33.2405 27.1256 34.0779C25.6358 34.9152 24.3778 36.1102 23.4652 37.555C22.5052 37.0266 21.4285 36.746 20.3327 36.7388C18.3663 36.8347 16.5177 37.7047 15.1905 39.1589C13.8634 40.613 13.1654 42.5331 13.2489 44.5C13.2489 44.8316 13.3806 45.1495 13.615 45.3839C13.8494 45.6183 14.1674 45.75 14.4989 45.75C14.8304 45.75 15.1484 45.6183 15.3828 45.3839C15.6172 45.1495 15.7489 44.8316 15.7489 44.5C15.667 43.1964 16.1022 41.9129 16.9603 40.9281C17.8184 39.9432 19.0301 39.3362 20.3327 39.2388C21.0234 39.2441 21.7016 39.4243 22.3039 39.7625C21.7148 41.2472 21.4132 42.8303 21.4152 44.4275C21.4152 44.7591 21.5469 45.077 21.7813 45.3114C22.0157 45.5458 22.3336 45.6775 22.6652 45.6775C22.9967 45.6775 23.3146 45.5458 23.549 45.3114C23.7835 45.077 23.9152 44.7591 23.9152 44.4275C23.9152 39.3713 27.5402 35.2588 31.9989 35.2588C36.4577 35.2588 40.0827 39.3713 40.0827 44.4275C40.0827 44.7591 40.2144 45.077 40.4488 45.3114C40.6832 45.5458 41.0011 45.6775 41.3327 45.6775C41.6642 45.6775 41.9821 45.5458 42.2165 45.3114C42.451 45.077 42.5827 44.7591 42.5827 44.4275C42.5846 42.8303 42.283 41.2472 41.6939 39.7625C42.2962 39.4243 42.9744 39.2441 43.6652 39.2388C44.9678 39.3362 46.1795 39.9432 47.0375 40.9281C47.8956 41.9129 48.3308 43.1964 48.2489 44.5C48.2489 44.8316 48.3806 45.1495 48.615 45.3839C48.8494 45.6183 49.1674 45.75 49.4989 45.75C49.8304 45.75 50.1484 45.6183 50.3828 45.3839C50.6172 45.1495 50.7489 44.8316 50.7489 44.5C50.8325 42.5331 50.1345 40.613 48.8073 39.1589C47.4801 37.7047 45.6315 36.8347 43.6652 36.7388Z" fill="black"/>
<defs>
<filter id="filter0_d_2590_7729" x="0" y="0" width="63.5332" height="64" filterUnits="userSpaceOnUse" color-interpolation-filters="sRGB">
<feFlood flood-opacity="0" result="BackgroundImageFix"/>
<feColorMatrix in="SourceAlpha" type="matrix" values="0 0 0 0 0 0 0 0 0 0 0 0 0 0 0 0 0 0 127 0" result="hardAlpha"/>
<feMorphology radius="4" operator="dilate" in="SourceAlpha" result="effect1_dropShadow_2590_7729"/>
<feOffset/>
<feComposite in2="hardAlpha" operator="out"/>
<feColorMatrix type="matrix" values="0 0 0 0 1 0 0 0 0 1 0 0 0 0 1 0 0 0 0.01 0"/>
<feBlend mode="normal" in2="BackgroundImageFix" result="effect1_dropShadow_2590_7729"/>
<feBlend mode="normal" in="SourceGraphic" in2="effect1_dropShadow_2590_7729" result="shape"/>
</filter>
</defs>
</svg>
