<svg width="65" height="64" viewBox="0 0 65 64" fill="none" xmlns="http://www.w3.org/2000/svg">
<g filter="url(#filter0_d_746_5909)">
<rect x="4.18793" y="4" width="56.5437" height="56" rx="8" fill="#F1F1F1"/>
</g>
<path d="M27.0738 32C24.6979 32 22.7657 30.0864 22.7657 27.7333C22.7657 25.3803 24.6979 23.4667 27.0738 23.4667C29.4497 23.4667 31.3819 25.3803 31.3819 27.7333C31.3819 30.0864 29.4497 32 27.0738 32ZM27.0738 25.6C25.8864 25.6 24.9198 26.5574 24.9198 27.7333C24.9198 28.9093 25.8864 29.8667 27.0738 29.8667C28.2612 29.8667 29.2279 28.9093 29.2279 27.7333C29.2279 26.5574 28.2612 25.6 27.0738 25.6ZM32.4589 40.5333H21.6887C21.0935 40.5333 20.6117 40.0562 20.6117 39.4667V38.4C20.6117 36.5324 21.4353 34.7605 22.872 33.5374C23.2055 33.2519 23.6841 33.201 24.0743 33.4019C25.9129 34.3581 28.2352 34.3581 30.0736 33.4019C30.4638 33.201 30.9413 33.2519 31.2759 33.5374C32.7123 34.7605 33.536 36.5324 33.536 38.4V39.4667C33.536 40.0562 33.0542 40.5333 32.4589 40.5333ZM22.7657 38.4H31.3819C31.3819 37.3781 31.0107 36.3978 30.347 35.6272C28.2792 36.4667 25.8684 36.4667 23.8005 35.6272C23.1368 36.3979 22.7657 37.3781 22.7657 38.4ZM41.0751 39.4667C40.9362 39.4667 40.7965 39.4407 40.6628 39.3855C40.2599 39.221 39.9981 38.8312 39.9981 38.4V35.2H36.767C36.1718 35.2 35.69 34.7229 35.69 34.1333V29.8667C35.69 29.2771 36.1718 28.8 36.767 28.8H39.9981V25.6C39.9981 25.1688 40.2599 24.779 40.6628 24.6145C41.0645 24.4488 41.5285 24.5405 41.8367 24.8457L48.2988 31.2457C48.7196 31.6624 48.7196 32.3374 48.2988 32.754L41.8367 39.154C41.6304 39.3583 41.3549 39.4667 41.0751 39.4667ZM37.844 33.0667H41.0751C41.6704 33.0667 42.1521 33.5438 42.1521 34.1333V35.825L46.0143 32L42.1521 28.175V29.8667C42.1521 30.4562 41.6704 30.9333 41.0751 30.9333H37.844V33.0667ZM33.536 46.9333C33.536 46.3438 33.0542 45.8667 32.4589 45.8667H20.6117C19.4243 45.8667 18.4576 44.9093 18.4576 43.7333V20.2667C18.4576 19.0907 19.4243 18.1333 20.6117 18.1333H32.4589C33.0542 18.1333 33.536 17.6562 33.536 17.0667C33.536 16.4771 33.0542 16 32.4589 16H20.6117C18.2358 16 16.3036 17.9136 16.3036 20.2667V43.7333C16.3036 46.0864 18.2358 48 20.6117 48H32.4589C33.0542 48 33.536 47.5229 33.536 46.9333Z" fill="black"/>
<defs>
<filter id="filter0_d_746_5909" x="0.187927" y="0" width="64.5437" height="64" filterUnits="userSpaceOnUse" color-interpolation-filters="sRGB">
<feFlood flood-opacity="0" result="BackgroundImageFix"/>
<feColorMatrix in="SourceAlpha" type="matrix" values="0 0 0 0 0 0 0 0 0 0 0 0 0 0 0 0 0 0 127 0" result="hardAlpha"/>
<feMorphology radius="4" operator="dilate" in="SourceAlpha" result="effect1_dropShadow_746_5909"/>
<feOffset/>
<feComposite in2="hardAlpha" operator="out"/>
<feColorMatrix type="matrix" values="0 0 0 0 1 0 0 0 0 1 0 0 0 0 1 0 0 0 0.01 0"/>
<feBlend mode="normal" in2="BackgroundImageFix" result="effect1_dropShadow_746_5909"/>
<feBlend mode="normal" in="SourceGraphic" in2="effect1_dropShadow_746_5909" result="shape"/>
</filter>
</defs>
</svg>
