<svg width="64" height="64" viewBox="0 0 64 64" fill="none" xmlns="http://www.w3.org/2000/svg">
<g filter="url(#filter0_d_746_5938)">
<rect x="3.99994" y="4" width="55.534" height="56" rx="8" fill="#F1F1F1"/>
</g>
<path fill-rule="evenodd" clip-rule="evenodd" d="M41.625 43.2942C43.2088 43.2942 44.0776 43.5971 44.5133 44.5098C44.7895 45.0883 44.873 46.1176 44.873 46.1176H18.7868C18.9387 43.9285 19.7333 43.2942 22.0251 43.2942H41.625ZM16.8915 47.0589C16.8915 47.5785 17.3094 48 17.825 48H45.8254C46.3409 48 46.7588 47.5786 46.7588 47.0589C46.7588 43.1268 45.3196 41.4118 41.6254 41.4118H22.0253C18.3311 41.4118 16.8918 43.1268 16.8918 47.0589H16.8915ZM31.825 27.7646C23.8627 27.7646 18.7581 32.7077 18.7581 39.5292C18.7581 40.0488 19.176 40.4703 19.6916 40.4703H43.9582C44.4737 40.4703 44.8917 40.0489 44.8917 39.5292C44.8917 32.7075 39.7872 27.7646 31.8248 27.7646H31.825ZM20.6638 38.5881C21.1025 33.3229 25.2605 29.6469 31.825 29.6469C38.3904 29.6469 42.5493 33.324 42.9867 38.5881H20.6638Z" fill="black"/>
<path fill-rule="evenodd" clip-rule="evenodd" d="M30.8914 28.2353C30.8914 28.7552 31.3091 29.1767 31.8247 29.1767C32.3402 29.1767 32.7579 28.7552 32.7579 28.2353V26.8235H34.6246C35.1401 26.8235 35.5581 26.4023 35.5581 25.8824C35.5581 25.3626 35.1401 24.9411 34.6246 24.9411H29.0247C28.5092 24.9411 28.0912 25.3626 28.0912 25.8824C28.0912 26.4023 28.5092 26.8235 29.0247 26.8235H30.8914V28.2353ZM32.7579 16.9411C32.7579 16.4214 32.3402 16 31.8247 16C31.3091 16 30.8914 16.4214 30.8914 16.9411V20.2352C30.8914 20.7551 31.3091 21.1766 31.8247 21.1766C32.3402 21.1766 32.7579 20.7551 32.7579 20.2352V16.9411ZM18.4222 21.8652C18.0262 21.5324 17.4379 21.5864 17.1078 21.9857C16.7778 22.3851 16.8314 22.9786 17.2274 23.3112L20.0273 25.6643C20.4233 25.9969 21.0119 25.9431 21.3419 25.5438C21.6717 25.1444 21.6184 24.5509 21.2224 24.2181L18.4222 21.8652ZM46.4226 23.3112C46.8186 22.9786 46.8722 22.3851 46.5422 21.9858C46.2121 21.5864 45.6238 21.5324 45.2278 21.8652L42.4276 24.2181C42.0316 24.5509 41.9783 25.1445 42.3081 25.5438C42.6381 25.9431 43.2267 25.9969 43.6227 25.6643L46.4226 23.3112Z" fill="black"/>
<defs>
<filter id="filter0_d_746_5938" x="-6.10352e-05" y="0" width="63.534" height="64" filterUnits="userSpaceOnUse" color-interpolation-filters="sRGB">
<feFlood flood-opacity="0" result="BackgroundImageFix"/>
<feColorMatrix in="SourceAlpha" type="matrix" values="0 0 0 0 0 0 0 0 0 0 0 0 0 0 0 0 0 0 127 0" result="hardAlpha"/>
<feMorphology radius="4" operator="dilate" in="SourceAlpha" result="effect1_dropShadow_746_5938"/>
<feOffset/>
<feComposite in2="hardAlpha" operator="out"/>
<feColorMatrix type="matrix" values="0 0 0 0 1 0 0 0 0 1 0 0 0 0 1 0 0 0 0.01 0"/>
<feBlend mode="normal" in2="BackgroundImageFix" result="effect1_dropShadow_746_5938"/>
<feBlend mode="normal" in="SourceGraphic" in2="effect1_dropShadow_746_5938" result="shape"/>
</filter>
</defs>
</svg>
