<svg width="65" height="64" viewBox="0 0 65 64" fill="none" xmlns="http://www.w3.org/2000/svg">
<g filter="url(#filter0_d_746_5917)">
<rect x="3.99994" y="4" width="56.5437" height="56" rx="8" fill="#F1F1F1"/>
</g>
<path d="M37.6587 32C40.0346 32 41.9668 30.0864 41.9668 27.7333C41.9668 25.3803 40.0346 23.4667 37.6587 23.4667C35.2828 23.4667 33.3506 25.3803 33.3506 27.7333C33.3506 30.0864 35.2828 32 37.6587 32ZM37.6587 25.6C38.8461 25.6 39.8128 26.5574 39.8128 27.7333C39.8128 28.9093 38.8461 29.8667 37.6587 29.8667C36.4714 29.8667 35.5047 28.9093 35.5047 27.7333C35.5047 26.5574 36.4714 25.6 37.6587 25.6ZM32.2736 40.5333H43.0438C43.6391 40.5333 44.1209 40.0562 44.1209 39.4667V38.4C44.1209 36.5324 43.2972 34.7605 41.8605 33.5374C41.5271 33.2519 41.0485 33.201 40.6583 33.4019C38.8196 34.3581 36.4973 34.3581 34.6589 33.4019C34.2688 33.201 33.7913 33.2519 33.4567 33.5374C32.0202 34.7605 31.1966 36.5324 31.1966 38.4V39.4667C31.1966 40.0562 31.6784 40.5333 32.2736 40.5333ZM41.9668 38.4H33.3506C33.3506 37.3781 33.7218 36.3978 34.3856 35.6272C36.4533 36.4667 38.8641 36.4667 40.932 35.6272C41.5958 36.3979 41.9669 37.3781 41.9669 38.4H41.9668ZM23.6574 39.4667C23.7964 39.4667 23.9361 39.4407 24.0697 39.3855C24.4727 39.221 24.7345 38.8312 24.7345 38.4V35.2H27.9655C28.5608 35.2 29.0426 34.7229 29.0426 34.1333V29.8667C29.0426 29.2771 28.5608 28.8 27.9655 28.8H24.7345V25.6C24.7345 25.1688 24.4727 24.779 24.0697 24.6145C23.668 24.4488 23.204 24.5405 22.8958 24.8457L16.4337 31.2457C16.013 31.6624 16.013 32.3374 16.4337 32.754L22.8958 39.154C23.1021 39.3583 23.3776 39.4667 23.6574 39.4667L23.6574 39.4667ZM26.8885 33.0667H23.6574C23.0622 33.0667 22.5804 33.5438 22.5804 34.1333V35.825L18.7183 32L22.5804 28.175V29.8667C22.5804 30.4562 23.0622 30.9333 23.6574 30.9333H26.8885V33.0667ZM31.1966 46.9333C31.1966 46.3438 31.6784 45.8667 32.2736 45.8667H44.1209C45.3082 45.8667 46.2749 44.9093 46.2749 43.7333V20.2667C46.2749 19.0907 45.3082 18.1333 44.1209 18.1333H32.2736C31.6784 18.1333 31.1966 17.6562 31.1966 17.0667C31.1966 16.4771 31.6784 16 32.2736 16H44.1209C46.4968 16 48.429 17.9136 48.429 20.2667V43.7333C48.429 46.0864 46.4968 48 44.1209 48H32.2736C31.6784 48 31.1966 47.5229 31.1966 46.9333Z" fill="black"/>
<defs>
<filter id="filter0_d_746_5917" x="-6.10352e-05" y="0" width="64.5437" height="64" filterUnits="userSpaceOnUse" color-interpolation-filters="sRGB">
<feFlood flood-opacity="0" result="BackgroundImageFix"/>
<feColorMatrix in="SourceAlpha" type="matrix" values="0 0 0 0 0 0 0 0 0 0 0 0 0 0 0 0 0 0 127 0" result="hardAlpha"/>
<feMorphology radius="4" operator="dilate" in="SourceAlpha" result="effect1_dropShadow_746_5917"/>
<feOffset/>
<feComposite in2="hardAlpha" operator="out"/>
<feColorMatrix type="matrix" values="0 0 0 0 1 0 0 0 0 1 0 0 0 0 1 0 0 0 0.01 0"/>
<feBlend mode="normal" in2="BackgroundImageFix" result="effect1_dropShadow_746_5917"/>
<feBlend mode="normal" in="SourceGraphic" in2="effect1_dropShadow_746_5917" result="shape"/>
</filter>
</defs>
</svg>
