<svg width="66" height="65" viewBox="0 0 66 65" fill="none" xmlns="http://www.w3.org/2000/svg">
<g filter="url(#filter0_d_746_5922)">
<rect x="4.539" y="4" width="56.5437" height="57" rx="8" fill="#F1F1F1"/>
</g>
<path d="M45.452 28.2204H43.7994C43.6946 27.6025 43.3787 27.0421 42.9074 26.6372C42.4361 26.2327 41.8394 26.0098 41.2224 26.0081H21.7264C21.0308 26.0081 20.3636 26.2889 19.8715 26.7886C19.3797 27.2887 19.1034 27.9667 19.1034 28.6735V37.5363C19.1016 39.7513 19.9655 41.8765 21.5048 43.4445C23.0444 45.0125 25.1337 45.8955 27.3136 45.899H35.6353C37.6694 45.8948 39.6296 45.1249 41.1373 43.7378C42.6452 42.3509 43.5937 40.4453 43.7995 38.3892H45.4521C46.1782 38.3874 46.8734 38.0932 47.3864 37.5711C47.899 37.049 48.1868 36.3414 48.1868 35.6039V31.0061C48.1868 30.2686 47.899 29.5609 47.3864 29.0388C46.8735 28.5168 46.1782 28.2225 45.4521 28.2208M35.6157 44.1332H27.3142C25.5963 44.1297 23.9501 43.4339 22.7367 42.1985C21.5233 40.9627 20.8418 39.2885 20.8418 37.5429V28.6801C20.8418 28.1824 21.237 27.7775 21.727 27.774H41.223C41.7116 27.7811 42.1047 28.1839 42.1082 28.6801V37.5429C42.1082 39.2885 41.4267 40.9627 40.2132 42.1985C38.9998 43.4339 37.3537 44.1297 35.6358 44.1332M46.4495 35.604C46.4512 35.8732 46.3467 36.1317 46.1594 36.3221C45.9723 36.5125 45.7176 36.6187 45.4527 36.6169H43.846V29.9534H45.4527C45.7235 29.9549 45.982 30.0676 46.1696 30.266C46.3576 30.4641 46.4583 30.7313 46.4495 31.0062V35.604Z" fill="black"/>
<path d="M30.9412 25.3014C30.4916 25.3205 30.1025 24.9864 30.046 24.5327C29.9895 24.0791 30.2846 23.6572 30.7249 23.5621C30.9483 23.5079 31.1675 23.4365 31.3807 23.3488C31.5042 23.2949 31.6143 23.2128 31.7018 23.109C31.7768 22.9278 31.7768 22.7238 31.7018 22.5426C31.5941 22.2314 31.4219 21.9473 31.1971 21.7096C31.0987 21.5897 30.9872 21.4829 30.8757 21.3699C30.4228 20.9701 30.0794 20.4581 29.8788 19.8837C29.7316 19.3884 29.7316 18.8598 29.8788 18.3645C29.9775 18.0378 30.1531 17.7404 30.3903 17.4982C30.6877 17.2222 31.0651 17.0517 31.4659 17.0118C31.919 16.9654 32.3309 17.2811 32.4117 17.7365C32.4925 18.1919 32.2147 18.634 31.7741 18.7509H31.6494C31.6231 18.7863 31.6052 18.8273 31.597 18.8711C31.5478 19.0269 31.5478 19.1947 31.597 19.3506C31.71 19.6445 31.8898 19.9072 32.1216 20.1169C32.2659 20.2635 32.4035 20.4033 32.5283 20.55C32.9293 20.9751 33.2379 21.4817 33.4331 22.0362C33.6266 22.5996 33.5982 23.2175 33.3538 23.7601C33.1093 24.303 32.6679 24.7284 32.1216 24.948C31.8087 25.0869 31.4837 25.1961 31.1512 25.2746C31.0795 25.2844 31.0066 25.2844 30.9348 25.2746" fill="black"/>
<path d="M26.0539 25.3013C25.6561 25.3034 25.3086 25.0276 25.2146 24.635C25.1575 24.4032 25.1953 24.1578 25.3185 23.9546C25.4421 23.7515 25.6409 23.6075 25.8704 23.5554C26.094 23.5016 26.3133 23.4302 26.5261 23.3421C26.6491 23.2901 26.7571 23.2077 26.8408 23.1024C26.9237 22.923 26.9237 22.7154 26.8408 22.536C26.7302 22.2245 26.556 21.9407 26.3294 21.703C26.231 21.5831 26.1262 21.4763 26.0147 21.3633V21.363C25.5577 20.967 25.2137 20.4539 25.0179 19.8771C24.8703 19.3818 24.8703 18.8532 25.0179 18.3579C25.123 18.0283 25.3103 17.732 25.5621 17.4981C25.8464 17.2301 26.2067 17.0597 26.5917 17.0118C27.068 16.9326 27.5171 17.2608 27.595 17.7448C27.6728 18.2288 27.3499 18.6851 26.8736 18.7642H26.7425C26.7199 18.7993 26.7024 18.8374 26.6901 18.8776C26.6473 19.0346 26.6473 19.2003 26.6901 19.3574C26.8218 19.6376 27.0118 19.8854 27.2475 20.0836C27.385 20.2302 27.5294 20.37 27.6541 20.5167C28.0388 20.9462 28.3312 21.4522 28.513 22.0029C28.7065 22.5663 28.6781 23.1842 28.4337 23.7268C28.1892 24.2697 27.7478 24.6951 27.2015 24.9147C26.8877 25.0575 26.5604 25.1669 26.2243 25.2413C26.1526 25.2511 26.0797 25.2511 26.008 25.2413" fill="black"/>
<path d="M35.9374 25.3014C35.5395 25.3034 35.192 25.0277 35.0981 24.635C35.043 24.4033 35.0811 24.1591 35.2043 23.9562C35.3276 23.7536 35.5252 23.6093 35.7538 23.5555C35.9775 23.5016 36.1968 23.4302 36.4096 23.3422C36.5331 23.288 36.6429 23.2059 36.7307 23.1024C36.8054 22.9212 36.8054 22.7172 36.7307 22.536C36.6286 22.2174 36.4608 21.9244 36.2389 21.6763C36.147 21.563 36.0357 21.4565 35.9242 21.3431C35.4713 20.9436 35.1279 20.4316 34.9274 19.8572C34.7801 19.3619 34.7801 18.8333 34.9274 18.338C35.026 18.0111 35.2017 17.7139 35.4388 17.4717C35.7289 17.2129 36.0911 17.0523 36.4751 17.0118C36.928 16.9654 37.3402 17.2811 37.421 17.7365C37.5015 18.1919 37.2237 18.634 36.7831 18.7509H36.652C36.6297 18.7854 36.6139 18.8238 36.6063 18.8642C36.5571 19.0204 36.5571 19.1882 36.6063 19.344C36.7319 19.6264 36.9204 19.8751 37.157 20.0705C37.2945 20.2172 37.4389 20.357 37.5636 20.5036C37.9468 20.9338 38.2392 21.4398 38.4225 21.9895C38.616 22.553 38.5876 23.1709 38.3432 23.7135C38.0987 24.2563 37.6573 24.6821 37.111 24.9016C36.7975 25.0441 36.4699 25.1536 36.1341 25.2279C36.0624 25.2378 35.9895 25.2378 35.9178 25.2279" fill="black"/>
<path d="M44.7108 48.9967H18.2315C17.7807 48.9569 17.435 48.5734 17.435 48.1138C17.435 47.6542 17.7807 47.2708 18.2315 47.2308H44.7108C44.9544 47.2094 45.1956 47.2927 45.3756 47.4605C45.556 47.6283 45.6584 47.8654 45.6584 48.1138C45.6584 48.3621 45.556 48.5992 45.3756 48.767C45.1956 48.9348 44.9544 49.0181 44.7108 48.9967" fill="black"/>
<path d="M29.4966 43.2524C27.0703 43.2524 25.1882 42.4995 23.8963 41.0201C21.7191 38.5278 22.1061 34.9031 22.1257 34.7499C22.1802 34.2659 22.6102 33.9185 23.0865 33.9735C23.5628 34.0288 23.9047 34.4658 23.8505 34.9498C23.8505 34.9965 23.5423 37.9683 25.2013 39.854C26.1457 40.9336 27.5948 41.48 29.4965 41.48C29.978 41.48 30.3686 41.8769 30.3686 42.3663C30.3686 42.8556 29.9781 43.2525 29.4965 43.2525" fill="black"/>
<defs>
<filter id="filter0_d_746_5922" x="0.539001" y="0" width="64.5437" height="65" filterUnits="userSpaceOnUse" color-interpolation-filters="sRGB">
<feFlood flood-opacity="0" result="BackgroundImageFix"/>
<feColorMatrix in="SourceAlpha" type="matrix" values="0 0 0 0 0 0 0 0 0 0 0 0 0 0 0 0 0 0 127 0" result="hardAlpha"/>
<feMorphology radius="4" operator="dilate" in="SourceAlpha" result="effect1_dropShadow_746_5922"/>
<feOffset/>
<feComposite in2="hardAlpha" operator="out"/>
<feColorMatrix type="matrix" values="0 0 0 0 1 0 0 0 0 1 0 0 0 0 1 0 0 0 0.01 0"/>
<feBlend mode="normal" in2="BackgroundImageFix" result="effect1_dropShadow_746_5922"/>
<feBlend mode="normal" in="SourceGraphic" in2="effect1_dropShadow_746_5922" result="shape"/>
</filter>
</defs>
</svg>
