<svg width="64" height="64" viewBox="0 0 64 64" fill="none" xmlns="http://www.w3.org/2000/svg">
<g filter="url(#filter0_d_816_4101)">
<rect x="4.45917" y="4" width="55.534" height="56" rx="8" fill="#F1F1F1"/>
</g>
<path d="M20.2427 46.875C19.901 46.875 19.602 46.7469 19.3458 46.4906C19.0895 46.2344 18.9614 45.9354 18.9614 45.5938V43.8H18.4062C17.0965 43.8 15.9861 43.3444 15.0749 42.4333C14.1638 41.5222 13.7083 40.4118 13.7083 39.1021V28.6813C13.7083 27.2292 14.1496 26.1259 15.0322 25.3714C15.9149 24.6168 16.9541 24.2396 18.1499 24.2396V20.5667C18.1499 19.2569 18.5628 18.1892 19.3885 17.3635C20.2142 16.5378 21.2819 16.125 22.5916 16.125H42.451C43.7607 16.125 44.8213 16.5378 45.6328 17.3635C46.4442 18.1892 46.85 19.2569 46.85 20.5667V24.2396C48.0458 24.2396 49.085 24.6168 49.9677 25.3714C50.8503 26.1259 51.2916 27.2292 51.2916 28.6813V39.1021C51.2916 40.4118 50.8361 41.5222 49.925 42.4333C49.0138 43.3444 47.9034 43.8 46.5937 43.8H46.0385V45.5938C46.0385 45.9354 45.9104 46.2344 45.6541 46.4906C45.3979 46.7469 45.0989 46.875 44.7572 46.875C44.4156 46.875 44.1166 46.7469 43.8604 46.4906C43.6041 46.2344 43.476 45.9354 43.476 45.5938V43.8H21.5239V45.5938C21.5239 45.9354 21.3958 46.2344 21.1395 46.4906C20.8833 46.7469 20.5843 46.875 20.2427 46.875ZM18.4062 41.2375H46.5937C47.1631 41.2375 47.6614 41.024 48.0885 40.5969C48.5156 40.1698 48.7291 39.6715 48.7291 39.1021V28.6813C48.7291 28.1118 48.5583 27.6563 48.2166 27.3146C47.875 26.9729 47.4194 26.8021 46.85 26.8021C46.2805 26.8021 45.825 26.9729 45.4833 27.3146C45.1416 27.6563 44.9708 28.1118 44.9708 28.6813V36.1979H20.0291V28.6813C20.0291 28.1118 19.8583 27.6563 19.5166 27.3146C19.1749 26.9729 18.7194 26.8021 18.1499 26.8021C17.5805 26.8021 17.1249 26.9729 16.7833 27.3146C16.4416 27.6563 16.2708 28.1118 16.2708 28.6813V39.1021C16.2708 39.6715 16.4843 40.1698 16.9114 40.5969C17.3385 41.024 17.8368 41.2375 18.4062 41.2375ZM22.5916 33.6354H42.4083V28.6813C42.4083 27.7986 42.6076 27.0655 43.0062 26.4818C43.4048 25.8981 43.8319 25.4354 44.2875 25.0938V20.5667C44.2875 19.9972 44.1166 19.5417 43.775 19.2C43.4333 18.8583 42.9777 18.6875 42.4083 18.6875H22.5916C22.0222 18.6875 21.5666 18.8583 21.2249 19.2C20.8833 19.5417 20.7124 19.9972 20.7124 20.5667V25.0938C21.168 25.4354 21.5951 25.8981 21.9937 26.4818C22.3923 27.0655 22.5916 27.7986 22.5916 28.6813V33.6354Z" fill="#121212"/>
<defs>
<filter id="filter0_d_816_4101" x="0.459167" y="0" width="63.534" height="64" filterUnits="userSpaceOnUse" color-interpolation-filters="sRGB">
<feFlood flood-opacity="0" result="BackgroundImageFix"/>
<feColorMatrix in="SourceAlpha" type="matrix" values="0 0 0 0 0 0 0 0 0 0 0 0 0 0 0 0 0 0 127 0" result="hardAlpha"/>
<feMorphology radius="4" operator="dilate" in="SourceAlpha" result="effect1_dropShadow_816_4101"/>
<feOffset/>
<feComposite in2="hardAlpha" operator="out"/>
<feColorMatrix type="matrix" values="0 0 0 0 1 0 0 0 0 1 0 0 0 0 1 0 0 0 0.01 0"/>
<feBlend mode="normal" in2="BackgroundImageFix" result="effect1_dropShadow_816_4101"/>
<feBlend mode="normal" in="SourceGraphic" in2="effect1_dropShadow_816_4101" result="shape"/>
</filter>
</defs>
</svg>
