<svg width="134" height="134" viewBox="0 0 134 134" fill="none" xmlns="http://www.w3.org/2000/svg">
<circle cx="66.7784" cy="66.7784" r="66.7784" fill="#FFE700"/>
<mask id="mask0_3555_27370" style="mask-type:alpha" maskUnits="userSpaceOnUse" x="0" y="0" width="134" height="134">
<circle cx="66.7784" cy="66.7784" r="66.7784" fill="white"/>
</mask>
<g mask="url(#mask0_3555_27370)">
<path d="M-29.3536 181.83C-29.3536 181.83 -33.1215 189.882 -37.6463 189.893C-42.171 189.904 -83.0545 145.468 -81.9589 140.609C-80.8632 135.751 -76.5682 122.801 -81.8332 123.552C-87.0982 124.302 -85.4961 136.622 -95.1832 134.648C-104.87 132.674 -117.959 125.206 -128.448 127.044C-138.938 128.882 -127.026 140.195 -98.7531 153.081C-92.7368 155.341 -65.1385 220.107 -42.7307 221.774C-20.3229 223.441 5.72237 177.726 5.72237 177.726L-29.3536 181.83Z" fill="#F5F6F7"/>
<path fill-rule="evenodd" clip-rule="evenodd" d="M-29.3536 181.83C-29.3536 181.83 -33.1215 189.882 -37.6463 189.893C-42.171 189.904 -83.0545 145.468 -81.9589 140.609C-80.8632 135.751 -76.5682 122.801 -81.8332 123.552C-87.0982 124.302 -85.4961 136.622 -95.1832 134.648C-104.87 132.674 -117.959 125.206 -128.448 127.044C-138.938 128.882 -127.026 140.195 -98.7531 153.081C-92.7368 155.341 -65.1385 220.107 -42.7307 221.774C-20.3229 223.441 5.72237 177.726 5.72237 177.726L-29.3536 181.83Z" stroke="#111111" stroke-width="3.43356" stroke-linecap="round" stroke-linejoin="round"/>
<path d="M64.928 125.951C57.4868 131.194 22.2086 177.913 20.1028 187.088C19.5568 189.071 18.7175 190.962 17.6128 192.698C10.7247 209.141 -6.1945 257.037 24.2739 269.852C41.0713 276.917 112.141 265.626 131.636 248.316C128.158 242.253 123.54 230.565 118.232 208.037C101.505 137.024 72.3689 120.708 64.928 125.951Z" fill="#ECEDEE"/>
<path fill-rule="evenodd" clip-rule="evenodd" d="M64.928 125.951C57.4868 131.194 22.2086 177.913 20.1028 187.088C19.5568 189.071 18.7175 190.962 17.6128 192.698C10.7247 209.141 -6.1945 257.037 24.2739 269.852C41.0713 276.917 112.141 265.626 131.636 248.316C128.158 242.253 123.54 230.565 118.232 208.037C101.505 137.024 72.3689 120.708 64.928 125.951Z" stroke="#111111" stroke-width="3.43356" stroke-linecap="round" stroke-linejoin="round"/>
<path d="M136.603 239.86C137.151 228.491 140.302 209.56 143.615 202.579L149.906 212.89C149.906 212.89 155.358 127.779 74.6975 117.004C9.23148 108.259 -20.2405 163.721 -20.2405 163.721C-20.2405 163.721 -5.04219 194.996 6.7188 199.993L20.1021 187.087C21.2555 182.063 32.3559 165.781 43.3855 151.216C52.4975 139.183 61.5611 128.323 64.9273 125.951C72.3682 120.707 101.503 137.023 118.232 208.036C123.54 230.565 128.159 242.252 131.636 248.316C134.361 246.28 136.152 243.232 136.603 239.86V239.86Z" fill="#ECEDEE"/>
<path fill-rule="evenodd" clip-rule="evenodd" d="M136.603 239.86C137.151 228.491 140.302 209.56 143.615 202.579L149.906 212.89C149.906 212.89 155.358 127.779 74.6975 117.004C9.23148 108.259 -20.2405 163.721 -20.2405 163.721C-20.2405 163.721 -5.04219 194.996 6.7188 199.993L20.1021 187.087C21.2555 182.063 32.3559 165.781 43.3855 151.216C52.4975 139.183 61.5611 128.323 64.9273 125.951C72.3682 120.707 101.503 137.023 118.232 208.036C123.54 230.565 128.159 242.252 131.636 248.316C134.361 246.28 136.152 243.232 136.603 239.86V239.86Z" stroke="#111111" stroke-width="3.43356" stroke-linecap="round" stroke-linejoin="round"/>
<path d="M55.7676 90.311C55.8583 91.2054 54.8533 117.711 54.8533 117.711C54.8533 117.711 32.7126 142.991 50.9157 144.162C68.5896 145.3 81.5633 120.509 81.5633 120.509L81.6849 81.8812L55.7676 90.311Z" fill="#F5F6F7"/>
<mask id="mask1_3555_27370" style="mask-type:alpha" maskUnits="userSpaceOnUse" x="43" y="81" width="39" height="64">
<path fill-rule="evenodd" clip-rule="evenodd" d="M55.7676 90.311C55.8583 91.2054 54.8532 117.711 54.8532 117.711C54.8532 117.711 32.7126 142.991 50.9156 144.162C68.5896 145.3 81.5633 120.509 81.5633 120.509L81.6848 81.8813L55.7676 90.311Z" fill="white"/>
</mask>
<g mask="url(#mask1_3555_27370)">
<path d="M43.7337 115.142C58.4448 113.288 79.4959 103.278 79.4959 103.278L49.7877 94.3283L43.7337 115.142Z" fill="#CFCFD0"/>
</g>
<path fill-rule="evenodd" clip-rule="evenodd" d="M55.7676 90.311C55.8583 91.2054 54.8533 117.711 54.8533 117.711C54.8533 117.711 32.7126 142.991 50.9157 144.162C68.5896 145.3 81.5633 120.509 81.5633 120.509L81.6849 81.8812L55.7676 90.311Z" stroke="#111111" stroke-width="3.43356" stroke-linecap="round" stroke-linejoin="round"/>
<circle cx="66.2218" cy="43.6324" r="8.06201" fill="#111111"/>
<path d="M99.3509 57.1132C102.702 55.5603 104.862 52.2192 104.902 48.5259C104.667 43.7893 101.227 39.8258 96.5711 38.9263C96.5893 38.6314 96.6264 38.3426 96.6253 38.0415C96.6226 33.3567 94.1959 29.007 90.2108 26.544C86.2257 24.0811 81.2498 23.8558 77.0585 25.9485C77.3596 25.1065 77.5169 24.2198 77.5237 23.3256C77.5314 20.4343 75.9902 17.7602 73.4846 16.3175C70.9789 14.8748 67.8925 14.8843 65.3958 16.3425C62.8991 17.8006 61.3745 20.4842 61.4 23.3754C61.4131 24.1225 61.5312 24.8641 61.7506 25.5783C61.6555 25.5766 61.5679 25.5471 61.4721 25.5474C57.4639 25.5557 53.6659 27.3415 51.1028 30.4231C48.5207 27.38 44.1007 26.684 40.7084 28.7863C37.316 30.8885 35.9722 35.1563 37.5481 38.823C34.9239 41.9837 33.8749 46.1641 34.6958 50.1894C35.5168 54.2147 38.119 57.6504 41.7714 59.5311C39.0896 61.5533 37.9421 65.0261 38.8911 68.248C39.8401 71.4699 42.6868 73.7661 46.0366 74.0117C49.3864 74.2574 52.5376 72.4009 53.9464 69.3519C55.3552 66.3029 54.7265 62.6999 52.3684 60.3082C55.031 59.3946 57.344 57.6767 58.988 55.3916C63.0121 54.5096 67.0143 53.5083 71.2489 52.902C78.5548 51.8568 83.5088 56.5415 87.2301 59.7481C85.2682 63.5278 86.5853 68.1814 90.2369 70.3723C93.8886 72.5632 98.6145 71.5352 101.026 68.0254C103.438 64.5156 102.703 59.7354 99.3481 57.1122L99.3509 57.1132Z" fill="#111111"/>
<path d="M89.8179 66.5332L89.8032 61.7606C85.8381 59.2341 80.3767 51.5972 71.2516 52.902C63.248 54.0477 56.0753 56.6102 48.0136 57.0981L48.0442 66.9847C44.9987 68.564 43.0912 71.7128 43.1019 75.1433C43.1125 78.5739 45.0395 81.7108 48.0946 83.2712L48.1036 86.1619C48.1267 93.6242 52.1293 100.507 58.6035 104.218C65.0776 107.93 73.0399 107.905 79.4909 104.154C85.9419 100.402 89.9016 93.4944 89.8784 86.0321L89.8705 83.4641C93.4116 82.1448 95.7557 78.7588 95.744 74.9798C95.7323 71.2009 93.3672 67.8295 89.8179 66.5322V66.5332Z" fill="#F5F6F7"/>
<mask id="mask2_3555_27370" style="mask-type:alpha" maskUnits="userSpaceOnUse" x="43" y="52" width="53" height="55">
<path fill-rule="evenodd" clip-rule="evenodd" d="M89.8179 66.5332L89.8032 61.7606C85.8381 59.2341 80.3767 51.5972 71.2516 52.902C63.248 54.0477 56.0753 56.6102 48.0136 57.0981L48.0442 66.9847C44.9987 68.564 43.0912 71.7128 43.1019 75.1433C43.1125 78.5739 45.0395 81.7108 48.0946 83.2712L48.1036 86.1619C48.1267 93.6242 52.1293 100.507 58.6035 104.218C65.0776 107.93 73.0399 107.905 79.4909 104.154C85.9419 100.402 89.9016 93.4944 89.8784 86.0321L89.8705 83.4641C93.4116 82.1448 95.7557 78.7588 95.744 74.9798C95.7323 71.2009 93.3672 67.8295 89.8179 66.5322V66.5332Z" fill="white"/>
</mask>
<g mask="url(#mask2_3555_27370)">
<ellipse opacity="0.27" cx="52.4373" cy="86.3227" rx="5.55997" ry="7.30148" transform="rotate(-89.9182 52.4373 86.3227)" fill="#CFCFD0"/>
<ellipse opacity="0.27" cx="86.9184" cy="86.3716" rx="5.55997" ry="7.30148" transform="rotate(-89.9182 86.9184 86.3716)" fill="#CFCFD0"/>
<rect x="58.2418" y="69.2823" width="5.19189" height="9.57587" rx="2.59577" transform="rotate(4.1962 58.2418 69.2823)" fill="#111111"/>
<rect x="77.5283" y="69.2572" width="5.1918" height="9.5757" rx="2.59577" transform="rotate(4.19788 77.5283 69.2572)" fill="#111111"/>
<path d="M60.6323 63.3232C55.2358 64.4765 56.4797 67.4634 59.9003 66.9628C63.3208 66.4621 64.1582 62.5695 60.6323 63.3232Z" fill="#111111"/>
<path d="M80.4814 63.112C85.652 65.0406 84.4022 67.6223 81.0912 66.6273C77.7802 65.6322 77.1034 61.8522 80.4814 63.112Z" fill="#111111"/>
<path d="M71.5345 79.487C71.6032 81.2405 70.0753 80.6053 68.2232 80.6795C66.3712 80.7537 64.8971 81.509 64.8267 79.7552C64.8516 77.9692 66.2689 76.5145 68.0536 76.4431C69.8383 76.3718 71.3672 77.7087 71.5345 79.487V79.487Z" fill="#CFCFD0"/>
<path d="M46.407 83.1627C52.1926 86.2147 69.2873 81.268 69.2873 81.268C69.2873 81.268 83.1307 85.3474 89.8705 83.4655C96.6102 81.5836 90.9534 93.7933 90.9534 93.7933L85.3492 106.424L43.1019 107.371L39.2463 89.5831" fill="white"/>
<path d="M46.487 83.0105C48.27 83.7089 50.1872 83.9975 52.0968 83.8549C54.0223 83.7859 55.9413 83.5927 57.8418 83.2766C61.6482 82.637 65.4099 81.7552 69.1039 80.6366C69.2135 80.6034 69.3301 80.6008 69.4411 80.629L69.473 80.6373C73.304 81.6384 77.2039 82.3547 81.1406 82.7802C83.073 82.9994 85.021 83.048 86.9619 82.9254C87.8974 82.8401 88.8242 82.6781 89.7331 82.4409C90.3487 82.2649 90.9926 82.2096 91.6291 82.2782C92.0149 82.2876 92.3899 82.4073 92.7097 82.6232C93.0796 82.7974 93.3892 83.0779 93.599 83.4288C94.2216 84.5425 94.4408 85.8371 94.2194 87.0937C94.0803 88.1509 93.8589 89.1955 93.5574 90.2183C92.9576 92.1824 92.2288 94.1048 91.3757 95.9729L86.7027 107.024C86.4861 107.536 85.9934 107.878 85.4374 107.902L85.3818 107.904C78.343 108.195 71.3069 108.543 64.2654 108.665C57.2241 108.828 50.1767 108.692 43.1311 108.653H43.0353C42.4467 108.649 41.9459 108.223 41.8483 107.642C40.8457 101.652 39.8345 95.6632 39.0784 89.6191C39.0583 89.5264 39.1172 89.4349 39.2099 89.4148C39.3027 89.3947 39.3941 89.4536 39.4142 89.5463C41.2289 95.3607 42.7877 101.231 44.3555 107.099L43.0737 106.089C50.1101 105.734 57.1448 105.282 64.186 105.129C71.2248 104.936 78.2715 104.968 85.3158 104.943L83.9956 105.822L89.0605 94.926C89.9273 93.1795 90.6777 91.3775 91.3067 89.5319C91.9823 88.0029 92.1624 86.3007 91.8218 84.6641C91.6865 84.3596 91.1069 84.2614 90.244 84.4492C89.208 84.6854 88.1542 84.8359 87.0934 84.899C85.0347 84.9674 82.9739 84.8534 80.9353 84.5584C76.9272 83.9846 72.9706 83.0951 69.1026 81.8984H69.4706C65.6837 82.8754 61.8381 83.6094 57.9576 84.0959C56.014 84.3362 54.0569 84.4509 52.0985 84.4393C50.1147 84.5029 48.1422 84.1177 46.3281 83.3124C46.2436 83.2696 46.2096 83.1665 46.2522 83.082C46.3009 83.0019 46.402 82.9712 46.487 83.0105Z" fill="#111111"/>
</g>
<path fill-rule="evenodd" clip-rule="evenodd" d="M89.8179 66.5332L89.8032 61.7606C85.8381 59.2341 80.3767 51.5972 71.2516 52.902C63.248 54.0477 56.0753 56.6102 48.0136 57.0981L48.0442 66.9847C44.9987 68.564 43.0912 71.7128 43.1019 75.1433C43.1125 78.5739 45.0395 81.7108 48.0946 83.2712L48.1036 86.1619C48.1267 93.6242 52.1293 100.507 58.6035 104.218C65.0776 107.93 73.0399 107.905 79.4909 104.154C85.9419 100.402 89.9016 93.4944 89.8784 86.0321L89.8705 83.4641C93.4116 82.1448 95.7557 78.7588 95.744 74.9798C95.7323 71.2009 93.3672 67.8295 89.8179 66.5322V66.5332Z" stroke="#111111" stroke-width="3.43356" stroke-linecap="round" stroke-linejoin="round"/>
<path fill-rule="evenodd" clip-rule="evenodd" d="M49.3356 66.6209C50.9039 62.8015 54.6185 60.3029 58.7473 60.2903C64.3819 60.2798 68.9621 64.8317 68.9865 70.4663C68.9994 74.5951 66.5239 78.3251 62.7143 79.917C58.9047 81.5089 54.5113 80.6491 51.5828 77.7387C48.6543 74.8282 47.7674 70.4402 49.3356 66.6209ZM50.6891 70.523C50.7029 74.9909 54.3361 78.6016 58.8039 78.5878C63.2695 78.5685 66.877 74.9385 66.8687 70.4729C66.8548 66.005 63.2217 62.3943 58.7538 62.4082C54.286 62.422 50.6753 66.0552 50.6891 70.523Z" fill="#111111"/>
<path fill-rule="evenodd" clip-rule="evenodd" d="M69.289 70.4653C69.2716 64.8276 73.8277 60.2432 79.4653 60.2257C85.1003 60.2151 89.6807 64.7673 89.7049 70.4021C89.7223 76.0398 85.1662 80.6242 79.5285 80.6416C73.8909 80.6591 69.3065 76.103 69.289 70.4653ZM72.0327 73.553C73.2943 76.572 76.2503 78.5338 79.5223 78.5236C83.9879 78.5043 87.5953 74.8742 87.5867 70.4087C87.5766 67.1366 85.5964 64.1929 82.5695 62.9502C79.5427 61.7074 76.0652 62.4104 73.7588 64.7313C71.4523 67.0522 70.7711 70.5339 72.0327 73.553Z" fill="#111111"/>
<path d="M-42.4735 459.522C-3.02497 490.409 64.8717 469.265 64.8717 469.265C64.8717 469.265 87.218 234.037 61.4014 170.052L50.6887 116.624C50.6887 116.624 32.2504 118.493 22.8823 123.064C-19.89 285.181 -28.4059 395.157 -42.4735 459.522Z" fill="white"/>
<path fill-rule="evenodd" clip-rule="evenodd" d="M-42.4735 459.522C-3.02497 490.409 64.8717 469.265 64.8717 469.265C64.8717 469.265 87.218 234.037 61.4014 170.052L50.6887 116.624C50.6887 116.624 32.2504 118.493 22.8823 123.064C-19.89 285.181 -28.4059 395.157 -42.4735 459.522Z" stroke="#111111" stroke-width="3.43356" stroke-linecap="round" stroke-linejoin="round"/>
<path d="M38.858 479.618C56.8224 493.131 140.7 471.547 140.7 471.547C140.7 471.547 118.233 208.037 122.516 134.251C109.188 127.498 95.5239 121.429 81.5774 116.069L58.1605 165.913C58.1605 165.913 58.223 362.503 38.858 479.618Z" fill="white"/>
<path fill-rule="evenodd" clip-rule="evenodd" d="M38.858 479.618C56.8224 493.131 140.7 471.547 140.7 471.547C140.7 471.547 118.233 208.037 122.516 134.251C109.188 127.498 95.5239 121.429 81.5774 116.069L58.1605 165.913C58.1605 165.913 58.223 362.503 38.858 479.618Z" stroke="#111111" stroke-width="3.43356" stroke-linecap="round" stroke-linejoin="round"/>
<path d="M54.0673 125.168L49.1299 135.661L56.2579 169.908L77.0241 173.238L88.4064 136.66L84.6775 124.221L70.9879 126.202L63.2761 125.803L57.2159 126.054" fill="#ECEDEE"/>
<path d="M54.2218 125.242L49.4835 135.826L49.5124 135.582L57.2344 169.705L56.4155 168.923L77.2277 171.96L75.7881 172.853C79.451 160.619 82.8293 148.297 86.7411 136.141L86.7356 137.161C85.4872 133.016 84.406 128.821 83.255 124.647L84.8894 125.69C80.3136 126.262 75.727 126.761 71.1297 127.185L71.0343 127.194H70.9354C68.3712 126.954 65.8077 126.703 63.247 126.391H63.3012L57.2217 126.226C57.1269 126.23 57.0468 126.156 57.0428 126.061C57.0389 125.966 57.1125 125.886 57.2073 125.882L63.2524 125.212H63.3081C65.887 125.167 68.4629 125.182 71.0381 125.208L70.8451 125.216C75.3749 124.326 79.9146 123.504 84.4643 122.75C85.1722 122.634 85.8589 123.052 86.0805 123.734L86.0994 123.793C87.4357 127.914 88.8418 132.009 90.0803 136.157C90.1776 136.491 90.1757 136.846 90.0748 137.178C86.3974 149.407 82.1855 161.47 78.2582 173.622L78.2485 173.652C78.0532 174.256 77.4428 174.624 76.8174 174.515L56.099 170.894L56.0681 170.889C55.669 170.818 55.3548 170.509 55.2783 170.111L48.7487 135.741C48.7327 135.658 48.7428 135.573 48.7776 135.496L53.9101 125.096C53.9552 125.02 54.0511 124.99 54.1312 125.028C54.2114 125.066 54.2495 125.159 54.2191 125.242L54.2218 125.242Z" fill="#111111"/>
<path d="M65.4736 132.969L57.9335 167.92L66.0573 200.02L71.9802 192.696L77.8551 167.827L71.7605 130.926L65.4736 132.969V132.969Z" fill="#111111"/>
<path d="M58.8643 125.291L63.0797 133.036C64.0463 134.894 65.944 136.083 68.0378 136.141L69.688 136.162C71.7541 136.161 73.6599 135.049 74.6773 133.25L78.6029 126.598L68.1779 125.527L58.8643 125.291Z" fill="#111111"/>
<path d="M46.9001 117.108C46.9001 117.108 53.2062 109.403 54.9745 109.448C57.1343 116.312 61.8657 122.073 68.1779 125.527L59.3485 137.593C59.3485 137.593 43.4367 124.841 46.9001 117.108Z" fill="#ECEDEE"/>
<path fill-rule="evenodd" clip-rule="evenodd" d="M50.345 112.63C49.089 114.054 47.9274 115.489 46.7542 117.017C45.6527 119.044 45.5173 121.457 46.3851 123.595C47.0913 125.697 48.0914 127.689 49.3554 129.511C51.8471 133.075 54.8459 136.256 58.257 138.953L58.3122 138.997L58.4032 139.063C58.7735 139.317 59.2292 139.413 59.6701 139.33C60.111 139.247 60.5009 138.993 60.7542 138.622L69.198 126.276L69.2368 126.219L69.3299 126.056C69.472 125.757 69.4896 125.414 69.3787 125.102C69.2678 124.79 69.0376 124.535 68.7386 124.393C65.6585 122.932 62.9331 120.818 60.7514 118.199C58.5104 115.555 56.7493 112.54 55.5479 109.29L55.4902 109.13C55.416 108.925 55.2011 108.806 54.9875 108.852C53.9422 109.142 53.0071 109.737 52.3021 110.561C51.6109 111.226 50.9692 111.922 50.345 112.63ZM48.1379 122.879C47.0699 121.191 46.68 119.161 47.0464 117.198C48.2677 115.843 49.5718 114.451 50.9005 113.16C51.567 112.51 52.2486 111.877 52.9552 111.293C53.4309 110.842 53.9776 110.474 54.5724 110.204C55.5697 113.521 57.1518 116.636 59.2458 119.4C61.1697 121.988 63.5599 124.188 66.289 125.889L59.1057 135.075C56.4933 132.765 54.0063 130.316 51.6556 127.739C50.321 126.243 49.1423 124.614 48.1379 122.879ZM59.1057 135.075L57.9421 136.564L60.4386 136.233C59.9908 135.851 59.5465 135.465 59.1057 135.075ZM66.289 125.889C66.7228 126.159 67.1651 126.417 67.6155 126.662L67.1561 124.78L66.289 125.889ZM54.5724 110.204C54.6991 110.146 54.8281 110.093 54.959 110.044L54.4 109.607C54.4554 109.807 54.5128 110.006 54.5724 110.204Z" fill="#111111"/>
<path d="M89.7997 118.198C89.7997 118.198 83.837 110.182 82.0687 110.137C79.6154 116.878 74.6329 122.398 68.1779 125.527L76.4706 138.029C76.4706 138.029 92.9215 126.099 89.7997 118.198Z" fill="#ECEDEE"/>
<path fill-rule="evenodd" clip-rule="evenodd" d="M90.0339 124.685C90.9905 122.593 90.9596 120.182 89.9498 118.115C88.8452 116.529 87.7478 115.036 86.5533 113.551C85.961 112.811 85.3505 112.084 84.6885 111.384C84.0213 110.525 83.1141 109.884 82.0818 109.541C81.8687 109.483 81.646 109.593 81.5619 109.797L81.4974 109.954C80.1576 113.137 78.2679 116.059 75.9147 118.587C73.6218 121.093 70.8076 123.066 67.6701 124.368L67.4932 124.458C66.9078 124.821 66.7266 125.589 67.0881 126.175L67.1224 126.227L75.0158 138.992L75.0797 139.088C75.6241 139.848 76.6813 140.023 77.4413 139.478L77.4938 139.441C81.0217 136.915 84.1594 133.886 86.8064 130.448C88.1512 128.691 89.238 126.75 90.0339 124.685ZM85.9758 114.054C87.2462 115.411 88.4881 116.867 89.6497 118.282C89.9308 120.255 89.4554 122.26 88.3188 123.897C87.2427 125.581 85.9953 127.149 84.5965 128.577C82.1368 131.034 79.5454 133.354 76.8337 135.528L70.0518 125.98C72.8504 124.42 75.334 122.344 77.3689 119.858C79.5812 117.203 81.2977 114.174 82.438 110.916C83.0201 111.216 83.5496 111.611 84.0046 112.085C84.6854 112.703 85.3385 113.371 85.9758 114.054ZM82.438 110.916C82.5069 110.719 82.5737 110.521 82.6383 110.323L82.0546 110.735C82.1847 110.791 82.3126 110.851 82.438 110.916ZM70.0518 125.98L69.2341 124.829L68.6847 126.689C69.1481 126.466 69.604 126.23 70.0518 125.98ZM76.8337 135.528C76.3753 135.896 75.9134 136.259 75.4481 136.618L77.9251 137.065L76.8337 135.528Z" fill="#111111"/>
<path d="M50.2458 112.622C50.2458 112.622 63.671 191.675 68.2895 200.02L60.3325 209.995L36.6385 160.27L47.2675 152.008L33.8079 147.704L42.9069 118.988C45.0877 116.578 47.5519 114.44 50.2458 112.622Z" fill="white"/>
<path fill-rule="evenodd" clip-rule="evenodd" d="M54.5514 134.536L50.3261 112.47C49.4983 112.762 48.728 113.196 48.05 113.753C47.3871 114.241 46.7427 114.749 46.1169 115.278C44.8623 116.335 43.6561 117.432 42.4729 118.58C42.4232 118.628 42.3847 118.686 42.3602 118.751L42.3396 118.807C41.0941 122.147 39.9237 125.511 38.7533 128.875C38.2733 130.255 37.7933 131.634 37.3081 133.012C35.6385 137.75 34.0132 142.501 32.4324 147.267C32.1865 148.01 32.5862 148.813 33.3276 149.064L33.3691 149.078L43.7469 152.589L35.5535 158.87C34.8988 159.382 34.6861 160.279 35.0416 161.03C38.6451 168.65 42.3587 176.217 46.0722 183.784C46.4033 184.459 46.7345 185.134 47.0656 185.809L59.1785 210.545L59.1923 210.573C59.3865 210.965 59.7681 211.229 60.2029 211.274C60.6377 211.318 61.0649 211.136 61.3345 210.792L69.1994 200.745C69.4721 200.396 69.5252 199.922 69.3367 199.521L69.3065 199.457C67.9533 196.097 66.8699 192.635 66.0666 189.104C65.1735 185.506 64.3148 181.894 63.5148 178.264C61.9182 171.003 60.3759 163.727 58.888 156.437L54.5514 134.536ZM49.4149 113.367C49.7127 113.15 49.988 112.949 50.1654 112.774C50.8868 117.961 51.7906 123.37 52.689 128.747C53.0216 130.738 53.3535 132.724 53.6752 134.694L57.4772 156.706C58.774 164.04 60.1454 171.362 61.6407 178.665C62.3835 182.317 63.1721 185.964 64.0065 189.607C64.7212 193.079 65.712 196.488 66.9691 199.801L60.6313 207.598L49.9062 184.454C49.5739 183.736 49.2417 183.017 48.9094 182.299C45.5862 175.112 42.2628 167.924 38.8472 160.782L48.2979 153.334L48.3288 153.31C48.8168 152.926 49.0504 152.302 48.9349 151.691C48.8195 151.081 48.3741 150.586 47.7794 150.406L35.6069 146.738C36.9153 142.398 38.1818 138.045 39.4063 133.678C39.8029 132.273 40.2046 130.87 40.6063 129.467C41.5772 126.077 42.5481 122.686 43.446 119.272C44.4657 118.099 45.5325 116.948 46.6333 115.844C47.2024 115.27 47.789 114.718 48.3934 114.187C48.6831 113.902 49.0646 113.623 49.4149 113.367ZM43.446 119.272C43.4553 119.237 43.4645 119.202 43.4737 119.167L43.3412 119.393C43.3761 119.353 43.411 119.313 43.446 119.272ZM35.6069 146.738L34.2471 146.329L35.1831 148.139C35.3248 147.672 35.4661 147.205 35.6069 146.738ZM38.8472 160.782C38.644 160.357 38.4404 159.932 38.2365 159.507L37.7249 161.666L38.8472 160.782ZM60.6313 207.598L59.3317 209.196L61.4869 209.444L60.6313 207.598ZM66.9691 199.801C67.0682 200.062 67.169 200.323 67.2714 200.583L67.3799 199.295L66.9691 199.801Z" fill="#111111"/>
<path d="M87.2448 112.344L60.3325 209.994L99.7155 164.107L89.6153 152.474L103.216 150.382L94.6393 120.708C94.1074 116.675 91.1828 113.366 87.2448 112.344Z" fill="white"/>
<path fill-rule="evenodd" clip-rule="evenodd" d="M90.0621 113.348C89.1542 112.831 88.1792 112.442 87.1648 112.192L59.1414 209.666C58.982 210.222 59.2294 210.813 59.7367 211.09C60.2441 211.366 60.8754 211.254 61.2558 210.819L61.272 210.8L101.067 165.266C101.647 164.599 101.644 163.606 101.06 162.942L92.8755 153.629L103.44 151.829L103.494 151.82L103.666 151.779C104.032 151.667 104.338 151.414 104.518 151.076C104.697 150.738 104.735 150.343 104.623 149.977C104.503 149.584 104.383 149.191 104.262 148.798C102.877 144.267 101.491 139.736 100.027 135.229C99.4622 133.487 98.908 131.741 98.3537 129.996C97.35 126.835 96.3462 123.674 95.2824 120.53C94.9457 118.495 93.9722 116.617 92.4999 115.168C91.7736 114.454 90.9535 113.842 90.0621 113.348ZM62.9291 204.998L87.3248 112.496C88.159 112.903 88.9703 113.355 89.7551 113.85C90.5468 114.379 91.263 115.013 91.8839 115.735C93.0926 117.138 93.8249 118.889 93.9756 120.735L93.9935 120.862L94.001 120.893C94.781 124.131 95.6213 127.352 96.4615 130.572C96.9215 132.335 97.3815 134.098 97.8315 135.863C98.9604 140.31 100.163 144.736 101.368 149.161L89.3606 150.809C88.7549 150.893 88.243 151.3 88.0261 151.872C87.8091 152.443 87.9218 153.088 88.3199 153.552L88.3442 153.58L97.3825 164.118L62.9291 204.998ZM62.9291 204.998L59.3959 209.19L61.5247 210.323L62.9291 204.998ZM97.3825 164.118L98.3737 165.274L98.3668 162.95L97.3825 164.118ZM101.368 149.161C101.397 149.269 101.427 149.376 101.456 149.484C101.575 149.919 101.693 150.354 101.811 150.789L102.994 148.937L101.368 149.161Z" fill="#111111"/>
<path d="M104.931 183.728C114.091 221.376 119.97 259.747 122.503 298.409C121.227 311.268 157.471 309.688 157.471 309.688C157.471 309.688 178.833 167.799 121.182 133.57" stroke="#111111" stroke-width="3.43356" stroke-linecap="round" stroke-linejoin="round"/>
<path d="M37.7534 183.995C21.3097 204.585 -23.0729 258.222 -36.8267 255.18C-57.6822 250.566 -97.2667 188.689 -97.2667 188.689C-92.3568 174.742 -81.6004 163.634 -67.8177 158.279C-67.8177 158.279 -44.0863 180.554 -42.0038 182.751C-33.7351 191.472 -17.7093 133.743 23.9893 122.556" fill="white"/>
<path d="M37.7534 183.995C21.3097 204.585 -23.0729 258.222 -36.8267 255.18C-57.6822 250.566 -97.2667 188.689 -97.2667 188.689C-92.3568 174.742 -81.6004 163.634 -67.8177 158.279C-67.8177 158.279 -44.0863 180.554 -42.0038 182.751C-33.7351 191.472 -17.7093 133.743 23.9893 122.556" stroke="#111111" stroke-width="3.43356" stroke-linecap="round" stroke-linejoin="round"/>
<path d="M68.6356 38.3344C67.8237 39.3328 66.9505 40.2796 66.0209 41.1695C65.5711 41.5911 65.2834 42.2617 64.6379 42.3324C63.8116 42.4466 62.9704 42.2968 62.2344 41.9043C62.1222 41.8523 62.049 41.7415 62.0452 41.6179C62.0229 40.8022 62.3121 40.0086 62.8538 39.3984C63.2789 38.8721 64.0617 38.9459 64.6822 38.7704C65.9302 38.4228 67.2035 38.1728 68.4903 38.023C68.563 38.0145 68.6336 38.051 68.6688 38.1151C68.704 38.1793 68.6968 38.2584 68.6507 38.3152L68.6356 38.3344Z" fill="#111111"/>
</g>
</svg>
