<svg width="134" height="134" viewBox="0 0 134 134" fill="none" xmlns="http://www.w3.org/2000/svg">
<circle cx="66.7784" cy="66.7784" r="66.7784" fill="#FFE700"/>
<mask id="mask0_3555_27369" style="mask-type:alpha" maskUnits="userSpaceOnUse" x="0" y="0" width="134" height="134">
<circle cx="66.7784" cy="66.7784" r="66.7784" fill="white"/>
</mask>
<g mask="url(#mask0_3555_27369)">
<path d="M135.767 110.953L223.496 124.011C227.795 124.567 231.697 126.809 234.343 130.243C236.988 133.677 238.161 138.022 237.602 142.32L229.372 205.653L191.26 209.717L194.384 158.547L129.328 156.499L135.767 110.953Z" fill="white"/>
<mask id="mask1_3555_27369" style="mask-type:alpha" maskUnits="userSpaceOnUse" x="129" y="110" width="109" height="100">
<path fill-rule="evenodd" clip-rule="evenodd" d="M135.767 110.953L223.496 124.011C227.795 124.567 231.697 126.809 234.343 130.243C236.988 133.677 238.161 138.022 237.602 142.32L229.372 205.653L191.26 209.717L194.384 158.547L129.328 156.499L135.767 110.953Z" fill="white"/>
</mask>
<g mask="url(#mask1_3555_27369)">
<path d="M141.635 148.206C149.065 135.127 161.835 158.764 187.327 158.335C199.919 158.124 129.329 171.241 129.329 171.241V129.774" fill="#CFCFD0"/>
</g>
<path fill-rule="evenodd" clip-rule="evenodd" d="M135.767 110.953L223.496 124.011C227.795 124.567 231.697 126.809 234.343 130.243C236.988 133.677 238.161 138.022 237.602 142.32L229.372 205.653L191.26 209.717L194.384 158.547L129.328 156.499L135.767 110.953Z" stroke="#111111" stroke-width="3.43356" stroke-linecap="round" stroke-linejoin="round"/>
<path d="M29.5527 272.65C67.3452 293.166 149.443 298.486 160.241 281.749L130.48 116.564C130.48 116.564 95.1056 100.048 42.6761 115.895L29.5527 272.65Z" fill="#111111"/>
<path d="M109.36 106.308L77.133 32.3452H38.9105L35.1233 75.5772L61.7025 83.8933L71.162 119.311L78.7811 121.532L109.36 106.308V106.308Z" fill="#F5F6F7"/>
<mask id="mask2_3555_27369" style="mask-type:alpha" maskUnits="userSpaceOnUse" x="35" y="32" width="75" height="90">
<path fill-rule="evenodd" clip-rule="evenodd" d="M109.36 106.308L77.133 32.3452H38.9105L35.1233 75.5772L61.7025 83.8933L71.162 119.311L78.7811 121.532L109.36 106.308V106.308Z" fill="white"/>
</mask>
<g mask="url(#mask2_3555_27369)">
<path d="M70.5288 70.1831C69.3219 81.2485 87.0099 96.8557 59.3553 101.83C31.7007 106.804 53.9835 67.5097 53.9835 67.5097L65.1186 62.8342" fill="#CFCFD0"/>
</g>
<path fill-rule="evenodd" clip-rule="evenodd" d="M109.36 106.308L77.133 32.3452H38.9105L35.1233 75.5772L61.7025 83.8933L71.162 119.311L78.7811 121.532L109.36 106.308V106.308Z" stroke="#111111" stroke-width="3.43356" stroke-linecap="round" stroke-linejoin="round"/>
<path d="M63.2222 50.5798C92.6774 116.269 22.0579 99.3049 35.9776 65.8249C63.6899 74.8915 56.9103 50.5798 56.9103 50.5798C56.9103 50.5798 44.053 45.6699 48.7284 35.8523C48.7284 35.8523 38.9709 31.6499 38.4171 37.9745C27.2216 25.8002 35.6359 12.2417 62.0534 19.4886C88.4709 26.7355 96.6514 69.7491 96.6514 69.7491C96.6514 69.7491 82.3915 93.1262 63.2222 50.5798Z" fill="#111111"/>
<path d="M66.4216 55.8487C81.5904 41.576 88.6251 57.9486 72.5911 74.76Z" fill="#F5F6F7"/>
<path d="M66.3038 55.7237C68.6567 53 71.6812 50.9393 75.0769 49.7462C76.0387 49.5058 77.0363 49.4432 78.0205 49.5615C79.065 49.7978 80.028 50.3073 80.811 51.0379C82.2361 52.5216 83.0333 54.4983 83.0363 56.5556C83.2254 60.3224 82.2603 64.0572 80.2699 67.2608C78.3587 70.3377 75.7764 72.9424 72.716 74.8799C72.6346 74.9331 72.5254 74.9102 72.4722 74.8287C72.4402 74.7712 72.4384 74.7017 72.4674 74.6426C74.0568 71.4178 75.9508 68.6497 77.2583 65.6123C78.8132 62.8264 79.8412 59.7778 80.2908 56.6191C80.5974 53.5616 78.721 50.6688 75.3808 51.4369C72.096 52.1722 69.0533 53.7341 66.5411 55.9747C66.5071 56.0051 66.4624 56.0207 66.4168 56.018C66.3713 56.0154 66.3286 55.9947 66.2984 55.9606C66.242 55.8909 66.2444 55.7907 66.3038 55.7237V55.7237Z" fill="#111111"/>
<path d="M-11.3133 484.537C30.8451 519.216 102.824 498.031 102.824 498.031L90.0514 163.158L69.656 113.685L42.6737 115.896C12.1112 236.229 0.542493 455.699 -11.3133 484.537Z" fill="white"/>
<path fill-rule="evenodd" clip-rule="evenodd" d="M-11.3133 484.537C30.8451 519.216 102.824 498.031 102.824 498.031L90.0514 163.158L69.656 113.685L42.6737 115.896C12.1112 236.229 0.542493 455.699 -11.3133 484.537Z" stroke="#111111" stroke-width="3.43356" stroke-linecap="round" stroke-linejoin="round"/>
<path d="M139.249 111.441C139.249 111.441 110.133 107.297 106.508 107.478L90.0521 163.157L75.6957 217.029L86.0242 512.835C181.477 505.364 196.708 489.736 196.708 489.736C180.342 356.75 155.114 204.28 144.373 141.173" fill="white"/>
<path d="M139.249 111.441C139.249 111.441 110.133 107.297 106.508 107.478L90.0521 163.157L75.6957 217.029L86.0242 512.835C181.477 505.364 196.708 489.736 196.708 489.736C180.342 356.75 155.114 204.28 144.373 141.173" stroke="#111111" stroke-width="3.43356" stroke-linecap="round" stroke-linejoin="round"/>
<path d="M67.8555 121.676L61.5309 134.902L66.5645 175.374L89.2363 176.97L104.852 131.534L101.762 116.965L86.4688 120.948L77.9811 121.367L71.2616 122.377" fill="#111111"/>
<path d="M77.4935 129.639L66.2589 172.665L72.5732 210.43L80.958 205.634L88.2852 170.234L84.6079 126.445L77.4935 129.639V129.639Z" fill="#ECEDEE"/>
<path fill-rule="evenodd" clip-rule="evenodd" d="M84.3599 125.893L77.3616 129.528L65.4389 172.453C65.4093 172.561 65.4026 172.674 65.4194 172.785L65.4231 172.808L71.3028 210.643C71.3264 210.792 71.3757 210.936 71.4484 211.068C71.7915 211.685 72.5701 211.907 73.1875 211.564L73.2139 211.549L81.657 206.857C81.9993 206.666 82.2437 206.337 82.329 205.955L82.3365 205.921C83.0159 202.834 83.7038 199.748 84.3918 196.663C86.327 187.985 88.2622 179.307 90.0047 170.589C90.0372 170.423 90.0475 170.254 90.0353 170.085C89.6103 164.967 89.0668 159.859 88.5232 154.751C88.2917 152.575 88.0602 150.399 87.8378 148.223C87.0615 140.939 86.1722 133.664 85.2132 126.396L85.2049 126.33C85.1957 126.264 85.1753 126.2 85.1445 126.141C84.9956 125.856 84.6451 125.746 84.3599 125.893ZM67.1283 172.693L77.6236 129.75L84.0355 127.312C84.2968 134.367 84.6241 141.416 85.0563 148.456C85.1994 150.632 85.3334 152.81 85.4675 154.987C85.7782 160.035 86.089 165.083 86.5132 170.121C84.6731 178.738 83.0203 187.393 81.3676 196.049C80.8141 198.948 80.2606 201.847 79.7 204.745L73.5166 208.38L67.1283 172.693ZM67.1283 172.693L67.0984 172.526L67.0826 172.88L67.1283 172.693ZM73.5166 208.38L71.9349 209.31L73.8453 210.217L73.5166 208.38ZM79.7 204.745C79.661 204.946 79.6219 205.148 79.5828 205.35L80.2616 204.415L79.7 204.745ZM86.5132 170.121C86.5205 170.207 86.5278 170.293 86.5351 170.379L86.5653 169.877C86.5479 169.959 86.5306 170.04 86.5132 170.121ZM84.0355 127.312L84.8581 127L84.0056 126.497C84.0155 126.769 84.0254 127.041 84.0355 127.312Z" fill="#111111"/>
<path d="M73.1476 121.264L77.1649 130.113C78.017 132.204 80.138 133.491 82.3863 133.28L84.2078 133.114C86.6702 132.748 88.8092 131.227 89.9632 129.021L94.8533 120.542L83.4219 120.465L73.1476 121.264Z" fill="#ECEDEE"/>
<path fill-rule="evenodd" clip-rule="evenodd" d="M75.2628 120.637C74.4636 120.831 73.7061 121.016 73 121.176L76.2251 129.479C76.6719 131.072 77.6731 132.453 79.0482 133.372C80.5061 134.158 82.1874 134.427 83.8174 134.134C87.174 133.886 90.1388 131.854 91.5821 128.814L96.3105 121.382C96.4611 121.144 96.5484 120.871 96.5642 120.59C96.6123 119.687 95.9194 118.916 95.0164 118.868L94.8646 118.859C91.0543 118.674 87.2364 118.714 83.4308 118.979L83.3048 118.984C80.4277 119.378 77.6583 120.053 75.2628 120.637ZM75.8962 126.339C75.0383 124.73 74.1563 123.076 73.2956 121.351C75.2379 121.404 76.9888 121.545 78.6189 121.677C80.3677 121.818 81.9774 121.948 83.5352 121.945L83.4109 121.95C86.2857 122.19 89.1694 122.301 92.0532 122.282L89.3304 127.517C88.4544 130.015 86.2582 131.814 83.6375 132.183C82.3822 132.536 81.0448 132.459 79.8383 131.964C78.6891 131.33 77.8047 130.306 77.3452 129.077C76.876 128.176 76.3901 127.265 75.8962 126.339ZM92.0532 122.282C92.9823 122.277 93.9114 122.257 94.8402 122.225L93.3947 119.703L92.0532 122.282Z" fill="#111111"/>
<path d="M62.3841 110.078C62.3841 110.078 62.757 100.33 64.9376 100.206C64.9376 100.206 68.9855 114.122 78.1569 118.831L69.3831 134.983C69.3831 134.983 57.504 119.898 62.3841 110.078Z" fill="#111111"/>
<path d="M113.719 105.898C113.719 105.898 107.676 96.8056 105.381 96.9522C105.381 96.9522 94.3176 112.096 80.4055 118.809L94.6332 133.199C94.6332 133.199 117.008 115.229 113.719 105.898Z" fill="#111111"/>
<path d="M63.2339 105.965C63.2339 105.965 75.1552 198.306 79.9076 208.071L74.8548 217.709L50.7512 162.978L58.5485 152.667L44.9687 148.892L57.3251 112.543C57.2849 109.147 59.8537 106.288 63.2339 105.965Z" fill="white"/>
<path fill-rule="evenodd" clip-rule="evenodd" d="M67.143 131.556L63.3407 105.831C61.5825 105.811 59.8972 106.532 58.6971 107.817C57.5719 109.102 56.8998 110.719 56.782 112.42C55.077 116.784 53.4579 121.177 51.8388 125.57C51.2513 127.164 50.6637 128.758 50.072 130.35C48.3415 134.962 46.689 139.6 45.0365 144.237C44.5411 145.628 44.0457 147.018 43.5482 148.408L43.5221 148.488C43.2915 149.272 43.7395 150.094 44.523 150.325L44.568 150.338L55.6745 153.608L49.3396 161.908C48.9535 162.422 48.8738 163.103 49.1312 163.692C52.8902 172.279 56.7576 180.819 60.6249 189.359C60.8694 189.899 61.114 190.439 61.3585 190.979L73.6754 218.227L73.685 218.249C73.8883 218.697 74.3303 218.99 74.8227 219.002C75.315 219.014 75.771 218.744 75.9961 218.306L80.9693 208.627C81.1297 208.313 81.1461 207.944 81.0143 207.616L80.9854 207.546C79.6091 203.562 78.5389 199.479 77.7843 195.332C76.9355 191.117 76.1242 186.889 75.3777 182.644C73.8697 174.16 72.4709 165.648 71.1029 157.133L67.143 131.556ZM61.0086 106.84C61.6872 106.52 62.3972 106.272 63.1271 106.1C63.819 112.555 64.6654 119.238 65.5057 125.874C65.7518 127.817 65.9973 129.755 66.2383 131.683L69.6354 157.353C70.7939 165.906 72.0607 174.447 73.4357 182.977C74.1135 187.244 74.8579 191.502 75.6425 195.759C76.3162 199.894 77.3099 203.969 78.6145 207.949L74.9826 214.739L64.2485 189.708C64.031 189.2 63.8134 188.692 63.5959 188.183C60.0273 179.845 56.4588 171.507 52.7927 163.211L59.9178 153.704L59.9415 153.673C60.278 153.22 60.3677 152.629 60.1808 152.097C59.9939 151.564 59.5547 151.16 59.0089 151.016L46.8866 147.842C47.1763 146.945 47.4666 146.049 47.7569 145.152C49.2722 140.471 50.7875 135.791 52.2259 131.084C52.7285 129.458 53.2353 127.833 53.7421 126.207C55.1409 121.722 56.5398 117.237 57.8504 112.722L57.8587 112.694C57.8731 112.644 57.8803 112.592 57.8799 112.539C57.8539 111.011 58.3343 109.517 59.2462 108.29C59.7148 107.678 60.3178 107.182 61.0086 106.84ZM46.8866 147.842L45.3725 147.446L46.3919 149.375C46.5566 148.864 46.7215 148.353 46.8866 147.842ZM52.7927 163.211C52.6534 162.896 52.5139 162.581 52.3742 162.265L52.1658 164.048L52.7927 163.211ZM74.9826 214.739L73.7135 217.111L76.0339 217.19L74.9826 214.739ZM78.6145 207.949C78.6853 208.165 78.7571 208.381 78.8298 208.597L78.846 207.516L78.6145 207.949Z" fill="#111111"/>
<path d="M109.965 100.552L75.6606 217.794L120.228 162.657L108.915 149.502L123.119 141.355L118.263 109.997C118.109 105.27 114.632 101.314 109.965 100.552Z" fill="white"/>
<path fill-rule="evenodd" clip-rule="evenodd" d="M113.252 101.533C112.188 100.997 111.053 100.616 109.881 100.403L74.4428 217.436C74.2676 218.014 74.5246 218.635 75.0569 218.92C75.5892 219.204 76.2486 219.074 76.632 218.608L76.6468 218.59L99.173 191.217C100.453 189.662 101.734 188.107 103.015 186.552C109.247 178.986 115.48 171.421 121.597 163.762L121.608 163.748C122.135 163.088 122.116 162.145 121.562 161.507C120.884 160.726 120.207 159.944 119.529 159.162C116.845 156.063 114.161 152.965 111.444 149.895L123.815 142.569L123.859 142.544C124.344 142.255 124.601 141.695 124.503 141.138L121.765 125.508C121.428 123.674 121.102 121.839 120.776 120.003C120.178 116.631 119.579 113.258 118.915 109.896C118.765 107.516 117.763 105.268 116.09 103.565C115.261 102.738 114.302 102.051 113.252 101.533ZM78.6008 212.051L110.05 100.702C111.057 101.074 112.034 101.524 112.971 102.048C113.915 102.6 114.762 103.303 115.48 104.127C116.868 105.757 117.623 107.831 117.606 109.972L117.611 110.075L117.614 110.1C117.997 113.497 118.445 116.884 118.893 120.272C119.138 122.129 119.384 123.985 119.619 125.844L121.604 140.594L108.104 148.09C108.017 148.139 107.935 148.195 107.858 148.258C107.174 148.825 107.079 149.84 107.646 150.524L107.68 150.564C110.727 154.239 113.827 157.869 116.926 161.499C117.263 161.893 117.599 162.287 117.936 162.681C112.045 169.903 106.255 177.205 100.465 184.506C99.2156 186.082 97.9661 187.658 96.7156 189.232L78.6008 212.051ZM78.6008 212.051L74.6745 216.997L76.8782 218.15L78.6008 212.051ZM117.936 162.681C118.255 163.056 118.575 163.43 118.894 163.804L118.86 161.551C118.551 161.927 118.244 162.304 117.936 162.681ZM121.604 140.594L121.735 141.57L122.422 140.14L121.604 140.594Z" fill="#111111"/>
<path d="M54.8673 113.064L-47.9539 134.848C-54.0779 135.897 -59.2131 140.061 -61.5058 145.836C-63.7986 151.611 -62.9179 158.163 -59.1816 163.128L-18.9794 229.281C-8.93895 230.96 17.7368 208.129 14.4725 201.948L2.02408 169.498L38.5191 165.533" fill="white"/>
<path d="M54.8673 113.064L-47.9539 134.848C-54.0779 135.897 -59.2131 140.061 -61.5058 145.836C-63.7986 151.611 -62.9179 158.163 -59.1816 163.128L-18.9794 229.281C-8.93895 230.96 17.7368 208.129 14.4725 201.948L2.02408 169.498L38.5191 165.533" stroke="#111111" stroke-width="3.43356" stroke-linecap="round" stroke-linejoin="round"/>
<rect x="46.9744" y="56.8734" width="4.62467" height="8.53001" rx="2.31233" transform="rotate(179.256 46.9744 56.8734)" fill="#111111"/>
<path d="M42.3929 40.6658C49.3733 40.2654 50.9654 43.1403 46.6182 43.6753C42.271 44.2102 37.8324 40.9277 42.3929 40.6658Z" fill="#111111"/>
<path d="M38.3735 52.9432C29.9345 58.5076 33.1974 67.4283 39.0729 65.2226Z" fill="#F5F6F7"/>
<path d="M38.4683 53.0864C37.3473 54.0875 36.4072 55.2743 35.6892 56.5948C34.9987 57.7591 34.6461 59.0927 34.6708 60.4462C34.8035 61.4926 35.2249 62.4814 35.8876 63.3019C36.6387 64.2979 37.7711 64.9358 39.0122 65.0619C39.1212 65.0831 39.1925 65.1885 39.1715 65.2975C39.1641 65.3283 39.1509 65.3574 39.1327 65.3833C37.6998 67.0051 35.2409 67.2035 33.5665 65.8324C31.9987 64.4236 31.3656 62.2475 31.9328 60.2175C32.278 58.481 33.0994 56.8746 34.3051 55.5781C35.4598 54.4303 36.804 53.4905 38.2784 52.8C38.3187 52.7786 38.3659 52.7741 38.4096 52.7876C38.4532 52.8011 38.4896 52.8313 38.5109 52.8718C38.5422 52.9452 38.5253 53.0304 38.4683 53.0864V53.0864Z" fill="#111111"/>
<path d="M73.1002 57.5102C73.4844 57.2345 73.9972 57.2189 74.3974 57.4707C74.8511 57.7649 75.1591 58.2374 75.2452 58.7713C75.3523 59.2572 75.5343 59.9456 75.1044 60.1574C74.7017 60.3689 74.2289 60.3494 73.3619 59.9147C73.2585 59.8624 73.1685 59.7869 73.0989 59.6942C72.5251 58.9093 72.3435 58.5358 72.1804 58.3579C71.9902 58.1824 72.3583 58.441 72.5148 58.4705C72.5774 58.5399 72.666 58.5801 72.7595 58.5816C72.8529 58.5831 72.9427 58.5457 73.0075 58.4784C73.1111 58.4152 73.1839 58.312 73.2087 58.1933C73.2336 58.0746 73.2082 57.9509 73.1387 57.8515L73.0889 57.7914C73.0209 57.7083 73.0258 57.5875 73.1002 57.5102V57.5102Z" fill="#111111"/>
<path d="M55.45 23.9869C56.1604 24.0912 56.8829 24.0805 57.5898 23.9553C58.4895 23.9187 59.3848 24.1 60.1993 24.4837C61.0327 24.8896 61.9982 25.3123 62.2921 26.1504C62.6442 27.0454 62.608 28.0465 62.1922 28.9137C62.1418 29.0308 62.0194 29.0998 61.8931 29.0823C61.0355 28.9735 60.2173 28.6575 59.5092 28.1618C58.9598 27.8297 58.9505 27.1564 58.6048 26.7197C58.2554 26.2369 57.7789 25.8607 57.2283 25.6329C56.505 25.2892 55.842 24.8308 55.265 24.2757C55.2339 24.2398 55.2184 24.193 55.2218 24.1457C55.2252 24.0984 55.2473 24.0543 55.2832 24.0233C55.3303 23.9863 55.3918 23.9729 55.45 23.9869V23.9869Z" fill="#111111"/>
</g>
</svg>
