<svg width="134" height="134" viewBox="0 0 134 134" fill="none" xmlns="http://www.w3.org/2000/svg">
<circle cx="66.7784" cy="66.7784" r="66.7784" fill="#FFE700"/>
<mask id="mask0_3555_27368" style="mask-type:alpha" maskUnits="userSpaceOnUse" x="0" y="0" width="134" height="134">
<circle cx="66.7784" cy="66.7784" r="66.7784" fill="white"/>
</mask>
<g mask="url(#mask0_3555_27368)">
<path d="M-53.2086 125.818H-59.263L-26.526 222.223C-25.0446 226.586 -21.796 230.124 -17.5755 231.971C-13.355 233.818 -8.55196 233.804 -4.3421 231.933V231.933C-0.0814619 230.039 3.17123 226.421 4.60209 221.983C6.03295 217.545 5.5066 212.708 3.15474 208.682L-40.9418 133.19L-53.2086 125.818Z" fill="#F5F6F7"/>
<path fill-rule="evenodd" clip-rule="evenodd" d="M-53.2086 125.818H-59.263L-26.526 222.223C-25.0446 226.586 -21.796 230.124 -17.5755 231.971C-13.355 233.818 -8.55196 233.804 -4.3421 231.933V231.933C-0.0814619 230.039 3.17123 226.421 4.60209 221.983C6.03295 217.545 5.5066 212.708 3.15474 208.682L-40.9418 133.19L-53.2086 125.818Z" stroke="#111111" stroke-width="3.43356" stroke-linecap="round" stroke-linejoin="round"/>
<path d="M-55.4263 181.288C-50.7278 165.959 -42.7398 151.841 -32.0201 139.918L0.202911 185.663C-34.222 194.531 14.9892 126.833 19.3856 125.074C23.7819 123.315 27.4791 128.705 38.2042 196.585C38.5273 198.63 26.377 263.512 -3.56302 260.229C-20.3538 258.387 -55.4263 181.288 -55.4263 181.288Z" fill="white"/>
<path fill-rule="evenodd" clip-rule="evenodd" d="M-55.4263 181.288C-50.7278 165.959 -42.7398 151.841 -32.0201 139.918L0.202911 185.663C-34.222 194.531 14.9892 126.833 19.3856 125.074C23.7819 123.315 27.4791 128.705 38.2042 196.585C38.5273 198.63 26.377 263.512 -3.56302 260.229C-20.3538 258.387 -55.4263 181.288 -55.4263 181.288Z" stroke="#111111" stroke-width="3.43356" stroke-linecap="round" stroke-linejoin="round"/>
<path d="M40.9906 116.904C69.2983 103.978 101.823 103.978 130.131 116.904C140.731 144.368 109.588 209.278 119.53 232.063C119.53 232.063 62.4854 256.932 34.5386 238.14C25.8657 229.467 45.5377 205.092 30.8722 181.469C14.7029 155.426 40.9906 116.904 40.9906 116.904Z" fill="#111111"/>
<mask id="mask1_3555_27368" style="mask-type:alpha" maskUnits="userSpaceOnUse" x="25" y="107" width="108" height="139">
<path fill-rule="evenodd" clip-rule="evenodd" d="M40.9906 116.904C69.2983 103.978 101.823 103.978 130.131 116.904C140.731 144.368 109.588 209.278 119.53 232.063C119.53 232.063 62.4854 256.932 34.5386 238.14C25.8657 229.467 45.5377 205.092 30.8722 181.469C14.7029 155.426 40.9906 116.904 40.9906 116.904Z" fill="white"/>
</mask>
<g mask="url(#mask1_3555_27368)">
<path d="M51.0348 110.794C40.9906 150.286 86.2975 129.778 104.466 107.268C122.634 84.7569 102.964 89.3857 102.964 89.3857L49.3819 104.649" fill="#F5F6F7"/>
<path d="M51.2017 110.837C50.3909 114.148 49.9769 117.545 49.9683 120.954C49.8187 124.299 51.0227 127.563 53.3085 130.01C55.9209 132.041 59.2625 132.89 62.5276 132.352C65.8658 131.948 69.1311 131.078 72.2285 129.769C78.492 127.169 84.38 123.743 89.7362 119.582C95.1566 115.545 100 110.787 104.132 105.439C106.197 102.836 107.981 100.023 109.454 97.0449C110.11 95.754 110.469 94.3327 110.506 92.8851C110.431 91.7119 109.847 91.2714 108.53 90.9208C107.069 90.6571 105.572 90.6663 104.114 90.9479C102.754 91.2017 100.908 91.8671 99.321 92.2781L89.4138 95.0308C76.1455 98.4849 62.894 102.001 49.4303 104.814C49.3391 104.84 49.2441 104.787 49.2181 104.696C49.1921 104.604 49.245 104.509 49.3362 104.483C62.2646 99.7794 75.4059 95.7766 88.53 91.7129L98.4187 88.8287C100.147 88.3707 101.547 87.8673 103.56 87.4986C105.484 87.1687 107.454 87.2122 109.362 87.6266C110.509 87.8869 111.557 88.4709 112.382 89.3091C112.82 89.7777 113.164 90.3254 113.397 90.9229C113.594 91.484 113.708 92.0712 113.734 92.6654C113.696 94.652 113.182 96.6006 112.238 98.3486C110.577 101.48 108.586 104.425 106.298 107.132C101.893 112.551 96.7693 117.343 91.0678 121.376C85.4659 125.506 79.337 128.868 72.8438 131.374C69.5675 132.63 66.1313 133.42 62.6354 133.722C59.025 134.178 55.3883 133.105 52.6043 130.761C50.2183 128.079 49.0203 124.544 49.2833 120.964C49.4047 117.509 49.9376 114.082 50.8707 110.753C50.8939 110.661 50.9872 110.606 51.0791 110.629C51.1679 110.655 51.2213 110.746 51.2017 110.837Z" fill="#111111"/>
</g>
<path d="M102.713 54.5041C103.658 52.5782 104.288 50.5127 104.578 48.3868C106.585 33.0591 94.4869 20.6337 77.5557 20.6337C71.7015 20.6625 65.9425 22.1164 60.7762 24.8697C57.9718 22.9751 54.6548 21.9842 51.2707 22.0301C41.9066 21.8882 33.7816 28.4647 31.9693 37.6528C31.0685 44.8126 35.9101 51.4318 43.0064 52.742C42.4747 61.3203 48.2314 69.0225 56.6092 70.9419C56.3101 71.4594 56.0379 71.9775 55.7687 72.4966C54.031 72.0408 52.2474 71.7828 50.4518 71.7275C49.9865 71.6952 49.5501 71.6001 49.0718 71.6001C47.4631 71.6214 45.8619 71.8253 44.2992 72.2079C33.5122 74.4563 24.051 80.8766 17.9768 90.07C8.30718 104.554 10.7399 120.566 23.4094 125.834C36.0789 131.102 54.1889 123.632 63.8568 109.148C64.6609 107.93 65.3966 106.667 66.0604 105.366C78.4989 108.689 94.8402 101.294 103.853 87.7932C112.307 75.1312 111.51 61.3032 102.713 54.5041Z" fill="#111111"/>
<path d="M90.8724 114.903L87.8038 67.1835L61.4402 82.2404C62.0891 83.9002 55.2646 113.318 51.5151 124.205" fill="#F5F6F7"/>
<mask id="mask2_3555_27368" style="mask-type:alpha" maskUnits="userSpaceOnUse" x="51" y="67" width="40" height="58">
<path fill-rule="evenodd" clip-rule="evenodd" d="M90.8724 114.903L87.8038 67.1835L61.4402 82.2404C62.0891 83.9002 55.2646 113.318 51.5151 124.205" fill="white"/>
</mask>
<g mask="url(#mask2_3555_27368)">
<path d="M40.3928 114.309C69.7944 116.982 63.5742 90.4961 72.3085 82.9584C81.0428 75.4207 48.3058 84.0379 48.3058 84.0379L40.1682 93.7892L41.1914 107.568" fill="#CFCFD0"/>
</g>
<path d="M90.8724 114.903L87.8038 67.1835L61.4402 82.2404C62.0891 83.9002 55.2646 113.318 51.5151 124.205" stroke="#111111" stroke-width="3.43356" stroke-linecap="round" stroke-linejoin="round"/>
<path d="M91.3634 63.1979C65.6937 65.6432 62.7302 35.5432 62.7302 35.5432C59.1096 44.2367 50.8635 50.1174 41.4648 50.7086C33.5676 92.7591 54.8083 94.9817 72.2529 84.5845" fill="#F5F6F7"/>
<mask id="mask3_3555_27368" style="mask-type:alpha" maskUnits="userSpaceOnUse" x="39" y="35" width="53" height="55">
<path fill-rule="evenodd" clip-rule="evenodd" d="M91.3634 63.1979C65.6937 65.6432 62.7302 35.5432 62.7302 35.5432C59.1096 44.2367 50.8635 50.1174 41.4648 50.7086C33.5676 92.7591 54.8083 94.9817 72.2529 84.5845" fill="white"/>
</mask>
<g mask="url(#mask3_3555_27368)">
<ellipse opacity="0.27" cx="39.7648" cy="71.6487" rx="8.3985" ry="6.22574" transform="rotate(-19.6091 39.7648 71.6487)" fill="#CFCFD0"/>
<ellipse opacity="0.27" cx="67.9112" cy="69.6622" rx="6.13544" ry="4.5481" transform="rotate(-19.6091 67.9112 69.6622)" fill="#CFCFD0"/>
<rect x="45.5253" y="56.312" width="4.40561" height="8.12553" rx="2.20263" transform="rotate(3.7419 45.5253 56.312)" fill="#111111"/>
<rect x="61.9179" y="56.1867" width="4.40576" height="8.12581" rx="2.20263" transform="rotate(3.74395 61.9179 56.1867)" fill="#111111"/>
<path d="M47.5144 51.2394C42.9429 52.2544 44.0183 54.7801 46.9173 54.332C49.8162 53.884 50.5009 50.5761 47.5144 51.2394Z" fill="#111111"/>
<path d="M64.3553 50.927C68.7554 52.5287 67.712 54.7276 64.8961 53.9056C62.0802 53.0836 61.4804 49.8804 64.3553 50.927Z" fill="#111111"/>
<path d="M56.8736 64.8813C56.945 66.3691 55.643 65.8403 54.0718 65.9155C52.5006 65.9907 51.2563 66.6417 51.1838 65.154C51.1927 63.6383 52.3855 62.3942 53.8995 62.3217C55.4135 62.2491 56.7198 63.3734 56.8736 64.8813Z" fill="#CFCFD0"/>
<path d="M48.2488 73.1895C50.5349 83.8679 60.5338 79.1141 60.5389 72.4414C60.5336 72.0961 60.313 71.791 59.9868 71.6777C56.3018 70.5734 52.3493 70.7685 48.791 72.2302C48.3966 72.3704 48.1655 72.7794 48.2488 73.1895V73.1895Z" fill="#CFCFD0"/>
<mask id="mask4_3555_27368" style="mask-type:alpha" maskUnits="userSpaceOnUse" x="48" y="70" width="13" height="10">
<path fill-rule="evenodd" clip-rule="evenodd" d="M48.2488 73.1895C50.5349 83.8679 60.5338 79.1141 60.5389 72.4414C60.5336 72.0961 60.313 71.791 59.9868 71.6777C56.3018 70.5734 52.3493 70.7685 48.791 72.2302C48.3966 72.3704 48.1655 72.7794 48.2488 73.1895V73.1895Z" fill="white"/>
</mask>
<g mask="url(#mask4_3555_27368)">
<ellipse opacity="0.29" cx="56.0818" cy="78.9044" rx="5.47413" ry="4.88562" transform="rotate(-20.6847 56.0818 78.9044)" fill="#111111"/>
<path d="M50.0865 71.4089C50.0699 72.0385 50.1879 72.6644 50.4326 73.2448C52.8773 73.9725 55.4977 73.8392 57.8559 72.8671C57.9921 72.0512 58.0319 71.2222 57.9747 70.397L50.9088 70.9828" fill="white"/>
</g>
</g>
<path d="M91.3634 63.1979C65.6937 65.6432 62.7302 35.5432 62.7302 35.5432C59.1096 44.2367 50.8635 50.1174 41.4648 50.7086C33.5676 92.7591 54.8083 94.9817 72.2529 84.5845" stroke="#111111" stroke-width="3.43356" stroke-linecap="round" stroke-linejoin="round"/>
<path d="M73.9102 80.8756C73.85 77.3135 74.1305 73.7539 74.748 70.2452L86.408 64.4151L87.2695 62.6416C87.2695 62.6416 74.1818 67.0939 74.0208 67.0592C57.3934 70.8629 53.8826 64.9232 53.8826 64.9232C53.8826 64.9232 41.3346 66.9037 39.1756 62.6416C32.5145 84.5821 47.7214 106.326 75.434 83.0126C75.3702 82.9996 87.2682 76.5482 87.2682 76.5482L73.9102 80.8756Z" fill="white"/>
<path fill-rule="evenodd" clip-rule="evenodd" d="M80.1412 78.3227C78.1548 79.1176 76.1187 79.9323 73.9991 80.7296L74.0005 80.7289C74.0161 80.4805 74.0106 80.164 74.0046 79.8208C73.9956 79.3004 73.9856 78.7185 74.0462 78.2194C74.1097 77.3386 74.2199 76.4586 74.3439 75.5796C74.4298 74.9667 74.5254 74.355 74.6212 73.7421C74.7902 72.6605 74.9598 71.5751 75.0782 70.4726L86.6638 64.9153C86.77 64.8645 86.8565 64.78 86.9097 64.675L86.9179 64.6585L87.8083 62.8998C87.9155 62.6879 87.8849 62.4323 87.7308 62.2516C87.5768 62.0709 87.3292 62.0003 87.103 62.0727L87.0834 62.0789L80.4343 64.2077L77.1079 65.2625L75.445 65.7823L74.6158 66.0367L74.2072 66.1586L74.0057 66.217C73.993 66.2191 73.9876 66.22 73.9876 66.2201C73.9877 66.2205 74.1543 66.1984 74.1979 66.253L73.8422 66.2558C70.4739 67.0162 67.0289 67.3849 63.5759 67.3545C61.9008 67.3199 60.2371 67.0701 58.6257 66.6112C57.166 66.2535 55.8444 65.4727 54.8268 64.3666L54.787 64.31C54.5439 63.9688 54.1324 63.7897 53.7171 63.844C51.2272 64.1774 48.712 64.2817 46.2031 64.1555C45.0029 64.0865 43.8131 63.8941 42.6524 63.5814C41.71 63.3923 40.8764 62.8479 40.3245 62.061C40.0992 61.5889 39.6075 61.3031 39.0857 61.3411C38.564 61.379 38.1188 61.7329 37.9642 62.2327L37.9529 62.2687C36.2453 67.5525 35.8027 73.1635 36.6608 78.6496C37.4893 84.453 40.8201 89.6015 45.7739 92.7361C47.0912 93.4203 48.4773 93.9631 49.9089 94.3554C51.3463 94.6531 52.8131 94.7852 54.2805 94.7492C57.1302 94.6136 59.9378 94.0077 62.5898 92.9559C67.5888 90.7644 72.2057 87.7886 76.2659 84.1412C76.2725 84.1366 76.2861 84.1259 76.3099 84.1062C76.3098 84.1071 76.3092 84.1085 76.3082 84.1103L76.4799 84.0073L76.8363 83.7986L77.5608 83.3773L79.018 82.536L81.9156 80.8124L87.7128 77.363L87.7732 77.3287C88.1853 77.0858 88.3437 76.5686 88.1384 76.1366C87.9331 75.7046 87.432 75.5008 86.9835 75.6668C84.7347 76.4846 82.4721 77.3899 80.1412 78.3227ZM76.3043 84.1067C76.2915 84.1182 76.2787 84.1297 76.2659 84.1412C76.2571 84.1475 76.2606 84.143 76.2687 84.1354C76.2787 84.126 76.2956 84.1116 76.3043 84.1067ZM76.3043 84.1067C76.3147 84.0973 76.325 84.0881 76.3353 84.0787L75.7214 81.6474C76.0143 81.677 76.287 81.81 76.4905 82.0227C76.7807 82.3151 76.9266 82.7209 76.8888 83.1311C76.8619 83.4137 76.746 83.6804 76.5578 83.893C76.429 84.0058 76.3528 84.0707 76.3099 84.1062C76.3101 84.1042 76.3079 84.1046 76.3043 84.1067ZM73.6118 78.1981C73.5323 79.1448 73.603 80.0982 73.8213 81.0229C75.3841 80.604 76.999 80.1961 78.6492 79.7808L77.7513 80.2276L76.2516 81.0054L75.5003 81.3978L75.1199 81.5987L74.9262 81.7017C74.9015 81.7243 74.9002 81.7225 74.898 81.7195C74.8927 81.7124 74.8822 81.6981 74.5441 81.9824L74.5358 81.9496C70.5629 85.1953 66.1201 87.8189 61.3595 89.7307C56.9841 92.0351 51.75 92.0167 47.3909 89.6815C43.0318 87.3463 40.1167 82.9992 39.611 78.08C38.8009 73.7712 38.8874 69.3497 39.8561 65.0894C40.4896 65.504 41.2014 65.8008 41.9581 65.9567C43.3062 66.2918 44.6857 66.484 46.074 66.5301C48.5552 66.5967 51.0372 66.4491 53.4924 66.0893C54.7318 67.3398 56.3112 68.2097 58.0434 68.5851C59.8349 69.0524 61.6794 69.2861 63.5309 69.2804C67.1319 69.2365 70.7147 68.7607 74.2024 67.8634L74.0759 67.8642C74.2069 67.8548 74.3367 67.8306 74.4627 67.792L74.6783 67.7216L75.1017 67.5801L75.9326 67.2951L77.5845 66.7183L80.8807 65.5536L86.1328 63.6795L85.9805 64.0064L74.5932 69.9355C74.4856 69.9914 74.4137 70.0981 74.4022 70.2188C74.3249 71.3547 74.1852 72.496 74.045 73.6418C73.9686 74.2659 73.8921 74.8913 73.8254 75.5178C73.7296 76.4068 73.6462 77.2995 73.6118 78.1981ZM85.9805 64.0064L85.904 64.1706L86.1571 63.9144L85.9805 64.0064ZM86.1328 63.6795L87.4604 63.2057L86.736 62.3851L86.1328 63.6795ZM73.8481 67.8658L74.0759 67.8642C74.0002 67.8697 73.9241 67.8702 73.8481 67.8658ZM53.4924 66.0893C53.6787 66.062 53.8648 66.0335 54.0508 66.0038L52.9418 65.4815C53.1167 65.693 53.3005 65.8957 53.4924 66.0893ZM39.8561 65.0894C40.0142 64.3942 40.1957 63.7033 40.4007 63.0179L38.0298 63.2239C38.5011 63.9784 39.1267 64.612 39.8561 65.0894ZM74.5441 81.9824C74.5281 81.9958 74.5114 82.01 74.4939 82.0248C73.9857 82.5626 73.976 83.4006 74.4716 83.95C74.6536 84.1537 74.8888 84.3027 75.1508 84.3802L74.5441 81.9824ZM78.6492 79.7808C78.7632 79.7522 78.8774 79.7234 78.9917 79.6947C81.7754 78.9944 84.6557 78.2698 87.5525 77.4341L86.8245 75.7369L80.7729 78.7241L78.6492 79.7808Z" fill="#111111"/>
<path d="M85.7488 63.1838C112.232 53.2474 97.6087 83.1101 81.0338 76.0785Z" fill="#F5F6F7"/>
<path d="M85.6884 63.0227C88.9508 61.3655 92.5443 60.4634 96.2026 60.3834C97.2285 60.4423 98.2281 60.7304 99.128 61.2263C100.11 61.8186 100.845 62.7451 101.199 63.8358C101.697 65.8813 101.409 68.0389 100.393 69.8827C98.7418 73.4954 95.7332 76.3119 92.0195 77.7218C88.318 79.1005 84.1728 78.5434 80.9665 76.2365C80.8896 76.1757 80.8762 76.0641 80.9367 75.9869C80.976 75.9376 81.0382 75.9124 81.1008 75.9206C84.3759 76.4383 87.7311 75.9573 90.7288 74.5403C93.6445 73.2599 96.1505 71.2001 97.9713 68.5875C98.8185 67.382 99.2024 65.9114 99.0525 64.4456C98.6437 63.0794 97.4059 62.1285 95.9805 62.0857C92.5387 61.7546 89.0662 62.1844 85.8089 63.3445C85.7655 63.3586 85.7183 63.355 85.6777 63.3343C85.637 63.3136 85.6063 63.2776 85.5922 63.2343C85.5676 63.1497 85.6084 63.0598 85.6884 63.0227V63.0227Z" fill="#111111"/>
<path d="M86.2584 532.417C123.532 543.233 166.43 503.1 166.43 503.1C166.43 503.1 135.038 179.585 133.87 116.904C123.417 111.075 111.216 106.905 91.1134 107.268L78.8213 158.13C78.8213 158.13 60.2319 434.45 86.2584 532.417Z" fill="white"/>
<path fill-rule="evenodd" clip-rule="evenodd" d="M86.2584 532.417C123.532 543.233 166.43 503.1 166.43 503.1C166.43 503.1 135.038 179.585 133.87 116.904C123.417 111.075 111.216 106.905 91.1134 107.268L78.8213 158.13C78.8213 158.13 60.2319 434.45 86.2584 532.417Z" stroke="#111111" stroke-width="3.43356" stroke-linecap="round" stroke-linejoin="round"/>
<path d="M19.4037 151.22C18.4949 281.283 2.96898 358.809 7.72035 514.243C28.3762 521.49 49.5497 527.167 71.0603 531.226C71.0603 531.226 44.8554 121.729 55.7006 111.075C55.7006 111.075 31.0768 112.875 19.3855 125.074" fill="white"/>
<path d="M19.4037 151.22C18.4949 281.283 2.96898 358.809 7.72035 514.243C28.3762 521.49 49.5497 527.167 71.0603 531.226C71.0603 531.226 44.8554 121.729 55.7006 111.075C55.7006 111.075 31.0768 112.875 19.3855 125.074" stroke="#111111" stroke-width="3.43356" stroke-linecap="round" stroke-linejoin="round"/>
<path d="M75.0141 210.339C75.0141 210.339 73.3622 127.159 89.9913 104.847L103.989 109.328L90.655 145.69L95.8143 161.234L75.0141 210.339Z" fill="white"/>
<path fill-rule="evenodd" clip-rule="evenodd" d="M74.7206 203.612C74.6854 205.914 74.7725 208.216 74.9815 210.508C78.2329 203.068 81.7552 195.638 85.4319 187.883C85.6042 187.52 85.7768 187.156 85.9497 186.791C89.7081 179.016 93.3383 170.854 96.9156 162.812C97.0541 162.5 97.1926 162.189 97.3309 161.878C97.4852 161.532 97.5086 161.142 97.3968 160.779L97.3776 160.716C96.3179 157.27 95.1924 153.845 94.067 150.42C93.5531 148.856 93.0392 147.293 92.5316 145.727C95.9368 136.461 99.2273 127.152 102.518 117.844C103.462 115.172 104.406 112.501 105.353 109.83L105.365 109.796L105.382 109.745C105.495 109.381 105.458 108.987 105.28 108.649C105.102 108.312 104.797 108.059 104.433 107.947L90.3896 103.606L90.2228 103.554C89.7289 103.402 89.1959 103.617 88.9458 104.069C87.7011 106.036 86.5676 108.071 85.5507 110.165C85.2682 110.913 84.9597 111.655 84.6512 112.397C84.0779 113.775 83.5049 115.153 83.1002 116.573C82.8832 117.334 82.658 118.093 82.4328 118.852C82.012 120.272 81.5914 121.69 81.2248 123.119L79.7737 129.742C78.143 138.6 76.9607 147.533 76.2313 156.51C75.5428 165.475 75.085 174.445 74.8579 183.42C74.7544 187.908 74.6972 192.396 74.6862 196.883L74.7206 203.612ZM84.8801 184.785C81.8105 193 78.5761 201.591 75.0464 210.171C75.202 209.113 75.2496 208.042 75.1882 206.975L75.2225 203.612L75.3482 196.89C75.4704 192.409 75.6346 187.93 75.8406 183.453C76.2712 174.496 76.94 165.565 77.8472 156.66C78.8106 147.763 80.0429 138.897 81.8562 130.17L83.4013 123.677C83.7755 122.32 84.1989 120.981 84.6225 119.641C84.8662 118.87 85.1099 118.099 85.3443 117.325C85.7556 115.966 86.3198 114.678 86.8835 113.392C87.1994 112.671 87.5151 111.95 87.8038 111.217C88.6436 109.572 89.5565 107.965 90.5399 106.402L102.094 110.23C101.263 112.42 100.431 114.609 99.5992 116.799C96.0224 126.21 92.4455 135.622 88.9911 145.077C88.853 145.454 88.8466 145.866 88.9729 146.247C89.5692 147.997 90.1566 149.749 90.7439 151.501C91.8295 154.739 92.9149 157.977 94.0557 161.197C90.9176 169.015 87.8333 176.701 84.8801 184.785ZM94.0557 161.197C94.1211 161.382 94.1866 161.566 94.2524 161.751L94.2991 160.591L94.0988 161.09C94.0844 161.126 94.0701 161.162 94.0557 161.197ZM102.094 110.23L103.546 110.711L102.625 108.829C102.448 109.296 102.271 109.763 102.094 110.23ZM90.5399 106.402C90.7034 106.142 90.8688 105.884 91.0362 105.626L89.5941 106.089L90.5399 106.402Z" fill="#111111"/>
<path d="M55.5664 207.139L40.7575 161.11L48.6286 146.189L40.6356 113.845C44.9882 109.782 50.6701 107.44 56.6219 107.257C56.6219 107.257 51.8304 186.53 55.5664 207.139Z" fill="white"/>
<path fill-rule="evenodd" clip-rule="evenodd" d="M46.9714 181.767C49.9397 190.361 52.878 198.869 55.6079 207.306C55.0816 198.636 55.1214 190.594 55.2903 182.195C55.3504 180.197 55.4069 178.199 55.4634 176.201C55.6422 169.884 55.821 163.566 56.1113 157.249L58.0904 107.346L58.0932 107.277V107.193C58.0757 106.398 57.4174 105.768 56.6226 105.785C53.4744 105.847 50.3703 106.538 47.4931 107.817C46.0701 108.434 44.703 109.172 43.4071 110.024C42.0904 110.879 40.8575 111.856 39.7246 112.943C39.4062 113.258 39.279 113.719 39.3905 114.153L47.6028 146.073L40.0625 160.743C39.966 160.931 39.947 161.149 40.0096 161.351C42.2912 168.215 44.6406 175.018 46.9714 181.767ZM54.364 200.975C54.6202 202.998 55.0079 205.001 55.5245 206.973C52.6612 198.024 50.0157 189.148 47.3973 180.363C45.4775 173.922 43.5722 167.529 41.6064 161.193L49.4818 146.64C49.5915 146.437 49.6228 146.201 49.5697 145.976L49.5652 145.957L42.0594 114.295C42.9331 113.545 43.8627 112.862 44.8403 112.253C46.0235 111.507 47.2689 110.865 48.5626 110.333C50.6277 109.469 52.8162 108.947 55.0422 108.784C54.5085 116.573 53.9915 124.354 53.6154 132.149C53.1708 140.477 52.9349 148.82 52.8206 157.164C52.8164 158.517 52.8099 159.869 52.8035 161.222C52.7701 168.216 52.7366 175.212 53.0197 182.21C53.0493 182.873 53.0778 183.537 53.1063 184.2C53.2574 187.713 53.4083 191.223 53.7116 194.731C53.8243 196.416 54.024 198.1 54.2234 199.781C54.2707 200.179 54.3179 200.577 54.364 200.975ZM55.0422 108.784C55.5662 108.746 56.0924 108.728 56.6195 108.729L55.153 107.169C55.116 107.708 55.0791 108.246 55.0422 108.784ZM42.0594 114.295L41.8802 113.539L41.5465 114.748C41.7152 114.594 41.8862 114.443 42.0594 114.295ZM41.6064 161.193C41.573 161.085 41.5395 160.977 41.506 160.869L41.4531 161.476L41.6064 161.193Z" fill="#111111"/>
<path d="M120.069 166.313L132.362 192.285L66.7214 184.94C54.3777 199.947 64.3491 228.461 64.3491 228.461C64.3491 228.461 151.894 265.866 176.923 251.059C201.342 236.613 151.937 120.676 129.097 114.437" fill="white"/>
<path d="M120.069 166.313L132.362 192.285L66.7214 184.94C54.3777 199.947 64.3491 228.461 64.3491 228.461C64.3491 228.461 151.894 265.866 176.923 251.059C201.342 236.613 151.937 120.676 129.097 114.437" stroke="#111111" stroke-width="3.43356" stroke-linecap="round" stroke-linejoin="round"/>
<path d="M81.6797 35.9676C81.9012 37.1333 82.4072 38.2262 83.1527 39.1492C83.4906 39.5808 84.0997 39.7408 84.1759 40.2479C84.3143 40.9783 84.3546 41.7239 84.2957 42.465C84.2917 42.5892 84.2157 42.6997 84.1011 42.7479C83.2181 43.0966 82.2163 42.9497 81.4706 42.3623C80.7667 41.8703 80.7403 40.9202 80.6047 40.1761C80.3066 38.7084 80.5701 37.1823 81.3432 35.8996C81.3977 35.814 81.5112 35.7887 81.597 35.843C81.6399 35.872 81.6697 35.9168 81.6797 35.9676V35.9676Z" fill="#111111"/>
</g>
</svg>
